M48
INCH,TZ
T1C0.016
T2C0.033
T3C0.040
T4C0.045
T5C0.073
%
G90
G05
T1
X47433Y-48071
X48008Y-23295
X48512Y-21469
X49469Y-47193
X49472Y-43803
X49480Y-42142
X49768Y-26669
X49768Y-27957
X50114Y-45504
X50795Y-24677
X51890Y-21787
X52366Y-25173
T2
X48032Y-20894
X50001Y-20894
T3
X52185Y-27547
X52185Y-28547
X52185Y-29547
X53185Y-27547
X53185Y-28547
X53185Y-29547
T4
X47665Y-19843
X50366Y-19843
T5
X44900Y-22913
X44900Y-44843
X53211Y-22913
X53211Y-44843
T0
M30
