G04 #@! TF.GenerationSoftware,KiCad,Pcbnew,(2017-01-24 revision 0b6147e)-makepkg*
G04 #@! TF.CreationDate,2017-06-09T22:20:51-07:00*
G04 #@! TF.ProjectId,POVSpinner,504F565370696E6E65722E6B69636164,rev?*
G04 #@! TF.FileFunction,Legend,Top*
G04 #@! TF.FilePolarity,Positive*
%FSLAX46Y46*%
G04 Gerber Fmt 4.6, Leading zero omitted, Abs format (unit mm)*
G04 Created by KiCad (PCBNEW (2017-01-24 revision 0b6147e)-makepkg) date 06/09/17 22:20:51*
%MOMM*%
%LPD*%
G01*
G04 APERTURE LIST*
%ADD10C,0.100000*%
%ADD11C,0.150000*%
%ADD12C,0.300000*%
%ADD13C,0.010000*%
%ADD14C,0.127000*%
%ADD15C,0.007620*%
%ADD16C,0.152400*%
%ADD17R,1.000000X1.950000*%
%ADD18C,3.500000*%
%ADD19R,1.650000X1.400000*%
%ADD20R,1.598880X1.598880*%
%ADD21R,1.700000X1.100000*%
%ADD22R,0.901700X1.303020*%
%ADD23R,1.800000X1.600000*%
%ADD24C,1.300000*%
%ADD25C,1.504000*%
%ADD26C,1.650006*%
%ADD27R,2.299920X2.299920*%
%ADD28R,0.652780X1.602740*%
%ADD29C,1.900000*%
%ADD30C,13.100000*%
%ADD31R,2.127200X2.127200*%
%ADD32O,2.127200X2.127200*%
%ADD33R,1.230000X1.030000*%
G04 APERTURE END LIST*
D10*
D11*
X136432380Y-77134285D02*
X136432380Y-77705714D01*
X136432380Y-77420000D02*
X135432380Y-77420000D01*
X135575238Y-77515238D01*
X135670476Y-77610476D01*
X135718095Y-77705714D01*
X136132380Y-102398571D02*
X135465714Y-102398571D01*
X135656190Y-102398571D02*
X135560952Y-102350952D01*
X135513333Y-102303333D01*
X135465714Y-102208095D01*
X135465714Y-102112857D01*
X136084761Y-101398571D02*
X136132380Y-101493809D01*
X136132380Y-101684285D01*
X136084761Y-101779523D01*
X135989523Y-101827142D01*
X135608571Y-101827142D01*
X135513333Y-101779523D01*
X135465714Y-101684285D01*
X135465714Y-101493809D01*
X135513333Y-101398571D01*
X135608571Y-101350952D01*
X135703809Y-101350952D01*
X135799047Y-101827142D01*
X135465714Y-101017619D02*
X136132380Y-100779523D01*
X135465714Y-100541428D01*
X136132380Y-98874761D02*
X136132380Y-99446190D01*
X136132380Y-99160476D02*
X135132380Y-99160476D01*
X135275238Y-99255714D01*
X135370476Y-99350952D01*
X135418095Y-99446190D01*
X136037142Y-98446190D02*
X136084761Y-98398571D01*
X136132380Y-98446190D01*
X136084761Y-98493809D01*
X136037142Y-98446190D01*
X136132380Y-98446190D01*
X136132380Y-97541428D02*
X135608571Y-97541428D01*
X135513333Y-97589047D01*
X135465714Y-97684285D01*
X135465714Y-97874761D01*
X135513333Y-97970000D01*
X136084761Y-97541428D02*
X136132380Y-97636666D01*
X136132380Y-97874761D01*
X136084761Y-97970000D01*
X135989523Y-98017619D01*
X135894285Y-98017619D01*
X135799047Y-97970000D01*
X135751428Y-97874761D01*
X135751428Y-97636666D01*
X135703809Y-97541428D01*
D12*
X134118571Y-110767142D02*
X132618571Y-110767142D01*
X132618571Y-110195714D01*
X132690000Y-110052857D01*
X132761428Y-109981428D01*
X132904285Y-109910000D01*
X133118571Y-109910000D01*
X133261428Y-109981428D01*
X133332857Y-110052857D01*
X133404285Y-110195714D01*
X133404285Y-110767142D01*
X132618571Y-108981428D02*
X132618571Y-108695714D01*
X132690000Y-108552857D01*
X132832857Y-108410000D01*
X133118571Y-108338571D01*
X133618571Y-108338571D01*
X133904285Y-108410000D01*
X134047142Y-108552857D01*
X134118571Y-108695714D01*
X134118571Y-108981428D01*
X134047142Y-109124285D01*
X133904285Y-109267142D01*
X133618571Y-109338571D01*
X133118571Y-109338571D01*
X132832857Y-109267142D01*
X132690000Y-109124285D01*
X132618571Y-108981428D01*
X132618571Y-107910000D02*
X134118571Y-107410000D01*
X132618571Y-106910000D01*
X134047142Y-105338571D02*
X134118571Y-105124285D01*
X134118571Y-104767142D01*
X134047142Y-104624285D01*
X133975714Y-104552857D01*
X133832857Y-104481428D01*
X133690000Y-104481428D01*
X133547142Y-104552857D01*
X133475714Y-104624285D01*
X133404285Y-104767142D01*
X133332857Y-105052857D01*
X133261428Y-105195714D01*
X133190000Y-105267142D01*
X133047142Y-105338571D01*
X132904285Y-105338571D01*
X132761428Y-105267142D01*
X132690000Y-105195714D01*
X132618571Y-105052857D01*
X132618571Y-104695714D01*
X132690000Y-104481428D01*
X133118571Y-103838571D02*
X134618571Y-103838571D01*
X133190000Y-103838571D02*
X133118571Y-103695714D01*
X133118571Y-103410000D01*
X133190000Y-103267142D01*
X133261428Y-103195714D01*
X133404285Y-103124285D01*
X133832857Y-103124285D01*
X133975714Y-103195714D01*
X134047142Y-103267142D01*
X134118571Y-103410000D01*
X134118571Y-103695714D01*
X134047142Y-103838571D01*
X134118571Y-102481428D02*
X133118571Y-102481428D01*
X132618571Y-102481428D02*
X132690000Y-102552857D01*
X132761428Y-102481428D01*
X132690000Y-102410000D01*
X132618571Y-102481428D01*
X132761428Y-102481428D01*
X133118571Y-101767142D02*
X134118571Y-101767142D01*
X133261428Y-101767142D02*
X133190000Y-101695714D01*
X133118571Y-101552857D01*
X133118571Y-101338571D01*
X133190000Y-101195714D01*
X133332857Y-101124285D01*
X134118571Y-101124285D01*
X133118571Y-100410000D02*
X134118571Y-100410000D01*
X133261428Y-100410000D02*
X133190000Y-100338571D01*
X133118571Y-100195714D01*
X133118571Y-99981428D01*
X133190000Y-99838571D01*
X133332857Y-99767142D01*
X134118571Y-99767142D01*
X134047142Y-98481428D02*
X134118571Y-98624285D01*
X134118571Y-98910000D01*
X134047142Y-99052857D01*
X133904285Y-99124285D01*
X133332857Y-99124285D01*
X133190000Y-99052857D01*
X133118571Y-98910000D01*
X133118571Y-98624285D01*
X133190000Y-98481428D01*
X133332857Y-98410000D01*
X133475714Y-98410000D01*
X133618571Y-99124285D01*
X134118571Y-97767142D02*
X133118571Y-97767142D01*
X133404285Y-97767142D02*
X133261428Y-97695714D01*
X133190000Y-97624285D01*
X133118571Y-97481428D01*
X133118571Y-97338571D01*
D11*
X130712380Y-73416190D02*
X129712380Y-73416190D01*
X130664761Y-72987619D02*
X130712380Y-72844761D01*
X130712380Y-72606666D01*
X130664761Y-72511428D01*
X130617142Y-72463809D01*
X130521904Y-72416190D01*
X130426666Y-72416190D01*
X130331428Y-72463809D01*
X130283809Y-72511428D01*
X130236190Y-72606666D01*
X130188571Y-72797142D01*
X130140952Y-72892380D01*
X130093333Y-72940000D01*
X129998095Y-72987619D01*
X129902857Y-72987619D01*
X129807619Y-72940000D01*
X129760000Y-72892380D01*
X129712380Y-72797142D01*
X129712380Y-72559047D01*
X129760000Y-72416190D01*
X130712380Y-71987619D02*
X129712380Y-71987619D01*
X129712380Y-71606666D01*
X129760000Y-71511428D01*
X129807619Y-71463809D01*
X129902857Y-71416190D01*
X130045714Y-71416190D01*
X130140952Y-71463809D01*
X130188571Y-71511428D01*
X130236190Y-71606666D01*
X130236190Y-71987619D01*
X112192380Y-104797619D02*
X112192380Y-104607142D01*
X112240000Y-104511904D01*
X112335238Y-104416666D01*
X112525714Y-104369047D01*
X112859047Y-104369047D01*
X113049523Y-104416666D01*
X113144761Y-104511904D01*
X113192380Y-104607142D01*
X113192380Y-104797619D01*
X113144761Y-104892857D01*
X113049523Y-104988095D01*
X112859047Y-105035714D01*
X112525714Y-105035714D01*
X112335238Y-104988095D01*
X112240000Y-104892857D01*
X112192380Y-104797619D01*
X113192380Y-103940476D02*
X112192380Y-103940476D01*
X113192380Y-103369047D01*
X112192380Y-103369047D01*
X112192380Y-96607142D02*
X112192380Y-96416666D01*
X112240000Y-96321428D01*
X112335238Y-96226190D01*
X112525714Y-96178571D01*
X112859047Y-96178571D01*
X113049523Y-96226190D01*
X113144761Y-96321428D01*
X113192380Y-96416666D01*
X113192380Y-96607142D01*
X113144761Y-96702380D01*
X113049523Y-96797619D01*
X112859047Y-96845238D01*
X112525714Y-96845238D01*
X112335238Y-96797619D01*
X112240000Y-96702380D01*
X112192380Y-96607142D01*
X112668571Y-95416666D02*
X112668571Y-95750000D01*
X113192380Y-95750000D02*
X112192380Y-95750000D01*
X112192380Y-95273809D01*
X112668571Y-94559523D02*
X112668571Y-94892857D01*
X113192380Y-94892857D02*
X112192380Y-94892857D01*
X112192380Y-94416666D01*
X133512380Y-60232380D02*
X133036190Y-60565714D01*
X133512380Y-60803809D02*
X132512380Y-60803809D01*
X132512380Y-60422857D01*
X132560000Y-60327619D01*
X132607619Y-60280000D01*
X132702857Y-60232380D01*
X132845714Y-60232380D01*
X132940952Y-60280000D01*
X132988571Y-60327619D01*
X133036190Y-60422857D01*
X133036190Y-60803809D01*
X132988571Y-59803809D02*
X132988571Y-59470476D01*
X133512380Y-59327619D02*
X133512380Y-59803809D01*
X132512380Y-59803809D01*
X132512380Y-59327619D01*
X133464761Y-58946666D02*
X133512380Y-58803809D01*
X133512380Y-58565714D01*
X133464761Y-58470476D01*
X133417142Y-58422857D01*
X133321904Y-58375238D01*
X133226666Y-58375238D01*
X133131428Y-58422857D01*
X133083809Y-58470476D01*
X133036190Y-58565714D01*
X132988571Y-58756190D01*
X132940952Y-58851428D01*
X132893333Y-58899047D01*
X132798095Y-58946666D01*
X132702857Y-58946666D01*
X132607619Y-58899047D01*
X132560000Y-58851428D01*
X132512380Y-58756190D01*
X132512380Y-58518095D01*
X132560000Y-58375238D01*
X132988571Y-57946666D02*
X132988571Y-57613333D01*
X133512380Y-57470476D02*
X133512380Y-57946666D01*
X132512380Y-57946666D01*
X132512380Y-57470476D01*
X132512380Y-57184761D02*
X132512380Y-56613333D01*
X133512380Y-56899047D02*
X132512380Y-56899047D01*
X127075000Y-61325000D02*
X126930000Y-61325000D01*
X127075000Y-65475000D02*
X126930000Y-65475000D01*
X121925000Y-65475000D02*
X122070000Y-65475000D01*
X121925000Y-61325000D02*
X122070000Y-61325000D01*
X127075000Y-61325000D02*
X127075000Y-65475000D01*
X121925000Y-61325000D02*
X121925000Y-65475000D01*
X126930000Y-61325000D02*
X126930000Y-59925000D01*
D13*
G36*
X114642333Y-84423284D02*
X115090432Y-84337041D01*
X115527187Y-84250559D01*
X115898126Y-84174757D01*
X116120665Y-84126951D01*
X116582997Y-84023000D01*
X116985915Y-83091666D01*
X117143126Y-82721412D01*
X117272089Y-82404632D01*
X117359342Y-82175307D01*
X117391417Y-82067992D01*
X117345893Y-81970820D01*
X117218298Y-81760823D01*
X117024820Y-81463087D01*
X116781643Y-81102697D01*
X116589667Y-80825366D01*
X116321453Y-80437856D01*
X116091164Y-80097627D01*
X115914968Y-79829178D01*
X115809031Y-79657005D01*
X115785333Y-79606645D01*
X115842849Y-79521825D01*
X115999065Y-79345183D01*
X116229482Y-79101071D01*
X116509602Y-78813840D01*
X116814926Y-78507841D01*
X117120956Y-78207425D01*
X117403193Y-77936943D01*
X117637138Y-77720746D01*
X117798294Y-77583185D01*
X117858343Y-77546119D01*
X117954653Y-77591015D01*
X118165511Y-77715031D01*
X118465296Y-77902283D01*
X118828384Y-78136885D01*
X119087333Y-78308000D01*
X119482514Y-78565834D01*
X119836356Y-78786353D01*
X120121805Y-78953497D01*
X120311811Y-79051205D01*
X120370618Y-79069881D01*
X120499541Y-79038042D01*
X120743346Y-78953167D01*
X121062664Y-78831368D01*
X121418122Y-78688759D01*
X121770352Y-78541450D01*
X122079981Y-78405554D01*
X122307639Y-78297184D01*
X122412129Y-78234404D01*
X122450575Y-78131888D01*
X122512669Y-77893006D01*
X122591376Y-77547924D01*
X122679662Y-77126806D01*
X122731387Y-76865279D01*
X122822112Y-76414216D01*
X122907450Y-76021883D01*
X122980321Y-75718503D01*
X123033648Y-75534301D01*
X123052512Y-75494287D01*
X123155986Y-75473019D01*
X123399826Y-75457098D01*
X123755125Y-75447384D01*
X124192974Y-75444739D01*
X124592614Y-75448437D01*
X126063636Y-75471666D01*
X126322518Y-76826271D01*
X126581399Y-78180875D01*
X127705309Y-78625188D01*
X128829218Y-79069500D01*
X129975154Y-78302543D01*
X130364897Y-78046294D01*
X130707553Y-77829678D01*
X130977882Y-77667967D01*
X131150647Y-77576428D01*
X131199252Y-77561959D01*
X131290528Y-77628549D01*
X131474510Y-77787865D01*
X131726403Y-78016335D01*
X132021411Y-78290389D01*
X132334736Y-78586452D01*
X132641583Y-78880954D01*
X132917155Y-79150321D01*
X133136656Y-79370983D01*
X133275289Y-79519366D01*
X133311333Y-79569761D01*
X133264806Y-79657513D01*
X133136360Y-79857896D01*
X132942699Y-80145893D01*
X132700527Y-80496487D01*
X132541064Y-80723404D01*
X131770794Y-81812768D01*
X132048688Y-82387203D01*
X132177061Y-82666247D01*
X132263411Y-82880938D01*
X132292011Y-82991480D01*
X132289791Y-82997266D01*
X132201293Y-83040844D01*
X131987304Y-83133323D01*
X131679752Y-83261218D01*
X131310568Y-83411040D01*
X131303608Y-83413833D01*
X130354216Y-83794773D01*
X130001306Y-83146886D01*
X129605211Y-82541374D01*
X129091401Y-81938011D01*
X128503217Y-81378786D01*
X127884002Y-80905683D01*
X127384667Y-80612042D01*
X126398338Y-80209988D01*
X125391968Y-79974495D01*
X124376029Y-79905563D01*
X123360992Y-80003194D01*
X122357329Y-80267385D01*
X121542667Y-80612042D01*
X120980190Y-80951700D01*
X120399907Y-81405097D01*
X119845293Y-81930707D01*
X119359818Y-82487004D01*
X118986956Y-83032464D01*
X118961540Y-83077557D01*
X118537995Y-84009547D01*
X118274079Y-84970910D01*
X118167120Y-85944709D01*
X118214448Y-86914009D01*
X118413392Y-87861874D01*
X118761280Y-88771367D01*
X119255442Y-89625552D01*
X119893206Y-90407494D01*
X120158823Y-90669333D01*
X120750857Y-91170717D01*
X121347143Y-91562971D01*
X122011605Y-91884688D01*
X122451884Y-92053623D01*
X122750240Y-92156566D01*
X122997865Y-92228615D01*
X123236567Y-92275258D01*
X123508156Y-92301985D01*
X123854442Y-92314283D01*
X124317234Y-92317641D01*
X124463667Y-92317727D01*
X124964077Y-92315809D01*
X125336977Y-92306397D01*
X125624173Y-92284001D01*
X125867478Y-92243132D01*
X126108699Y-92178303D01*
X126389648Y-92084024D01*
X126475449Y-92053623D01*
X127193220Y-91762623D01*
X127806610Y-91426886D01*
X128380495Y-91006795D01*
X128803161Y-90632201D01*
X129072846Y-90353870D01*
X129359529Y-90017240D01*
X129640741Y-89653854D01*
X129894015Y-89295251D01*
X130096883Y-88972974D01*
X130226877Y-88718564D01*
X130263333Y-88582369D01*
X130314272Y-88451380D01*
X130336233Y-88432939D01*
X130442988Y-88443559D01*
X130665017Y-88510010D01*
X130964025Y-88616772D01*
X131301718Y-88748327D01*
X131639801Y-88889157D01*
X131939981Y-89023742D01*
X132163963Y-89136565D01*
X132273453Y-89212106D01*
X132277806Y-89219752D01*
X132254590Y-89336799D01*
X132163292Y-89549615D01*
X132040162Y-89782379D01*
X131906563Y-90042418D01*
X131825293Y-90253610D01*
X131813012Y-90360130D01*
X131874749Y-90464608D01*
X132016702Y-90679323D01*
X132220324Y-90976964D01*
X132467071Y-91330219D01*
X132582929Y-91493987D01*
X132838039Y-91855034D01*
X133054140Y-92164343D01*
X133214097Y-92397116D01*
X133300779Y-92528557D01*
X133311333Y-92548270D01*
X133254425Y-92614321D01*
X133096558Y-92779833D01*
X132857017Y-93025038D01*
X132555090Y-93330171D01*
X132264038Y-93621655D01*
X131216743Y-94666435D01*
X130064941Y-93895551D01*
X129673704Y-93636767D01*
X129329638Y-93414964D01*
X129058007Y-93245972D01*
X128884075Y-93145621D01*
X128834600Y-93124666D01*
X128709486Y-93155645D01*
X128467419Y-93238546D01*
X128146077Y-93358313D01*
X127783136Y-93499894D01*
X127416273Y-93648234D01*
X127083165Y-93788279D01*
X126821488Y-93904975D01*
X126668919Y-93983267D01*
X126649170Y-93997875D01*
X126598021Y-94114025D01*
X126526559Y-94363988D01*
X126443073Y-94714677D01*
X126355853Y-95133007D01*
X126327026Y-95283666D01*
X126243932Y-95722248D01*
X126168508Y-96109703D01*
X126107668Y-96411284D01*
X126068321Y-96592245D01*
X126061372Y-96619094D01*
X126033142Y-96672952D01*
X125969121Y-96711471D01*
X125845619Y-96736603D01*
X125638946Y-96750302D01*
X125325415Y-96754520D01*
X124881334Y-96751212D01*
X124520849Y-96746094D01*
X123024333Y-96723000D01*
X122832349Y-95749333D01*
X122746056Y-95312329D01*
X122662240Y-94888984D01*
X122591790Y-94534238D01*
X122553294Y-94341353D01*
X122466224Y-93907040D01*
X121432005Y-93473520D01*
X121043926Y-93312765D01*
X120712240Y-93178984D01*
X120467990Y-93084430D01*
X120342215Y-93041358D01*
X120333911Y-93040000D01*
X120245740Y-93084826D01*
X120041626Y-93209006D01*
X119745934Y-93397097D01*
X119383031Y-93633654D01*
X119071472Y-93840215D01*
X117872908Y-94640431D01*
X117146621Y-93974505D01*
X116676791Y-93539479D01*
X116322742Y-93200419D01*
X116071710Y-92943061D01*
X115910932Y-92753144D01*
X115827644Y-92616404D01*
X115809082Y-92518579D01*
X115816515Y-92488196D01*
X115882251Y-92372794D01*
X116028024Y-92147067D01*
X116235482Y-91838506D01*
X116486275Y-91474603D01*
X116632199Y-91266270D01*
X116893782Y-90889526D01*
X117116613Y-90558329D01*
X117283876Y-90298499D01*
X117378754Y-90135855D01*
X117394000Y-90096690D01*
X117362767Y-89993463D01*
X117279673Y-89773327D01*
X117160626Y-89474554D01*
X117021535Y-89135416D01*
X116878308Y-88794186D01*
X116746852Y-88489135D01*
X116643076Y-88258536D01*
X116582888Y-88140661D01*
X116578661Y-88135130D01*
X116488356Y-88108875D01*
X116258817Y-88058680D01*
X115917556Y-87990099D01*
X115492085Y-87908687D01*
X115085575Y-87833693D01*
X113626333Y-87568791D01*
X113626333Y-84615666D01*
X114642333Y-84423284D01*
X114642333Y-84423284D01*
G37*
X114642333Y-84423284D02*
X115090432Y-84337041D01*
X115527187Y-84250559D01*
X115898126Y-84174757D01*
X116120665Y-84126951D01*
X116582997Y-84023000D01*
X116985915Y-83091666D01*
X117143126Y-82721412D01*
X117272089Y-82404632D01*
X117359342Y-82175307D01*
X117391417Y-82067992D01*
X117345893Y-81970820D01*
X117218298Y-81760823D01*
X117024820Y-81463087D01*
X116781643Y-81102697D01*
X116589667Y-80825366D01*
X116321453Y-80437856D01*
X116091164Y-80097627D01*
X115914968Y-79829178D01*
X115809031Y-79657005D01*
X115785333Y-79606645D01*
X115842849Y-79521825D01*
X115999065Y-79345183D01*
X116229482Y-79101071D01*
X116509602Y-78813840D01*
X116814926Y-78507841D01*
X117120956Y-78207425D01*
X117403193Y-77936943D01*
X117637138Y-77720746D01*
X117798294Y-77583185D01*
X117858343Y-77546119D01*
X117954653Y-77591015D01*
X118165511Y-77715031D01*
X118465296Y-77902283D01*
X118828384Y-78136885D01*
X119087333Y-78308000D01*
X119482514Y-78565834D01*
X119836356Y-78786353D01*
X120121805Y-78953497D01*
X120311811Y-79051205D01*
X120370618Y-79069881D01*
X120499541Y-79038042D01*
X120743346Y-78953167D01*
X121062664Y-78831368D01*
X121418122Y-78688759D01*
X121770352Y-78541450D01*
X122079981Y-78405554D01*
X122307639Y-78297184D01*
X122412129Y-78234404D01*
X122450575Y-78131888D01*
X122512669Y-77893006D01*
X122591376Y-77547924D01*
X122679662Y-77126806D01*
X122731387Y-76865279D01*
X122822112Y-76414216D01*
X122907450Y-76021883D01*
X122980321Y-75718503D01*
X123033648Y-75534301D01*
X123052512Y-75494287D01*
X123155986Y-75473019D01*
X123399826Y-75457098D01*
X123755125Y-75447384D01*
X124192974Y-75444739D01*
X124592614Y-75448437D01*
X126063636Y-75471666D01*
X126322518Y-76826271D01*
X126581399Y-78180875D01*
X127705309Y-78625188D01*
X128829218Y-79069500D01*
X129975154Y-78302543D01*
X130364897Y-78046294D01*
X130707553Y-77829678D01*
X130977882Y-77667967D01*
X131150647Y-77576428D01*
X131199252Y-77561959D01*
X131290528Y-77628549D01*
X131474510Y-77787865D01*
X131726403Y-78016335D01*
X132021411Y-78290389D01*
X132334736Y-78586452D01*
X132641583Y-78880954D01*
X132917155Y-79150321D01*
X133136656Y-79370983D01*
X133275289Y-79519366D01*
X133311333Y-79569761D01*
X133264806Y-79657513D01*
X133136360Y-79857896D01*
X132942699Y-80145893D01*
X132700527Y-80496487D01*
X132541064Y-80723404D01*
X131770794Y-81812768D01*
X132048688Y-82387203D01*
X132177061Y-82666247D01*
X132263411Y-82880938D01*
X132292011Y-82991480D01*
X132289791Y-82997266D01*
X132201293Y-83040844D01*
X131987304Y-83133323D01*
X131679752Y-83261218D01*
X131310568Y-83411040D01*
X131303608Y-83413833D01*
X130354216Y-83794773D01*
X130001306Y-83146886D01*
X129605211Y-82541374D01*
X129091401Y-81938011D01*
X128503217Y-81378786D01*
X127884002Y-80905683D01*
X127384667Y-80612042D01*
X126398338Y-80209988D01*
X125391968Y-79974495D01*
X124376029Y-79905563D01*
X123360992Y-80003194D01*
X122357329Y-80267385D01*
X121542667Y-80612042D01*
X120980190Y-80951700D01*
X120399907Y-81405097D01*
X119845293Y-81930707D01*
X119359818Y-82487004D01*
X118986956Y-83032464D01*
X118961540Y-83077557D01*
X118537995Y-84009547D01*
X118274079Y-84970910D01*
X118167120Y-85944709D01*
X118214448Y-86914009D01*
X118413392Y-87861874D01*
X118761280Y-88771367D01*
X119255442Y-89625552D01*
X119893206Y-90407494D01*
X120158823Y-90669333D01*
X120750857Y-91170717D01*
X121347143Y-91562971D01*
X122011605Y-91884688D01*
X122451884Y-92053623D01*
X122750240Y-92156566D01*
X122997865Y-92228615D01*
X123236567Y-92275258D01*
X123508156Y-92301985D01*
X123854442Y-92314283D01*
X124317234Y-92317641D01*
X124463667Y-92317727D01*
X124964077Y-92315809D01*
X125336977Y-92306397D01*
X125624173Y-92284001D01*
X125867478Y-92243132D01*
X126108699Y-92178303D01*
X126389648Y-92084024D01*
X126475449Y-92053623D01*
X127193220Y-91762623D01*
X127806610Y-91426886D01*
X128380495Y-91006795D01*
X128803161Y-90632201D01*
X129072846Y-90353870D01*
X129359529Y-90017240D01*
X129640741Y-89653854D01*
X129894015Y-89295251D01*
X130096883Y-88972974D01*
X130226877Y-88718564D01*
X130263333Y-88582369D01*
X130314272Y-88451380D01*
X130336233Y-88432939D01*
X130442988Y-88443559D01*
X130665017Y-88510010D01*
X130964025Y-88616772D01*
X131301718Y-88748327D01*
X131639801Y-88889157D01*
X131939981Y-89023742D01*
X132163963Y-89136565D01*
X132273453Y-89212106D01*
X132277806Y-89219752D01*
X132254590Y-89336799D01*
X132163292Y-89549615D01*
X132040162Y-89782379D01*
X131906563Y-90042418D01*
X131825293Y-90253610D01*
X131813012Y-90360130D01*
X131874749Y-90464608D01*
X132016702Y-90679323D01*
X132220324Y-90976964D01*
X132467071Y-91330219D01*
X132582929Y-91493987D01*
X132838039Y-91855034D01*
X133054140Y-92164343D01*
X133214097Y-92397116D01*
X133300779Y-92528557D01*
X133311333Y-92548270D01*
X133254425Y-92614321D01*
X133096558Y-92779833D01*
X132857017Y-93025038D01*
X132555090Y-93330171D01*
X132264038Y-93621655D01*
X131216743Y-94666435D01*
X130064941Y-93895551D01*
X129673704Y-93636767D01*
X129329638Y-93414964D01*
X129058007Y-93245972D01*
X128884075Y-93145621D01*
X128834600Y-93124666D01*
X128709486Y-93155645D01*
X128467419Y-93238546D01*
X128146077Y-93358313D01*
X127783136Y-93499894D01*
X127416273Y-93648234D01*
X127083165Y-93788279D01*
X126821488Y-93904975D01*
X126668919Y-93983267D01*
X126649170Y-93997875D01*
X126598021Y-94114025D01*
X126526559Y-94363988D01*
X126443073Y-94714677D01*
X126355853Y-95133007D01*
X126327026Y-95283666D01*
X126243932Y-95722248D01*
X126168508Y-96109703D01*
X126107668Y-96411284D01*
X126068321Y-96592245D01*
X126061372Y-96619094D01*
X126033142Y-96672952D01*
X125969121Y-96711471D01*
X125845619Y-96736603D01*
X125638946Y-96750302D01*
X125325415Y-96754520D01*
X124881334Y-96751212D01*
X124520849Y-96746094D01*
X123024333Y-96723000D01*
X122832349Y-95749333D01*
X122746056Y-95312329D01*
X122662240Y-94888984D01*
X122591790Y-94534238D01*
X122553294Y-94341353D01*
X122466224Y-93907040D01*
X121432005Y-93473520D01*
X121043926Y-93312765D01*
X120712240Y-93178984D01*
X120467990Y-93084430D01*
X120342215Y-93041358D01*
X120333911Y-93040000D01*
X120245740Y-93084826D01*
X120041626Y-93209006D01*
X119745934Y-93397097D01*
X119383031Y-93633654D01*
X119071472Y-93840215D01*
X117872908Y-94640431D01*
X117146621Y-93974505D01*
X116676791Y-93539479D01*
X116322742Y-93200419D01*
X116071710Y-92943061D01*
X115910932Y-92753144D01*
X115827644Y-92616404D01*
X115809082Y-92518579D01*
X115816515Y-92488196D01*
X115882251Y-92372794D01*
X116028024Y-92147067D01*
X116235482Y-91838506D01*
X116486275Y-91474603D01*
X116632199Y-91266270D01*
X116893782Y-90889526D01*
X117116613Y-90558329D01*
X117283876Y-90298499D01*
X117378754Y-90135855D01*
X117394000Y-90096690D01*
X117362767Y-89993463D01*
X117279673Y-89773327D01*
X117160626Y-89474554D01*
X117021535Y-89135416D01*
X116878308Y-88794186D01*
X116746852Y-88489135D01*
X116643076Y-88258536D01*
X116582888Y-88140661D01*
X116578661Y-88135130D01*
X116488356Y-88108875D01*
X116258817Y-88058680D01*
X115917556Y-87990099D01*
X115492085Y-87908687D01*
X115085575Y-87833693D01*
X113626333Y-87568791D01*
X113626333Y-84615666D01*
X114642333Y-84423284D01*
D11*
X128200000Y-64430000D02*
X128200000Y-65430000D01*
X129900000Y-65430000D02*
X129900000Y-64430000D01*
X132480000Y-65420000D02*
X132480000Y-64420000D01*
X130780000Y-64420000D02*
X130780000Y-65420000D01*
X124150000Y-123700000D02*
X124150000Y-121000000D01*
X122650000Y-123700000D02*
X122650000Y-121000000D01*
X123550000Y-122200000D02*
X123300000Y-122200000D01*
X123300000Y-122200000D02*
X123450000Y-122350000D01*
X123050000Y-122450000D02*
X123750000Y-122450000D01*
X123400000Y-122100000D02*
X123400000Y-121750000D01*
X123400000Y-122450000D02*
X123050000Y-122100000D01*
X123050000Y-122100000D02*
X123750000Y-122100000D01*
X123750000Y-122100000D02*
X123400000Y-122450000D01*
X123750000Y-117800000D02*
X123400000Y-118150000D01*
X123050000Y-117800000D02*
X123750000Y-117800000D01*
X123400000Y-118150000D02*
X123050000Y-117800000D01*
X123400000Y-117800000D02*
X123400000Y-117450000D01*
X123050000Y-118150000D02*
X123750000Y-118150000D01*
X123300000Y-117900000D02*
X123450000Y-118050000D01*
X123550000Y-117900000D02*
X123300000Y-117900000D01*
X122650000Y-119400000D02*
X122650000Y-116700000D01*
X124150000Y-119400000D02*
X124150000Y-116700000D01*
X124150000Y-115100000D02*
X124150000Y-112400000D01*
X122650000Y-115100000D02*
X122650000Y-112400000D01*
X123550000Y-113600000D02*
X123300000Y-113600000D01*
X123300000Y-113600000D02*
X123450000Y-113750000D01*
X123050000Y-113850000D02*
X123750000Y-113850000D01*
X123400000Y-113500000D02*
X123400000Y-113150000D01*
X123400000Y-113850000D02*
X123050000Y-113500000D01*
X123050000Y-113500000D02*
X123750000Y-113500000D01*
X123750000Y-113500000D02*
X123400000Y-113850000D01*
X123750000Y-109200000D02*
X123400000Y-109550000D01*
X123050000Y-109200000D02*
X123750000Y-109200000D01*
X123400000Y-109550000D02*
X123050000Y-109200000D01*
X123400000Y-109200000D02*
X123400000Y-108850000D01*
X123050000Y-109550000D02*
X123750000Y-109550000D01*
X123300000Y-109300000D02*
X123450000Y-109450000D01*
X123550000Y-109300000D02*
X123300000Y-109300000D01*
X122650000Y-110800000D02*
X122650000Y-108100000D01*
X124150000Y-110800000D02*
X124150000Y-108100000D01*
X124150000Y-106500000D02*
X124150000Y-103800000D01*
X122650000Y-106500000D02*
X122650000Y-103800000D01*
X123550000Y-105000000D02*
X123300000Y-105000000D01*
X123300000Y-105000000D02*
X123450000Y-105150000D01*
X123050000Y-105250000D02*
X123750000Y-105250000D01*
X123400000Y-104900000D02*
X123400000Y-104550000D01*
X123400000Y-105250000D02*
X123050000Y-104900000D01*
X123050000Y-104900000D02*
X123750000Y-104900000D01*
X123750000Y-104900000D02*
X123400000Y-105250000D01*
X126675000Y-56500000D02*
X126675000Y-57700000D01*
X124925000Y-57700000D02*
X124925000Y-56500000D01*
X122325000Y-57700000D02*
X122325000Y-56500000D01*
X124075000Y-56500000D02*
X124075000Y-57700000D01*
X126675000Y-121500000D02*
X126675000Y-122700000D01*
X124925000Y-122700000D02*
X124925000Y-121500000D01*
X124925000Y-118400000D02*
X124925000Y-117200000D01*
X126675000Y-117200000D02*
X126675000Y-118400000D01*
X126675000Y-112900000D02*
X126675000Y-114100000D01*
X124925000Y-114100000D02*
X124925000Y-112900000D01*
X124925000Y-109800000D02*
X124925000Y-108600000D01*
X126675000Y-108600000D02*
X126675000Y-109800000D01*
X126675000Y-104300000D02*
X126675000Y-105500000D01*
X124925000Y-105500000D02*
X124925000Y-104300000D01*
D14*
X132337660Y-55820920D02*
X132337660Y-61419080D01*
X132337660Y-61419080D02*
X129142340Y-61419080D01*
X129142340Y-61419080D02*
X129142340Y-55820920D01*
X129142340Y-55820920D02*
X132337660Y-55820920D01*
X131938880Y-57421120D02*
X131938880Y-58620000D01*
X131938880Y-58620000D02*
X131938880Y-59818880D01*
X129541120Y-57421120D02*
X129541120Y-58620000D01*
X129541120Y-58620000D02*
X129541120Y-59818880D01*
X129541120Y-58620000D02*
X130140560Y-58620000D01*
X131938880Y-58620000D02*
X131339440Y-58620000D01*
X130140560Y-58620000D02*
X131138780Y-58221220D01*
D11*
X114472000Y-95682000D02*
X114472000Y-96698000D01*
X114472000Y-98222000D02*
X114472000Y-101778000D01*
X118028000Y-104318000D02*
X118028000Y-100635000D01*
X114472000Y-104318000D02*
X118028000Y-104318000D01*
X114472000Y-103175000D02*
X114472000Y-104318000D01*
X118028000Y-95682000D02*
X114472000Y-95682000D01*
X118028000Y-99365000D02*
X118028000Y-95682000D01*
D15*
X128048380Y-50750980D02*
X128048380Y-50052480D01*
D14*
X119420000Y-53097940D02*
X119420000Y-48945040D01*
X120420760Y-54098700D02*
X119420000Y-53097940D01*
X128579240Y-54098700D02*
X120420760Y-54098700D01*
X129580000Y-53097940D02*
X128579240Y-54098700D01*
X129580000Y-48945040D02*
X129580000Y-53097940D01*
X129580000Y-48945040D02*
X119420000Y-48945040D01*
D11*
X130956895Y-86080000D02*
G75*
G03X130956895Y-86080000I-6406895J0D01*
G01*
X136360000Y-73780000D02*
X136360000Y-68700000D01*
X136640000Y-76600000D02*
X135090000Y-76600000D01*
X133820000Y-76320000D02*
X133820000Y-73780000D01*
X133820000Y-73780000D02*
X136360000Y-73780000D01*
X136360000Y-68700000D02*
X131280000Y-68700000D01*
X131280000Y-68700000D02*
X131280000Y-73780000D01*
X136640000Y-76600000D02*
X136640000Y-75050000D01*
X131280000Y-76320000D02*
X133820000Y-76320000D01*
X131280000Y-73780000D02*
X131280000Y-76320000D01*
X114050000Y-92400000D02*
X114050000Y-92150000D01*
X114050000Y-92900000D02*
X114050000Y-93150000D01*
X114050000Y-92900000D02*
X113700000Y-92400000D01*
X113700000Y-92400000D02*
X114400000Y-92400000D01*
X114400000Y-92400000D02*
X114050000Y-92900000D01*
X113700000Y-92900000D02*
X114400000Y-92900000D01*
X114850000Y-93793000D02*
X114850000Y-91393000D01*
X113250000Y-93793000D02*
X113250000Y-91393000D01*
X114800000Y-106257000D02*
X114800000Y-108657000D01*
X113200000Y-106257000D02*
X113200000Y-108657000D01*
X114350000Y-107150000D02*
X113650000Y-107150000D01*
X113650000Y-107650000D02*
X114000000Y-107150000D01*
X114350000Y-107650000D02*
X113650000Y-107650000D01*
X114000000Y-107150000D02*
X114350000Y-107650000D01*
X114000000Y-107150000D02*
X114000000Y-106900000D01*
X114000000Y-107650000D02*
X114000000Y-107900000D01*
X120452380Y-64161904D02*
X121261904Y-64161904D01*
X121357142Y-64114285D01*
X121404761Y-64066666D01*
X121452380Y-63971428D01*
X121452380Y-63780952D01*
X121404761Y-63685714D01*
X121357142Y-63638095D01*
X121261904Y-63590476D01*
X120452380Y-63590476D01*
X121452380Y-62590476D02*
X121452380Y-63161904D01*
X121452380Y-62876190D02*
X120452380Y-62876190D01*
X120595238Y-62971428D01*
X120690476Y-63066666D01*
X120738095Y-63161904D01*
X129447142Y-67816666D02*
X129494761Y-67864285D01*
X129542380Y-68007142D01*
X129542380Y-68102380D01*
X129494761Y-68245238D01*
X129399523Y-68340476D01*
X129304285Y-68388095D01*
X129113809Y-68435714D01*
X128970952Y-68435714D01*
X128780476Y-68388095D01*
X128685238Y-68340476D01*
X128590000Y-68245238D01*
X128542380Y-68102380D01*
X128542380Y-68007142D01*
X128590000Y-67864285D01*
X128637619Y-67816666D01*
X129542380Y-66864285D02*
X129542380Y-67435714D01*
X129542380Y-67150000D02*
X128542380Y-67150000D01*
X128685238Y-67245238D01*
X128780476Y-67340476D01*
X128828095Y-67435714D01*
X131987142Y-67816666D02*
X132034761Y-67864285D01*
X132082380Y-68007142D01*
X132082380Y-68102380D01*
X132034761Y-68245238D01*
X131939523Y-68340476D01*
X131844285Y-68388095D01*
X131653809Y-68435714D01*
X131510952Y-68435714D01*
X131320476Y-68388095D01*
X131225238Y-68340476D01*
X131130000Y-68245238D01*
X131082380Y-68102380D01*
X131082380Y-68007142D01*
X131130000Y-67864285D01*
X131177619Y-67816666D01*
X131177619Y-67435714D02*
X131130000Y-67388095D01*
X131082380Y-67292857D01*
X131082380Y-67054761D01*
X131130000Y-66959523D01*
X131177619Y-66911904D01*
X131272857Y-66864285D01*
X131368095Y-66864285D01*
X131510952Y-66911904D01*
X132082380Y-67483333D01*
X132082380Y-66864285D01*
X122102380Y-123219047D02*
X122102380Y-123695238D01*
X121102380Y-123695238D01*
X121578571Y-122885714D02*
X121578571Y-122552380D01*
X122102380Y-122409523D02*
X122102380Y-122885714D01*
X121102380Y-122885714D01*
X121102380Y-122409523D01*
X122102380Y-121980952D02*
X121102380Y-121980952D01*
X121102380Y-121742857D01*
X121150000Y-121600000D01*
X121245238Y-121504761D01*
X121340476Y-121457142D01*
X121530952Y-121409523D01*
X121673809Y-121409523D01*
X121864285Y-121457142D01*
X121959523Y-121504761D01*
X122054761Y-121600000D01*
X122102380Y-121742857D01*
X122102380Y-121980952D01*
X122102380Y-120457142D02*
X122102380Y-121028571D01*
X122102380Y-120742857D02*
X121102380Y-120742857D01*
X121245238Y-120838095D01*
X121340476Y-120933333D01*
X121388095Y-121028571D01*
X122102380Y-118919047D02*
X122102380Y-119395238D01*
X121102380Y-119395238D01*
X121578571Y-118585714D02*
X121578571Y-118252380D01*
X122102380Y-118109523D02*
X122102380Y-118585714D01*
X121102380Y-118585714D01*
X121102380Y-118109523D01*
X122102380Y-117680952D02*
X121102380Y-117680952D01*
X121102380Y-117442857D01*
X121150000Y-117300000D01*
X121245238Y-117204761D01*
X121340476Y-117157142D01*
X121530952Y-117109523D01*
X121673809Y-117109523D01*
X121864285Y-117157142D01*
X121959523Y-117204761D01*
X122054761Y-117300000D01*
X122102380Y-117442857D01*
X122102380Y-117680952D01*
X121197619Y-116728571D02*
X121150000Y-116680952D01*
X121102380Y-116585714D01*
X121102380Y-116347619D01*
X121150000Y-116252380D01*
X121197619Y-116204761D01*
X121292857Y-116157142D01*
X121388095Y-116157142D01*
X121530952Y-116204761D01*
X122102380Y-116776190D01*
X122102380Y-116157142D01*
X122102380Y-114619047D02*
X122102380Y-115095238D01*
X121102380Y-115095238D01*
X121578571Y-114285714D02*
X121578571Y-113952380D01*
X122102380Y-113809523D02*
X122102380Y-114285714D01*
X121102380Y-114285714D01*
X121102380Y-113809523D01*
X122102380Y-113380952D02*
X121102380Y-113380952D01*
X121102380Y-113142857D01*
X121150000Y-113000000D01*
X121245238Y-112904761D01*
X121340476Y-112857142D01*
X121530952Y-112809523D01*
X121673809Y-112809523D01*
X121864285Y-112857142D01*
X121959523Y-112904761D01*
X122054761Y-113000000D01*
X122102380Y-113142857D01*
X122102380Y-113380952D01*
X121102380Y-112476190D02*
X121102380Y-111857142D01*
X121483333Y-112190476D01*
X121483333Y-112047619D01*
X121530952Y-111952380D01*
X121578571Y-111904761D01*
X121673809Y-111857142D01*
X121911904Y-111857142D01*
X122007142Y-111904761D01*
X122054761Y-111952380D01*
X122102380Y-112047619D01*
X122102380Y-112333333D01*
X122054761Y-112428571D01*
X122007142Y-112476190D01*
X122102380Y-110319047D02*
X122102380Y-110795238D01*
X121102380Y-110795238D01*
X121578571Y-109985714D02*
X121578571Y-109652380D01*
X122102380Y-109509523D02*
X122102380Y-109985714D01*
X121102380Y-109985714D01*
X121102380Y-109509523D01*
X122102380Y-109080952D02*
X121102380Y-109080952D01*
X121102380Y-108842857D01*
X121150000Y-108700000D01*
X121245238Y-108604761D01*
X121340476Y-108557142D01*
X121530952Y-108509523D01*
X121673809Y-108509523D01*
X121864285Y-108557142D01*
X121959523Y-108604761D01*
X122054761Y-108700000D01*
X122102380Y-108842857D01*
X122102380Y-109080952D01*
X121435714Y-107652380D02*
X122102380Y-107652380D01*
X121054761Y-107890476D02*
X121769047Y-108128571D01*
X121769047Y-107509523D01*
X122102380Y-106019047D02*
X122102380Y-106495238D01*
X121102380Y-106495238D01*
X121578571Y-105685714D02*
X121578571Y-105352380D01*
X122102380Y-105209523D02*
X122102380Y-105685714D01*
X121102380Y-105685714D01*
X121102380Y-105209523D01*
X122102380Y-104780952D02*
X121102380Y-104780952D01*
X121102380Y-104542857D01*
X121150000Y-104400000D01*
X121245238Y-104304761D01*
X121340476Y-104257142D01*
X121530952Y-104209523D01*
X121673809Y-104209523D01*
X121864285Y-104257142D01*
X121959523Y-104304761D01*
X122054761Y-104400000D01*
X122102380Y-104542857D01*
X122102380Y-104780952D01*
X121102380Y-103304761D02*
X121102380Y-103780952D01*
X121578571Y-103828571D01*
X121530952Y-103780952D01*
X121483333Y-103685714D01*
X121483333Y-103447619D01*
X121530952Y-103352380D01*
X121578571Y-103304761D01*
X121673809Y-103257142D01*
X121911904Y-103257142D01*
X122007142Y-103304761D01*
X122054761Y-103352380D01*
X122102380Y-103447619D01*
X122102380Y-103685714D01*
X122054761Y-103780952D01*
X122007142Y-103828571D01*
X127992380Y-57266666D02*
X127516190Y-57600000D01*
X127992380Y-57838095D02*
X126992380Y-57838095D01*
X126992380Y-57457142D01*
X127040000Y-57361904D01*
X127087619Y-57314285D01*
X127182857Y-57266666D01*
X127325714Y-57266666D01*
X127420952Y-57314285D01*
X127468571Y-57361904D01*
X127516190Y-57457142D01*
X127516190Y-57838095D01*
X127992380Y-56314285D02*
X127992380Y-56885714D01*
X127992380Y-56600000D02*
X126992380Y-56600000D01*
X127135238Y-56695238D01*
X127230476Y-56790476D01*
X127278095Y-56885714D01*
X121972380Y-57236666D02*
X121496190Y-57570000D01*
X121972380Y-57808095D02*
X120972380Y-57808095D01*
X120972380Y-57427142D01*
X121020000Y-57331904D01*
X121067619Y-57284285D01*
X121162857Y-57236666D01*
X121305714Y-57236666D01*
X121400952Y-57284285D01*
X121448571Y-57331904D01*
X121496190Y-57427142D01*
X121496190Y-57808095D01*
X121067619Y-56855714D02*
X121020000Y-56808095D01*
X120972380Y-56712857D01*
X120972380Y-56474761D01*
X121020000Y-56379523D01*
X121067619Y-56331904D01*
X121162857Y-56284285D01*
X121258095Y-56284285D01*
X121400952Y-56331904D01*
X121972380Y-56903333D01*
X121972380Y-56284285D01*
X128052380Y-122266666D02*
X127576190Y-122600000D01*
X128052380Y-122838095D02*
X127052380Y-122838095D01*
X127052380Y-122457142D01*
X127100000Y-122361904D01*
X127147619Y-122314285D01*
X127242857Y-122266666D01*
X127385714Y-122266666D01*
X127480952Y-122314285D01*
X127528571Y-122361904D01*
X127576190Y-122457142D01*
X127576190Y-122838095D01*
X127052380Y-121933333D02*
X127052380Y-121314285D01*
X127433333Y-121647619D01*
X127433333Y-121504761D01*
X127480952Y-121409523D01*
X127528571Y-121361904D01*
X127623809Y-121314285D01*
X127861904Y-121314285D01*
X127957142Y-121361904D01*
X128004761Y-121409523D01*
X128052380Y-121504761D01*
X128052380Y-121790476D01*
X128004761Y-121885714D01*
X127957142Y-121933333D01*
X128052380Y-117966666D02*
X127576190Y-118300000D01*
X128052380Y-118538095D02*
X127052380Y-118538095D01*
X127052380Y-118157142D01*
X127100000Y-118061904D01*
X127147619Y-118014285D01*
X127242857Y-117966666D01*
X127385714Y-117966666D01*
X127480952Y-118014285D01*
X127528571Y-118061904D01*
X127576190Y-118157142D01*
X127576190Y-118538095D01*
X127385714Y-117109523D02*
X128052380Y-117109523D01*
X127004761Y-117347619D02*
X127719047Y-117585714D01*
X127719047Y-116966666D01*
X128052380Y-113666666D02*
X127576190Y-114000000D01*
X128052380Y-114238095D02*
X127052380Y-114238095D01*
X127052380Y-113857142D01*
X127100000Y-113761904D01*
X127147619Y-113714285D01*
X127242857Y-113666666D01*
X127385714Y-113666666D01*
X127480952Y-113714285D01*
X127528571Y-113761904D01*
X127576190Y-113857142D01*
X127576190Y-114238095D01*
X127052380Y-112761904D02*
X127052380Y-113238095D01*
X127528571Y-113285714D01*
X127480952Y-113238095D01*
X127433333Y-113142857D01*
X127433333Y-112904761D01*
X127480952Y-112809523D01*
X127528571Y-112761904D01*
X127623809Y-112714285D01*
X127861904Y-112714285D01*
X127957142Y-112761904D01*
X128004761Y-112809523D01*
X128052380Y-112904761D01*
X128052380Y-113142857D01*
X128004761Y-113238095D01*
X127957142Y-113285714D01*
X128052380Y-109366666D02*
X127576190Y-109700000D01*
X128052380Y-109938095D02*
X127052380Y-109938095D01*
X127052380Y-109557142D01*
X127100000Y-109461904D01*
X127147619Y-109414285D01*
X127242857Y-109366666D01*
X127385714Y-109366666D01*
X127480952Y-109414285D01*
X127528571Y-109461904D01*
X127576190Y-109557142D01*
X127576190Y-109938095D01*
X127052380Y-108509523D02*
X127052380Y-108700000D01*
X127100000Y-108795238D01*
X127147619Y-108842857D01*
X127290476Y-108938095D01*
X127480952Y-108985714D01*
X127861904Y-108985714D01*
X127957142Y-108938095D01*
X128004761Y-108890476D01*
X128052380Y-108795238D01*
X128052380Y-108604761D01*
X128004761Y-108509523D01*
X127957142Y-108461904D01*
X127861904Y-108414285D01*
X127623809Y-108414285D01*
X127528571Y-108461904D01*
X127480952Y-108509523D01*
X127433333Y-108604761D01*
X127433333Y-108795238D01*
X127480952Y-108890476D01*
X127528571Y-108938095D01*
X127623809Y-108985714D01*
X128052380Y-105066666D02*
X127576190Y-105400000D01*
X128052380Y-105638095D02*
X127052380Y-105638095D01*
X127052380Y-105257142D01*
X127100000Y-105161904D01*
X127147619Y-105114285D01*
X127242857Y-105066666D01*
X127385714Y-105066666D01*
X127480952Y-105114285D01*
X127528571Y-105161904D01*
X127576190Y-105257142D01*
X127576190Y-105638095D01*
X127052380Y-104733333D02*
X127052380Y-104066666D01*
X128052380Y-104495238D01*
D16*
X128901238Y-60764666D02*
X128949619Y-60619523D01*
X128949619Y-60377619D01*
X128901238Y-60280857D01*
X128852857Y-60232476D01*
X128756095Y-60184095D01*
X128659333Y-60184095D01*
X128562571Y-60232476D01*
X128514190Y-60280857D01*
X128465809Y-60377619D01*
X128417428Y-60571142D01*
X128369047Y-60667904D01*
X128320666Y-60716285D01*
X128223904Y-60764666D01*
X128127142Y-60764666D01*
X128030380Y-60716285D01*
X127982000Y-60667904D01*
X127933619Y-60571142D01*
X127933619Y-60329238D01*
X127982000Y-60184095D01*
X127933619Y-59845428D02*
X128949619Y-59603523D01*
X128223904Y-59410000D01*
X128949619Y-59216476D01*
X127933619Y-58974571D01*
X128949619Y-58055333D02*
X128949619Y-58635904D01*
X128949619Y-58345619D02*
X127933619Y-58345619D01*
X128078761Y-58442380D01*
X128175523Y-58539142D01*
X128223904Y-58635904D01*
D11*
X119294761Y-103933333D02*
X119342380Y-103790476D01*
X119342380Y-103552380D01*
X119294761Y-103457142D01*
X119247142Y-103409523D01*
X119151904Y-103361904D01*
X119056666Y-103361904D01*
X118961428Y-103409523D01*
X118913809Y-103457142D01*
X118866190Y-103552380D01*
X118818571Y-103742857D01*
X118770952Y-103838095D01*
X118723333Y-103885714D01*
X118628095Y-103933333D01*
X118532857Y-103933333D01*
X118437619Y-103885714D01*
X118390000Y-103838095D01*
X118342380Y-103742857D01*
X118342380Y-103504761D01*
X118390000Y-103361904D01*
X118342380Y-103028571D02*
X119342380Y-102790476D01*
X118628095Y-102600000D01*
X119342380Y-102409523D01*
X118342380Y-102171428D01*
X118437619Y-101838095D02*
X118390000Y-101790476D01*
X118342380Y-101695238D01*
X118342380Y-101457142D01*
X118390000Y-101361904D01*
X118437619Y-101314285D01*
X118532857Y-101266666D01*
X118628095Y-101266666D01*
X118770952Y-101314285D01*
X119342380Y-101885714D01*
X119342380Y-101266666D01*
D16*
X118143619Y-52122476D02*
X119159619Y-51445142D01*
X118143619Y-51445142D02*
X119159619Y-52122476D01*
X119159619Y-50525904D02*
X119159619Y-51106476D01*
X119159619Y-50816190D02*
X118143619Y-50816190D01*
X118288761Y-50912952D01*
X118385523Y-51009714D01*
X118433904Y-51106476D01*
D11*
X134422380Y-78468095D02*
X133422380Y-78468095D01*
X133422380Y-78087142D01*
X133470000Y-77991904D01*
X133517619Y-77944285D01*
X133612857Y-77896666D01*
X133755714Y-77896666D01*
X133850952Y-77944285D01*
X133898571Y-77991904D01*
X133946190Y-78087142D01*
X133946190Y-78468095D01*
X134422380Y-76944285D02*
X134422380Y-77515714D01*
X134422380Y-77230000D02*
X133422380Y-77230000D01*
X133565238Y-77325238D01*
X133660476Y-77420476D01*
X133708095Y-77515714D01*
X116052380Y-94538095D02*
X115052380Y-94538095D01*
X115052380Y-94300000D01*
X115100000Y-94157142D01*
X115195238Y-94061904D01*
X115290476Y-94014285D01*
X115480952Y-93966666D01*
X115623809Y-93966666D01*
X115814285Y-94014285D01*
X115909523Y-94061904D01*
X116004761Y-94157142D01*
X116052380Y-94300000D01*
X116052380Y-94538095D01*
X116052380Y-93014285D02*
X116052380Y-93585714D01*
X116052380Y-93300000D02*
X115052380Y-93300000D01*
X115195238Y-93395238D01*
X115290476Y-93490476D01*
X115338095Y-93585714D01*
X116052380Y-108138095D02*
X115052380Y-108138095D01*
X115052380Y-107900000D01*
X115100000Y-107757142D01*
X115195238Y-107661904D01*
X115290476Y-107614285D01*
X115480952Y-107566666D01*
X115623809Y-107566666D01*
X115814285Y-107614285D01*
X115909523Y-107661904D01*
X116004761Y-107757142D01*
X116052380Y-107900000D01*
X116052380Y-108138095D01*
X115147619Y-107185714D02*
X115100000Y-107138095D01*
X115052380Y-107042857D01*
X115052380Y-106804761D01*
X115100000Y-106709523D01*
X115147619Y-106661904D01*
X115242857Y-106614285D01*
X115338095Y-106614285D01*
X115480952Y-106661904D01*
X116052380Y-107233333D01*
X116052380Y-106614285D01*
%LPC*%
D17*
X126405000Y-60700000D03*
X125135000Y-60700000D03*
X123865000Y-60700000D03*
X122595000Y-60700000D03*
X122595000Y-66100000D03*
X123865000Y-66100000D03*
X125135000Y-66100000D03*
X126405000Y-66100000D03*
D18*
X135155000Y-58200000D03*
X114045000Y-58200000D03*
X135155000Y-113900000D03*
X114045000Y-113900000D03*
D19*
X129050000Y-65930000D03*
X129050000Y-63930000D03*
X131630000Y-63920000D03*
X131630000Y-65920000D03*
D20*
X123400000Y-121050980D03*
X123400000Y-123149020D03*
X123400000Y-118849020D03*
X123400000Y-116750980D03*
X123400000Y-112450980D03*
X123400000Y-114549020D03*
X123400000Y-110249020D03*
X123400000Y-108150980D03*
X123400000Y-103850980D03*
X123400000Y-105949020D03*
D21*
X125800000Y-58050000D03*
X125800000Y-56150000D03*
X123200000Y-56150000D03*
X123200000Y-58050000D03*
X125800000Y-123050000D03*
X125800000Y-121150000D03*
X125800000Y-116850000D03*
X125800000Y-118750000D03*
X125800000Y-114450000D03*
X125800000Y-112550000D03*
X125800000Y-108250000D03*
X125800000Y-110150000D03*
X125800000Y-105850000D03*
X125800000Y-103950000D03*
D22*
X131814420Y-56547360D03*
X131814420Y-60692640D03*
X129665580Y-56547360D03*
X129665580Y-60692640D03*
D23*
X114042740Y-97493020D03*
X114042740Y-102493020D03*
X118442740Y-99993020D03*
D24*
X116242740Y-96593020D03*
X116242740Y-103393020D03*
D25*
X127002060Y-53070000D03*
X122002060Y-53070000D03*
D26*
X121070000Y-50400000D03*
X127930000Y-50400000D03*
D27*
X123301120Y-50395380D03*
X125698880Y-50395380D03*
D28*
X123202060Y-53070000D03*
X123852300Y-53070000D03*
X124500000Y-53070000D03*
X125147700Y-53070000D03*
X125797940Y-53070000D03*
D29*
X124550000Y-79222000D03*
D10*
G36*
X126577486Y-80172000D02*
X122522514Y-80172000D01*
X123155848Y-78272000D01*
X125944152Y-78272000D01*
X126577486Y-80172000D01*
X126577486Y-80172000D01*
G37*
D30*
X124550000Y-86080000D03*
D29*
X124550000Y-92938000D03*
D10*
G36*
X122522514Y-91988000D02*
X126577486Y-91988000D01*
X125944152Y-93888000D01*
X123155848Y-93888000D01*
X122522514Y-91988000D01*
X122522514Y-91988000D01*
G37*
D29*
X119724000Y-81254000D03*
D10*
G36*
X121829401Y-80492102D02*
X118962102Y-83359401D01*
X118066434Y-81568063D01*
X120038063Y-79596434D01*
X121829401Y-80492102D01*
X121829401Y-80492102D01*
G37*
D29*
X129376000Y-81254000D03*
D10*
G36*
X130137898Y-83359401D02*
X127270599Y-80492102D01*
X129061937Y-79596434D01*
X131033566Y-81568063D01*
X130137898Y-83359401D01*
X130137898Y-83359401D01*
G37*
D29*
X119724000Y-90906000D03*
D10*
G36*
X118962102Y-88800599D02*
X121829401Y-91667898D01*
X120038063Y-92563566D01*
X118066434Y-90591937D01*
X118962102Y-88800599D01*
X118962102Y-88800599D01*
G37*
D29*
X129376000Y-90906000D03*
D10*
G36*
X127270599Y-91667898D02*
X130137898Y-88800599D01*
X131033566Y-90591937D01*
X129061937Y-92563566D01*
X127270599Y-91667898D01*
X127270599Y-91667898D01*
G37*
D29*
X117692000Y-86080000D03*
D10*
G36*
X118642000Y-84052514D02*
X118642000Y-88107486D01*
X116742000Y-87474152D01*
X116742000Y-84685848D01*
X118642000Y-84052514D01*
X118642000Y-84052514D01*
G37*
D31*
X135090000Y-75050000D03*
D32*
X132550000Y-75050000D03*
X135090000Y-72510000D03*
X132550000Y-72510000D03*
X135090000Y-69970000D03*
X132550000Y-69970000D03*
D33*
X114050000Y-93705000D03*
X114050000Y-91455000D03*
X114000000Y-108595000D03*
X114000000Y-106345000D03*
M02*
