G04 #@! TF.GenerationSoftware,KiCad,Pcbnew,(2017-01-24 revision 0b6147e)-makepkg*
G04 #@! TF.CreationDate,2017-06-09T22:20:51-07:00*
G04 #@! TF.ProjectId,POVSpinner,504F565370696E6E65722E6B69636164,rev?*
G04 #@! TF.FileFunction,Legend,Bot*
G04 #@! TF.FilePolarity,Positive*
%FSLAX46Y46*%
G04 Gerber Fmt 4.6, Leading zero omitted, Abs format (unit mm)*
G04 Created by KiCad (PCBNEW (2017-01-24 revision 0b6147e)-makepkg) date 06/09/17 22:20:51*
%MOMM*%
%LPD*%
G01*
G04 APERTURE LIST*
%ADD10C,0.100000*%
%ADD11C,0.150000*%
%ADD12C,0.010000*%
%ADD13R,4.360000X4.360000*%
%ADD14C,3.500000*%
%ADD15C,1.300000*%
%ADD16C,1.504000*%
%ADD17C,1.650006*%
%ADD18C,13.100000*%
%ADD19R,2.127200X2.127200*%
%ADD20O,2.127200X2.127200*%
G04 APERTURE END LIST*
D10*
D11*
X135141000Y-67598000D02*
X135141000Y-58200000D01*
X114059000Y-67598000D02*
X135141000Y-67598000D01*
X114059000Y-58200000D02*
X114059000Y-67598000D01*
X135141000Y-58200000D02*
X135141000Y-53120000D01*
X128283000Y-48294000D02*
X124600000Y-48294000D01*
X124600000Y-48294000D02*
X120917000Y-48294000D01*
X128283000Y-48294000D02*
X135141000Y-53120000D01*
X114059000Y-53120000D02*
X120917000Y-48294000D01*
X114059000Y-58200000D02*
X114059000Y-53120000D01*
X135141000Y-113900000D02*
X135141000Y-118980000D01*
X135141000Y-118980000D02*
X128283000Y-123806000D01*
X120917000Y-123806000D02*
X114059000Y-118980000D01*
X124600000Y-123806000D02*
X128283000Y-123806000D01*
X120917000Y-123806000D02*
X124600000Y-123806000D01*
X114059000Y-113900000D02*
X114059000Y-118980000D01*
X135141000Y-113900000D02*
X135141000Y-104502000D01*
X135141000Y-104502000D02*
X114059000Y-104502000D01*
X114059000Y-104502000D02*
X114059000Y-113900000D01*
D12*
G36*
X127789740Y-80658374D02*
X128179653Y-80877037D01*
X128617533Y-81158749D01*
X129025924Y-81452790D01*
X129137093Y-81540684D01*
X129418832Y-81767107D01*
X129649222Y-81946816D01*
X129798661Y-82057033D01*
X129838916Y-82080667D01*
X129905563Y-82020688D01*
X130062911Y-81855728D01*
X130290162Y-81608245D01*
X130566519Y-81300701D01*
X130690151Y-81161375D01*
X131502967Y-80242084D01*
X132168664Y-80196456D01*
X132848442Y-80093685D01*
X133434224Y-79875901D01*
X133969847Y-79526458D01*
X134002479Y-79500013D01*
X134457315Y-79026407D01*
X134804605Y-78456496D01*
X135029970Y-77828117D01*
X135119030Y-77179114D01*
X135080967Y-76662000D01*
X135029603Y-76475854D01*
X134982118Y-76386520D01*
X134907926Y-76423707D01*
X134744413Y-76568791D01*
X134512588Y-76801210D01*
X134233458Y-77100405D01*
X134095353Y-77254354D01*
X133799865Y-77582813D01*
X133541821Y-77860507D01*
X133342672Y-78065053D01*
X133223864Y-78174066D01*
X133202619Y-78186000D01*
X133124098Y-78132363D01*
X132945957Y-77986288D01*
X132693155Y-77770027D01*
X132390649Y-77505833D01*
X132063399Y-77215958D01*
X131736362Y-76922655D01*
X131434496Y-76648177D01*
X131182761Y-76414776D01*
X131006115Y-76244705D01*
X130929515Y-76160216D01*
X130928765Y-76158653D01*
X130974274Y-76080183D01*
X131114427Y-75899389D01*
X131330208Y-75639467D01*
X131602600Y-75323611D01*
X131754265Y-75151752D01*
X132049527Y-74816585D01*
X132300039Y-74526365D01*
X132486215Y-74304252D01*
X132588466Y-74173402D01*
X132602000Y-74149507D01*
X132524083Y-74131295D01*
X132316551Y-74125254D01*
X132018732Y-74132062D01*
X131903500Y-74137446D01*
X131504733Y-74169466D01*
X131200681Y-74229017D01*
X130916920Y-74335519D01*
X130669828Y-74459393D01*
X130076625Y-74864156D01*
X129604610Y-75371241D01*
X129264551Y-75959594D01*
X129067213Y-76608165D01*
X129023366Y-77295902D01*
X129056687Y-77613230D01*
X129125110Y-78046066D01*
X128591240Y-78645199D01*
X128279931Y-78994795D01*
X127939152Y-79377842D01*
X127633456Y-79721776D01*
X127581580Y-79780190D01*
X127105790Y-80316046D01*
X127789740Y-80658374D01*
X127789740Y-80658374D01*
G37*
X127789740Y-80658374D02*
X128179653Y-80877037D01*
X128617533Y-81158749D01*
X129025924Y-81452790D01*
X129137093Y-81540684D01*
X129418832Y-81767107D01*
X129649222Y-81946816D01*
X129798661Y-82057033D01*
X129838916Y-82080667D01*
X129905563Y-82020688D01*
X130062911Y-81855728D01*
X130290162Y-81608245D01*
X130566519Y-81300701D01*
X130690151Y-81161375D01*
X131502967Y-80242084D01*
X132168664Y-80196456D01*
X132848442Y-80093685D01*
X133434224Y-79875901D01*
X133969847Y-79526458D01*
X134002479Y-79500013D01*
X134457315Y-79026407D01*
X134804605Y-78456496D01*
X135029970Y-77828117D01*
X135119030Y-77179114D01*
X135080967Y-76662000D01*
X135029603Y-76475854D01*
X134982118Y-76386520D01*
X134907926Y-76423707D01*
X134744413Y-76568791D01*
X134512588Y-76801210D01*
X134233458Y-77100405D01*
X134095353Y-77254354D01*
X133799865Y-77582813D01*
X133541821Y-77860507D01*
X133342672Y-78065053D01*
X133223864Y-78174066D01*
X133202619Y-78186000D01*
X133124098Y-78132363D01*
X132945957Y-77986288D01*
X132693155Y-77770027D01*
X132390649Y-77505833D01*
X132063399Y-77215958D01*
X131736362Y-76922655D01*
X131434496Y-76648177D01*
X131182761Y-76414776D01*
X131006115Y-76244705D01*
X130929515Y-76160216D01*
X130928765Y-76158653D01*
X130974274Y-76080183D01*
X131114427Y-75899389D01*
X131330208Y-75639467D01*
X131602600Y-75323611D01*
X131754265Y-75151752D01*
X132049527Y-74816585D01*
X132300039Y-74526365D01*
X132486215Y-74304252D01*
X132588466Y-74173402D01*
X132602000Y-74149507D01*
X132524083Y-74131295D01*
X132316551Y-74125254D01*
X132018732Y-74132062D01*
X131903500Y-74137446D01*
X131504733Y-74169466D01*
X131200681Y-74229017D01*
X130916920Y-74335519D01*
X130669828Y-74459393D01*
X130076625Y-74864156D01*
X129604610Y-75371241D01*
X129264551Y-75959594D01*
X129067213Y-76608165D01*
X129023366Y-77295902D01*
X129056687Y-77613230D01*
X129125110Y-78046066D01*
X128591240Y-78645199D01*
X128279931Y-78994795D01*
X127939152Y-79377842D01*
X127633456Y-79721776D01*
X127581580Y-79780190D01*
X127105790Y-80316046D01*
X127789740Y-80658374D01*
G36*
X127314717Y-92003529D02*
X127417553Y-92145221D01*
X127595538Y-92359429D01*
X127861242Y-92663331D01*
X128227235Y-93074108D01*
X128259806Y-93110517D01*
X129124611Y-94077086D01*
X129056438Y-94508346D01*
X129027483Y-95187529D01*
X129147237Y-95834970D01*
X129399036Y-96431533D01*
X129766216Y-96958082D01*
X130232112Y-97395479D01*
X130780060Y-97724589D01*
X131393396Y-97926276D01*
X132055455Y-97981401D01*
X132079977Y-97980411D01*
X132633143Y-97955667D01*
X131769836Y-96985205D01*
X131473350Y-96647187D01*
X131223739Y-96353550D01*
X131039859Y-96127204D01*
X130940564Y-95991062D01*
X130928765Y-95963086D01*
X130999950Y-95883761D01*
X131172314Y-95717700D01*
X131420931Y-95487133D01*
X131720875Y-95214289D01*
X132047222Y-94921395D01*
X132375046Y-94630681D01*
X132679422Y-94364376D01*
X132935424Y-94144708D01*
X133118128Y-93993907D01*
X133202607Y-93934200D01*
X133203993Y-93934000D01*
X133280368Y-93994119D01*
X133446541Y-94159558D01*
X133681100Y-94407938D01*
X133962635Y-94716881D01*
X134095353Y-94865646D01*
X134389614Y-95188397D01*
X134646941Y-95453369D01*
X134846159Y-95640082D01*
X134966092Y-95728054D01*
X134988760Y-95729773D01*
X135053483Y-95576441D01*
X135091184Y-95305615D01*
X135101126Y-94967083D01*
X135082575Y-94610631D01*
X135034796Y-94286046D01*
X135011482Y-94190786D01*
X134740178Y-93510886D01*
X134342788Y-92938516D01*
X133831400Y-92483325D01*
X133218104Y-92154959D01*
X132514988Y-91963065D01*
X132170481Y-91923668D01*
X131494207Y-91877315D01*
X130686147Y-90958324D01*
X130396211Y-90632060D01*
X130145770Y-90356793D01*
X129955825Y-90155102D01*
X129847375Y-90049567D01*
X129831431Y-90039333D01*
X129750428Y-90090781D01*
X129573973Y-90228195D01*
X129334177Y-90426177D01*
X129224887Y-90519063D01*
X128939005Y-90751532D01*
X128596844Y-91011005D01*
X128233919Y-91272671D01*
X127885749Y-91511720D01*
X127587850Y-91703341D01*
X127375739Y-91822725D01*
X127331387Y-91841763D01*
X127284204Y-91868979D01*
X127274457Y-91917175D01*
X127314717Y-92003529D01*
X127314717Y-92003529D01*
G37*
X127314717Y-92003529D02*
X127417553Y-92145221D01*
X127595538Y-92359429D01*
X127861242Y-92663331D01*
X128227235Y-93074108D01*
X128259806Y-93110517D01*
X129124611Y-94077086D01*
X129056438Y-94508346D01*
X129027483Y-95187529D01*
X129147237Y-95834970D01*
X129399036Y-96431533D01*
X129766216Y-96958082D01*
X130232112Y-97395479D01*
X130780060Y-97724589D01*
X131393396Y-97926276D01*
X132055455Y-97981401D01*
X132079977Y-97980411D01*
X132633143Y-97955667D01*
X131769836Y-96985205D01*
X131473350Y-96647187D01*
X131223739Y-96353550D01*
X131039859Y-96127204D01*
X130940564Y-95991062D01*
X130928765Y-95963086D01*
X130999950Y-95883761D01*
X131172314Y-95717700D01*
X131420931Y-95487133D01*
X131720875Y-95214289D01*
X132047222Y-94921395D01*
X132375046Y-94630681D01*
X132679422Y-94364376D01*
X132935424Y-94144708D01*
X133118128Y-93993907D01*
X133202607Y-93934200D01*
X133203993Y-93934000D01*
X133280368Y-93994119D01*
X133446541Y-94159558D01*
X133681100Y-94407938D01*
X133962635Y-94716881D01*
X134095353Y-94865646D01*
X134389614Y-95188397D01*
X134646941Y-95453369D01*
X134846159Y-95640082D01*
X134966092Y-95728054D01*
X134988760Y-95729773D01*
X135053483Y-95576441D01*
X135091184Y-95305615D01*
X135101126Y-94967083D01*
X135082575Y-94610631D01*
X135034796Y-94286046D01*
X135011482Y-94190786D01*
X134740178Y-93510886D01*
X134342788Y-92938516D01*
X133831400Y-92483325D01*
X133218104Y-92154959D01*
X132514988Y-91963065D01*
X132170481Y-91923668D01*
X131494207Y-91877315D01*
X130686147Y-90958324D01*
X130396211Y-90632060D01*
X130145770Y-90356793D01*
X129955825Y-90155102D01*
X129847375Y-90049567D01*
X129831431Y-90039333D01*
X129750428Y-90090781D01*
X129573973Y-90228195D01*
X129334177Y-90426177D01*
X129224887Y-90519063D01*
X128939005Y-90751532D01*
X128596844Y-91011005D01*
X128233919Y-91272671D01*
X127885749Y-91511720D01*
X127587850Y-91703341D01*
X127375739Y-91822725D01*
X127331387Y-91841763D01*
X127284204Y-91868979D01*
X127274457Y-91917175D01*
X127314717Y-92003529D01*
G36*
X130023061Y-83119861D02*
X130070659Y-83207641D01*
X130232470Y-83536884D01*
X130397150Y-83927906D01*
X130495270Y-84197333D01*
X130589769Y-84476662D01*
X130663563Y-84684023D01*
X130700958Y-84775344D01*
X130701235Y-84775693D01*
X130794322Y-84772260D01*
X130948194Y-84673291D01*
X131117183Y-84514937D01*
X131251547Y-84340096D01*
X131394483Y-83952335D01*
X131384307Y-83542459D01*
X131250761Y-83206610D01*
X130980683Y-82908825D01*
X130625462Y-82721595D01*
X130327129Y-82673333D01*
X130054320Y-82686955D01*
X129921849Y-82746868D01*
X129916001Y-82881645D01*
X130023061Y-83119861D01*
X130023061Y-83119861D01*
G37*
X130023061Y-83119861D02*
X130070659Y-83207641D01*
X130232470Y-83536884D01*
X130397150Y-83927906D01*
X130495270Y-84197333D01*
X130589769Y-84476662D01*
X130663563Y-84684023D01*
X130700958Y-84775344D01*
X130701235Y-84775693D01*
X130794322Y-84772260D01*
X130948194Y-84673291D01*
X131117183Y-84514937D01*
X131251547Y-84340096D01*
X131394483Y-83952335D01*
X131384307Y-83542459D01*
X131250761Y-83206610D01*
X130980683Y-82908825D01*
X130625462Y-82721595D01*
X130327129Y-82673333D01*
X130054320Y-82686955D01*
X129921849Y-82746868D01*
X129916001Y-82881645D01*
X130023061Y-83119861D01*
G36*
X130767166Y-85288977D02*
X130769147Y-85298904D01*
X130795003Y-85513290D01*
X130814299Y-85835400D01*
X130823624Y-86203656D01*
X130824000Y-86289305D01*
X130833464Y-86673251D01*
X130867712Y-86896603D01*
X130935526Y-86967342D01*
X131045688Y-86893450D01*
X131206982Y-86682908D01*
X131226167Y-86654785D01*
X131387181Y-86275403D01*
X131393656Y-85869685D01*
X131251547Y-85493903D01*
X131089675Y-85283698D01*
X130915640Y-85132945D01*
X130900678Y-85124391D01*
X130776816Y-85069237D01*
X130740417Y-85113345D01*
X130767166Y-85288977D01*
X130767166Y-85288977D01*
G37*
X130767166Y-85288977D02*
X130769147Y-85298904D01*
X130795003Y-85513290D01*
X130814299Y-85835400D01*
X130823624Y-86203656D01*
X130824000Y-86289305D01*
X130833464Y-86673251D01*
X130867712Y-86896603D01*
X130935526Y-86967342D01*
X131045688Y-86893450D01*
X131206982Y-86682908D01*
X131226167Y-86654785D01*
X131387181Y-86275403D01*
X131393656Y-85869685D01*
X131251547Y-85493903D01*
X131089675Y-85283698D01*
X130915640Y-85132945D01*
X130900678Y-85124391D01*
X130776816Y-85069237D01*
X130740417Y-85113345D01*
X130767166Y-85288977D01*
G36*
X130042005Y-89398450D02*
X130190989Y-89447310D01*
X130429449Y-89434260D01*
X130693088Y-89368293D01*
X130883389Y-89280761D01*
X131177581Y-89015025D01*
X131358004Y-88671063D01*
X131412456Y-88293991D01*
X131328738Y-87928924D01*
X131275736Y-87829907D01*
X131109537Y-87622602D01*
X130927319Y-87482176D01*
X130775978Y-87441946D01*
X130745487Y-87453196D01*
X130684783Y-87558338D01*
X130625268Y-87762393D01*
X130614396Y-87815898D01*
X130548972Y-88050605D01*
X130432228Y-88371171D01*
X130288294Y-88711859D01*
X130274359Y-88742283D01*
X130148581Y-89032730D01*
X130065127Y-89261080D01*
X130038147Y-89387378D01*
X130042005Y-89398450D01*
X130042005Y-89398450D01*
G37*
X130042005Y-89398450D02*
X130190989Y-89447310D01*
X130429449Y-89434260D01*
X130693088Y-89368293D01*
X130883389Y-89280761D01*
X131177581Y-89015025D01*
X131358004Y-88671063D01*
X131412456Y-88293991D01*
X131328738Y-87928924D01*
X131275736Y-87829907D01*
X131109537Y-87622602D01*
X130927319Y-87482176D01*
X130775978Y-87441946D01*
X130745487Y-87453196D01*
X130684783Y-87558338D01*
X130625268Y-87762393D01*
X130614396Y-87815898D01*
X130548972Y-88050605D01*
X130432228Y-88371171D01*
X130288294Y-88711859D01*
X130274359Y-88742283D01*
X130148581Y-89032730D01*
X130065127Y-89261080D01*
X130038147Y-89387378D01*
X130042005Y-89398450D01*
G36*
X113339953Y-77305402D02*
X113376003Y-77636443D01*
X113419787Y-77852932D01*
X113677456Y-78544332D01*
X114062516Y-79129945D01*
X114562398Y-79599304D01*
X115164536Y-79941942D01*
X115856363Y-80147391D01*
X116232143Y-80195410D01*
X116866286Y-80243370D01*
X117849849Y-81352518D01*
X118170465Y-81714388D01*
X118450209Y-82030728D01*
X118670480Y-82280455D01*
X118812676Y-82442485D01*
X118858235Y-82495473D01*
X118925257Y-82454661D01*
X119087812Y-82318087D01*
X119320176Y-82108187D01*
X119548943Y-81893095D01*
X119902677Y-81577440D01*
X120294987Y-81262399D01*
X120663711Y-80996665D01*
X120820415Y-80897140D01*
X121097208Y-80730218D01*
X121307567Y-80598634D01*
X121417521Y-80523821D01*
X121426000Y-80515065D01*
X121372731Y-80447738D01*
X121224442Y-80273612D01*
X120998408Y-80012627D01*
X120711906Y-79684724D01*
X120382212Y-79309844D01*
X120362929Y-79287987D01*
X119992123Y-78865730D01*
X119720508Y-78548732D01*
X119534007Y-78316378D01*
X119418541Y-78148055D01*
X119360035Y-78023147D01*
X119344410Y-77921040D01*
X119357588Y-77821121D01*
X119358465Y-77817107D01*
X119390339Y-77580288D01*
X119408511Y-77261751D01*
X119410231Y-77057816D01*
X119321038Y-76383190D01*
X119085233Y-75763393D01*
X118721519Y-75216575D01*
X118248597Y-74760886D01*
X117685169Y-74414475D01*
X117049937Y-74195493D01*
X116385157Y-74122000D01*
X116105845Y-74130959D01*
X115908770Y-74154391D01*
X115838284Y-74185500D01*
X115891803Y-74268150D01*
X116038734Y-74452257D01*
X116258958Y-74713641D01*
X116532355Y-75028122D01*
X116649315Y-75160239D01*
X116935832Y-75488934D01*
X117173944Y-75774884D01*
X117344307Y-75993841D01*
X117427574Y-76121554D01*
X117432198Y-76141569D01*
X117361627Y-76221695D01*
X117189735Y-76388759D01*
X116941379Y-76620516D01*
X116641414Y-76894721D01*
X116314697Y-77189129D01*
X115986083Y-77481496D01*
X115680428Y-77749578D01*
X115422589Y-77971128D01*
X115237420Y-78123903D01*
X115149779Y-78185657D01*
X115147780Y-78186000D01*
X115073902Y-78125868D01*
X114910821Y-77960784D01*
X114680284Y-77713716D01*
X114404039Y-77407633D01*
X114306034Y-77297000D01*
X114018939Y-76976306D01*
X113769688Y-76707053D01*
X113580201Y-76512233D01*
X113472400Y-76414840D01*
X113458483Y-76408000D01*
X113391675Y-76484937D01*
X113348906Y-76687950D01*
X113331293Y-76975338D01*
X113339953Y-77305402D01*
X113339953Y-77305402D01*
G37*
X113339953Y-77305402D02*
X113376003Y-77636443D01*
X113419787Y-77852932D01*
X113677456Y-78544332D01*
X114062516Y-79129945D01*
X114562398Y-79599304D01*
X115164536Y-79941942D01*
X115856363Y-80147391D01*
X116232143Y-80195410D01*
X116866286Y-80243370D01*
X117849849Y-81352518D01*
X118170465Y-81714388D01*
X118450209Y-82030728D01*
X118670480Y-82280455D01*
X118812676Y-82442485D01*
X118858235Y-82495473D01*
X118925257Y-82454661D01*
X119087812Y-82318087D01*
X119320176Y-82108187D01*
X119548943Y-81893095D01*
X119902677Y-81577440D01*
X120294987Y-81262399D01*
X120663711Y-80996665D01*
X120820415Y-80897140D01*
X121097208Y-80730218D01*
X121307567Y-80598634D01*
X121417521Y-80523821D01*
X121426000Y-80515065D01*
X121372731Y-80447738D01*
X121224442Y-80273612D01*
X120998408Y-80012627D01*
X120711906Y-79684724D01*
X120382212Y-79309844D01*
X120362929Y-79287987D01*
X119992123Y-78865730D01*
X119720508Y-78548732D01*
X119534007Y-78316378D01*
X119418541Y-78148055D01*
X119360035Y-78023147D01*
X119344410Y-77921040D01*
X119357588Y-77821121D01*
X119358465Y-77817107D01*
X119390339Y-77580288D01*
X119408511Y-77261751D01*
X119410231Y-77057816D01*
X119321038Y-76383190D01*
X119085233Y-75763393D01*
X118721519Y-75216575D01*
X118248597Y-74760886D01*
X117685169Y-74414475D01*
X117049937Y-74195493D01*
X116385157Y-74122000D01*
X116105845Y-74130959D01*
X115908770Y-74154391D01*
X115838284Y-74185500D01*
X115891803Y-74268150D01*
X116038734Y-74452257D01*
X116258958Y-74713641D01*
X116532355Y-75028122D01*
X116649315Y-75160239D01*
X116935832Y-75488934D01*
X117173944Y-75774884D01*
X117344307Y-75993841D01*
X117427574Y-76121554D01*
X117432198Y-76141569D01*
X117361627Y-76221695D01*
X117189735Y-76388759D01*
X116941379Y-76620516D01*
X116641414Y-76894721D01*
X116314697Y-77189129D01*
X115986083Y-77481496D01*
X115680428Y-77749578D01*
X115422589Y-77971128D01*
X115237420Y-78123903D01*
X115149779Y-78185657D01*
X115147780Y-78186000D01*
X115073902Y-78125868D01*
X114910821Y-77960784D01*
X114680284Y-77713716D01*
X114404039Y-77407633D01*
X114306034Y-77297000D01*
X114018939Y-76976306D01*
X113769688Y-76707053D01*
X113580201Y-76512233D01*
X113472400Y-76414840D01*
X113458483Y-76408000D01*
X113391675Y-76484937D01*
X113348906Y-76687950D01*
X113331293Y-76975338D01*
X113339953Y-77305402D01*
G36*
X113358266Y-95498418D02*
X113407796Y-95670731D01*
X113458483Y-95712000D01*
X113534498Y-95651826D01*
X113699438Y-95486633D01*
X113931380Y-95239414D01*
X114208403Y-94933162D01*
X114306034Y-94823000D01*
X114592638Y-94502413D01*
X114840749Y-94233222D01*
X115028619Y-94038394D01*
X115134500Y-93940899D01*
X115147780Y-93934000D01*
X115226840Y-93987785D01*
X115405350Y-94134312D01*
X115658455Y-94351335D01*
X115961297Y-94616611D01*
X116289022Y-94907893D01*
X116616773Y-95202937D01*
X116919695Y-95479499D01*
X117172931Y-95715334D01*
X117351626Y-95888197D01*
X117430923Y-95975843D01*
X117432198Y-95978431D01*
X117388823Y-96063248D01*
X117250683Y-96248925D01*
X117037121Y-96511211D01*
X116767484Y-96825857D01*
X116649315Y-96959760D01*
X116360602Y-97288423D01*
X116117199Y-97573439D01*
X115939225Y-97790630D01*
X115846798Y-97915816D01*
X115838284Y-97934500D01*
X115915341Y-97966920D01*
X116117139Y-97989803D01*
X116385157Y-97998000D01*
X117072026Y-97919462D01*
X117705170Y-97695950D01*
X118265888Y-97345612D01*
X118735477Y-96886600D01*
X119095237Y-96337062D01*
X119326465Y-95715149D01*
X119410231Y-95062184D01*
X119403653Y-94736231D01*
X119379377Y-94435920D01*
X119357729Y-94299541D01*
X119342852Y-94196618D01*
X119356410Y-94094111D01*
X119412863Y-93970762D01*
X119526672Y-93805314D01*
X119712299Y-93576510D01*
X119984206Y-93263092D01*
X120319860Y-92885254D01*
X120645982Y-92515962D01*
X120928586Y-92188710D01*
X121149831Y-91924756D01*
X121291876Y-91745355D01*
X121337265Y-91673046D01*
X121268784Y-91596883D01*
X121093642Y-91463342D01*
X120862162Y-91309333D01*
X120606224Y-91128146D01*
X120276053Y-90865788D01*
X119917844Y-90560131D01*
X119635393Y-90303559D01*
X119344876Y-90034825D01*
X119102501Y-89818172D01*
X118932505Y-89674725D01*
X118859127Y-89625608D01*
X118858251Y-89626226D01*
X118797777Y-89696902D01*
X118643278Y-89873075D01*
X118413287Y-90133734D01*
X118126339Y-90457866D01*
X117851592Y-90767479D01*
X116866341Y-91876625D01*
X116226014Y-91925053D01*
X115491893Y-92057640D01*
X114843893Y-92332087D01*
X114293390Y-92738901D01*
X113851761Y-93268587D01*
X113530382Y-93911649D01*
X113419787Y-94267068D01*
X113363227Y-94572821D01*
X113334865Y-94907764D01*
X113333584Y-95230196D01*
X113358266Y-95498418D01*
X113358266Y-95498418D01*
G37*
X113358266Y-95498418D02*
X113407796Y-95670731D01*
X113458483Y-95712000D01*
X113534498Y-95651826D01*
X113699438Y-95486633D01*
X113931380Y-95239414D01*
X114208403Y-94933162D01*
X114306034Y-94823000D01*
X114592638Y-94502413D01*
X114840749Y-94233222D01*
X115028619Y-94038394D01*
X115134500Y-93940899D01*
X115147780Y-93934000D01*
X115226840Y-93987785D01*
X115405350Y-94134312D01*
X115658455Y-94351335D01*
X115961297Y-94616611D01*
X116289022Y-94907893D01*
X116616773Y-95202937D01*
X116919695Y-95479499D01*
X117172931Y-95715334D01*
X117351626Y-95888197D01*
X117430923Y-95975843D01*
X117432198Y-95978431D01*
X117388823Y-96063248D01*
X117250683Y-96248925D01*
X117037121Y-96511211D01*
X116767484Y-96825857D01*
X116649315Y-96959760D01*
X116360602Y-97288423D01*
X116117199Y-97573439D01*
X115939225Y-97790630D01*
X115846798Y-97915816D01*
X115838284Y-97934500D01*
X115915341Y-97966920D01*
X116117139Y-97989803D01*
X116385157Y-97998000D01*
X117072026Y-97919462D01*
X117705170Y-97695950D01*
X118265888Y-97345612D01*
X118735477Y-96886600D01*
X119095237Y-96337062D01*
X119326465Y-95715149D01*
X119410231Y-95062184D01*
X119403653Y-94736231D01*
X119379377Y-94435920D01*
X119357729Y-94299541D01*
X119342852Y-94196618D01*
X119356410Y-94094111D01*
X119412863Y-93970762D01*
X119526672Y-93805314D01*
X119712299Y-93576510D01*
X119984206Y-93263092D01*
X120319860Y-92885254D01*
X120645982Y-92515962D01*
X120928586Y-92188710D01*
X121149831Y-91924756D01*
X121291876Y-91745355D01*
X121337265Y-91673046D01*
X121268784Y-91596883D01*
X121093642Y-91463342D01*
X120862162Y-91309333D01*
X120606224Y-91128146D01*
X120276053Y-90865788D01*
X119917844Y-90560131D01*
X119635393Y-90303559D01*
X119344876Y-90034825D01*
X119102501Y-89818172D01*
X118932505Y-89674725D01*
X118859127Y-89625608D01*
X118858251Y-89626226D01*
X118797777Y-89696902D01*
X118643278Y-89873075D01*
X118413287Y-90133734D01*
X118126339Y-90457866D01*
X117851592Y-90767479D01*
X116866341Y-91876625D01*
X116226014Y-91925053D01*
X115491893Y-92057640D01*
X114843893Y-92332087D01*
X114293390Y-92738901D01*
X113851761Y-93268587D01*
X113530382Y-93911649D01*
X113419787Y-94267068D01*
X113363227Y-94572821D01*
X113334865Y-94907764D01*
X113333584Y-95230196D01*
X113358266Y-95498418D01*
D11*
X130956895Y-86080000D02*
G75*
G03X130956895Y-86080000I-6406895J0D01*
G01*
X125385714Y-52540571D02*
X125242857Y-52588190D01*
X125195238Y-52635809D01*
X125147619Y-52731047D01*
X125147619Y-52873904D01*
X125195238Y-52969142D01*
X125242857Y-53016761D01*
X125338095Y-53064380D01*
X125719047Y-53064380D01*
X125719047Y-52064380D01*
X125385714Y-52064380D01*
X125290476Y-52112000D01*
X125242857Y-52159619D01*
X125195238Y-52254857D01*
X125195238Y-52350095D01*
X125242857Y-52445333D01*
X125290476Y-52492952D01*
X125385714Y-52540571D01*
X125719047Y-52540571D01*
X124861904Y-52064380D02*
X124290476Y-52064380D01*
X124576190Y-53064380D02*
X124576190Y-52064380D01*
X123433333Y-53064380D02*
X124004761Y-53064380D01*
X123719047Y-53064380D02*
X123719047Y-52064380D01*
X123814285Y-52207238D01*
X123909523Y-52302476D01*
X124004761Y-52350095D01*
X125385714Y-119416571D02*
X125242857Y-119464190D01*
X125195238Y-119511809D01*
X125147619Y-119607047D01*
X125147619Y-119749904D01*
X125195238Y-119845142D01*
X125242857Y-119892761D01*
X125338095Y-119940380D01*
X125719047Y-119940380D01*
X125719047Y-118940380D01*
X125385714Y-118940380D01*
X125290476Y-118988000D01*
X125242857Y-119035619D01*
X125195238Y-119130857D01*
X125195238Y-119226095D01*
X125242857Y-119321333D01*
X125290476Y-119368952D01*
X125385714Y-119416571D01*
X125719047Y-119416571D01*
X124861904Y-118940380D02*
X124290476Y-118940380D01*
X124576190Y-119940380D02*
X124576190Y-118940380D01*
X124004761Y-119035619D02*
X123957142Y-118988000D01*
X123861904Y-118940380D01*
X123623809Y-118940380D01*
X123528571Y-118988000D01*
X123480952Y-119035619D01*
X123433333Y-119130857D01*
X123433333Y-119226095D01*
X123480952Y-119368952D01*
X124052380Y-119940380D01*
X123433333Y-119940380D01*
%LPC*%
D13*
X124600000Y-58200000D03*
D14*
X135155000Y-58200000D03*
X114045000Y-58200000D03*
X135155000Y-113900000D03*
X114045000Y-113900000D03*
D13*
X124600000Y-113900000D03*
D15*
X116242740Y-96593020D03*
X116242740Y-103393020D03*
D16*
X127002060Y-53070000D03*
X122002060Y-53070000D03*
D17*
X121070000Y-50400000D03*
X127930000Y-50400000D03*
D18*
X124550000Y-86080000D03*
D19*
X135090000Y-75050000D03*
D20*
X132550000Y-75050000D03*
X135090000Y-72510000D03*
X132550000Y-72510000D03*
X135090000Y-69970000D03*
X132550000Y-69970000D03*
M02*
