G04 #@! TF.GenerationSoftware,KiCad,Pcbnew,(2017-01-24 revision 0b6147e)-makepkg*
G04 #@! TF.CreationDate,2017-06-09T22:20:51-07:00*
G04 #@! TF.ProjectId,POVSpinner,504F565370696E6E65722E6B69636164,rev?*
G04 #@! TF.FileFunction,Soldermask,Top*
G04 #@! TF.FilePolarity,Negative*
%FSLAX46Y46*%
G04 Gerber Fmt 4.6, Leading zero omitted, Abs format (unit mm)*
G04 Created by KiCad (PCBNEW (2017-01-24 revision 0b6147e)-makepkg) date 06/09/17 22:20:51*
%MOMM*%
%LPD*%
G01*
G04 APERTURE LIST*
%ADD10C,0.100000*%
%ADD11R,1.000000X1.950000*%
%ADD12C,3.500000*%
%ADD13R,1.650000X1.400000*%
%ADD14R,1.598880X1.598880*%
%ADD15R,1.700000X1.100000*%
%ADD16R,0.901700X1.303020*%
%ADD17R,1.800000X1.600000*%
%ADD18C,1.300000*%
%ADD19C,1.504000*%
%ADD20C,1.650006*%
%ADD21R,2.299920X2.299920*%
%ADD22R,0.652780X1.602740*%
%ADD23C,1.900000*%
%ADD24C,13.100000*%
%ADD25R,2.127200X2.127200*%
%ADD26O,2.127200X2.127200*%
%ADD27R,1.230000X1.030000*%
G04 APERTURE END LIST*
D10*
D11*
X126405000Y-60700000D03*
X125135000Y-60700000D03*
X123865000Y-60700000D03*
X122595000Y-60700000D03*
X122595000Y-66100000D03*
X123865000Y-66100000D03*
X125135000Y-66100000D03*
X126405000Y-66100000D03*
D12*
X135155000Y-58200000D03*
X114045000Y-58200000D03*
X135155000Y-113900000D03*
X114045000Y-113900000D03*
D13*
X129050000Y-65930000D03*
X129050000Y-63930000D03*
X131630000Y-63920000D03*
X131630000Y-65920000D03*
D14*
X123400000Y-121050980D03*
X123400000Y-123149020D03*
X123400000Y-118849020D03*
X123400000Y-116750980D03*
X123400000Y-112450980D03*
X123400000Y-114549020D03*
X123400000Y-110249020D03*
X123400000Y-108150980D03*
X123400000Y-103850980D03*
X123400000Y-105949020D03*
D15*
X125800000Y-58050000D03*
X125800000Y-56150000D03*
X123200000Y-56150000D03*
X123200000Y-58050000D03*
X125800000Y-123050000D03*
X125800000Y-121150000D03*
X125800000Y-116850000D03*
X125800000Y-118750000D03*
X125800000Y-114450000D03*
X125800000Y-112550000D03*
X125800000Y-108250000D03*
X125800000Y-110150000D03*
X125800000Y-105850000D03*
X125800000Y-103950000D03*
D16*
X131814420Y-56547360D03*
X131814420Y-60692640D03*
X129665580Y-56547360D03*
X129665580Y-60692640D03*
D17*
X114042740Y-97493020D03*
X114042740Y-102493020D03*
X118442740Y-99993020D03*
D18*
X116242740Y-96593020D03*
X116242740Y-103393020D03*
D19*
X127002060Y-53070000D03*
X122002060Y-53070000D03*
D20*
X121070000Y-50400000D03*
X127930000Y-50400000D03*
D21*
X123301120Y-50395380D03*
X125698880Y-50395380D03*
D22*
X123202060Y-53070000D03*
X123852300Y-53070000D03*
X124500000Y-53070000D03*
X125147700Y-53070000D03*
X125797940Y-53070000D03*
D23*
X124550000Y-79222000D03*
D10*
G36*
X126577486Y-80172000D02*
X122522514Y-80172000D01*
X123155848Y-78272000D01*
X125944152Y-78272000D01*
X126577486Y-80172000D01*
X126577486Y-80172000D01*
G37*
D24*
X124550000Y-86080000D03*
D23*
X124550000Y-92938000D03*
D10*
G36*
X122522514Y-91988000D02*
X126577486Y-91988000D01*
X125944152Y-93888000D01*
X123155848Y-93888000D01*
X122522514Y-91988000D01*
X122522514Y-91988000D01*
G37*
D23*
X119724000Y-81254000D03*
D10*
G36*
X121829401Y-80492102D02*
X118962102Y-83359401D01*
X118066434Y-81568063D01*
X120038063Y-79596434D01*
X121829401Y-80492102D01*
X121829401Y-80492102D01*
G37*
D23*
X129376000Y-81254000D03*
D10*
G36*
X130137898Y-83359401D02*
X127270599Y-80492102D01*
X129061937Y-79596434D01*
X131033566Y-81568063D01*
X130137898Y-83359401D01*
X130137898Y-83359401D01*
G37*
D23*
X119724000Y-90906000D03*
D10*
G36*
X118962102Y-88800599D02*
X121829401Y-91667898D01*
X120038063Y-92563566D01*
X118066434Y-90591937D01*
X118962102Y-88800599D01*
X118962102Y-88800599D01*
G37*
D23*
X129376000Y-90906000D03*
D10*
G36*
X127270599Y-91667898D02*
X130137898Y-88800599D01*
X131033566Y-90591937D01*
X129061937Y-92563566D01*
X127270599Y-91667898D01*
X127270599Y-91667898D01*
G37*
D23*
X117692000Y-86080000D03*
D10*
G36*
X118642000Y-84052514D02*
X118642000Y-88107486D01*
X116742000Y-87474152D01*
X116742000Y-84685848D01*
X118642000Y-84052514D01*
X118642000Y-84052514D01*
G37*
D25*
X135090000Y-75050000D03*
D26*
X132550000Y-75050000D03*
X135090000Y-72510000D03*
X132550000Y-72510000D03*
X135090000Y-69970000D03*
X132550000Y-69970000D03*
D27*
X114050000Y-93705000D03*
X114050000Y-91455000D03*
X114000000Y-108595000D03*
X114000000Y-106345000D03*
M02*
