G04 #@! TF.GenerationSoftware,KiCad,Pcbnew,(2017-01-24 revision 0b6147e)-makepkg*
G04 #@! TF.CreationDate,2017-06-09T22:20:51-07:00*
G04 #@! TF.ProjectId,POVSpinner,504F565370696E6E65722E6B69636164,rev?*
G04 #@! TF.FileFunction,Copper,L1,Top,Signal*
G04 #@! TF.FilePolarity,Positive*
%FSLAX46Y46*%
G04 Gerber Fmt 4.6, Leading zero omitted, Abs format (unit mm)*
G04 Created by KiCad (PCBNEW (2017-01-24 revision 0b6147e)-makepkg) date 06/09/17 22:20:51*
%MOMM*%
%LPD*%
G01*
G04 APERTURE LIST*
%ADD10C,0.100000*%
%ADD11R,0.600000X1.550000*%
%ADD12C,3.100000*%
%ADD13R,1.250000X1.000000*%
%ADD14R,1.198880X1.198880*%
%ADD15R,1.300000X0.700000*%
%ADD16R,0.647700X1.049020*%
%ADD17R,1.400000X1.200000*%
%ADD18C,1.250000*%
%ADD19C,1.650000*%
%ADD20R,1.899920X1.899920*%
%ADD21R,0.398780X1.348740*%
%ADD22C,1.500000*%
%ADD23R,1.727200X1.727200*%
%ADD24O,1.727200X1.727200*%
%ADD25R,0.830000X0.630000*%
%ADD26C,0.800000*%
%ADD27C,0.635000*%
%ADD28C,0.254000*%
%ADD29C,0.381000*%
%ADD30C,0.508000*%
%ADD31C,0.250000*%
G04 APERTURE END LIST*
D10*
D11*
X126405000Y-60700000D03*
X125135000Y-60700000D03*
X123865000Y-60700000D03*
X122595000Y-60700000D03*
X122595000Y-66100000D03*
X123865000Y-66100000D03*
X125135000Y-66100000D03*
X126405000Y-66100000D03*
D12*
X135155000Y-58200000D03*
X114045000Y-58200000D03*
X135155000Y-113900000D03*
X114045000Y-113900000D03*
D13*
X129050000Y-65930000D03*
X129050000Y-63930000D03*
X131630000Y-63920000D03*
X131630000Y-65920000D03*
D14*
X123400000Y-121050980D03*
X123400000Y-123149020D03*
X123400000Y-118849020D03*
X123400000Y-116750980D03*
X123400000Y-112450980D03*
X123400000Y-114549020D03*
X123400000Y-110249020D03*
X123400000Y-108150980D03*
X123400000Y-103850980D03*
X123400000Y-105949020D03*
D15*
X125800000Y-58050000D03*
X125800000Y-56150000D03*
X123200000Y-56150000D03*
X123200000Y-58050000D03*
X125800000Y-123050000D03*
X125800000Y-121150000D03*
X125800000Y-116850000D03*
X125800000Y-118750000D03*
X125800000Y-114450000D03*
X125800000Y-112550000D03*
X125800000Y-108250000D03*
X125800000Y-110150000D03*
X125800000Y-105850000D03*
X125800000Y-103950000D03*
D16*
X131814420Y-56547360D03*
X131814420Y-60692640D03*
X129665580Y-56547360D03*
X129665580Y-60692640D03*
D17*
X114042740Y-97493020D03*
X114042740Y-102493020D03*
X118442740Y-99993020D03*
D18*
X127002060Y-53070000D03*
X122002060Y-53070000D03*
D19*
X121070000Y-50400000D03*
X127930000Y-50400000D03*
D20*
X123301120Y-50395380D03*
X125698880Y-50395380D03*
D21*
X123202060Y-53070000D03*
X123852300Y-53070000D03*
X124500000Y-53070000D03*
X125147700Y-53070000D03*
X125797940Y-53070000D03*
D22*
X124550000Y-79222000D03*
D10*
G36*
X126300000Y-79972000D02*
X122800000Y-79972000D01*
X123300000Y-78472000D01*
X125800000Y-78472000D01*
X126300000Y-79972000D01*
X126300000Y-79972000D01*
G37*
D22*
X124550000Y-92938000D03*
D10*
G36*
X122800000Y-92188000D02*
X126300000Y-92188000D01*
X125800000Y-93688000D01*
X123300000Y-93688000D01*
X122800000Y-92188000D01*
X122800000Y-92188000D01*
G37*
D22*
X119724000Y-81254000D03*
D10*
G36*
X121491767Y-80546893D02*
X119016893Y-83021767D01*
X118309786Y-81607553D01*
X120077553Y-79839786D01*
X121491767Y-80546893D01*
X121491767Y-80546893D01*
G37*
D22*
X129376000Y-81254000D03*
D10*
G36*
X130083107Y-83021767D02*
X127608233Y-80546893D01*
X129022447Y-79839786D01*
X130790214Y-81607553D01*
X130083107Y-83021767D01*
X130083107Y-83021767D01*
G37*
D22*
X119724000Y-90906000D03*
D10*
G36*
X119016893Y-89138233D02*
X121491767Y-91613107D01*
X120077553Y-92320214D01*
X118309786Y-90552447D01*
X119016893Y-89138233D01*
X119016893Y-89138233D01*
G37*
D22*
X129376000Y-90906000D03*
D10*
G36*
X127608233Y-91613107D02*
X130083107Y-89138233D01*
X130790214Y-90552447D01*
X129022447Y-92320214D01*
X127608233Y-91613107D01*
X127608233Y-91613107D01*
G37*
D22*
X117692000Y-86080000D03*
D10*
G36*
X118442000Y-84330000D02*
X118442000Y-87830000D01*
X116942000Y-87330000D01*
X116942000Y-84830000D01*
X118442000Y-84330000D01*
X118442000Y-84330000D01*
G37*
D23*
X135090000Y-75050000D03*
D24*
X132550000Y-75050000D03*
X135090000Y-72510000D03*
X132550000Y-72510000D03*
X135090000Y-69970000D03*
X132550000Y-69970000D03*
D25*
X114050000Y-93705000D03*
X114050000Y-91455000D03*
X114000000Y-108595000D03*
X114000000Y-106345000D03*
D26*
X131800000Y-55340000D03*
X133010000Y-63940000D03*
X129020000Y-62680000D03*
X121940000Y-59170000D03*
X123220000Y-54530000D03*
X120480000Y-122100000D03*
X125650000Y-119870000D03*
X127290000Y-115580000D03*
X125660000Y-111260000D03*
X125680000Y-107040000D03*
X126410000Y-67740000D03*
X126410000Y-71010000D03*
D27*
X114045000Y-58200000D02*
X114045000Y-58555000D01*
X114045000Y-58555000D02*
X112600000Y-60000000D01*
X112600000Y-60000000D02*
X112600000Y-108100000D01*
X112600000Y-108100000D02*
X113095000Y-108595000D01*
X113095000Y-108595000D02*
X114000000Y-108595000D01*
X114000000Y-108595000D02*
X114000000Y-113855000D01*
X114000000Y-113855000D02*
X114045000Y-113900000D01*
X136570000Y-62640000D02*
X135155000Y-61225000D01*
X135155000Y-61225000D02*
X135155000Y-58200000D01*
X136570000Y-108920000D02*
X136570000Y-62640000D01*
X135155000Y-110335000D02*
X136570000Y-108920000D01*
X135155000Y-113900000D02*
X135155000Y-110335000D01*
D28*
X131814420Y-56547360D02*
X131814420Y-55354420D01*
X131814420Y-55354420D02*
X131800000Y-55340000D01*
D27*
X131630000Y-63920000D02*
X132990000Y-63920000D01*
X132990000Y-63920000D02*
X133010000Y-63940000D01*
X129050000Y-63930000D02*
X129050000Y-62710000D01*
X129050000Y-62710000D02*
X129020000Y-62680000D01*
X122595000Y-60700000D02*
X122595000Y-59825000D01*
X122595000Y-59825000D02*
X121940000Y-59170000D01*
D29*
X123202060Y-53070000D02*
X123202060Y-54512060D01*
X123202060Y-54512060D02*
X123220000Y-54530000D01*
D28*
X123400000Y-123149020D02*
X121529020Y-123149020D01*
X121529020Y-123149020D02*
X120480000Y-122100000D01*
X124199020Y-118849020D02*
X125220000Y-119870000D01*
X125220000Y-119870000D02*
X125650000Y-119870000D01*
X123400000Y-118849020D02*
X124199020Y-118849020D01*
X124219020Y-114549020D02*
X125250000Y-115580000D01*
X125250000Y-115580000D02*
X127290000Y-115580000D01*
X123400000Y-114549020D02*
X124219020Y-114549020D01*
X124229020Y-110249020D02*
X125240000Y-111260000D01*
X125240000Y-111260000D02*
X125660000Y-111260000D01*
X123400000Y-110249020D02*
X124229020Y-110249020D01*
X124149020Y-105949020D02*
X125240000Y-107040000D01*
X125240000Y-107040000D02*
X125680000Y-107040000D01*
X123400000Y-105949020D02*
X124149020Y-105949020D01*
D29*
X123202060Y-53070000D02*
X123202060Y-53447940D01*
D27*
X126410000Y-67740000D02*
X126410000Y-66105000D01*
X126410000Y-66105000D02*
X126405000Y-66100000D01*
X132550000Y-75040000D02*
X130440000Y-75040000D01*
X130440000Y-75040000D02*
X126410000Y-71010000D01*
X132550000Y-93450000D02*
X126006980Y-99993020D01*
X126006980Y-99993020D02*
X118442740Y-99993020D01*
X132550000Y-75040000D02*
X132550000Y-93450000D01*
X129050000Y-65930000D02*
X131620000Y-65930000D01*
X131620000Y-65930000D02*
X131630000Y-65920000D01*
X129060000Y-65920000D02*
X129050000Y-65930000D01*
X126405000Y-66100000D02*
X128880000Y-66100000D01*
X128880000Y-66100000D02*
X129050000Y-65930000D01*
X129080000Y-65880000D02*
X129300000Y-66100000D01*
D29*
X116300000Y-60300000D02*
X114050000Y-62550000D01*
X114050000Y-62550000D02*
X114050000Y-91455000D01*
X116300000Y-55300000D02*
X116300000Y-60300000D01*
X119800000Y-51800000D02*
X116300000Y-55300000D01*
X125500000Y-51800000D02*
X119800000Y-51800000D01*
X125797940Y-52097940D02*
X125500000Y-51800000D01*
X125797940Y-53070000D02*
X125797940Y-52097940D01*
D27*
X114042740Y-102493020D02*
X114042740Y-106302260D01*
X114042740Y-106302260D02*
X114000000Y-106345000D01*
D29*
X115200000Y-98800000D02*
X114042740Y-99957260D01*
X114042740Y-99957260D02*
X114042740Y-102493020D01*
X115200000Y-96300000D02*
X115200000Y-98800000D01*
X114050000Y-95150000D02*
X115200000Y-96300000D01*
X114050000Y-93705000D02*
X114050000Y-95150000D01*
D30*
X125800000Y-123050000D02*
X125399020Y-123050000D01*
D28*
X125399020Y-123050000D02*
X123400000Y-121050980D01*
D30*
X125800000Y-118750000D02*
X125399020Y-118750000D01*
D28*
X125399020Y-118750000D02*
X123400000Y-116750980D01*
D30*
X125800000Y-114450000D02*
X125399020Y-114450000D01*
D28*
X125399020Y-114450000D02*
X123400000Y-112450980D01*
D30*
X125800000Y-110150000D02*
X125399020Y-110150000D01*
D28*
X125399020Y-110150000D02*
X123400000Y-108150980D01*
D30*
X125800000Y-105850000D02*
X125399020Y-105850000D01*
D28*
X125399020Y-105850000D02*
X123400000Y-103850980D01*
X123865000Y-66100000D02*
X123865000Y-67815000D01*
X123865000Y-67815000D02*
X125410000Y-69360000D01*
X125410000Y-69360000D02*
X130187910Y-69360000D01*
X130187910Y-69360000D02*
X132057910Y-71230000D01*
X132057910Y-71230000D02*
X133160000Y-71230000D01*
X133160000Y-71230000D02*
X133820000Y-71890000D01*
X133820000Y-71890000D02*
X133820000Y-74430000D01*
X133820000Y-74430000D02*
X134430000Y-75040000D01*
X134430000Y-75040000D02*
X135090000Y-75040000D01*
X135090000Y-75040000D02*
X135090000Y-96080000D01*
X135090000Y-96080000D02*
X127220000Y-103950000D01*
X127220000Y-103950000D02*
X125800000Y-103950000D01*
D30*
X125780000Y-103930000D02*
X125800000Y-103950000D01*
D28*
X135090000Y-72500000D02*
X135090000Y-72420000D01*
X135090000Y-72420000D02*
X133820000Y-71150000D01*
X133820000Y-71150000D02*
X133820000Y-69310000D01*
X133820000Y-69310000D02*
X133160000Y-68650000D01*
X133160000Y-68650000D02*
X126020000Y-68650000D01*
X126020000Y-68650000D02*
X125135000Y-67765000D01*
X125135000Y-67765000D02*
X125135000Y-66100000D01*
D31*
X125135000Y-66100000D02*
X125135000Y-64715000D01*
X125135000Y-64715000D02*
X124410000Y-63990000D01*
X124410000Y-63990000D02*
X122070000Y-63990000D01*
X122070000Y-63990000D02*
X115840000Y-70220000D01*
X115840000Y-70220000D02*
X115840000Y-90180000D01*
X115840000Y-90180000D02*
X118110000Y-92450000D01*
X118110000Y-92450000D02*
X118110000Y-97520000D01*
X118110000Y-97520000D02*
X116900000Y-98730000D01*
X116900000Y-98730000D02*
X116900000Y-101000000D01*
X116900000Y-101000000D02*
X121120000Y-105220000D01*
X121120000Y-105220000D02*
X121120000Y-110250000D01*
X121120000Y-110250000D02*
X122200000Y-111330000D01*
X122200000Y-111330000D02*
X124580000Y-111330000D01*
X124580000Y-111330000D02*
X125800000Y-112550000D01*
D28*
X122595000Y-66100000D02*
X122595000Y-67925000D01*
X122595000Y-67925000D02*
X124760000Y-70090000D01*
X124760000Y-70090000D02*
X130140000Y-70090000D01*
X130140000Y-70090000D02*
X132550000Y-72500000D01*
D31*
X122595000Y-66100000D02*
X121060000Y-66100000D01*
X121060000Y-66100000D02*
X116380000Y-70780000D01*
X116380000Y-70780000D02*
X116380000Y-90040000D01*
X116380000Y-90040000D02*
X118600000Y-92260000D01*
X118600000Y-92260000D02*
X118600000Y-97850000D01*
X118600000Y-97850000D02*
X117380000Y-99070000D01*
X117380000Y-99070000D02*
X117380000Y-100800000D01*
X117380000Y-100800000D02*
X121710000Y-105130000D01*
X121710000Y-105130000D02*
X121710000Y-106390000D01*
X121710000Y-106390000D02*
X122330000Y-107010000D01*
X122330000Y-107010000D02*
X124560000Y-107010000D01*
X124560000Y-107010000D02*
X125800000Y-108250000D01*
D28*
X130130000Y-62220000D02*
X129665580Y-61755580D01*
X129665580Y-61755580D02*
X129665580Y-60692640D01*
X133230000Y-62220000D02*
X130130000Y-62220000D01*
X135090000Y-64080000D02*
X133230000Y-62220000D01*
X135090000Y-69960000D02*
X135090000Y-64080000D01*
X126405000Y-60700000D02*
X129658220Y-60700000D01*
X129658220Y-60700000D02*
X129665580Y-60692640D01*
D31*
X125135000Y-60700000D02*
X125135000Y-62555000D01*
X125135000Y-62555000D02*
X124240000Y-63450000D01*
X124240000Y-63450000D02*
X121440000Y-63450000D01*
X121440000Y-63450000D02*
X115240000Y-69650000D01*
X115240000Y-69650000D02*
X115240000Y-90280000D01*
X115240000Y-90280000D02*
X117650000Y-92690000D01*
X117650000Y-92690000D02*
X117650000Y-97280000D01*
X117650000Y-97280000D02*
X116380000Y-98550000D01*
X116380000Y-98550000D02*
X116380000Y-101250000D01*
X116380000Y-101250000D02*
X120640000Y-105510000D01*
X120640000Y-105510000D02*
X120640000Y-113880000D01*
X120640000Y-113880000D02*
X122420000Y-115660000D01*
X122420000Y-115660000D02*
X124610000Y-115660000D01*
X124610000Y-115660000D02*
X125800000Y-116850000D01*
D30*
X125800000Y-58870000D02*
X125135000Y-59535000D01*
X125135000Y-59535000D02*
X125135000Y-60700000D01*
X125800000Y-58050000D02*
X125800000Y-58870000D01*
D29*
X125147700Y-53070000D02*
X125147700Y-55497700D01*
X125147700Y-55497700D02*
X125800000Y-56150000D01*
X124500000Y-53070000D02*
X124500000Y-54850000D01*
X124500000Y-54850000D02*
X123200000Y-56150000D01*
D31*
X123865000Y-60700000D02*
X123865000Y-62525000D01*
X123865000Y-62525000D02*
X123410000Y-62980000D01*
X123410000Y-62980000D02*
X120710000Y-62980000D01*
X120710000Y-62980000D02*
X114680000Y-69010000D01*
X114680000Y-69010000D02*
X114680000Y-90500000D01*
X114680000Y-90500000D02*
X117180000Y-93000000D01*
X117180000Y-93000000D02*
X117180000Y-97010000D01*
X117180000Y-97010000D02*
X115920000Y-98270000D01*
X115920000Y-98270000D02*
X115920000Y-101530000D01*
X115920000Y-101530000D02*
X120070000Y-105680000D01*
X120070000Y-105680000D02*
X120070000Y-117620000D01*
X120070000Y-117620000D02*
X122390000Y-119940000D01*
X122390000Y-119940000D02*
X124590000Y-119940000D01*
X124590000Y-119940000D02*
X125800000Y-121150000D01*
D30*
X123200000Y-58790000D02*
X123865000Y-59455000D01*
X123865000Y-59455000D02*
X123865000Y-60700000D01*
X123200000Y-58050000D02*
X123200000Y-58790000D01*
M02*
