999
dxfrw 0.6.3
  0
SECTION
  2
HEADER
  9
$ACADVER
  1
AC1009
  9
$DWGCODEPAGE
  3
ANSI_1252
  9
$INSBASE
 10
0
 20
0
 30
0
  9
$EXTMIN
 10
23.946186
 20
175.758446761038
 30
0
  9
$EXTMAX
 10
47.852025
 20
261.7090397133848
 30
0
  9
$LIMMIN
 10
0
 20
0
  9
$LIMMAX
 10
420
 20
297
  9
$ORTHOMODE
 70
    0
  9
$REGENMODE
 70
    1
  9
$FILLMODE
 70
    1
  9
$QTEXTMODE
 70
    0
  9
$MIRRTEXT
 70
    0
  9
$DRAGMODE
 70
    2
  9
$LTSCALE
 40
1
  9
$OSMODE
 70
    0
  9
$ATTMODE
 70
    0
  9
$TEXTSIZE
 40
2.5
  9
$TRACEWID
 40
15.68
  9
$TEXTSTYLE
  7
STANDARD
  9
$CLAYER
  8
0
  9
$CELTYPE
  6
BYLAYER
  9
$CECOLOR
 62
  256
  9
$DIMSCALE
 40
2.5
  9
$DIMASZ
 40
2.5
  9
$DIMEXO
 40
0.625
  9
$DIMDLI
 40
3.75
  9
$DIMRND
 40
0
  9
$DIMDLE
 40
0
  9
$DIMEXE
 40
1.25
  9
$DIMTP
 40
0
  9
$DIMTM
 40
0
  9
$DIMTXT
 40
2.5
  9
$DIMCEN
 40
2.5
  9
$DIMTSZ
 40
0
  9
$DIMTOL
 70
    0
  9
$DIMLIM
 70
    0
  9
$DIMTIH
 70
    0
  9
$DIMTOH
 70
    0
  9
$DIMSE1
 70
    0
  9
$DIMSE2
 70
    0
  9
$DIMTAD
 70
    1
  9
$DIMZIN
 70
    8
  9
$DIMBLK
  1

  9
$DIMASO
 70
    1
  9
$DIMSHO
 70
    1
  9
$DIMPOST
  1

  9
$DIMAPOST
  1

  9
$DIMALT
 70
    0
  9
$DIMALTD
 70
    3
  9
$DIMALTF
 40
0.03937
  9
$DIMLFAC
 40
1
  9
$DIMTOFL
 70
    1
  9
$DIMTVP
 40
0
  9
$DIMTIX
 70
    0
  9
$DIMSOXD
 70
    0
  9
$DIMSAH
 70
    0
  9
$DIMBLK1
  1

  9
$DIMBLK2
  1

  9
$DIMSTYLE
  2
STANDARD
  9
$DIMCLRD
 70
    0
  9
$DIMCLRE
 70
    0
  9
$DIMCLRT
 70
    0
  9
$DIMTFAC
 40
1
  9
$DIMGAP
 40
0.625
  9
$LUNITS
 70
    2
  9
$LUPREC
 70
    4
  9
$SKETCHINC
 40
1
  9
$FILLETRAD
 40
0
  9
$AUNITS
 70
    0
  9
$AUPREC
 70
    2
  9
$MENU
  1
.
  9
$ELEVATION
 40
0
  9
$PELEVATION
 40
0
  9
$THICKNESS
 40
0
  9
$LIMCHECK
 70
    0
  9
$BLIPMODE
 70
    0
  9
$CHAMFERA
 40
0
  9
$CHAMFERB
 40
0
  9
$SKPOLY
 70
    0
  9
$USRTIMER
 70
    1
  9
$ANGBASE
 50
0
  9
$ANGDIR
 70
    0
  9
$PDMODE
 70
   34
  9
$PDSIZE
 40
0
  9
$PLINEWID
 40
0
  9
$COORDS
 70
    2
  9
$SPLFRAME
 70
    0
  9
$SPLINETYPE
 70
    2
  9
$SPLINESEGS
 70
    8
  9
$ATTDIA
 70
    1
  9
$ATTREQ
 70
    1
  9
$HANDLING
 70
    1
  9
$HANDSEED
  5
20000
  9
$SURFTAB1
 70
    6
  9
$SURFTAB2
 70
    6
  9
$SURFTYPE
 70
    6
  9
$SURFU
 70
    6
  9
$SURFV
 70
    6
  9
$UCSNAME
  2

  9
$UCSORG
 10
0
 20
0
 30
0
  9
$UCSXDIR
 10
1
 20
0
 30
0
  9
$UCSYDIR
 10
0
 20
1
 30
0
  9
$PUCSNAME
  2

  9
$PUCSORG
 10
0
 20
0
 30
0
  9
$PUCSXDIR
 10
1
 20
0
 30
0
  9
$PUCSYDIR
 10
0
 20
1
 30
0
  9
$USERI1
 70
    0
  9
$USERI2
 70
    0
  9
$USERI3
 70
    0
  9
$USERI4
 70
    0
  9
$USERI5
 70
    0
  9
$USERR1
 40
0
  9
$USERR2
 40
0
  9
$USERR3
 40
0
  9
$USERR4
 40
0
  9
$USERR5
 40
0
  9
$WORLDVIEW
 70
    1
  9
$SHADEDGE
 70
    3
  9
$SHADEDIF
 70
   70
  9
$TILEMODE
 70
    1
  9
$MAXACTVP
 70
   64
  9
$PLIMCHECK
 70
    0
  9
$PEXTMIN
 10
0
 20
0
 30
0
  9
$PEXTMAX
 10
0
 20
0
 30
0
  9
$GRIDMODE
 70
    0
  9
$SNAPSTYLE
 70
    0
  9
$PLIMMIN
 10
0
 20
0
  9
$PLIMMAX
 10
210
 20
297
  9
$UNITMODE
 70
    0
  9
$VISRETAIN
 70
    1
  9
$PLINEGEN
 70
    0
  9
$PSLTSCALE
 70
    1
  0
ENDSEC
  0
SECTION
  2
TABLES
  0
TABLE
  2
VPORT
 70
    1
  0
VPORT
  2
*ACTIVE
 70
    0
 10
0
 20
0
 11
1
 21
1
 12
59.68539124437333
 22
139.7225224540412
 13
0
 23
0
 14
10
 24
10
 15
10
 25
10
 16
0
 26
0
 36
1
 17
0
 27
0
 37
0
 40
111.7388800017612
 41
1.683012259194396
 42
50
 43
0
 44
0
 50
0
 51
0
 71
    0
 72
  100
 73
    1
 74
    3
 75
    0
 76
    0
 77
    0
 78
    0
  0
ENDTAB
  0
TABLE
  2
LTYPE
 70
    4
  0
LTYPE
  2
BYBLOCK
 70
    0
  3

 72
   65
 73
    0
 40
0
  0
LTYPE
  2
BYLAYER
 70
    0
  3

 72
   65
 73
    0
 40
0
  0
LTYPE
  2
CONTINUOUS
 70
    0
  3
Solid line
 72
   65
 73
    0
 40
0
  0
LTYPE
  2
DOT
 70
    0
  3
Dot . . . . . . . . . . . . . . . . . . . . . .
 72
   65
 73
    2
 40
6.35
 49
0
 49
-6.35
  0
LTYPE
  2
DOTTINY
 70
    0
  3
Dot (.15x) .....................................
 72
   65
 73
    2
 40
0.9525
 49
0
 49
-0.9525
  0
LTYPE
  2
DOT2
 70
    0
  3
Dot (.5x) .....................................
 72
   65
 73
    2
 40
3.175
 49
0
 49
-3.175
  0
LTYPE
  2
DOTX2
 70
    0
  3
Dot (2x) .  .  .  .  .  .  .  .  .  .  .  .  .
 72
   65
 73
    2
 40
12.7
 49
0
 49
-12.7
  0
LTYPE
  2
DASHED
 70
    0
  3
Dashed _ _ _ _ _ _ _ _ _ _ _ _ _ _ _ _ _
 72
   65
 73
    2
 40
19.05
 49
12.7
 49
-6.35
  0
LTYPE
  2
DASHEDTINY
 70
    0
  3
Dashed (.15x) _ _ _ _ _ _ _ _ _ _ _ _ _ _ _ _ _
 72
   65
 73
    2
 40
2.8575
 49
1.905
 49
-0.9525
  0
LTYPE
  2
DASHED2
 70
    0
  3
Dashed (.5x) _ _ _ _ _ _ _ _ _ _ _ _ _ _ _ _ _
 72
   65
 73
    2
 40
9.524999999999999
 49
6.35
 49
-3.175
  0
LTYPE
  2
DASHEDX2
 70
    0
  3
Dashed (2x) ____  ____  ____  ____  ____  ___
 72
   65
 73
    2
 40
38.09999999999999
 49
25.4
 49
-12.7
  0
LTYPE
  2
DASHDOT
 70
    0
  3
Dash dot __ . __ . __ . __ . __ . __ . __ . __
 72
   65
 73
    4
 40
25.4
 49
12.7
 49
-6.35
 49
0
 49
-6.35
  0
LTYPE
  2
DASHDOTTINY
 70
    0
  3
Dash dot (.15x) _._._._._._._._._._._._._._._.
 72
   65
 73
    4
 40
3.81
 49
1.905
 49
-0.9525
 49
0
 49
-0.9525
  0
LTYPE
  2
DASHDOT2
 70
    0
  3
Dash dot (.5x) _._._._._._._._._._._._._._._.
 72
   65
 73
    4
 40
12.7
 49
6.35
 49
-3.175
 49
0
 49
-3.175
  0
LTYPE
  2
DASHDOTX2
 70
    0
  3
Dash dot (2x) ____  .  ____  .  ____  .  ___
 72
   65
 73
    4
 40
50.8
 49
25.4
 49
-12.7
 49
0
 49
-12.7
  0
LTYPE
  2
DIVIDE
 70
    0
  3
Divide ____ . . ____ . . ____ . . ____ . . ____
 72
   65
 73
    6
 40
31.75
 49
12.7
 49
-6.35
 49
0
 49
-6.35
 49
0
 49
-6.35
  0
LTYPE
  2
DIVIDETINY
 70
    0
  3
Divide (.15x) __..__..__..__..__..__..__..__.._
 72
   65
 73
    6
 40
4.7625
 49
1.905
 49
-0.9525
 49
0
 49
-0.9525
 49
0
 49
-0.9525
  0
LTYPE
  2
DIVIDE2
 70
    0
  3
Divide (.5x) __..__..__..__..__..__..__..__.._
 72
   65
 73
    6
 40
15.875
 49
6.35
 49
-3.175
 49
0
 49
-3.175
 49
0
 49
-3.175
  0
LTYPE
  2
DIVIDEX2
 70
    0
  3
Divide (2x) ________  .  .  ________  .  .  _
 72
   65
 73
    6
 40
63.5
 49
25.4
 49
-12.7
 49
0
 49
-12.7
 49
0
 49
-12.7
  0
LTYPE
  2
BORDER
 70
    0
  3
Border __ __ . __ __ . __ __ . __ __ . __ __ .
 72
   65
 73
    6
 40
44.45
 49
12.7
 49
-6.35
 49
12.7
 49
-6.35
 49
0
 49
-6.35
  0
LTYPE
  2
BORDERTINY
 70
    0
  3
Border (.15x) __.__.__.__.__.__.__.__.__.__.__.
 72
   65
 73
    6
 40
6.6675
 49
1.905
 49
-0.9525
 49
1.905
 49
-0.9525
 49
0
 49
-0.9525
  0
LTYPE
  2
BORDER2
 70
    0
  3
Border (.5x) __.__.__.__.__.__.__.__.__.__.__.
 72
   65
 73
    6
 40
22.225
 49
6.35
 49
-3.175
 49
6.35
 49
-3.175
 49
0
 49
-3.175
  0
LTYPE
  2
BORDERX2
 70
    0
  3
Border (2x) ____  ____  .  ____  ____  .  ___
 72
   65
 73
    6
 40
88.89999999999999
 49
25.4
 49
-12.7
 49
25.4
 49
-12.7
 49
0
 49
-12.7
  0
LTYPE
  2
CENTER
 70
    0
  3
Center ____ _ ____ _ ____ _ ____ _ ____ _ ____
 72
   65
 73
    4
 40
50.8
 49
31.75
 49
-6.35
 49
6.35
 49
-6.35
  0
LTYPE
  2
CENTERTINY
 70
    0
  3
Center (.15x) ___ _ ___ _ ___ _ ___ _ ___ _ ___
 72
   65
 73
    4
 40
7.62
 49
4.7625
 49
-0.9525
 49
0.9525
 49
-0.9525
  0
LTYPE
  2
CENTER2
 70
    0
  3
Center (.5x) ___ _ ___ _ ___ _ ___ _ ___ _ ___
 72
   65
 73
    4
 40
28.575
 49
19.05
 49
-3.175
 49
3.175
 49
-3.175
  0
LTYPE
  2
CENTERX2
 70
    0
  3
Center (2x) ________  __  ________  __  _____
 72
   65
 73
    4
 40
101.6
 49
63.5
 49
-12.7
 49
12.7
 49
-12.7
  0
ENDTAB
  0
TABLE
  2
LAYER
 70
    1
  0
LAYER
  2
0
 70
    0
 62
    7
  6
CONTINUOUS
  0
LAYER
  2
LAYER_OUTLINE
 70
    0
 62
    7
  6
CONTINUOUS
  0
ENDTAB
  0
TABLE
  2
STYLE
 70
    3
  0
STYLE
  2
STANDARD
 70
    0
 40
0
 41
1
 50
0
 71
    0
 42
1
  3
TXT
  4

  0
ENDTAB
  0
TABLE
  2
VIEW
 70
    0
  0
ENDTAB
  0
TABLE
  2
UCS
 70
    0
  0
ENDTAB
  0
TABLE
  2
APPID
 70
    1
  0
APPID
  2
ACAD
 70
    0
  0
APPID
  2
LIBRECAD
 70
    0
  0
ENDTAB
  0
TABLE
  2
DIMSTYLE
 70
    1
  0
DIMSTYLE
  2
STANDARD
 70
    0
  3

  4

  5

  6

  7

 40
1
 41
2.5
 42
0.625
 43
0.38
 44
1.25
 45
0
 46
0
 47
0
 48
0
 49
1
140
2.5
141
0.09
142
2.5
143
25.4
144
1
145
0
146
1
147
0.625
 71
    0
 72
    0
 73
    0
 74
    1
 75
    0
 76
    0
 77
    0
 78
    1
170
    0
171
    2
172
    0
173
    0
174
    0
175
    0
176
    0
177
    0
178
    0
  0
ENDTAB
  0
ENDSEC
  0
SECTION
  2
BLOCKS
  0
BLOCK
  8
0
  2
$MODEL_SPACE
 70
    0
 10
0
 20
0
 30
0
  3
$MODEL_SPACE
  1

  0
ENDBLK
  8
0
  0
BLOCK
  8
0
  2
$PAPER_SPACE
 70
    0
 10
0
 20
0
 30
0
  3
$PAPER_SPACE
  1

  0
ENDBLK
  8
0
  0
ENDSEC
  0
SECTION
  2
ENTITIES
  0
LINE
  5
31
  8
LAYER_OUTLINE
  6
BYLAYER
 62
    7
 10
47.847092
 20
187.587324
 11
47.80618717304195
 21
187.1941578727794
  0
LINE
  5
32
  8
LAYER_OUTLINE
  6
BYLAYER
 62
    7
 10
47.80618717304195
 20
187.1941578727794
 11
47.76376080979164
 21
186.801430156312
  0
LINE
  5
33
  8
LAYER_OUTLINE
  6
BYLAYER
 62
    7
 10
47.76376080979164
 20
186.801430156312
 11
47.71829135690424
 21
186.409579245281
  0
LINE
  5
34
  8
LAYER_OUTLINE
  6
BYLAYER
 62
    7
 10
47.71829135690424
 20
186.409579245281
 11
47.66825726103487
 21
186.0190435343698
  0
LINE
  5
35
  8
LAYER_OUTLINE
  6
BYLAYER
 62
    7
 10
47.66825726103487
 20
186.0190435343698
 11
47.61213696883864
 21
185.6302614182616
  0
LINE
  5
36
  8
LAYER_OUTLINE
  6
BYLAYER
 62
    7
 10
47.61213696883864
 20
185.6302614182616
 11
47.54840892697069
 21
185.2436712916395
  0
LINE
  5
37
  8
LAYER_OUTLINE
  6
BYLAYER
 62
    7
 10
47.54840892697069
 20
185.2436712916395
 11
47.47555158208613
 21
184.859711549187
  0
LINE
  5
38
  8
LAYER_OUTLINE
  6
BYLAYER
 62
    7
 10
47.47555158208613
 20
184.859711549187
 11
47.39204338084009
 21
184.478820585587
  0
LINE
  5
39
  8
LAYER_OUTLINE
  6
BYLAYER
 62
    7
 10
47.39204338084009
 20
184.478820585587
 11
47.29636276988771
 21
184.1014367955231
  0
LINE
  5
3A
  8
LAYER_OUTLINE
  6
BYLAYER
 62
    7
 10
47.29636276988771
 20
184.1014367955231
 11
47.1869881958841
 21
183.7279985736784
  0
LINE
  5
3B
  8
LAYER_OUTLINE
  6
BYLAYER
 62
    7
 10
47.1869881958841
 20
183.7279985736784
 11
47.06242999330532
 21
183.3589433423637
  0
LINE
  5
3C
  8
LAYER_OUTLINE
  6
BYLAYER
 62
    7
 10
47.06242999330532
 20
183.3589433423637
 11
46.9221689428738
 21
182.9946789315529
  0
LINE
  5
3D
  8
LAYER_OUTLINE
  6
BYLAYER
 62
    7
 10
46.9221689428738
 20
182.9946789315529
 11
46.76680968103219
 21
182.6355789008863
  0
LINE
  5
3E
  8
LAYER_OUTLINE
  6
BYLAYER
 62
    7
 10
46.76680968103219
 20
182.6355789008863
 11
46.59701962126022
 21
182.2820148957098
  0
LINE
  5
3F
  8
LAYER_OUTLINE
  6
BYLAYER
 62
    7
 10
46.59701962126022
 20
182.2820148957098
 11
46.41346617703766
 21
181.9343585613695
  0
LINE
  5
40
  8
LAYER_OUTLINE
  6
BYLAYER
 62
    7
 10
46.41346617703766
 20
181.9343585613695
 11
46.21681676184422
 21
181.5929815432118
  0
LINE
  5
41
  8
LAYER_OUTLINE
  6
BYLAYER
 62
    7
 10
46.21681676184422
 20
181.5929815432118
 11
46.00773878915969
 21
181.2582554865826
  0
LINE
  5
42
  8
LAYER_OUTLINE
  6
BYLAYER
 62
    7
 10
46.00773878915969
 20
181.2582554865826
 11
45.78689967246379
 21
180.9305520368282
  0
LINE
  5
43
  8
LAYER_OUTLINE
  6
BYLAYER
 62
    7
 10
45.78689967246379
 20
180.9305520368282
 11
45.55496682523629
 21
180.6102428392947
  0
LINE
  5
44
  8
LAYER_OUTLINE
  6
BYLAYER
 62
    7
 10
45.55496682523629
 20
180.6102428392947
 11
45.31260766095694
 21
180.2976995393284
  0
LINE
  5
45
  8
LAYER_OUTLINE
  6
BYLAYER
 62
    7
 10
45.31260766095694
 20
180.2976995393284
 11
45.06048959282663
 21
179.9932937822082
  0
LINE
  5
46
  8
LAYER_OUTLINE
  6
BYLAYER
 62
    7
 10
45.06048959282663
 20
179.9932937822082
 11
44.79920275952067
 21
179.6973786518244
  0
LINE
  5
47
  8
LAYER_OUTLINE
  6
BYLAYER
 62
    7
 10
44.79920275952067
 20
179.6973786518244
 11
44.52904230969547
 21
179.4102363752807
  0
LINE
  5
48
  8
LAYER_OUTLINE
  6
BYLAYER
 62
    7
 10
44.52904230969547
 20
179.4102363752807
 11
44.25023301195256
 21
179.1321322743481
  0
LINE
  5
49
  8
LAYER_OUTLINE
  6
BYLAYER
 62
    7
 10
44.25023301195256
 20
179.1321322743481
 11
43.96299963489351
 21
178.8633316707974
  0
LINE
  5
4A
  8
LAYER_OUTLINE
  6
BYLAYER
 62
    7
 10
43.96299963489351
 20
178.8633316707974
 11
43.66756694711984
 21
178.6040998863995
  0
LINE
  5
4B
  8
LAYER_OUTLINE
  6
BYLAYER
 62
    7
 10
43.66756694711984
 20
178.6040998863995
 11
43.36415971723315
 21
178.3547022429253
  0
LINE
  5
4C
  8
LAYER_OUTLINE
  6
BYLAYER
 62
    7
 10
43.36415971723315
 20
178.3547022429253
 11
43.05300271383496
 21
178.1154040621457
  0
LINE
  5
4D
  8
LAYER_OUTLINE
  6
BYLAYER
 62
    7
 10
43.05300271383496
 20
178.1154040621457
 11
42.73432070552682
 21
177.8864706658316
  0
LINE
  5
4E
  8
LAYER_OUTLINE
  6
BYLAYER
 62
    7
 10
42.73432070552682
 20
177.8864706658316
 11
42.4083384609103
 21
177.6681673757539
  0
LINE
  5
4F
  8
LAYER_OUTLINE
  6
BYLAYER
 62
    7
 10
42.4083384609103
 20
177.6681673757539
 11
42.07528074858693
 21
177.4607595136834
  0
LINE
  5
50
  8
LAYER_OUTLINE
  6
BYLAYER
 62
    7
 10
42.07528074858693
 20
177.4607595136834
 11
41.73537456541756
 21
177.2645110031996
  0
LINE
  5
51
  8
LAYER_OUTLINE
  6
BYLAYER
 62
    7
 10
41.73537456541756
 20
177.2645110031996
 11
41.38893341847746
 21
177.0796314843243
  0
LINE
  5
52
  8
LAYER_OUTLINE
  6
BYLAYER
 62
    7
 10
41.38893341847746
 20
177.0796314843243
 11
41.03638312913078
 21
176.9062601219426
  0
LINE
  5
53
  8
LAYER_OUTLINE
  6
BYLAYER
 62
    7
 10
41.03638312913078
 20
176.9062601219426
 11
40.67815701830546
 21
176.7445313751023
  0
LINE
  5
54
  8
LAYER_OUTLINE
  6
BYLAYER
 62
    7
 10
40.67815701830546
 20
176.7445313751023
 11
40.31468840692951
 21
176.594579702851
  0
LINE
  5
55
  8
LAYER_OUTLINE
  6
BYLAYER
 62
    7
 10
40.31468840692951
 20
176.594579702851
 11
39.94641061593092
 21
176.4565395642366
  0
LINE
  5
56
  8
LAYER_OUTLINE
  6
BYLAYER
 62
    7
 10
39.94641061593092
 20
176.4565395642366
 11
39.57375696623767
 21
176.3305454183066
  0
LINE
  5
57
  8
LAYER_OUTLINE
  6
BYLAYER
 62
    7
 10
39.57375696623767
 20
176.3305454183066
 11
39.19716077877774
 21
176.2167317241089
  0
LINE
  5
58
  8
LAYER_OUTLINE
  6
BYLAYER
 62
    7
 10
39.19716077877774
 20
176.2167317241089
 11
38.81705537447917
 21
176.1152329406911
  0
LINE
  5
59
  8
LAYER_OUTLINE
  6
BYLAYER
 62
    7
 10
38.81705537447917
 20
176.1152329406911
 11
38.43387407426988
 21
176.026183527101
  0
LINE
  5
5A
  8
LAYER_OUTLINE
  6
BYLAYER
 62
    7
 10
38.43387407426988
 20
176.026183527101
 11
38.04805019907791
 21
175.9497179423862
  0
LINE
  5
5B
  8
LAYER_OUTLINE
  6
BYLAYER
 62
    7
 10
38.04805019907791
 20
175.9497179423862
 11
37.6600147097001
 21
175.8859610649991
  0
LINE
  5
5C
  8
LAYER_OUTLINE
  6
BYLAYER
 62
    7
 10
37.6600147097001
 20
175.8859610649991
 11
37.27017825159769
 21
175.8349553063578
  0
LINE
  5
5D
  8
LAYER_OUTLINE
  6
BYLAYER
 62
    7
 10
37.27017825159769
 20
175.8349553063578
 11
36.87894110525309
 21
175.7967010028161
  0
LINE
  5
5E
  8
LAYER_OUTLINE
  6
BYLAYER
 62
    7
 10
36.87894110525309
 20
175.7967010028161
 11
36.48670346829013
 21
175.7711981543755
  0
LINE
  5
5F
  8
LAYER_OUTLINE
  6
BYLAYER
 62
    7
 10
36.48670346829013
 20
175.7711981543755
 11
36.09386553833261
 21
175.758446761038
  0
LINE
  5
60
  8
LAYER_OUTLINE
  6
BYLAYER
 62
    7
 10
36.09386553833261
 20
175.758446761038
 11
35.70082751300432
 21
175.758446822805
  0
LINE
  5
61
  8
LAYER_OUTLINE
  6
BYLAYER
 62
    7
 10
35.70082751300432
 20
175.758446822805
 11
35.30798958992911
 21
175.7711983396784
  0
LINE
  5
62
  8
LAYER_OUTLINE
  6
BYLAYER
 62
    7
 10
35.30798958992911
 20
175.7711983396784
 11
34.91575196673075
 21
175.7967013116597
  0
LINE
  5
63
  8
LAYER_OUTLINE
  6
BYLAYER
 62
    7
 10
34.91575196673075
 20
175.7967013116597
 11
34.52451484103307
 21
175.8349557387507
  0
LINE
  5
64
  8
LAYER_OUTLINE
  6
BYLAYER
 62
    7
 10
34.52451484103307
 20
175.8349557387507
 11
34.13467841045988
 21
175.885961620953
  0
LINE
  5
65
  8
LAYER_OUTLINE
  6
BYLAYER
 62
    7
 10
34.13467841045988
 20
175.885961620953
 11
33.7466429554832
 21
175.9497186219319
  0
LINE
  5
66
  8
LAYER_OUTLINE
  6
BYLAYER
 62
    7
 10
33.7466429554832
 20
175.9497186219319
 11
33.36081912078333
 21
176.0261843300669
  0
LINE
  5
67
  8
LAYER_OUTLINE
  6
BYLAYER
 62
    7
 10
33.36081912078333
 20
176.0261843300669
 11
32.97763786515183
 21
176.115233865111
  0
LINE
  5
68
  8
LAYER_OUTLINE
  6
BYLAYER
 62
    7
 10
32.97763786515183
 20
176.115233865111
 11
32.59753250740916
 21
176.2167327658736
  0
LINE
  5
69
  8
LAYER_OUTLINE
  6
BYLAYER
 62
    7
 10
32.59753250740916
 20
176.2167327658736
 11
32.22093636637586
 21
176.3305465711641
  0
LINE
  5
6A
  8
LAYER_OUTLINE
  6
BYLAYER
 62
    7
 10
32.22093636637586
 20
176.3305465711641
 11
31.84828276087244
 21
176.4565408197919
  0
LINE
  5
6B
  8
LAYER_OUTLINE
  6
BYLAYER
 62
    7
 10
31.84828276087244
 20
176.4565408197919
 11
31.48000500971938
 21
176.5945810505663
  0
LINE
  5
6C
  8
LAYER_OUTLINE
  6
BYLAYER
 62
    7
 10
31.48000500971938
 20
176.5945810505663
 11
31.11653643173722
 21
176.744532802297
  0
LINE
  5
6D
  8
LAYER_OUTLINE
  6
BYLAYER
 62
    7
 10
31.11653643173722
 20
176.744532802297
 11
30.75831034574646
 21
176.9062616137933
  0
LINE
  5
6E
  8
LAYER_OUTLINE
  6
BYLAYER
 62
    7
 10
30.75831034574646
 20
176.9062616137933
 11
30.40576007056759
 21
177.0796330238645
  0
LINE
  5
6F
  8
LAYER_OUTLINE
  6
BYLAYER
 62
    7
 10
30.40576007056759
 20
177.0796330238645
 11
30.05931892502115
 21
177.2645125713202
  0
LINE
  5
70
  8
LAYER_OUTLINE
  6
BYLAYER
 62
    7
 10
30.05931892502115
 20
177.2645125713202
 11
29.71941272872004
 21
177.4607610894184
  0
LINE
  5
71
  8
LAYER_OUTLINE
  6
BYLAYER
 62
    7
 10
29.71941272872004
 20
177.4607610894184
 11
29.38635499004997
 21
177.66816893914
  0
LINE
  5
72
  8
LAYER_OUTLINE
  6
BYLAYER
 62
    7
 10
29.38635499004997
 20
177.66816893914
 11
29.06037270837668
 21
177.8864721993803
  0
LINE
  5
73
  8
LAYER_OUTLINE
  6
BYLAYER
 62
    7
 10
29.06037270837668
 20
177.8864721993803
 11
28.74169065477015
 21
178.1154055508386
  0
LINE
  5
74
  8
LAYER_OUTLINE
  6
BYLAYER
 62
    7
 10
28.74169065477015
 20
178.1154055508386
 11
28.43053360030032
 21
178.3547036742146
  0
LINE
  5
75
  8
LAYER_OUTLINE
  6
BYLAYER
 62
    7
 10
28.43053360030032
 20
178.3547036742146
 11
28.12712631603719
 21
178.6041012502077
  0
LINE
  5
76
  8
LAYER_OUTLINE
  6
BYLAYER
 62
    7
 10
28.12712631603719
 20
178.6041012502077
 11
27.83169357305071
 21
178.8633329595173
  0
LINE
  5
77
  8
LAYER_OUTLINE
  6
BYLAYER
 62
    7
 10
27.83169357305071
 20
178.8633329595173
 11
27.54446014241087
 21
179.1321334828431
  0
LINE
  5
78
  8
LAYER_OUTLINE
  6
BYLAYER
 62
    7
 10
27.54446014241087
 20
179.1321334828431
 11
27.26565079518761
 21
179.4102375008845
  0
LINE
  5
79
  8
LAYER_OUTLINE
  6
BYLAYER
 62
    7
 10
27.26565079518761
 20
179.4102375008845
 11
26.99549030245093
 21
179.6973796943409
  0
LINE
  5
7A
  8
LAYER_OUTLINE
  6
BYLAYER
 62
    7
 10
26.99549030245093
 20
179.6973796943409
 11
26.73420343527077
 21
179.9932947439119
  0
LINE
  5
7B
  8
LAYER_OUTLINE
  6
BYLAYER
 62
    7
 10
26.73420343527077
 20
179.9932947439119
 11
26.48208534289024
 21
180.2977004249668
  0
LINE
  5
7C
  8
LAYER_OUTLINE
  6
BYLAYER
 62
    7
 10
26.48208534289024
 20
180.2977004249668
 11
26.23972616121036
 21
180.6102436550128
  0
LINE
  5
7D
  8
LAYER_OUTLINE
  6
BYLAYER
 62
    7
 10
26.23972616121036
 20
180.6102436550128
 11
26.00779330096147
 21
180.9305527896014
  0
LINE
  5
7E
  8
LAYER_OUTLINE
  6
BYLAYER
 62
    7
 10
26.00779330096147
 20
180.9305527896014
 11
25.78695417315302
 21
181.2582561842178
  0
LINE
  5
7F
  8
LAYER_OUTLINE
  6
BYLAYER
 62
    7
 10
25.78695417315302
 20
181.2582561842178
 11
25.57787618879446
 21
181.5929821943465
  0
LINE
  5
80
  8
LAYER_OUTLINE
  6
BYLAYER
 62
    7
 10
25.57787618879446
 20
181.5929821943465
 11
25.38122675889523
 21
181.9343591754723
  0
LINE
  5
81
  8
LAYER_OUTLINE
  6
BYLAYER
 62
    7
 10
25.38122675889523
 20
181.9343591754723
 11
25.19767329446481
 21
182.28201548308
  0
LINE
  5
82
  8
LAYER_OUTLINE
  6
BYLAYER
 62
    7
 10
25.19767329446481
 20
182.28201548308
 11
25.02788320651261
 21
182.6355794726543
  0
LINE
  5
83
  8
LAYER_OUTLINE
  6
BYLAYER
 62
    7
 10
25.02788320651261
 20
182.6355794726543
 11
24.87252390604811
 21
182.99467949968
  0
LINE
  5
84
  8
LAYER_OUTLINE
  6
BYLAYER
 62
    7
 10
24.87252390604811
 20
182.99467949968
 11
24.73226280408075
 21
183.3589439196419
  0
LINE
  5
85
  8
LAYER_OUTLINE
  6
BYLAYER
 62
    7
 10
24.73226280408075
 20
183.3589439196419
 11
24.6077045346309
 21
183.7279991734734
  0
LINE
  5
86
  8
LAYER_OUTLINE
  6
BYLAYER
 62
    7
 10
24.6077045346309
 20
183.7279991734734
 11
24.49832987685834
 21
184.1014374271654
  0
LINE
  5
87
  8
LAYER_OUTLINE
  6
BYLAYER
 62
    7
 10
24.49832987685834
 20
184.1014374271654
 11
24.40264916441886
 21
184.4788212503922
  0
LINE
  5
88
  8
LAYER_OUTLINE
  6
BYLAYER
 62
    7
 10
24.40264916441886
 20
184.4788212503922
 11
24.31914084317169
 21
184.859712240325
  0
LINE
  5
89
  8
LAYER_OUTLINE
  6
BYLAYER
 62
    7
 10
24.31914084317169
 20
184.859712240325
 11
24.24628335897602
 21
185.2436719941349
  0
LINE
  5
8A
  8
LAYER_OUTLINE
  6
BYLAYER
 62
    7
 10
24.24628335897602
 20
185.2436719941349
 11
24.18255515769108
 21
185.6302621089931
  0
LINE
  5
8B
  8
LAYER_OUTLINE
  6
BYLAYER
 62
    7
 10
24.18255515769108
 20
185.6302621089931
 11
24.12643468517609
 21
186.0190441820708
  0
LINE
  5
8C
  8
LAYER_OUTLINE
  6
BYLAYER
 62
    7
 10
24.12643468517609
 20
186.0190441820708
 11
24.07640038729027
 21
186.4095798105392
  0
LINE
  5
8D
  8
LAYER_OUTLINE
  6
BYLAYER
 62
    7
 10
24.07640038729027
 20
186.4095798105392
 11
24.03093070989284
 21
186.8014305915693
  0
LINE
  5
8E
  8
LAYER_OUTLINE
  6
BYLAYER
 62
    7
 10
24.03093070989284
 20
186.8014305915693
 11
23.98850409884301
 21
187.1941581223326
  0
LINE
  5
8F
  8
LAYER_OUTLINE
  6
BYLAYER
 62
    7
 10
23.98850409884301
 20
187.1941581223326
 11
23.947599
 21
187.587324
  0
LINE
  5
90
  8
LAYER_OUTLINE
  6
BYLAYER
 62
    7
 10
47.847092
 20
249.880164
 11
47.8061871535936
 21
250.2733299196953
  0
LINE
  5
91
  8
LAYER_OUTLINE
  6
BYLAYER
 62
    7
 10
47.8061871535936
 20
250.2733299196953
 11
47.76376074777286
 21
250.6660574540341
  0
LINE
  5
92
  8
LAYER_OUTLINE
  6
BYLAYER
 62
    7
 10
47.76376074777286
 20
250.6660574540341
 11
47.71829123316824
 21
251.0579082068622
  0
LINE
  5
93
  8
LAYER_OUTLINE
  6
BYLAYER
 62
    7
 10
47.71829123316824
 20
251.0579082068622
 11
47.66825706041022
 21
251.4484437820253
  0
LINE
  5
94
  8
LAYER_OUTLINE
  6
BYLAYER
 62
    7
 10
47.66825706041022
 20
251.4484437820253
 11
47.61213668012926
 21
251.8372257833691
  0
LINE
  5
95
  8
LAYER_OUTLINE
  6
BYLAYER
 62
    7
 10
47.61213668012926
 20
251.8372257833691
 11
47.54840854295585
 21
252.2238158147396
  0
LINE
  5
96
  8
LAYER_OUTLINE
  6
BYLAYER
 62
    7
 10
47.54840854295585
 20
252.2238158147396
 11
47.47555109952047
 21
252.6077754799824
  0
LINE
  5
97
  8
LAYER_OUTLINE
  6
BYLAYER
 62
    7
 10
47.47555109952047
 20
252.6077754799824
 11
47.39204280045357
 21
252.9886663829433
  0
LINE
  5
98
  8
LAYER_OUTLINE
  6
BYLAYER
 62
    7
 10
47.39204280045357
 20
252.9886663829433
 11
47.29636209638561
 21
253.366050127468
  0
LINE
  5
99
  8
LAYER_OUTLINE
  6
BYLAYER
 62
    7
 10
47.29636209638561
 20
253.366050127468
 11
47.18698743794711
 21
253.7394883174023
  0
LINE
  5
9A
  8
LAYER_OUTLINE
  6
BYLAYER
 62
    7
 10
47.18698743794711
 20
253.7394883174023
 11
47.06242916386264
 21
254.1085435289602
  0
LINE
  5
9B
  8
LAYER_OUTLINE
  6
BYLAYER
 62
    7
 10
47.06242916386264
 20
254.1085435289602
 11
46.92216805865677
 21
254.4728079302936
  0
LINE
  5
9C
  8
LAYER_OUTLINE
  6
BYLAYER
 62
    7
 10
46.92216805865677
 20
254.4728079302936
 11
46.76680875704781
 21
254.8319079592742
  0
LINE
  5
9D
  8
LAYER_OUTLINE
  6
BYLAYER
 62
    7
 10
46.76680875704781
 20
254.8319079592742
 11
46.59701867002884
 21
255.1854719680195
  0
LINE
  5
9E
  8
LAYER_OUTLINE
  6
BYLAYER
 62
    7
 10
46.59701867002884
 20
255.1854719680195
 11
46.41346520859293
 21
255.5331283086468
  0
LINE
  5
9F
  8
LAYER_OUTLINE
  6
BYLAYER
 62
    7
 10
46.41346520859293
 20
255.5331283086468
 11
46.2168157837332
 21
255.8745053332736
  0
LINE
  5
A0
  8
LAYER_OUTLINE
  6
BYLAYER
 62
    7
 10
46.2168157837332
 20
255.8745053332736
 11
46.00773780644273
 21
256.2092313940171
  0
LINE
  5
A1
  8
LAYER_OUTLINE
  6
BYLAYER
 62
    7
 10
46.00773780644273
 20
256.2092313940171
 11
45.78689868771458
 21
256.5369348429948
  0
LINE
  5
A2
  8
LAYER_OUTLINE
  6
BYLAYER
 62
    7
 10
45.78689868771458
 20
256.5369348429948
 11
45.55496583854189
 21
256.857244032324
  0
LINE
  5
A3
  8
LAYER_OUTLINE
  6
BYLAYER
 62
    7
 10
45.55496583854189
 20
256.857244032324
 11
45.31260666991771
 21
257.1697873141221
  0
LINE
  5
A4
  8
LAYER_OUTLINE
  6
BYLAYER
 62
    7
 10
45.31260666991771
 20
257.1697873141221
 11
45.06048859255613
 21
257.4741930405736
  0
LINE
  5
A5
  8
LAYER_OUTLINE
  6
BYLAYER
 62
    7
 10
45.06048859255613
 20
257.4741930405736
 11
44.79920174249834
 21
257.7701081263536
  0
LINE
  5
A6
  8
LAYER_OUTLINE
  6
BYLAYER
 62
    7
 10
44.79920174249834
 20
257.7701081263536
 11
44.52904126822713
 21
258.0572503464032
  0
LINE
  5
A7
  8
LAYER_OUTLINE
  6
BYLAYER
 62
    7
 10
44.52904126822713
 20
258.0572503464032
 11
44.25023193947951
 21
258.335354381653
  0
LINE
  5
A8
  8
LAYER_OUTLINE
  6
BYLAYER
 62
    7
 10
44.25023193947951
 20
258.335354381653
 11
43.96299852599252
 21
258.6041549130337
  0
LINE
  5
A9
  8
LAYER_OUTLINE
  6
BYLAYER
 62
    7
 10
43.96299852599252
 20
258.6041549130337
 11
43.66756579750319
 21
258.8633866214759
  0
LINE
  5
AA
  8
LAYER_OUTLINE
  6
BYLAYER
 62
    7
 10
43.66756579750319
 20
258.8633866214759
 11
43.36415852374853
 21
259.1127841879103
  0
LINE
  5
AB
  8
LAYER_OUTLINE
  6
BYLAYER
 62
    7
 10
43.36415852374853
 20
259.1127841879103
 11
43.05300147446557
 21
259.3520822932677
  0
LINE
  5
AC
  8
LAYER_OUTLINE
  6
BYLAYER
 62
    7
 10
43.05300147446557
 20
259.3520822932677
 11
42.73431941939135
 21
259.5810156184785
  0
LINE
  5
AD
  8
LAYER_OUTLINE
  6
BYLAYER
 62
    7
 10
42.73431941939135
 20
259.5810156184785
 11
42.40833712826289
 21
259.7993188444736
  0
LINE
  5
AE
  8
LAYER_OUTLINE
  6
BYLAYER
 62
    7
 10
42.40833712826289
 20
259.7993188444736
 11
42.07527937081721
 21
260.0067266521837
  0
LINE
  5
AF
  8
LAYER_OUTLINE
  6
BYLAYER
 62
    7
 10
42.07527937081721
 20
260.0067266521837
 11
41.73537314513369
 21
260.2029751207411
  0
LINE
  5
B0
  8
LAYER_OUTLINE
  6
BYLAYER
 62
    7
 10
41.73537314513369
 20
260.2029751207411
 11
41.38893196011724
 21
260.3878546116021
  0
LINE
  5
B1
  8
LAYER_OUTLINE
  6
BYLAYER
 62
    7
 10
41.38893196011724
 20
260.3878546116021
 11
41.03638163824243
 21
260.5612259588072
  0
LINE
  5
B2
  8
LAYER_OUTLINE
  6
BYLAYER
 62
    7
 10
41.03638163824243
 20
260.5612259588072
 11
40.67815550134774
 21
260.7229547019696
  0
LINE
  5
B3
  8
LAYER_OUTLINE
  6
BYLAYER
 62
    7
 10
40.67815550134774
 20
260.7229547019696
 11
40.31468687127157
 21
260.8729063807015
  0
LINE
  5
B4
  8
LAYER_OUTLINE
  6
BYLAYER
 62
    7
 10
40.31468687127157
 20
260.8729063807015
 11
39.94640906985239
 21
261.010946534616
  0
LINE
  5
B5
  8
LAYER_OUTLINE
  6
BYLAYER
 62
    7
 10
39.94640906985239
 20
261.010946534616
 11
39.57375541892864
 21
261.1369407033256
  0
LINE
  5
B6
  8
LAYER_OUTLINE
  6
BYLAYER
 62
    7
 10
39.57375541892864
 20
261.1369407033256
 11
39.19715924033876
 21
261.250754426443
  0
LINE
  5
B7
  8
LAYER_OUTLINE
  6
BYLAYER
 62
    7
 10
39.19715924033876
 20
261.250754426443
 11
38.81705385592117
 21
261.3522532435808
  0
LINE
  5
B8
  8
LAYER_OUTLINE
  6
BYLAYER
 62
    7
 10
38.81705385592117
 20
261.3522532435808
 11
38.43387258751434
 21
261.4413026943519
  0
LINE
  5
B9
  8
LAYER_OUTLINE
  6
BYLAYER
 62
    7
 10
38.43387258751434
 20
261.4413026943519
 11
38.04804875695669
 21
261.5177683183688
  0
LINE
  5
BA
  8
LAYER_OUTLINE
  6
BYLAYER
 62
    7
 10
38.04804875695669
 20
261.5177683183688
 11
37.66001332564279
 21
261.5815252361046
  0
LINE
  5
BB
  8
LAYER_OUTLINE
  6
BYLAYER
 62
    7
 10
37.66001332564279
 20
261.5815252361046
 11
37.2701769372274
 21
261.6325310361794
  0
LINE
  5
BC
  8
LAYER_OUTLINE
  6
BYLAYER
 62
    7
 10
37.2701769372274
 20
261.6325310361794
 11
36.87893986928119
 21
261.6707853823527
  0
LINE
  5
BD
  8
LAYER_OUTLINE
  6
BYLAYER
 62
    7
 10
36.87893986928119
 20
261.6707853823527
 11
36.48670231651093
 21
261.6962882747219
  0
LINE
  5
BE
  8
LAYER_OUTLINE
  6
BYLAYER
 62
    7
 10
36.48670231651093
 20
261.6962882747219
 11
36.09386447362343
 21
261.7090397133848
  0
LINE
  5
BF
  8
LAYER_OUTLINE
  6
BYLAYER
 62
    7
 10
36.09386447362343
 20
261.7090397133848
 11
35.70082653532548
 21
261.709039698439
  0
LINE
  5
C0
  8
LAYER_OUTLINE
  6
BYLAYER
 62
    7
 10
35.70082653532548
 20
261.709039698439
 11
35.30798869632389
 21
261.6962882299823
  0
LINE
  5
C1
  8
LAYER_OUTLINE
  6
BYLAYER
 62
    7
 10
35.30798869632389
 20
261.6962882299823
 11
34.91575115132542
 21
261.6707853081122
  0
LINE
  5
C2
  8
LAYER_OUTLINE
  6
BYLAYER
 62
    7
 10
34.91575115132542
 20
261.6707853081122
 11
34.52451409503686
 21
261.6325309329263
  0
LINE
  5
C3
  8
LAYER_OUTLINE
  6
BYLAYER
 62
    7
 10
34.52451409503686
 20
261.6325309329263
 11
34.13467772216502
 21
261.5815251045224
  0
LINE
  5
C4
  8
LAYER_OUTLINE
  6
BYLAYER
 62
    7
 10
34.13467772216502
 20
261.5815251045224
 11
33.74664231028162
 21
261.5177681593461
  0
LINE
  5
C5
  8
LAYER_OUTLINE
  6
BYLAYER
 62
    7
 10
33.74664231028162
 20
261.5177681593461
 11
33.36081850290635
 21
261.4413025091266
  0
LINE
  5
C6
  8
LAYER_OUTLINE
  6
BYLAYER
 62
    7
 10
33.36081850290635
 20
261.4413025091266
 11
32.97763726088917
 21
261.3522530334422
  0
LINE
  5
C7
  8
LAYER_OUTLINE
  6
BYLAYER
 62
    7
 10
32.97763726088917
 20
261.3522530334422
 11
32.59753190545628
 21
261.2507541926161
  0
LINE
  5
C8
  8
LAYER_OUTLINE
  6
BYLAYER
 62
    7
 10
32.59753190545628
 20
261.2507541926161
 11
32.22093575783386
 21
261.1369404469709
  0
LINE
  5
C9
  8
LAYER_OUTLINE
  6
BYLAYER
 62
    7
 10
32.22093575783386
 20
261.1369404469709
 11
31.84828213924811
 21
261.0109462568297
  0
LINE
  5
CA
  8
LAYER_OUTLINE
  6
BYLAYER
 62
    7
 10
31.84828213924811
 20
261.0109462568297
 11
31.48000437092518
 21
260.8729060825153
  0
LINE
  5
CB
  8
LAYER_OUTLINE
  6
BYLAYER
 62
    7
 10
31.48000437092518
 20
260.8729060825153
 11
31.1165357740913
 21
260.7229543843506
  0
LINE
  5
CC
  8
LAYER_OUTLINE
  6
BYLAYER
 62
    7
 10
31.1165357740913
 20
260.7229543843506
 11
30.75830966997263
 21
260.5612256226586
  0
LINE
  5
CD
  8
LAYER_OUTLINE
  6
BYLAYER
 62
    7
 10
30.75830966997263
 20
260.5612256226586
 11
30.40575937979536
 21
260.387854257762
  0
LINE
  5
CE
  8
LAYER_OUTLINE
  6
BYLAYER
 62
    7
 10
30.40575937979536
 20
260.387854257762
 11
30.05931822478568
 21
260.2029747499838
  0
LINE
  5
CF
  8
LAYER_OUTLINE
  6
BYLAYER
 62
    7
 10
30.05931822478568
 20
260.2029747499838
 11
29.71941202674796
 21
260.0067262652866
  0
LINE
  5
D0
  8
LAYER_OUTLINE
  6
BYLAYER
 62
    7
 10
29.71941202674796
 20
260.0067262652866
 11
29.38635429418584
 21
259.799318442523
  0
LINE
  5
D1
  8
LAYER_OUTLINE
  6
BYLAYER
 62
    7
 10
29.38635429418584
 20
259.799318442523
 11
29.0603720255665
 21
259.5810152027385
  0
LINE
  5
D2
  8
LAYER_OUTLINE
  6
BYLAYER
 62
    7
 10
29.0603720255665
 20
259.5810152027385
 11
28.74168999106868
 21
259.3520818651561
  0
LINE
  5
D3
  8
LAYER_OUTLINE
  6
BYLAYER
 62
    7
 10
28.74168999106868
 20
259.3520818651561
 11
28.43053296087119
 21
259.1127837489988
  0
LINE
  5
D4
  8
LAYER_OUTLINE
  6
BYLAYER
 62
    7
 10
28.43053296087119
 20
259.1127837489988
 11
28.12712570515278
 21
258.8633861734899
  0
LINE
  5
D5
  8
LAYER_OUTLINE
  6
BYLAYER
 62
    7
 10
28.12712570515278
 20
258.8633861734899
 11
27.83169299409222
 21
258.6041544578521
  0
LINE
  5
D6
  8
LAYER_OUTLINE
  6
BYLAYER
 62
    7
 10
27.83169299409222
 20
258.6041544578521
 11
27.54445959786828
 21
258.3353539213085
  0
LINE
  5
D7
  8
LAYER_OUTLINE
  6
BYLAYER
 62
    7
 10
27.54445959786828
 20
258.3353539213085
 11
27.26565028665974
 21
258.0572498830822
  0
LINE
  5
D8
  8
LAYER_OUTLINE
  6
BYLAYER
 62
    7
 10
27.26565028665974
 20
258.0572498830822
 11
26.99548983064535
 21
257.7701076623964
  0
LINE
  5
D9
  8
LAYER_OUTLINE
  6
BYLAYER
 62
    7
 10
26.99548983064535
 20
257.7701076623964
 11
26.73420300000391
 21
257.4741925784739
  0
LINE
  5
DA
  8
LAYER_OUTLINE
  6
BYLAYER
 62
    7
 10
26.73420300000391
 20
257.4741925784739
 11
26.48208494356659
 21
257.1697868564366
  0
LINE
  5
DB
  8
LAYER_OUTLINE
  6
BYLAYER
 62
    7
 10
26.48208494356659
 20
257.1697868564366
 11
26.23972579733181
 21
256.8572435812912
  0
LINE
  5
DC
  8
LAYER_OUTLINE
  6
BYLAYER
 62
    7
 10
26.23972579733181
 20
256.8572435812912
 11
26.00779297186839
 21
256.5369344004355
  0
LINE
  5
DD
  8
LAYER_OUTLINE
  6
BYLAYER
 62
    7
 10
26.00779297186839
 20
256.5369344004355
 11
25.78695387802415
 21
256.2092309613342
  0
LINE
  5
DE
  8
LAYER_OUTLINE
  6
BYLAYER
 62
    7
 10
25.78695387802415
 20
256.2092309613342
 11
25.57787592664693
 21
255.8745049114522
  0
LINE
  5
DF
  8
LAYER_OUTLINE
  6
BYLAYER
 62
    7
 10
25.57787592664693
 20
255.8745049114522
 11
25.38122652858454
 21
255.5331278982542
  0
LINE
  5
E0
  8
LAYER_OUTLINE
  6
BYLAYER
 62
    7
 10
25.38122652858454
 20
255.5331278982542
 11
25.19767309468483
 21
255.185471569205
  0
LINE
  5
E1
  8
LAYER_OUTLINE
  6
BYLAYER
 62
    7
 10
25.19767309468483
 20
255.185471569205
 11
25.02788303579563
 21
254.8319075717693
  0
LINE
  5
E2
  8
LAYER_OUTLINE
  6
BYLAYER
 62
    7
 10
25.02788303579563
 20
254.8319075717693
 11
24.87252376276476
 21
254.4728075534121
  0
LINE
  5
E3
  8
LAYER_OUTLINE
  6
BYLAYER
 62
    7
 10
24.87252376276476
 20
254.4728075534121
 11
24.73226268644004
 21
254.1085431615979
  0
LINE
  5
E4
  8
LAYER_OUTLINE
  6
BYLAYER
 62
    7
 10
24.73226268644004
 20
254.1085431615979
 11
24.60770444040691
 21
253.7394879581289
  0
LINE
  5
E5
  8
LAYER_OUTLINE
  6
BYLAYER
 62
    7
 10
24.60770444040691
 20
253.7394879581289
 11
24.49832980255788
 21
253.3660497757945
  0
LINE
  5
E6
  8
LAYER_OUTLINE
  6
BYLAYER
 62
    7
 10
24.49832980255788
 20
253.3660497757945
 11
24.40264910672577
 21
252.988666040219
  0
LINE
  5
E7
  8
LAYER_OUTLINE
  6
BYLAYER
 62
    7
 10
24.40264910672577
 20
252.988666040219
 11
24.31914079913828
 21
252.6077751494114
  0
LINE
  5
E8
  8
LAYER_OUTLINE
  6
BYLAYER
 62
    7
 10
24.31914079913828
 20
252.6077751494114
 11
24.24628332602308
 21
252.2238155013805
  0
LINE
  5
E9
  8
LAYER_OUTLINE
  6
BYLAYER
 62
    7
 10
24.24628332602308
 20
252.2238155013805
 11
24.18255513360784
 21
251.8372254941351
  0
LINE
  5
EA
  8
LAYER_OUTLINE
  6
BYLAYER
 62
    7
 10
24.18255513360784
 20
251.8372254941351
 11
24.12643466812026
 21
251.448443525684
  0
LINE
  5
EB
  8
LAYER_OUTLINE
  6
BYLAYER
 62
    7
 10
24.12643466812026
 20
251.448443525684
 11
24.076400375788
 21
251.0579079940361
  0
LINE
  5
EC
  8
LAYER_OUTLINE
  6
BYLAYER
 62
    7
 10
24.076400375788
 20
251.0579079940361
 11
24.03093070283875
 21
250.6660572972002
  0
LINE
  5
ED
  8
LAYER_OUTLINE
  6
BYLAYER
 62
    7
 10
24.03093070283875
 20
250.6660572972002
 11
23.98850409550019
 21
250.2733298331852
  0
LINE
  5
EE
  8
LAYER_OUTLINE
  6
BYLAYER
 62
    7
 10
23.98850409550019
 20
250.2733298331852
 11
23.947599
 21
249.880164
  0
LINE
  5
EF
  8
LAYER_OUTLINE
  6
BYLAYER
 62
    7
 10
47.852025
 20
187.601319
 11
47.852025
 21
187.601319
  0
LINE
  5
F0
  8
LAYER_OUTLINE
  6
BYLAYER
 62
    7
 10
47.851179
 20
249.909938
 11
47.85119696176823
 21
248.5842227027793
  0
LINE
  5
F1
  8
LAYER_OUTLINE
  6
BYLAYER
 62
    7
 10
47.85119696176823
 20
248.5842227027793
 11
47.85121492758876
 21
247.2585074067964
  0
LINE
  5
F2
  8
LAYER_OUTLINE
  6
BYLAYER
 62
    7
 10
47.85121492758876
 20
247.2585074067964
 11
47.85123289729466
 21
245.9327921119528
  0
LINE
  5
F3
  8
LAYER_OUTLINE
  6
BYLAYER
 62
    7
 10
47.85123289729466
 20
245.9327921119528
 11
47.85125087071901
 21
244.6070768181503
  0
LINE
  5
F4
  8
LAYER_OUTLINE
  6
BYLAYER
 62
    7
 10
47.85125087071901
 20
244.6070768181503
 11
47.85126884769485
 21
243.2813615252905
  0
LINE
  5
F5
  8
LAYER_OUTLINE
  6
BYLAYER
 62
    7
 10
47.85126884769485
 20
243.2813615252905
 11
47.85128682805529
 21
241.9556462332751
  0
LINE
  5
F6
  8
LAYER_OUTLINE
  6
BYLAYER
 62
    7
 10
47.85128682805529
 20
241.9556462332751
 11
47.85130481163336
 21
240.6299309420057
  0
LINE
  5
F7
  8
LAYER_OUTLINE
  6
BYLAYER
 62
    7
 10
47.85130481163336
 20
240.6299309420057
 11
47.85132279826215
 21
239.304215651384
  0
LINE
  5
F8
  8
LAYER_OUTLINE
  6
BYLAYER
 62
    7
 10
47.85132279826215
 20
239.304215651384
 11
47.85134078777474
 21
237.9785003613115
  0
LINE
  5
F9
  8
LAYER_OUTLINE
  6
BYLAYER
 62
    7
 10
47.85134078777474
 20
237.9785003613115
 11
47.85135878000418
 21
236.6527850716902
  0
LINE
  5
FA
  8
LAYER_OUTLINE
  6
BYLAYER
 62
    7
 10
47.85135878000418
 20
236.6527850716902
 11
47.85137677478356
 21
235.3270697824214
  0
LINE
  5
FB
  8
LAYER_OUTLINE
  6
BYLAYER
 62
    7
 10
47.85137677478356
 20
235.3270697824214
 11
47.85139477194593
 21
234.0013544934069
  0
LINE
  5
FC
  8
LAYER_OUTLINE
  6
BYLAYER
 62
    7
 10
47.85139477194593
 20
234.0013544934069
 11
47.85141277132436
 21
232.6756392045483
  0
LINE
  5
FD
  8
LAYER_OUTLINE
  6
BYLAYER
 62
    7
 10
47.85141277132436
 20
232.6756392045483
 11
47.85143077275194
 21
231.3499239157474
  0
LINE
  5
FE
  8
LAYER_OUTLINE
  6
BYLAYER
 62
    7
 10
47.85143077275194
 20
231.3499239157474
 11
47.85144877606173
 21
230.0242086269057
  0
LINE
  5
FF
  8
LAYER_OUTLINE
  6
BYLAYER
 62
    7
 10
47.85144877606173
 20
230.0242086269057
 11
47.85146678108678
 21
228.6984933379249
  0
LINE
  5
100
  8
LAYER_OUTLINE
  6
BYLAYER
 62
    7
 10
47.85146678108678
 20
228.6984933379249
 11
47.85148478766018
 21
227.3727780487067
  0
LINE
  5
101
  8
LAYER_OUTLINE
  6
BYLAYER
 62
    7
 10
47.85148478766018
 20
227.3727780487067
 11
47.851502795615
 21
226.0470627591527
  0
LINE
  5
102
  8
LAYER_OUTLINE
  6
BYLAYER
 62
    7
 10
47.851502795615
 20
226.0470627591527
 11
47.85152080478431
 21
224.7213474691646
  0
LINE
  5
103
  8
LAYER_OUTLINE
  6
BYLAYER
 62
    7
 10
47.85152080478431
 20
224.7213474691646
 11
47.85153881500118
 21
223.3956321786441
  0
LINE
  5
104
  8
LAYER_OUTLINE
  6
BYLAYER
 62
    7
 10
47.85153881500118
 20
223.3956321786441
 11
47.85155682609867
 21
222.0699168874927
  0
LINE
  5
105
  8
LAYER_OUTLINE
  6
BYLAYER
 62
    7
 10
47.85155682609867
 20
222.0699168874927
 11
47.85157483790984
 21
220.7442015956122
  0
LINE
  5
106
  8
LAYER_OUTLINE
  6
BYLAYER
 62
    7
 10
47.85157483790984
 20
220.7442015956122
 11
47.85159285026779
 21
219.4184863029041
  0
LINE
  5
107
  8
LAYER_OUTLINE
  6
BYLAYER
 62
    7
 10
47.85159285026779
 20
219.4184863029041
 11
47.85161086300558
 21
218.0927710092702
  0
LINE
  5
108
  8
LAYER_OUTLINE
  6
BYLAYER
 62
    7
 10
47.85161086300558
 20
218.0927710092702
 11
47.85162887595627
 21
216.7670557146122
  0
LINE
  5
109
  8
LAYER_OUTLINE
  6
BYLAYER
 62
    7
 10
47.85162887595627
 20
216.7670557146122
 11
47.85164688895292
 21
215.4413404188315
  0
LINE
  5
10A
  8
LAYER_OUTLINE
  6
BYLAYER
 62
    7
 10
47.85164688895292
 20
215.4413404188315
 11
47.85166490182862
 21
214.11562512183
  0
LINE
  5
10B
  8
LAYER_OUTLINE
  6
BYLAYER
 62
    7
 10
47.85166490182862
 20
214.11562512183
 11
47.85168291441644
 21
212.7899098235093
  0
LINE
  5
10C
  8
LAYER_OUTLINE
  6
BYLAYER
 62
    7
 10
47.85168291441644
 20
212.7899098235093
 11
47.85170092654944
 21
211.464194523771
  0
LINE
  5
10D
  8
LAYER_OUTLINE
  6
BYLAYER
 62
    7
 10
47.85170092654944
 20
211.464194523771
 11
47.85171893806069
 21
210.1384792225168
  0
LINE
  5
10E
  8
LAYER_OUTLINE
  6
BYLAYER
 62
    7
 10
47.85171893806069
 20
210.1384792225168
 11
47.85173694878326
 21
208.8127639196483
  0
LINE
  5
10F
  8
LAYER_OUTLINE
  6
BYLAYER
 62
    7
 10
47.85173694878326
 20
208.8127639196483
 11
47.85175495855023
 21
207.4870486150672
  0
LINE
  5
110
  8
LAYER_OUTLINE
  6
BYLAYER
 62
    7
 10
47.85175495855023
 20
207.4870486150672
 11
47.85177296719466
 21
206.1613333086752
  0
LINE
  5
111
  8
LAYER_OUTLINE
  6
BYLAYER
 62
    7
 10
47.85177296719466
 20
206.1613333086752
 11
47.85179097473515
 21
204.8356180006648
  0
LINE
  5
112
  8
LAYER_OUTLINE
  6
BYLAYER
 62
    7
 10
47.85179097473515
 20
204.8356180006648
 11
47.85180898211769
 21
203.5099026926831
  0
LINE
  5
113
  8
LAYER_OUTLINE
  6
BYLAYER
 62
    7
 10
47.85180898211769
 20
203.5099026926831
 11
47.8518269905775
 21
202.1841873868308
  0
LINE
  5
114
  8
LAYER_OUTLINE
  6
BYLAYER
 62
    7
 10
47.8518269905775
 20
202.1841873868308
 11
47.85184500134989
 21
200.8584720852085
  0
LINE
  5
115
  8
LAYER_OUTLINE
  6
BYLAYER
 62
    7
 10
47.85184500134989
 20
200.8584720852085
 11
47.85186301567016
 21
199.5327567899171
  0
LINE
  5
116
  8
LAYER_OUTLINE
  6
BYLAYER
 62
    7
 10
47.85186301567016
 20
199.5327567899171
 11
47.85188103477361
 21
198.2070415030573
  0
LINE
  5
117
  8
LAYER_OUTLINE
  6
BYLAYER
 62
    7
 10
47.85188103477361
 20
198.2070415030573
 11
47.85189905989552
 21
196.8813262267298
  0
LINE
  5
118
  8
LAYER_OUTLINE
  6
BYLAYER
 62
    7
 10
47.85189905989552
 20
196.8813262267298
 11
47.85191709227126
 21
195.5556109630354
  0
LINE
  5
119
  8
LAYER_OUTLINE
  6
BYLAYER
 62
    7
 10
47.85191709227126
 20
195.5556109630354
 11
47.85193513313607
 21
194.2298957140749
  0
LINE
  5
11A
  8
LAYER_OUTLINE
  6
BYLAYER
 62
    7
 10
47.85193513313607
 20
194.2298957140749
 11
47.85195318372528
 21
192.904180481949
  0
LINE
  5
11B
  8
LAYER_OUTLINE
  6
BYLAYER
 62
    7
 10
47.85195318372528
 20
192.904180481949
 11
47.85197124527419
 21
191.5784652687585
  0
LINE
  5
11C
  8
LAYER_OUTLINE
  6
BYLAYER
 62
    7
 10
47.85197124527419
 20
191.5784652687585
 11
47.8519893190181
 21
190.2527500766041
  0
LINE
  5
11D
  8
LAYER_OUTLINE
  6
BYLAYER
 62
    7
 10
47.8519893190181
 20
190.2527500766041
 11
47.85200736704628
 21
188.927034848732
  0
LINE
  5
11E
  8
LAYER_OUTLINE
  6
BYLAYER
 62
    7
 10
47.85200736704628
 20
188.927034848732
 11
47.852025
 21
187.601319
  0
LINE
  5
11F
  8
LAYER_OUTLINE
  6
BYLAYER
 62
    7
 10
23.946186
 20
249.86439
 11
23.946276
 21
187.593183
  0
LINE
  5
120
  8
LAYER_OUTLINE
  6
BYLAYER
 62
    7
 10
23.946276
 20
187.593183
 11
23.946276
 21
187.593183
  0
LINE
  5
121
  8
0
  6
BYLAYER
 62
  256
 10
23.94620901497971
 20
249.8643935148964
 11
23.94760656836053
 21
249.8801660901397
  0
LINE
  5
122
  8
0
  6
BYLAYER
 62
  256
 10
23.94760656836053
 20
249.8801660901397
 11
23.94760656836053
 21
249.8801606351041
  0
ENDSEC
  0
EOF
