999
dxfrw 0.6.3
  0
SECTION
  2
HEADER
  9
$ACADVER
  1
AC1009
  9
$DWGCODEPAGE
  3
ANSI_1252
  9
$INSBASE
 10
0
 20
0
 30
0
  9
$EXTMIN
 10
67.975948
 20
72.20922297900115
 30
0
  9
$EXTMAX
 10
90.680165
 20
148.9997004546371
 30
0
  9
$LIMMIN
 10
0
 20
0
  9
$LIMMAX
 10
420
 20
297
  9
$ORTHOMODE
 70
    0
  9
$REGENMODE
 70
    1
  9
$FILLMODE
 70
    1
  9
$QTEXTMODE
 70
    0
  9
$MIRRTEXT
 70
    0
  9
$DRAGMODE
 70
    2
  9
$LTSCALE
 40
1
  9
$OSMODE
 70
    0
  9
$ATTMODE
 70
    0
  9
$TEXTSIZE
 40
2.5
  9
$TRACEWID
 40
15.68
  9
$TEXTSTYLE
  7
STANDARD
  9
$CLAYER
  8
0
  9
$CELTYPE
  6
BYLAYER
  9
$CECOLOR
 62
  256
  9
$DIMSCALE
 40
2.5
  9
$DIMASZ
 40
2.5
  9
$DIMEXO
 40
0.625
  9
$DIMDLI
 40
3.75
  9
$DIMRND
 40
0
  9
$DIMDLE
 40
0
  9
$DIMEXE
 40
1.25
  9
$DIMTP
 40
0
  9
$DIMTM
 40
0
  9
$DIMTXT
 40
2.5
  9
$DIMCEN
 40
2.5
  9
$DIMTSZ
 40
0
  9
$DIMTOL
 70
    0
  9
$DIMLIM
 70
    0
  9
$DIMTIH
 70
    0
  9
$DIMTOH
 70
    0
  9
$DIMSE1
 70
    0
  9
$DIMSE2
 70
    0
  9
$DIMTAD
 70
    1
  9
$DIMZIN
 70
    8
  9
$DIMBLK
  1

  9
$DIMASO
 70
    1
  9
$DIMSHO
 70
    1
  9
$DIMPOST
  1

  9
$DIMAPOST
  1

  9
$DIMALT
 70
    0
  9
$DIMALTD
 70
    3
  9
$DIMALTF
 40
0.03937
  9
$DIMLFAC
 40
1
  9
$DIMTOFL
 70
    1
  9
$DIMTVP
 40
0
  9
$DIMTIX
 70
    0
  9
$DIMSOXD
 70
    0
  9
$DIMSAH
 70
    0
  9
$DIMBLK1
  1

  9
$DIMBLK2
  1

  9
$DIMSTYLE
  2
STANDARD
  9
$DIMCLRD
 70
    0
  9
$DIMCLRE
 70
    0
  9
$DIMCLRT
 70
    0
  9
$DIMTFAC
 40
1
  9
$DIMGAP
 40
0.625
  9
$LUNITS
 70
    2
  9
$LUPREC
 70
    4
  9
$SKETCHINC
 40
1
  9
$FILLETRAD
 40
0
  9
$AUNITS
 70
    0
  9
$AUPREC
 70
    2
  9
$MENU
  1
.
  9
$ELEVATION
 40
0
  9
$PELEVATION
 40
0
  9
$THICKNESS
 40
0
  9
$LIMCHECK
 70
    0
  9
$BLIPMODE
 70
    0
  9
$CHAMFERA
 40
0
  9
$CHAMFERB
 40
0
  9
$SKPOLY
 70
    0
  9
$USRTIMER
 70
    1
  9
$ANGBASE
 50
0
  9
$ANGDIR
 70
    0
  9
$PDMODE
 70
   34
  9
$PDSIZE
 40
0
  9
$PLINEWID
 40
0
  9
$COORDS
 70
    2
  9
$SPLFRAME
 70
    0
  9
$SPLINETYPE
 70
    2
  9
$SPLINESEGS
 70
    8
  9
$ATTDIA
 70
    1
  9
$ATTREQ
 70
    1
  9
$HANDLING
 70
    1
  9
$HANDSEED
  5
20000
  9
$SURFTAB1
 70
    6
  9
$SURFTAB2
 70
    6
  9
$SURFTYPE
 70
    6
  9
$SURFU
 70
    6
  9
$SURFV
 70
    6
  9
$UCSNAME
  2

  9
$UCSORG
 10
0
 20
0
 30
0
  9
$UCSXDIR
 10
1
 20
0
 30
0
  9
$UCSYDIR
 10
0
 20
1
 30
0
  9
$PUCSNAME
  2

  9
$PUCSORG
 10
0
 20
0
 30
0
  9
$PUCSXDIR
 10
1
 20
0
 30
0
  9
$PUCSYDIR
 10
0
 20
1
 30
0
  9
$USERI1
 70
    0
  9
$USERI2
 70
    0
  9
$USERI3
 70
    0
  9
$USERI4
 70
    0
  9
$USERI5
 70
    0
  9
$USERR1
 40
0
  9
$USERR2
 40
0
  9
$USERR3
 40
0
  9
$USERR4
 40
0
  9
$USERR5
 40
0
  9
$WORLDVIEW
 70
    1
  9
$SHADEDGE
 70
    3
  9
$SHADEDIF
 70
   70
  9
$TILEMODE
 70
    1
  9
$MAXACTVP
 70
   64
  9
$PLIMCHECK
 70
    0
  9
$PEXTMIN
 10
0
 20
0
 30
0
  9
$PEXTMAX
 10
0
 20
0
 30
0
  9
$GRIDMODE
 70
    0
  9
$SNAPSTYLE
 70
    0
  9
$PLIMMIN
 10
0
 20
0
  9
$PLIMMAX
 10
210
 20
297
  9
$UNITMODE
 70
    0
  9
$VISRETAIN
 70
    1
  9
$PLINEGEN
 70
    0
  9
$PSLTSCALE
 70
    1
  0
ENDSEC
  0
SECTION
  2
TABLES
  0
TABLE
  2
VPORT
 70
    1
  0
VPORT
  2
*ACTIVE
 70
    0
 10
0
 20
0
 11
1
 21
1
 12
34.01206055045579
 22
42.169410800721
 13
0
 23
0
 14
10
 24
10
 15
10
 25
10
 16
0
 26
0
 36
1
 17
0
 27
0
 37
0
 40
0.08728832992928336
 41
1.692717584369449
 42
50
 43
0
 44
0
 50
0
 51
0
 71
    0
 72
  100
 73
    1
 74
    3
 75
    0
 76
    0
 77
    0
 78
    0
  0
ENDTAB
  0
TABLE
  2
LTYPE
 70
    4
  0
LTYPE
  2
BYBLOCK
 70
    0
  3

 72
   65
 73
    0
 40
0
  0
LTYPE
  2
BYLAYER
 70
    0
  3

 72
   65
 73
    0
 40
0
  0
LTYPE
  2
CONTINUOUS
 70
    0
  3
Solid line
 72
   65
 73
    0
 40
0
  0
LTYPE
  2
DOT
 70
    0
  3
Dot . . . . . . . . . . . . . . . . . . . . . .
 72
   65
 73
    2
 40
6.35
 49
0
 49
-6.35
  0
LTYPE
  2
DOTTINY
 70
    0
  3
Dot (.15x) .....................................
 72
   65
 73
    2
 40
0.9525
 49
0
 49
-0.9525
  0
LTYPE
  2
DOT2
 70
    0
  3
Dot (.5x) .....................................
 72
   65
 73
    2
 40
3.175
 49
0
 49
-3.175
  0
LTYPE
  2
DOTX2
 70
    0
  3
Dot (2x) .  .  .  .  .  .  .  .  .  .  .  .  .
 72
   65
 73
    2
 40
12.7
 49
0
 49
-12.7
  0
LTYPE
  2
DASHED
 70
    0
  3
Dashed _ _ _ _ _ _ _ _ _ _ _ _ _ _ _ _ _
 72
   65
 73
    2
 40
19.05
 49
12.7
 49
-6.35
  0
LTYPE
  2
DASHEDTINY
 70
    0
  3
Dashed (.15x) _ _ _ _ _ _ _ _ _ _ _ _ _ _ _ _ _
 72
   65
 73
    2
 40
2.8575
 49
1.905
 49
-0.9525
  0
LTYPE
  2
DASHED2
 70
    0
  3
Dashed (.5x) _ _ _ _ _ _ _ _ _ _ _ _ _ _ _ _ _
 72
   65
 73
    2
 40
9.524999999999999
 49
6.35
 49
-3.175
  0
LTYPE
  2
DASHEDX2
 70
    0
  3
Dashed (2x) ____  ____  ____  ____  ____  ___
 72
   65
 73
    2
 40
38.09999999999999
 49
25.4
 49
-12.7
  0
LTYPE
  2
DASHDOT
 70
    0
  3
Dash dot __ . __ . __ . __ . __ . __ . __ . __
 72
   65
 73
    4
 40
25.4
 49
12.7
 49
-6.35
 49
0
 49
-6.35
  0
LTYPE
  2
DASHDOTTINY
 70
    0
  3
Dash dot (.15x) _._._._._._._._._._._._._._._.
 72
   65
 73
    4
 40
3.81
 49
1.905
 49
-0.9525
 49
0
 49
-0.9525
  0
LTYPE
  2
DASHDOT2
 70
    0
  3
Dash dot (.5x) _._._._._._._._._._._._._._._.
 72
   65
 73
    4
 40
12.7
 49
6.35
 49
-3.175
 49
0
 49
-3.175
  0
LTYPE
  2
DASHDOTX2
 70
    0
  3
Dash dot (2x) ____  .  ____  .  ____  .  ___
 72
   65
 73
    4
 40
50.8
 49
25.4
 49
-12.7
 49
0
 49
-12.7
  0
LTYPE
  2
DIVIDE
 70
    0
  3
Divide ____ . . ____ . . ____ . . ____ . . ____
 72
   65
 73
    6
 40
31.75
 49
12.7
 49
-6.35
 49
0
 49
-6.35
 49
0
 49
-6.35
  0
LTYPE
  2
DIVIDETINY
 70
    0
  3
Divide (.15x) __..__..__..__..__..__..__..__.._
 72
   65
 73
    6
 40
4.7625
 49
1.905
 49
-0.9525
 49
0
 49
-0.9525
 49
0
 49
-0.9525
  0
LTYPE
  2
DIVIDE2
 70
    0
  3
Divide (.5x) __..__..__..__..__..__..__..__.._
 72
   65
 73
    6
 40
15.875
 49
6.35
 49
-3.175
 49
0
 49
-3.175
 49
0
 49
-3.175
  0
LTYPE
  2
DIVIDEX2
 70
    0
  3
Divide (2x) ________  .  .  ________  .  .  _
 72
   65
 73
    6
 40
63.5
 49
25.4
 49
-12.7
 49
0
 49
-12.7
 49
0
 49
-12.7
  0
LTYPE
  2
BORDER
 70
    0
  3
Border __ __ . __ __ . __ __ . __ __ . __ __ .
 72
   65
 73
    6
 40
44.45
 49
12.7
 49
-6.35
 49
12.7
 49
-6.35
 49
0
 49
-6.35
  0
LTYPE
  2
BORDERTINY
 70
    0
  3
Border (.15x) __.__.__.__.__.__.__.__.__.__.__.
 72
   65
 73
    6
 40
6.6675
 49
1.905
 49
-0.9525
 49
1.905
 49
-0.9525
 49
0
 49
-0.9525
  0
LTYPE
  2
BORDER2
 70
    0
  3
Border (.5x) __.__.__.__.__.__.__.__.__.__.__.
 72
   65
 73
    6
 40
22.225
 49
6.35
 49
-3.175
 49
6.35
 49
-3.175
 49
0
 49
-3.175
  0
LTYPE
  2
BORDERX2
 70
    0
  3
Border (2x) ____  ____  .  ____  ____  .  ___
 72
   65
 73
    6
 40
88.89999999999999
 49
25.4
 49
-12.7
 49
25.4
 49
-12.7
 49
0
 49
-12.7
  0
LTYPE
  2
CENTER
 70
    0
  3
Center ____ _ ____ _ ____ _ ____ _ ____ _ ____
 72
   65
 73
    4
 40
50.8
 49
31.75
 49
-6.35
 49
6.35
 49
-6.35
  0
LTYPE
  2
CENTERTINY
 70
    0
  3
Center (.15x) ___ _ ___ _ ___ _ ___ _ ___ _ ___
 72
   65
 73
    4
 40
7.62
 49
4.7625
 49
-0.9525
 49
0.9525
 49
-0.9525
  0
LTYPE
  2
CENTER2
 70
    0
  3
Center (.5x) ___ _ ___ _ ___ _ ___ _ ___ _ ___
 72
   65
 73
    4
 40
28.575
 49
19.05
 49
-3.175
 49
3.175
 49
-3.175
  0
LTYPE
  2
CENTERX2
 70
    0
  3
Center (2x) ________  __  ________  __  _____
 72
   65
 73
    4
 40
101.6
 49
63.5
 49
-12.7
 49
12.7
 49
-12.7
  0
ENDTAB
  0
TABLE
  2
LAYER
 70
    1
  0
LAYER
  2
0
 70
    0
 62
    7
  6
CONTINUOUS
  0
LAYER
  2
LAYER_1
 70
    0
 62
    7
  6
CONTINUOUS
  0
ENDTAB
  0
TABLE
  2
STYLE
 70
    3
  0
STYLE
  2
STANDARD
 70
    0
 40
0
 41
1
 50
0
 71
    0
 42
1
  3
TXT
  4

  0
ENDTAB
  0
TABLE
  2
VIEW
 70
    0
  0
ENDTAB
  0
TABLE
  2
UCS
 70
    0
  0
ENDTAB
  0
TABLE
  2
APPID
 70
    1
  0
APPID
  2
ACAD
 70
    0
  0
APPID
  2
LIBRECAD
 70
    0
  0
ENDTAB
  0
TABLE
  2
DIMSTYLE
 70
    1
  0
DIMSTYLE
  2
STANDARD
 70
    0
  3

  4

  5

  6

  7

 40
1
 41
2.5
 42
0.625
 43
0.38
 44
1.25
 45
0
 46
0
 47
0
 48
0
 49
1
140
2.5
141
0.09
142
2.5
143
25.4
144
1
145
0
146
1
147
0.625
 71
    0
 72
    0
 73
    0
 74
    1
 75
    0
 76
    0
 77
    0
 78
    1
170
    0
171
    2
172
    0
173
    0
174
    0
175
    0
176
    0
177
    0
178
    0
  0
ENDTAB
  0
ENDSEC
  0
SECTION
  2
BLOCKS
  0
BLOCK
  8
0
  2
$MODEL_SPACE
 70
    0
 10
0
 20
0
 30
0
  3
$MODEL_SPACE
  1

  0
ENDBLK
  8
0
  0
BLOCK
  8
0
  2
$PAPER_SPACE
 70
    0
 10
0
 20
0
 30
0
  3
$PAPER_SPACE
  1

  0
ENDBLK
  8
0
  0
ENDSEC
  0
SECTION
  2
ENTITIES
  0
POLYLINE
  5
31
  8
LAYER_1
  6
BYLAYER
 62
    7
 66
    1
 10
0
 20
0
 30
0
 70
    0
  0
VERTEX
  5
32
  8
LAYER_1
  6
BYLAYER
 62
    7
 10
90.67490100000001
 20
84.297496
 30
0
  0
VERTEX
  5
33
  8
LAYER_1
  6
BYLAYER
 62
    7
 10
90.63783106452271
 20
83.91006291162678
 30
0
  0
VERTEX
  5
34
  8
LAYER_1
  6
BYLAYER
 62
    7
 10
90.59943124669738
 20
83.52298247309166
 30
0
  0
VERTEX
  5
35
  8
LAYER_1
  6
BYLAYER
 62
    7
 10
90.55837165936671
 20
83.13660736321667
 30
0
  0
VERTEX
  5
36
  8
LAYER_1
  6
BYLAYER
 62
    7
 10
90.51332241537342
 20
82.75129026082379
 30
0
  0
VERTEX
  5
37
  8
LAYER_1
  6
BYLAYER
 62
    7
 10
90.46295362756022
 20
82.36738384473506
 30
0
  0
VERTEX
  5
38
  8
LAYER_1
  6
BYLAYER
 62
    7
 10
90.40593540876988
 20
81.98524079377252
 30
0
  0
VERTEX
  5
39
  8
LAYER_1
  6
BYLAYER
 62
    7
 10
90.34093787184509
 20
81.60521378675817
 30
0
  0
VERTEX
  5
3A
  8
LAYER_1
  6
BYLAYER
 62
    7
 10
90.26663112962858
 20
81.22765550251403
 30
0
  0
VERTEX
  5
3B
  8
LAYER_1
  6
BYLAYER
 62
    7
 10
90.18168529496306
 20
80.85291861986212
 30
0
  0
VERTEX
  5
3C
  8
LAYER_1
  6
BYLAYER
 62
    7
 10
90.08477048069128
 20
80.48135581762448
 30
0
  0
VERTEX
  5
3D
  8
LAYER_1
  6
BYLAYER
 62
    7
 10
89.97455696222927
 20
80.11331977593868
 30
0
  0
VERTEX
  5
3E
  8
LAYER_1
  6
BYLAYER
 62
    7
 10
89.8501002643996
 20
79.7491662925359
 30
0
  0
VERTEX
  5
3F
  8
LAYER_1
  6
BYLAYER
 62
    7
 10
89.71166618816957
 20
79.38926095918973
 30
0
  0
VERTEX
  5
40
  8
LAYER_1
  6
BYLAYER
 62
    7
 10
89.55975758378092
 20
79.03397128597202
 30
0
  0
VERTEX
  5
41
  8
LAYER_1
  6
BYLAYER
 62
    7
 10
89.39487730147549
 20
78.68366478295468
 30
0
  0
VERTEX
  5
42
  8
LAYER_1
  6
BYLAYER
 62
    7
 10
89.21752819149505
 20
78.33870896020956
 30
0
  0
VERTEX
  5
43
  8
LAYER_1
  6
BYLAYER
 62
    7
 10
89.02821310408139
 20
77.99947132780856
 30
0
  0
VERTEX
  5
44
  8
LAYER_1
  6
BYLAYER
 62
    7
 10
88.82743488947628
 20
77.66631939582356
 30
0
  0
VERTEX
  5
45
  8
LAYER_1
  6
BYLAYER
 62
    7
 10
88.61569639792151
 20
77.33962067432643
 30
0
  0
VERTEX
  5
46
  8
LAYER_1
  6
BYLAYER
 62
    7
 10
88.3935004796589
 20
77.01974267338906
 30
0
  0
VERTEX
  5
47
  8
LAYER_1
  6
BYLAYER
 62
    7
 10
88.16134998493021
 20
76.70705290308334
 30
0
  0
VERTEX
  5
48
  8
LAYER_1
  6
BYLAYER
 62
    7
 10
87.91974227565129
 20
76.40191872267695
 30
0
  0
VERTEX
  5
49
  8
LAYER_1
  6
BYLAYER
 62
    7
 10
87.66902134969692
 20
76.10470327741378
 30
0
  0
VERTEX
  5
4A
  8
LAYER_1
  6
BYLAYER
 62
    7
 10
87.4093610564409
 20
75.81576503732289
 30
0
  0
VERTEX
  5
4B
  8
LAYER_1
  6
BYLAYER
 62
    7
 10
87.14092638868432
 20
75.53546222907896
 30
0
  0
VERTEX
  5
4C
  8
LAYER_1
  6
BYLAYER
 62
    7
 10
86.86388233922824
 20
75.26415307935666
 30
0
  0
VERTEX
  5
4D
  8
LAYER_1
  6
BYLAYER
 62
    7
 10
86.57839390087381
 20
75.0021958148307
 30
0
  0
VERTEX
  5
4E
  8
LAYER_1
  6
BYLAYER
 62
    7
 10
86.28462606642208
 20
74.74994866217574
 30
0
  0
VERTEX
  5
4F
  8
LAYER_1
  6
BYLAYER
 62
    7
 10
85.98274382867412
 20
74.50776984806645
 30
0
  0
VERTEX
  5
50
  8
LAYER_1
  6
BYLAYER
 62
    7
 10
85.6729121804311
 20
74.27601759917755
 30
0
  0
VERTEX
  5
51
  8
LAYER_1
  6
BYLAYER
 62
    7
 10
85.35529611449408
 20
74.0550501421837
 30
0
  0
VERTEX
  5
52
  8
LAYER_1
  6
BYLAYER
 62
    7
 10
85.03006062366416
 20
73.84522570375958
 30
0
  0
VERTEX
  5
53
  8
LAYER_1
  6
BYLAYER
 62
    7
 10
84.69740912539298
 20
73.64688763119179
 30
0
  0
VERTEX
  5
54
  8
LAYER_1
  6
BYLAYER
 62
    7
 10
84.3577471127826
 20
73.46030102090479
 30
0
  0
VERTEX
  5
55
  8
LAYER_1
  6
BYLAYER
 62
    7
 10
84.01154627381625
 20
73.28570533631641
 30
0
  0
VERTEX
  5
56
  8
LAYER_1
  6
BYLAYER
 62
    7
 10
83.65927833472877
 20
73.12334002603204
 30
0
  0
VERTEX
  5
57
  8
LAYER_1
  6
BYLAYER
 62
    7
 10
83.30141502175493
 20
72.97344453865699
 30
0
  0
VERTEX
  5
58
  8
LAYER_1
  6
BYLAYER
 62
    7
 10
82.9384280611296
 20
72.83625832279671
 30
0
  0
VERTEX
  5
59
  8
LAYER_1
  6
BYLAYER
 62
    7
 10
82.57078917908757
 20
72.71202082705655
 30
0
  0
VERTEX
  5
5A
  8
LAYER_1
  6
BYLAYER
 62
    7
 10
82.19897010186367
 20
72.60097150004191
 30
0
  0
VERTEX
  5
5B
  8
LAYER_1
  6
BYLAYER
 62
    7
 10
81.82344255569268
 20
72.50334979035814
 30
0
  0
VERTEX
  5
5C
  8
LAYER_1
  6
BYLAYER
 62
    7
 10
81.44467826680949
 20
72.41939514661068
 30
0
  0
VERTEX
  5
5D
  8
LAYER_1
  6
BYLAYER
 62
    7
 10
81.06314995111143
 20
72.3493399847239
 30
0
  0
VERTEX
  5
5E
  8
LAYER_1
  6
BYLAYER
 62
    7
 10
80.67934771290764
 20
72.29329315613222
 30
0
  0
VERTEX
  5
5F
  8
LAYER_1
  6
BYLAYER
 62
    7
 10
80.29377649813559
 20
72.25125804557888
 30
0
  0
VERTEX
  5
60
  8
LAYER_1
  6
BYLAYER
 62
    7
 10
79.90694172903069
 20
72.2232346531674
 30
0
  0
VERTEX
  5
61
  8
LAYER_1
  6
BYLAYER
 62
    7
 10
79.51934882782841
 20
72.20922297900115
 30
0
  0
VERTEX
  5
62
  8
LAYER_1
  6
BYLAYER
 62
    7
 10
79.13150321676414
 20
72.20922302318361
 30
0
  0
VERTEX
  5
63
  8
LAYER_1
  6
BYLAYER
 62
    7
 10
78.74391031807333
 20
72.22323478581822
 30
0
  0
VERTEX
  5
64
  8
LAYER_1
  6
BYLAYER
 62
    7
 10
78.35707555399141
 20
72.25125826700837
 30
0
  0
VERTEX
  5
65
  8
LAYER_1
  6
BYLAYER
 62
    7
 10
77.97150434675378
 20
72.29329346685756
 30
0
  0
VERTEX
  5
66
  8
LAYER_1
  6
BYLAYER
 62
    7
 10
77.58770211859589
 20
72.34934038546919
 30
0
  0
VERTEX
  5
67
  8
LAYER_1
  6
BYLAYER
 62
    7
 10
77.20617381547055
 20
72.4193956384506
 30
0
  0
VERTEX
  5
68
  8
LAYER_1
  6
BYLAYER
 62
    7
 10
76.82740954156209
 20
72.503350374806
 30
0
  0
VERTEX
  5
69
  8
LAYER_1
  6
BYLAYER
 62
    7
 10
76.45188201212493
 20
72.60097217663757
 30
0
  0
VERTEX
  5
6A
  8
LAYER_1
  6
BYLAYER
 62
    7
 10
76.08006295268913
 20
72.71202159299899
 30
0
  0
VERTEX
  5
6B
  8
LAYER_1
  6
BYLAYER
 62
    7
 10
75.71242408878469
 20
72.83625917294393
 30
0
  0
VERTEX
  5
6C
  8
LAYER_1
  6
BYLAYER
 62
    7
 10
75.34943714594161
 20
72.97344546552603
 30
0
  0
VERTEX
  5
6D
  8
LAYER_1
  6
BYLAYER
 62
    7
 10
74.99157384968993
 20
73.12334101979897
 30
0
  0
VERTEX
  5
6E
  8
LAYER_1
  6
BYLAYER
 62
    7
 10
74.63930592555961
 20
73.28570638481644
 30
0
  0
VERTEX
  5
6F
  8
LAYER_1
  6
BYLAYER
 62
    7
 10
74.29310509908071
 20
73.46030210963208
 30
0
  0
VERTEX
  5
70
  8
LAYER_1
  6
BYLAYER
 62
    7
 10
73.9534430957832
 20
73.64688874329958
 30
0
  0
VERTEX
  5
71
  8
LAYER_1
  6
BYLAYER
 62
    7
 10
73.62079160295541
 20
73.84522682006467
 30
0
  0
VERTEX
  5
72
  8
LAYER_1
  6
BYLAYER
 62
    7
 10
73.2955561144265
 20
74.05505124278116
 30
0
  0
VERTEX
  5
73
  8
LAYER_1
  6
BYLAYER
 62
    7
 10
72.97794004810041
 20
74.27601866658316
 30
0
  0
VERTEX
  5
74
  8
LAYER_1
  6
BYLAYER
 62
    7
 10
72.66810839626876
 20
74.50777086746201
 30
0
  0
VERTEX
  5
75
  8
LAYER_1
  6
BYLAYER
 62
    7
 10
72.36622615122333
 20
74.74994962140914
 30
0
  0
VERTEX
  5
76
  8
LAYER_1
  6
BYLAYER
 62
    7
 10
72.07245830525571
 20
75.00219670441585
 30
0
  0
VERTEX
  5
77
  8
LAYER_1
  6
BYLAYER
 62
    7
 10
71.78696985065766
 20
75.26415389247356
 30
0
  0
VERTEX
  5
78
  8
LAYER_1
  6
BYLAYER
 62
    7
 10
71.50992577972086
 20
75.53546296157361
 30
0
  0
VERTEX
  5
79
  8
LAYER_1
  6
BYLAYER
 62
    7
 10
71.24149108473699
 20
75.81576568770738
 30
0
  0
VERTEX
  5
7A
  8
LAYER_1
  6
BYLAYER
 62
    7
 10
70.98183075799771
 20
76.10470384686622
 30
0
  0
VERTEX
  5
7B
  8
LAYER_1
  6
BYLAYER
 62
    7
 10
70.73110979179475
 20
76.4019192150415
 30
0
  0
VERTEX
  5
7C
  8
LAYER_1
  6
BYLAYER
 62
    7
 10
70.48950203475557
 20
76.70705332478447
 30
0
  0
VERTEX
  5
7D
  8
LAYER_1
  6
BYLAYER
 62
    7
 10
70.25735148330648
 20
77.01974303167766
 30
0
  0
VERTEX
  5
7E
  8
LAYER_1
  6
BYLAYER
 62
    7
 10
70.03515549935899
 20
77.33962097564196
 30
0
  0
VERTEX
  5
7F
  8
LAYER_1
  6
BYLAYER
 62
    7
 10
69.82341693334753
 20
77.66631964573142
 30
0
  0
VERTEX
  5
80
  8
LAYER_1
  6
BYLAYER
 62
    7
 10
69.62263863570656
 20
77.99947153100015
 30
0
  0
VERTEX
  5
81
  8
LAYER_1
  6
BYLAYER
 62
    7
 10
69.43332345687047
 20
78.33870912050216
 30
0
  0
VERTEX
  5
82
  8
LAYER_1
  6
BYLAYER
 62
    7
 10
69.25597424727373
 20
78.6836649032916
 30
0
  0
VERTEX
  5
83
  8
LAYER_1
  6
BYLAYER
 62
    7
 10
69.09109385735071
 20
79.03397136842246
 30
0
  0
VERTEX
  5
84
  8
LAYER_1
  6
BYLAYER
 62
    7
 10
68.93918513753592
 20
79.38926100494886
 30
0
  0
VERTEX
  5
85
  8
LAYER_1
  6
BYLAYER
 62
    7
 10
68.8007509382637
 20
79.74916630192489
 30
0
  0
VERTEX
  5
86
  8
LAYER_1
  6
BYLAYER
 62
    7
 10
68.67629410996857
 20
80.11331974840459
 30
0
  0
VERTEX
  5
87
  8
LAYER_1
  6
BYLAYER
 62
    7
 10
68.56608045552733
 20
80.48135575215477
 30
0
  0
VERTEX
  5
88
  8
LAYER_1
  6
BYLAYER
 62
    7
 10
68.46916550091775
 20
80.8529185171777
 30
0
  0
VERTEX
  5
89
  8
LAYER_1
  6
BYLAYER
 62
    7
 10
68.38421951952679
 20
81.22765536579109
 30
0
  0
VERTEX
  5
8A
  8
LAYER_1
  6
BYLAYER
 62
    7
 10
68.30991262215221
 20
81.60521362162865
 30
0
  0
VERTEX
  5
8B
  8
LAYER_1
  6
BYLAYER
 62
    7
 10
68.24491491959174
 20
81.98524060832406
 30
0
  0
VERTEX
  5
8C
  8
LAYER_1
  6
BYLAYER
 62
    7
 10
68.18789652264314
 20
82.36738364951107
 30
0
  0
VERTEX
  5
8D
  8
LAYER_1
  6
BYLAYER
 62
    7
 10
68.13752754210421
 20
82.75129006882338
 30
0
  0
VERTEX
  5
8E
  8
LAYER_1
  6
BYLAYER
 62
    7
 10
68.09247808877267
 20
83.13660718989473
 30
0
  0
VERTEX
  5
8F
  8
LAYER_1
  6
BYLAYER
 62
    7
 10
68.05141827344627
 20
83.52298233635881
 30
0
  0
VERTEX
  5
90
  8
LAYER_1
  6
BYLAYER
 62
    7
 10
68.01301820692279
 20
83.91006283184932
 30
0
  0
VERTEX
  5
91
  8
LAYER_1
  6
BYLAYER
 62
    7
 10
67.975948
 20
84.297496
 30
0
  0
SEQEND
  5
92
  8
LAYER_1
  6
BYLAYER
 62
    7
  0
POLYLINE
  5
93
  8
LAYER_1
  6
BYLAYER
 62
    7
 66
    1
 10
0
 20
0
 30
0
 70
    0
  0
VERTEX
  5
94
  8
LAYER_1
  6
BYLAYER
 62
    7
 10
90.680165
 20
136.911426
 30
0
  0
VERTEX
  5
95
  8
LAYER_1
  6
BYLAYER
 62
    7
 10
90.6430950462114
 20
137.2988591397579
 30
0
  0
VERTEX
  5
96
  8
LAYER_1
  6
BYLAYER
 62
    7
 10
90.60469518743113
 20
137.6859396083091
 30
0
  0
VERTEX
  5
97
  8
LAYER_1
  6
BYLAYER
 62
    7
 10
90.56363553936944
 20
138.0723147309741
 30
0
  0
VERTEX
  5
98
  8
LAYER_1
  6
BYLAYER
 62
    7
 10
90.51858621773654
 20
138.4576318330734
 30
0
  0
VERTEX
  5
99
  8
LAYER_1
  6
BYLAYER
 62
    7
 10
90.46821733824262
 20
138.8415382399274
 30
0
  0
VERTEX
  5
9A
  8
LAYER_1
  6
BYLAYER
 62
    7
 10
90.41119901659789
 20
139.2236812768567
 30
0
  0
VERTEX
  5
9B
  8
LAYER_1
  6
BYLAYER
 62
    7
 10
90.34620136851254
 20
139.6037082691816
 30
0
  0
VERTEX
  5
9C
  8
LAYER_1
  6
BYLAYER
 62
    7
 10
90.27189450969681
 20
139.9812665422227
 30
0
  0
VERTEX
  5
9D
  8
LAYER_1
  6
BYLAYER
 62
    7
 10
90.18694855586085
 20
140.3560034213004
 30
0
  0
VERTEX
  5
9E
  8
LAYER_1
  6
BYLAYER
 62
    7
 10
90.09003362271494
 20
140.7275662317351
 30
0
  0
VERTEX
  5
9F
  8
LAYER_1
  6
BYLAYER
 62
    7
 10
89.97981998855303
 20
141.095602297531
 30
0
  0
VERTEX
  5
A0
  8
LAYER_1
  6
BYLAYER
 62
    7
 10
89.85536318218514
 20
141.4597558233536
 30
0
  0
VERTEX
  5
A1
  8
LAYER_1
  6
BYLAYER
 62
    7
 10
89.71692900567295
 20
141.8196612143961
 30
0
  0
VERTEX
  5
A2
  8
LAYER_1
  6
BYLAYER
 62
    7
 10
89.56502030850015
 20
142.1749509564998
 30
0
  0
VERTEX
  5
A3
  8
LAYER_1
  6
BYLAYER
 62
    7
 10
89.40013994015037
 20
142.5252575355065
 30
0
  0
VERTEX
  5
A4
  8
LAYER_1
  6
BYLAYER
 62
    7
 10
89.22279075010728
 20
142.8702134372578
 30
0
  0
VERTEX
  5
A5
  8
LAYER_1
  6
BYLAYER
 62
    7
 10
89.03347558785453
 20
143.2094511475951
 30
0
  0
VERTEX
  5
A6
  8
LAYER_1
  6
BYLAYER
 62
    7
 10
88.83269730287577
 20
143.5426031523602
 30
0
  0
VERTEX
  5
A7
  8
LAYER_1
  6
BYLAYER
 62
    7
 10
88.62095874465466
 20
143.8693019373946
 30
0
  0
VERTEX
  5
A8
  8
LAYER_1
  6
BYLAYER
 62
    7
 10
88.39876276267485
 20
144.1891799885398
 30
0
  0
VERTEX
  5
A9
  8
LAYER_1
  6
BYLAYER
 62
    7
 10
88.16661220642
 20
144.5018697916375
 30
0
  0
VERTEX
  5
AA
  8
LAYER_1
  6
BYLAYER
 62
    7
 10
87.92500443693878
 20
144.8070039834755
 30
0
  0
VERTEX
  5
AB
  8
LAYER_1
  6
BYLAYER
 62
    7
 10
87.67428345095166
 20
145.1042194187567
 30
0
  0
VERTEX
  5
AC
  8
LAYER_1
  6
BYLAYER
 62
    7
 10
87.41462309792739
 20
145.3931576316737
 30
0
  0
VERTEX
  5
AD
  8
LAYER_1
  6
BYLAYER
 62
    7
 10
87.14618837096315
 20
145.6734603999917
 30
0
  0
VERTEX
  5
AE
  8
LAYER_1
  6
BYLAYER
 62
    7
 10
86.86914426315616
 20
145.9447695014763
 30
0
  0
VERTEX
  5
AF
  8
LAYER_1
  6
BYLAYER
 62
    7
 10
86.58365576760367
 20
146.2067267138928
 30
0
  0
VERTEX
  5
B0
  8
LAYER_1
  6
BYLAYER
 62
    7
 10
86.28988787740292
 20
146.4589738150067
 30
0
  0
VERTEX
  5
B1
  8
LAYER_1
  6
BYLAYER
 62
    7
 10
85.98800558565119
 20
146.7011525825835
 30
0
  0
VERTEX
  5
B2
  8
LAYER_1
  6
BYLAYER
 62
    7
 10
85.67817388544566
 20
146.9329047943885
 30
0
  0
VERTEX
  5
B3
  8
LAYER_1
  6
BYLAYER
 62
    7
 10
85.3605577698836
 20
147.1538722281873
 30
0
  0
VERTEX
  5
B4
  8
LAYER_1
  6
BYLAYER
 62
    7
 10
85.03532223206223
 20
147.3636966617451
 30
0
  0
VERTEX
  5
B5
  8
LAYER_1
  6
BYLAYER
 62
    7
 10
84.70267069025556
 20
147.5620347515188
 30
0
  0
VERTEX
  5
B6
  8
LAYER_1
  6
BYLAYER
 62
    7
 10
84.36300863792422
 20
147.7486213999117
 30
0
  0
VERTEX
  5
B7
  8
LAYER_1
  6
BYLAYER
 62
    7
 10
84.01680776223665
 20
147.9232171403281
 30
0
  0
VERTEX
  5
B8
  8
LAYER_1
  6
BYLAYER
 62
    7
 10
83.66453978860599
 20
148.0855825209812
 30
0
  0
VERTEX
  5
B9
  8
LAYER_1
  6
BYLAYER
 62
    7
 10
83.30667644244538
 20
148.235478090084
 30
0
  0
VERTEX
  5
BA
  8
LAYER_1
  6
BYLAYER
 62
    7
 10
82.94368944916802
 20
148.3726643958499
 30
0
  0
VERTEX
  5
BB
  8
LAYER_1
  6
BYLAYER
 62
    7
 10
82.57605053418706
 20
148.496901986492
 30
0
  0
VERTEX
  5
BC
  8
LAYER_1
  6
BYLAYER
 62
    7
 10
82.20423142291565
 20
148.6079514102233
 30
0
  0
VERTEX
  5
BD
  8
LAYER_1
  6
BYLAYER
 62
    7
 10
81.82870384076701
 20
148.7055732152572
 30
0
  0
VERTEX
  5
BE
  8
LAYER_1
  6
BYLAYER
 62
    7
 10
81.44993951315426
 20
148.7895279498067
 30
0
  0
VERTEX
  5
BF
  8
LAYER_1
  6
BYLAYER
 62
    7
 10
81.06841115518763
 20
148.8595831950264
 30
0
  0
VERTEX
  5
C0
  8
LAYER_1
  6
BYLAYER
 62
    7
 10
80.68460887067602
 20
148.9156300988707
 30
0
  0
VERTEX
  5
C1
  8
LAYER_1
  6
BYLAYER
 62
    7
 10
80.29903760513228
 20
148.9576652767539
 30
0
  0
VERTEX
  5
C2
  8
LAYER_1
  6
BYLAYER
 62
    7
 10
79.91220278035863
 20
148.985688728676
 30
0
  0
VERTEX
  5
C3
  8
LAYER_1
  6
BYLAYER
 62
    7
 10
79.52460981815723
 20
148.9997004546371
 30
0
  0
VERTEX
  5
C4
  8
LAYER_1
  6
BYLAYER
 62
    7
 10
79.1367641403303
 20
148.9997004546371
 30
0
  0
VERTEX
  5
C5
  8
LAYER_1
  6
BYLAYER
 62
    7
 10
78.74917116867996
 20
148.985688728676
 30
0
  0
VERTEX
  5
C6
  8
LAYER_1
  6
BYLAYER
 62
    7
 10
78.36233632500846
 20
148.9576652767539
 30
0
  0
VERTEX
  5
C7
  8
LAYER_1
  6
BYLAYER
 62
    7
 10
77.97676503111795
 20
148.9156300988707
 30
0
  0
VERTEX
  5
C8
  8
LAYER_1
  6
BYLAYER
 62
    7
 10
77.5929627088106
 20
148.8595831950264
 30
0
  0
VERTEX
  5
C9
  8
LAYER_1
  6
BYLAYER
 62
    7
 10
77.21143430363736
 20
148.7895279498067
 30
0
  0
VERTEX
  5
CA
  8
LAYER_1
  6
BYLAYER
 62
    7
 10
76.83266992062873
 20
148.7055732152572
 30
0
  0
VERTEX
  5
CB
  8
LAYER_1
  6
BYLAYER
 62
    7
 10
76.45714227750349
 20
148.6079514102233
 30
0
  0
VERTEX
  5
CC
  8
LAYER_1
  6
BYLAYER
 62
    7
 10
76.08532310236232
 20
148.496901986492
 30
0
  0
VERTEX
  5
CD
  8
LAYER_1
  6
BYLAYER
 62
    7
 10
75.71768412330582
 20
148.3726643958499
 30
0
  0
VERTEX
  5
CE
  8
LAYER_1
  6
BYLAYER
 62
    7
 10
75.35469706843465
 20
148.235478090084
 30
0
  0
VERTEX
  5
CF
  8
LAYER_1
  6
BYLAYER
 62
    7
 10
74.99683366584946
 20
148.0855825209812
 30
0
  0
VERTEX
  5
D0
  8
LAYER_1
  6
BYLAYER
 62
    7
 10
74.64456564365094
 20
147.9232171403281
 30
0
  0
VERTEX
  5
D1
  8
LAYER_1
  6
BYLAYER
 62
    7
 10
74.29836472993964
 20
147.7486213999117
 30
0
  0
VERTEX
  5
D2
  8
LAYER_1
  6
BYLAYER
 62
    7
 10
73.95870265281626
 20
147.5620347515188
 30
0
  0
VERTEX
  5
D3
  8
LAYER_1
  6
BYLAYER
 62
    7
 10
73.6260511021359
 20
147.3636966617451
 30
0
  0
VERTEX
  5
D4
  8
LAYER_1
  6
BYLAYER
 62
    7
 10
73.30081557272588
 20
147.1538722281873
 30
0
  0
VERTEX
  5
D5
  8
LAYER_1
  6
BYLAYER
 62
    7
 10
72.98319948019699
 20
146.9329047943885
 30
0
  0
VERTEX
  5
D6
  8
LAYER_1
  6
BYLAYER
 62
    7
 10
72.67336781421695
 20
146.7011525825835
 30
0
  0
VERTEX
  5
D7
  8
LAYER_1
  6
BYLAYER
 62
    7
 10
72.37148556445354
 20
146.4589738150068
 30
0
  0
VERTEX
  5
D8
  8
LAYER_1
  6
BYLAYER
 62
    7
 10
72.07771772057446
 20
146.2067267138928
 30
0
  0
VERTEX
  5
D9
  8
LAYER_1
  6
BYLAYER
 62
    7
 10
71.79222927224747
 20
145.9447695014763
 30
0
  0
VERTEX
  5
DA
  8
LAYER_1
  6
BYLAYER
 62
    7
 10
71.51518520914031
 20
145.6734603999917
 30
0
  0
VERTEX
  5
DB
  8
LAYER_1
  6
BYLAYER
 62
    7
 10
71.24675052092076
 20
145.3931576316737
 30
0
  0
VERTEX
  5
DC
  8
LAYER_1
  6
BYLAYER
 62
    7
 10
70.98709019725652
 20
145.1042194187567
 30
0
  0
VERTEX
  5
DD
  8
LAYER_1
  6
BYLAYER
 62
    7
 10
70.73636922781533
 20
144.8070039834755
 30
0
  0
VERTEX
  5
DE
  8
LAYER_1
  6
BYLAYER
 62
    7
 10
70.4947614588236
 20
144.5018697916375
 30
0
  0
VERTEX
  5
DF
  8
LAYER_1
  6
BYLAYER
 62
    7
 10
70.26261088735654
 20
144.1891799885398
 30
0
  0
VERTEX
  5
E0
  8
LAYER_1
  6
BYLAYER
 62
    7
 10
70.04041487805974
 20
143.8693019373946
 30
0
  0
VERTEX
  5
E1
  8
LAYER_1
  6
BYLAYER
 62
    7
 10
69.82867628412968
 20
143.5426031523602
 30
0
  0
VERTEX
  5
E2
  8
LAYER_1
  6
BYLAYER
 62
    7
 10
69.627897958763
 20
143.2094511475951
 30
0
  0
VERTEX
  5
E3
  8
LAYER_1
  6
BYLAYER
 62
    7
 10
69.43858275515623
 20
142.8702134372578
 30
0
  0
VERTEX
  5
E4
  8
LAYER_1
  6
BYLAYER
 62
    7
 10
69.26123352650595
 20
142.5252575355066
 30
0
  0
VERTEX
  5
E5
  8
LAYER_1
  6
BYLAYER
 62
    7
 10
69.09635312600871
 20
142.1749509564999
 30
0
  0
VERTEX
  5
E6
  8
LAYER_1
  6
BYLAYER
 62
    7
 10
68.94444440686107
 20
141.8196612143961
 30
0
  0
VERTEX
  5
E7
  8
LAYER_1
  6
BYLAYER
 62
    7
 10
68.80601022225963
 20
141.4597558233537
 30
0
  0
VERTEX
  5
E8
  8
LAYER_1
  6
BYLAYER
 62
    7
 10
68.68155342540091
 20
141.095602297531
 30
0
  0
VERTEX
  5
E9
  8
LAYER_1
  6
BYLAYER
 62
    7
 10
68.57133982102114
 20
140.7275662317351
 30
0
  0
VERTEX
  5
EA
  8
LAYER_1
  6
BYLAYER
 62
    7
 10
68.47442493530293
 20
140.3560034213004
 30
0
  0
VERTEX
  5
EB
  8
LAYER_1
  6
BYLAYER
 62
    7
 10
68.38947904222526
 20
139.9812665422227
 30
0
  0
VERTEX
  5
EC
  8
LAYER_1
  6
BYLAYER
 62
    7
 10
68.3151722531826
 20
139.6037082691816
 30
0
  0
VERTEX
  5
ED
  8
LAYER_1
  6
BYLAYER
 62
    7
 10
68.25017467956945
 20
139.2236812768567
 30
0
  0
VERTEX
  5
EE
  8
LAYER_1
  6
BYLAYER
 62
    7
 10
68.19315643278024
 20
138.8415382399274
 30
0
  0
VERTEX
  5
EF
  8
LAYER_1
  6
BYLAYER
 62
    7
 10
68.14278762420946
 20
138.4576318330734
 30
0
  0
VERTEX
  5
F0
  8
LAYER_1
  6
BYLAYER
 62
    7
 10
68.09773836525157
 20
138.0723147309741
 30
0
  0
VERTEX
  5
F1
  8
LAYER_1
  6
BYLAYER
 62
    7
 10
68.05667876730105
 20
137.6859396083091
 30
0
  0
VERTEX
  5
F2
  8
LAYER_1
  6
BYLAYER
 62
    7
 10
68.01827894175238
 20
137.2988591397579
 30
0
  0
VERTEX
  5
F3
  8
LAYER_1
  6
BYLAYER
 62
    7
 10
67.98120900000001
 20
136.911426
 30
0
  0
SEQEND
  5
F4
  8
LAYER_1
  6
BYLAYER
 62
    7
  0
POLYLINE
  5
F5
  8
LAYER_1
  6
BYLAYER
 62
    7
 66
    1
 10
0
 20
0
 30
0
 70
    0
  0
VERTEX
  5
F6
  8
LAYER_1
  6
BYLAYER
 62
    7
 10
67.97741600000001
 20
136.877785
 30
0
  0
VERTEX
  5
F7
  8
LAYER_1
  6
BYLAYER
 62
    7
 10
67.97741600000001
 20
135.7596421357132
 30
0
  0
VERTEX
  5
F8
  8
LAYER_1
  6
BYLAYER
 62
    7
 10
67.97741599999999
 20
134.6414992696533
 30
0
  0
VERTEX
  5
F9
  8
LAYER_1
  6
BYLAYER
 62
    7
 10
67.97741599999999
 20
133.5233564018757
 30
0
  0
VERTEX
  5
FA
  8
LAYER_1
  6
BYLAYER
 62
    7
 10
67.97741600000003
 20
132.4052135324356
 30
0
  0
VERTEX
  5
FB
  8
LAYER_1
  6
BYLAYER
 62
    7
 10
67.97741600000001
 20
131.2870706613882
 30
0
  0
VERTEX
  5
FC
  8
LAYER_1
  6
BYLAYER
 62
    7
 10
67.97741600000002
 20
130.168927788789
 30
0
  0
VERTEX
  5
FD
  8
LAYER_1
  6
BYLAYER
 62
    7
 10
67.97741599999999
 20
129.0507849146931
 30
0
  0
VERTEX
  5
FE
  8
LAYER_1
  6
BYLAYER
 62
    7
 10
67.97741600000001
 20
127.9326420391558
 30
0
  0
VERTEX
  5
FF
  8
LAYER_1
  6
BYLAYER
 62
    7
 10
67.97741599999999
 20
126.8144991622324
 30
0
  0
VERTEX
  5
100
  8
LAYER_1
  6
BYLAYER
 62
    7
 10
67.97741600000001
 20
125.6963562839782
 30
0
  0
VERTEX
  5
101
  8
LAYER_1
  6
BYLAYER
 62
    7
 10
67.97741600000002
 20
124.5782134044485
 30
0
  0
VERTEX
  5
102
  8
LAYER_1
  6
BYLAYER
 62
    7
 10
67.97741600000001
 20
123.4600705236985
 30
0
  0
VERTEX
  5
103
  8
LAYER_1
  6
BYLAYER
 62
    7
 10
67.97741600000001
 20
122.3419276417836
 30
0
  0
VERTEX
  5
104
  8
LAYER_1
  6
BYLAYER
 62
    7
 10
67.97741599999999
 20
121.223784758759
 30
0
  0
VERTEX
  5
105
  8
LAYER_1
  6
BYLAYER
 62
    7
 10
67.97741600000002
 20
120.1056418746799
 30
0
  0
VERTEX
  5
106
  8
LAYER_1
  6
BYLAYER
 62
    7
 10
67.97741600000001
 20
118.9874989896017
 30
0
  0
VERTEX
  5
107
  8
LAYER_1
  6
BYLAYER
 62
    7
 10
67.97741600000001
 20
117.8693561035797
 30
0
  0
VERTEX
  5
108
  8
LAYER_1
  6
BYLAYER
 62
    7
 10
67.97741600000002
 20
116.7512132166691
 30
0
  0
VERTEX
  5
109
  8
LAYER_1
  6
BYLAYER
 62
    7
 10
67.97741600000001
 20
115.6330703289252
 30
0
  0
VERTEX
  5
10A
  8
LAYER_1
  6
BYLAYER
 62
    7
 10
67.97741600000001
 20
114.5149274404033
 30
0
  0
VERTEX
  5
10B
  8
LAYER_1
  6
BYLAYER
 62
    7
 10
67.97741600000001
 20
113.3967845511586
 30
0
  0
VERTEX
  5
10C
  8
LAYER_1
  6
BYLAYER
 62
    7
 10
67.97741600000001
 20
112.2786416612466
 30
0
  0
VERTEX
  5
10D
  8
LAYER_1
  6
BYLAYER
 62
    7
 10
67.97741600000001
 20
111.1604987707223
 30
0
  0
VERTEX
  5
10E
  8
LAYER_1
  6
BYLAYER
 62
    7
 10
67.97741600000001
 20
110.0423558796411
 30
0
  0
VERTEX
  5
10F
  8
LAYER_1
  6
BYLAYER
 62
    7
 10
67.97741600000001
 20
108.9242129880583
 30
0
  0
VERTEX
  5
110
  8
LAYER_1
  6
BYLAYER
 62
    7
 10
67.97741600000001
 20
107.8060700960292
 30
0
  0
VERTEX
  5
111
  8
LAYER_1
  6
BYLAYER
 62
    7
 10
67.97741600000001
 20
106.687927203609
 30
0
  0
VERTEX
  5
112
  8
LAYER_1
  6
BYLAYER
 62
    7
 10
67.97741600000001
 20
105.5697843108531
 30
0
  0
VERTEX
  5
113
  8
LAYER_1
  6
BYLAYER
 62
    7
 10
67.97741600000001
 20
104.4516414178167
 30
0
  0
VERTEX
  5
114
  8
LAYER_1
  6
BYLAYER
 62
    7
 10
67.97741600000001
 20
103.333498524555
 30
0
  0
VERTEX
  5
115
  8
LAYER_1
  6
BYLAYER
 62
    7
 10
67.97741600000001
 20
102.2153556311235
 30
0
  0
VERTEX
  5
116
  8
LAYER_1
  6
BYLAYER
 62
    7
 10
67.97741600000001
 20
101.0972127375772
 30
0
  0
VERTEX
  5
117
  8
LAYER_1
  6
BYLAYER
 62
    7
 10
67.97741600000001
 20
99.97906984397162
 30
0
  0
VERTEX
  5
118
  8
LAYER_1
  6
BYLAYER
 62
    7
 10
67.97741600000001
 20
98.86092695024263
 30
0
  0
VERTEX
  5
119
  8
LAYER_1
  6
BYLAYER
 62
    7
 10
67.97741600000001
 20
97.7427840557299
 30
0
  0
VERTEX
  5
11A
  8
LAYER_1
  6
BYLAYER
 62
    7
 10
67.97741600000002
 20
96.6246411595872
 30
0
  0
VERTEX
  5
11B
  8
LAYER_1
  6
BYLAYER
 62
    7
 10
67.97741600000001
 20
95.50649826096813
 30
0
  0
VERTEX
  5
11C
  8
LAYER_1
  6
BYLAYER
 62
    7
 10
67.97741600000001
 20
94.38835535902635
 30
0
  0
VERTEX
  5
11D
  8
LAYER_1
  6
BYLAYER
 62
    7
 10
67.97741600000001
 20
93.27021245291552
 30
0
  0
VERTEX
  5
11E
  8
LAYER_1
  6
BYLAYER
 62
    7
 10
67.97741600000001
 20
92.15206954178929
 30
0
  0
VERTEX
  5
11F
  8
LAYER_1
  6
BYLAYER
 62
    7
 10
67.97741600000001
 20
91.0339266248013
 30
0
  0
VERTEX
  5
120
  8
LAYER_1
  6
BYLAYER
 62
    7
 10
67.97741600000001
 20
89.9157837011052
 30
0
  0
VERTEX
  5
121
  8
LAYER_1
  6
BYLAYER
 62
    7
 10
67.97741600000001
 20
88.79764076985465
 30
0
  0
VERTEX
  5
122
  8
LAYER_1
  6
BYLAYER
 62
    7
 10
67.97741600000001
 20
87.6794978302033
 30
0
  0
VERTEX
  5
123
  8
LAYER_1
  6
BYLAYER
 62
    7
 10
67.97741600000001
 20
86.56135488130481
 30
0
  0
VERTEX
  5
124
  8
LAYER_1
  6
BYLAYER
 62
    7
 10
67.97741599999999
 20
85.44321192598204
 30
0
  0
VERTEX
  5
125
  8
LAYER_1
  6
BYLAYER
 62
    7
 10
67.97741600000001
 20
84.325069
 30
0
  0
SEQEND
  5
126
  8
LAYER_1
  6
BYLAYER
 62
    7
  0
POLYLINE
  5
127
  8
LAYER_1
  6
BYLAYER
 62
    7
 66
    1
 10
0
 20
0
 30
0
 70
    0
  0
VERTEX
  5
128
  8
LAYER_1
  6
BYLAYER
 62
    7
 10
90.673767
 20
136.876264
 30
0
  0
VERTEX
  5
129
  8
LAYER_1
  6
BYLAYER
 62
    7
 10
90.673767
 20
135.7579784521121
 30
0
  0
VERTEX
  5
12A
  8
LAYER_1
  6
BYLAYER
 62
    7
 10
90.67376700000001
 20
134.6396929077538
 30
0
  0
VERTEX
  5
12B
  8
LAYER_1
  6
BYLAYER
 62
    7
 10
90.673767
 20
133.5214073668154
 30
0
  0
VERTEX
  5
12C
  8
LAYER_1
  6
BYLAYER
 62
    7
 10
90.67376700000001
 20
132.4031218291871
 30
0
  0
VERTEX
  5
12D
  8
LAYER_1
  6
BYLAYER
 62
    7
 10
90.67376699999998
 20
131.284836294759
 30
0
  0
VERTEX
  5
12E
  8
LAYER_1
  6
BYLAYER
 62
    7
 10
90.67376699999998
 20
130.1665507634216
 30
0
  0
VERTEX
  5
12F
  8
LAYER_1
  6
BYLAYER
 62
    7
 10
90.67376700000001
 20
129.0482652350648
 30
0
  0
VERTEX
  5
130
  8
LAYER_1
  6
BYLAYER
 62
    7
 10
90.67376699999998
 20
127.9299797095791
 30
0
  0
VERTEX
  5
131
  8
LAYER_1
  6
BYLAYER
 62
    7
 10
90.67376700000001
 20
126.8116941868545
 30
0
  0
VERTEX
  5
132
  8
LAYER_1
  6
BYLAYER
 62
    7
 10
90.673767
 20
125.6934086667813
 30
0
  0
VERTEX
  5
133
  8
LAYER_1
  6
BYLAYER
 62
    7
 10
90.67376700000001
 20
124.5751231492498
 30
0
  0
VERTEX
  5
134
  8
LAYER_1
  6
BYLAYER
 62
    7
 10
90.67376700000001
 20
123.4568376341501
 30
0
  0
VERTEX
  5
135
  8
LAYER_1
  6
BYLAYER
 62
    7
 10
90.673767
 20
122.3385521213725
 30
0
  0
VERTEX
  5
136
  8
LAYER_1
  6
BYLAYER
 62
    7
 10
90.67376699999998
 20
121.2202666108072
 30
0
  0
VERTEX
  5
137
  8
LAYER_1
  6
BYLAYER
 62
    7
 10
90.67376699999998
 20
120.1019811023445
 30
0
  0
VERTEX
  5
138
  8
LAYER_1
  6
BYLAYER
 62
    7
 10
90.673767
 20
118.9836955958744
 30
0
  0
VERTEX
  5
139
  8
LAYER_1
  6
BYLAYER
 62
    7
 10
90.673767
 20
117.8654100912873
 30
0
  0
VERTEX
  5
13A
  8
LAYER_1
  6
BYLAYER
 62
    7
 10
90.673767
 20
116.7471245884735
 30
0
  0
VERTEX
  5
13B
  8
LAYER_1
  6
BYLAYER
 62
    7
 10
90.673767
 20
115.628839087323
 30
0
  0
VERTEX
  5
13C
  8
LAYER_1
  6
BYLAYER
 62
    7
 10
90.673767
 20
114.5105535877261
 30
0
  0
VERTEX
  5
13D
  8
LAYER_1
  6
BYLAYER
 62
    7
 10
90.673767
 20
113.3922680895731
 30
0
  0
VERTEX
  5
13E
  8
LAYER_1
  6
BYLAYER
 62
    7
 10
90.67376700000001
 20
112.2739825927541
 30
0
  0
VERTEX
  5
13F
  8
LAYER_1
  6
BYLAYER
 62
    7
 10
90.673767
 20
111.1556970971594
 30
0
  0
VERTEX
  5
140
  8
LAYER_1
  6
BYLAYER
 62
    7
 10
90.673767
 20
110.0374116026793
 30
0
  0
VERTEX
  5
141
  8
LAYER_1
  6
BYLAYER
 62
    7
 10
90.673767
 20
108.9191261092039
 30
0
  0
VERTEX
  5
142
  8
LAYER_1
  6
BYLAYER
 62
    7
 10
90.673767
 20
107.8008406166234
 30
0
  0
VERTEX
  5
143
  8
LAYER_1
  6
BYLAYER
 62
    7
 10
90.67376700000001
 20
106.6825551248281
 30
0
  0
VERTEX
  5
144
  8
LAYER_1
  6
BYLAYER
 62
    7
 10
90.673767
 20
105.5642696337082
 30
0
  0
VERTEX
  5
145
  8
LAYER_1
  6
BYLAYER
 62
    7
 10
90.67376700000001
 20
104.4459841431539
 30
0
  0
VERTEX
  5
146
  8
LAYER_1
  6
BYLAYER
 62
    7
 10
90.673767
 20
103.3276986530554
 30
0
  0
VERTEX
  5
147
  8
LAYER_1
  6
BYLAYER
 62
    7
 10
90.673767
 20
102.209413163303
 30
0
  0
VERTEX
  5
148
  8
LAYER_1
  6
BYLAYER
 62
    7
 10
90.673767
 20
101.0911276737868
 30
0
  0
VERTEX
  5
149
  8
LAYER_1
  6
BYLAYER
 62
    7
 10
90.673767
 20
99.97284218439721
 30
0
  0
VERTEX
  5
14A
  8
LAYER_1
  6
BYLAYER
 62
    7
 10
90.673767
 20
98.85455669494826
 30
0
  0
VERTEX
  5
14B
  8
LAYER_1
  6
BYLAYER
 62
    7
 10
90.673767
 20
97.73627120477094
 30
0
  0
VERTEX
  5
14C
  8
LAYER_1
  6
BYLAYER
 62
    7
 10
90.673767
 20
96.61798571300706
 30
0
  0
VERTEX
  5
14D
  8
LAYER_1
  6
BYLAYER
 62
    7
 10
90.67376699999998
 20
95.49970021879783
 30
0
  0
VERTEX
  5
14E
  8
LAYER_1
  6
BYLAYER
 62
    7
 10
90.673767
 20
94.38141472128463
 30
0
  0
VERTEX
  5
14F
  8
LAYER_1
  6
BYLAYER
 62
    7
 10
90.67376699999998
 20
93.26312921960871
 30
0
  0
VERTEX
  5
150
  8
LAYER_1
  6
BYLAYER
 62
    7
 10
90.67376700000003
 20
92.14484371291144
 30
0
  0
VERTEX
  5
151
  8
LAYER_1
  6
BYLAYER
 62
    7
 10
90.67376700000001
 20
91.02655820033407
 30
0
  0
VERTEX
  5
152
  8
LAYER_1
  6
BYLAYER
 62
    7
 10
90.673767
 20
89.90827268101788
 30
0
  0
VERTEX
  5
153
  8
LAYER_1
  6
BYLAYER
 62
    7
 10
90.673767
 20
88.78998715410425
 30
0
  0
VERTEX
  5
154
  8
LAYER_1
  6
BYLAYER
 62
    7
 10
90.673767
 20
87.67170161873443
 30
0
  0
VERTEX
  5
155
  8
LAYER_1
  6
BYLAYER
 62
    7
 10
90.673767
 20
86.55341607404976
 30
0
  0
VERTEX
  5
156
  8
LAYER_1
  6
BYLAYER
 62
    7
 10
90.673767
 20
85.43513052246516
 30
0
  0
VERTEX
  5
157
  8
LAYER_1
  6
BYLAYER
 62
    7
 10
90.673767
 20
84.316845
 30
0
  0
SEQEND
  5
158
  8
LAYER_1
  6
BYLAYER
 62
    7
  0
ENDSEC
  0
EOF
