999
dxfrw 0.6.3
  0
SECTION
  2
HEADER
  9
$ACADVER
  1
AC1021
  9
$DWGCODEPAGE
  3
ANSI_1252
  9
$INSBASE
 10
0
 20
0
 30
0
  9
$EXTMIN
 10
67.975948
 20
72.20922297900115
 30
0
  9
$EXTMAX
 10
90.680165
 20
148.9997004546371
 30
0
  9
$LIMMIN
 10
0
 20
0
  9
$LIMMAX
 10
420
 20
297
  9
$ORTHOMODE
 70
    0
  9
$REGENMODE
 70
    1
  9
$FILLMODE
 70
    1
  9
$QTEXTMODE
 70
    0
  9
$MIRRTEXT
 70
    0
  9
$LTSCALE
 40
1
  9
$ATTMODE
 70
    0
  9
$TEXTSIZE
 40
2.5
  9
$TRACEWID
 40
15.68
  9
$TEXTSTYLE
  7
STANDARD
  9
$CLAYER
  8
0
  9
$CELTYPE
  6
BYLAYER
  9
$CECOLOR
 62
  256
  9
$CELTSCALE
 40
1
  9
$DISPSILH
 70
    0
  9
$DIMSCALE
 40
2.5
  9
$DIMASZ
 40
2.5
  9
$DIMEXO
 40
0.625
  9
$DIMDLI
 40
3.75
  9
$DIMRND
 40
0
  9
$DIMDLE
 40
0
  9
$DIMEXE
 40
1.25
  9
$DIMTP
 40
0
  9
$DIMTM
 40
0
  9
$DIMTXT
 40
2.5
  9
$DIMCEN
 40
2.5
  9
$DIMTSZ
 40
0
  9
$DIMTOL
 70
    0
  9
$DIMLIM
 70
    0
  9
$DIMTIH
 70
    0
  9
$DIMTOH
 70
    0
  9
$DIMSE1
 70
    0
  9
$DIMSE2
 70
    0
  9
$DIMTAD
 70
    1
  9
$DIMZIN
 70
    8
  9
$DIMBLK
  1

  9
$DIMASO
 70
    1
  9
$DIMSHO
 70
    1
  9
$DIMPOST
  1

  9
$DIMAPOST
  1

  9
$DIMALT
 70
    0
  9
$DIMALTD
 70
    3
  9
$DIMALTF
 40
0.03937
  9
$DIMLFAC
 40
1
  9
$DIMTOFL
 70
    1
  9
$DIMTVP
 40
0
  9
$DIMTIX
 70
    0
  9
$DIMSOXD
 70
    0
  9
$DIMSAH
 70
    0
  9
$DIMBLK1
  1

  9
$DIMBLK2
  1

  9
$DIMSTYLE
  2
STANDARD
  9
$DIMCLRD
 70
    0
  9
$DIMCLRE
 70
    0
  9
$DIMCLRT
 70
    0
  9
$DIMTFAC
 40
1
  9
$DIMGAP
 40
0.625
  9
$DIMJUST
 70
    0
  9
$DIMSD1
 70
    0
  9
$DIMSD2
 70
    0
  9
$DIMTOLJ
 70
    0
  9
$DIMTZIN
 70
    8
  9
$DIMALTZ
 70
    0
  9
$DIMALTTZ
 70
    0
  9
$DIMUPT
 70
    0
  9
$DIMDEC
 70
    4
  9
$DIMTDEC
 70
    2
  9
$DIMALTU
 70
    2
  9
$DIMALTTD
 70
    3
  9
$DIMTXSTY
  7
STANDARD
  9
$DIMAUNIT
 70
    0
  9
$DIMADEC
 70
    0
  9
$DIMALTRND
 40
0
  9
$DIMAZIN
 70
    0
  9
$DIMDSEP
 70
   44
  9
$DIMATFIT
 70
    3
  9
$DIMFRAC
 70
    0
  9
$DIMLDRBLK
  1
STANDARD
  9
$DIMLUNIT
 70
    2
  9
$DIMLWD
 70
   -2
  9
$DIMLWE
 70
   -2
  9
$DIMTMOVE
 70
    0
  9
$DIMFXL
 40
1
  9
$DIMFXLON
 70
    0
  9
$DIMJOGANG
 40
0.7854
  9
$DIMTFILL
 70
    0
  9
$DIMTFILLCLR
 70
    0
  9
$DIMARCSYM
 70
    0
  9
$DIMLTYPE
  6

  9
$DIMLTEX1
  6

  9
$DIMLTEX2
  6

  9
$LUNITS
 70
    2
  9
$LUPREC
 70
    4
  9
$SKETCHINC
 40
1
  9
$FILLETRAD
 40
0
  9
$AUNITS
 70
    0
  9
$AUPREC
 70
    2
  9
$MENU
  1
.
  9
$ELEVATION
 40
0
  9
$PELEVATION
 40
0
  9
$THICKNESS
 40
0
  9
$LIMCHECK
 70
    0
  9
$CHAMFERA
 40
0
  9
$CHAMFERB
 40
0
  9
$CHAMFERC
 40
0
  9
$CHAMFERD
 40
0
  9
$SKPOLY
 70
    0
  9
$USRTIMER
 70
    1
  9
$ANGBASE
 50
0
  9
$ANGDIR
 70
    0
  9
$PDMODE
 70
   34
  9
$PDSIZE
 40
0
  9
$PLINEWID
 40
0
  9
$SPLFRAME
 70
    0
  9
$SPLINETYPE
 70
    2
  9
$SPLINESEGS
 70
    8
  9
$HANDSEED
  5
20000
  9
$SURFTAB1
 70
    6
  9
$SURFTAB2
 70
    6
  9
$SURFTYPE
 70
    6
  9
$SURFU
 70
    6
  9
$SURFV
 70
    6
  9
$UCSBASE
  2

  9
$UCSNAME
  2

  9
$UCSORG
 10
0
 20
0
 30
0
  9
$UCSXDIR
 10
1
 20
0
 30
0
  9
$UCSYDIR
 10
0
 20
1
 30
0
  9
$UCSORTHOREF
  2

  9
$UCSORTHOVIEW
 70
    0
  9
$UCSORGTOP
 10
0
 20
0
 30
0
  9
$UCSORGBOTTOM
 10
0
 20
0
 30
0
  9
$UCSORGLEFT
 10
0
 20
0
 30
0
  9
$UCSORGRIGHT
 10
0
 20
0
 30
0
  9
$UCSORGFRONT
 10
0
 20
0
 30
0
  9
$UCSORGBACK
 10
0
 20
0
 30
0
  9
$PUCSBASE
  2

  9
$PUCSNAME
  2

  9
$PUCSORG
 10
0
 20
0
 30
0
  9
$PUCSXDIR
 10
1
 20
0
 30
0
  9
$PUCSYDIR
 10
0
 20
1
 30
0
  9
$PUCSORTHOREF
  2

  9
$PUCSORTHOVIEW
 70
    0
  9
$PUCSORGTOP
 10
0
 20
0
 30
0
  9
$PUCSORGBOTTOM
 10
0
 20
0
 30
0
  9
$PUCSORGLEFT
 10
0
 20
0
 30
0
  9
$PUCSORGRIGHT
 10
0
 20
0
 30
0
  9
$PUCSORGFRONT
 10
0
 20
0
 30
0
  9
$PUCSORGBACK
 10
0
 20
0
 30
0
  9
$USERI1
 70
    0
  9
$USERI2
 70
    0
  9
$USERI3
 70
    0
  9
$USERI4
 70
    0
  9
$USERI5
 70
    0
  9
$USERR1
 40
0
  9
$USERR2
 40
0
  9
$USERR3
 40
0
  9
$USERR4
 40
0
  9
$USERR5
 40
0
  9
$WORLDVIEW
 70
    1
  9
$SHADEDGE
 70
    3
  9
$SHADEDIF
 70
   70
  9
$TILEMODE
 70
    1
  9
$MAXACTVP
 70
   64
  9
$PINSBASE
 10
0
 20
0
 30
0
  9
$PLIMCHECK
 70
    0
  9
$PEXTMIN
 10
0
 20
0
 30
0
  9
$PEXTMAX
 10
0
 20
0
 30
0
  9
$GRIDMODE
 70
    1
  9
$SNAPSTYLE
 70
    0
  9
$PLIMMIN
 10
0
 20
0
  9
$PLIMMAX
 10
210
 20
297
  9
$UNITMODE
 70
    0
  9
$VISRETAIN
 70
    1
  9
$PLINEGEN
 70
    0
  9
$PSLTSCALE
 70
    1
  9
$TREEDEPTH
 70
 3020
  9
$CMLSTYLE
  2
Standard
  9
$CMLJUST
 70
    0
  9
$CMLSCALE
 40
20
  9
$PROXYGRAPHICS
 70
    1
  9
$MEASUREMENT
 70
    1
  9
$CELWEIGHT
370
   -1
  9
$ENDCAPS
280
    0
  9
$JOINSTYLE
280
    0
  9
$LWDISPLAY
290
    0
  9
$INSUNITS
 70
    4
  9
$HYPERLINKBASE
  1

  9
$STYLESHEET
  1

  9
$XEDIT
290
    1
  9
$CEPSNTYPE
380
    0
  9
$PSTYLEMODE
290
    1
  9
$EXTNAMES
290
    1
  9
$PSVPSCALE
 40
1
  9
$OLESTARTUP
290
    0
  9
$SORTENTS
280
  127
  9
$INDEXCTL
280
    0
  9
$HIDETEXT
280
    1
  9
$XCLIPFRAME
290
    0
  9
$HALOGAP
280
    0
  9
$OBSCOLOR
 70
  257
  9
$OBSLTYPE
280
    0
  9
$INTERSECTIONDISPLAY
280
    0
  9
$INTERSECTIONCOLOR
 70
  257
  9
$DIMASSOC
280
    1
  9
$PROJECTNAME
  1

  9
$CAMERADISPLAY
290
    0
  9
$LENSLENGTH
 40
50
  9
$CAMERAHEIGHT
 40
0
  9
$STEPSPERSEC
 40
2
  9
$STEPSIZE
 40
50
  9
$3DDWFPREC
 40
2
  9
$PSOLWIDTH
 40
5
  9
$PSOLHEIGHT
 40
80
  9
$LOFTANG1
 40
1.570796326794897
  9
$LOFTANG2
 40
1.570796326794897
  9
$LOFTMAG1
 40
0
  9
$LOFTMAG2
 40
0
  9
$LOFTPARAM
 70
    7
  9
$LOFTNORMALS
280
    1
  9
$LATITUDE
 40
1
  9
$LONGITUDE
 40
1
  9
$NORTHDIRECTION
 40
0
  9
$TIMEZONE
 70
-8000
  9
$LIGHTGLYPHDISPLAY
280
    1
  9
$TILEMODELIGHTSYNCH
280
    1
  9
$SOLIDHIST
280
    1
  9
$SHOWHIST
280
    1
  9
$DWFFRAME
280
    2
  9
$DGNFRAME
280
    0
  9
$REALWORLDSCALE
290
    1
  9
$INTERFERECOLOR
 62
    1
  9
$CSHADOW
280
    0
  9
$SHADOWPLANELOCATION
 40
0
  0
ENDSEC
  0
SECTION
  2
CLASSES
  0
ENDSEC
  0
SECTION
  2
TABLES
  0
TABLE
  2
VPORT
  5
8
330
0
100
AcDbSymbolTable
 70
    1
  0
VPORT
  5
31
330
2
100
AcDbSymbolTableRecord
100
AcDbViewportTableRecord
  2
*ACTIVE
 70
    0
 10
0
 20
0
 11
1
 21
1
 12
34.03134913057463
 22
68.44873354326414
 13
0
 23
0
 14
10
 24
10
 15
10
 25
10
 16
0
 26
0
 36
1
 17
0
 27
0
 37
0
 40
0.1106608267976996
 41
1.692717584369449
 42
50
 43
0
 44
0
 50
0
 51
0
 71
    0
 72
  100
 73
    1
 74
    3
 75
    0
 76
    1
 77
    0
 78
    0
281
    0
 65
    1
110
0
120
0
130
0
111
1
121
0
131
0
112
0
122
1
132
0
 79
    0
146
0
348
10020
 60
    7
 61
    5
292
1
282
    1
141
0
142
0
 63
  250
421
3358443
  0
ENDTAB
  0
TABLE
  2
LTYPE
  5
5
330
0
100
AcDbSymbolTable
 70
    4
  0
LTYPE
  5
14
330
5
100
AcDbSymbolTableRecord
100
AcDbLinetypeTableRecord
  2
ByBlock
 70
    0
  3

 72
   65
 73
    0
 40
0
  0
LTYPE
  5
15
330
5
100
AcDbSymbolTableRecord
100
AcDbLinetypeTableRecord
  2
ByLayer
 70
    0
  3

 72
   65
 73
    0
 40
0
  0
LTYPE
  5
16
330
5
100
AcDbSymbolTableRecord
100
AcDbLinetypeTableRecord
  2
Continuous
 70
    0
  3
Solid line
 72
   65
 73
    0
 40
0
  0
LTYPE
  5
32
330
5
100
AcDbSymbolTableRecord
100
AcDbLinetypeTableRecord
  2
DOT
 70
    0
  3
Dot . . . . . . . . . . . . . . . . . . . . . .
 72
   65
 73
    2
 40
6.35
 49
0
 74
    0
 49
-6.35
 74
    0
  0
LTYPE
  5
33
330
5
100
AcDbSymbolTableRecord
100
AcDbLinetypeTableRecord
  2
DOTTINY
 70
    0
  3
Dot (.15x) .....................................
 72
   65
 73
    2
 40
0.9525
 49
0
 74
    0
 49
-0.9525
 74
    0
  0
LTYPE
  5
34
330
5
100
AcDbSymbolTableRecord
100
AcDbLinetypeTableRecord
  2
DOT2
 70
    0
  3
Dot (.5x) .....................................
 72
   65
 73
    2
 40
3.175
 49
0
 74
    0
 49
-3.175
 74
    0
  0
LTYPE
  5
35
330
5
100
AcDbSymbolTableRecord
100
AcDbLinetypeTableRecord
  2
DOTX2
 70
    0
  3
Dot (2x) .  .  .  .  .  .  .  .  .  .  .  .  .
 72
   65
 73
    2
 40
12.7
 49
0
 74
    0
 49
-12.7
 74
    0
  0
LTYPE
  5
36
330
5
100
AcDbSymbolTableRecord
100
AcDbLinetypeTableRecord
  2
DASHED
 70
    0
  3
Dashed _ _ _ _ _ _ _ _ _ _ _ _ _ _ _ _ _
 72
   65
 73
    2
 40
19.05
 49
12.7
 74
    0
 49
-6.35
 74
    0
  0
LTYPE
  5
37
330
5
100
AcDbSymbolTableRecord
100
AcDbLinetypeTableRecord
  2
DASHEDTINY
 70
    0
  3
Dashed (.15x) _ _ _ _ _ _ _ _ _ _ _ _ _ _ _ _ _
 72
   65
 73
    2
 40
2.8575
 49
1.905
 74
    0
 49
-0.9525
 74
    0
  0
LTYPE
  5
38
330
5
100
AcDbSymbolTableRecord
100
AcDbLinetypeTableRecord
  2
DASHED2
 70
    0
  3
Dashed (.5x) _ _ _ _ _ _ _ _ _ _ _ _ _ _ _ _ _
 72
   65
 73
    2
 40
9.524999999999999
 49
6.35
 74
    0
 49
-3.175
 74
    0
  0
LTYPE
  5
39
330
5
100
AcDbSymbolTableRecord
100
AcDbLinetypeTableRecord
  2
DASHEDX2
 70
    0
  3
Dashed (2x) ____  ____  ____  ____  ____  ___
 72
   65
 73
    2
 40
38.09999999999999
 49
25.4
 74
    0
 49
-12.7
 74
    0
  0
LTYPE
  5
3A
330
5
100
AcDbSymbolTableRecord
100
AcDbLinetypeTableRecord
  2
DASHDOT
 70
    0
  3
Dash dot __ . __ . __ . __ . __ . __ . __ . __
 72
   65
 73
    4
 40
25.4
 49
12.7
 74
    0
 49
-6.35
 74
    0
 49
0
 74
    0
 49
-6.35
 74
    0
  0
LTYPE
  5
3B
330
5
100
AcDbSymbolTableRecord
100
AcDbLinetypeTableRecord
  2
DASHDOTTINY
 70
    0
  3
Dash dot (.15x) _._._._._._._._._._._._._._._.
 72
   65
 73
    4
 40
3.81
 49
1.905
 74
    0
 49
-0.9525
 74
    0
 49
0
 74
    0
 49
-0.9525
 74
    0
  0
LTYPE
  5
3C
330
5
100
AcDbSymbolTableRecord
100
AcDbLinetypeTableRecord
  2
DASHDOT2
 70
    0
  3
Dash dot (.5x) _._._._._._._._._._._._._._._.
 72
   65
 73
    4
 40
12.7
 49
6.35
 74
    0
 49
-3.175
 74
    0
 49
0
 74
    0
 49
-3.175
 74
    0
  0
LTYPE
  5
3D
330
5
100
AcDbSymbolTableRecord
100
AcDbLinetypeTableRecord
  2
DASHDOTX2
 70
    0
  3
Dash dot (2x) ____  .  ____  .  ____  .  ___
 72
   65
 73
    4
 40
50.8
 49
25.4
 74
    0
 49
-12.7
 74
    0
 49
0
 74
    0
 49
-12.7
 74
    0
  0
LTYPE
  5
3E
330
5
100
AcDbSymbolTableRecord
100
AcDbLinetypeTableRecord
  2
DIVIDE
 70
    0
  3
Divide ____ . . ____ . . ____ . . ____ . . ____
 72
   65
 73
    6
 40
31.75
 49
12.7
 74
    0
 49
-6.35
 74
    0
 49
0
 74
    0
 49
-6.35
 74
    0
 49
0
 74
    0
 49
-6.35
 74
    0
  0
LTYPE
  5
3F
330
5
100
AcDbSymbolTableRecord
100
AcDbLinetypeTableRecord
  2
DIVIDETINY
 70
    0
  3
Divide (.15x) __..__..__..__..__..__..__..__.._
 72
   65
 73
    6
 40
4.7625
 49
1.905
 74
    0
 49
-0.9525
 74
    0
 49
0
 74
    0
 49
-0.9525
 74
    0
 49
0
 74
    0
 49
-0.9525
 74
    0
  0
LTYPE
  5
40
330
5
100
AcDbSymbolTableRecord
100
AcDbLinetypeTableRecord
  2
DIVIDE2
 70
    0
  3
Divide (.5x) __..__..__..__..__..__..__..__.._
 72
   65
 73
    6
 40
15.875
 49
6.35
 74
    0
 49
-3.175
 74
    0
 49
0
 74
    0
 49
-3.175
 74
    0
 49
0
 74
    0
 49
-3.175
 74
    0
  0
LTYPE
  5
41
330
5
100
AcDbSymbolTableRecord
100
AcDbLinetypeTableRecord
  2
DIVIDEX2
 70
    0
  3
Divide (2x) ________  .  .  ________  .  .  _
 72
   65
 73
    6
 40
63.5
 49
25.4
 74
    0
 49
-12.7
 74
    0
 49
0
 74
    0
 49
-12.7
 74
    0
 49
0
 74
    0
 49
-12.7
 74
    0
  0
LTYPE
  5
42
330
5
100
AcDbSymbolTableRecord
100
AcDbLinetypeTableRecord
  2
BORDER
 70
    0
  3
Border __ __ . __ __ . __ __ . __ __ . __ __ .
 72
   65
 73
    6
 40
44.45
 49
12.7
 74
    0
 49
-6.35
 74
    0
 49
12.7
 74
    0
 49
-6.35
 74
    0
 49
0
 74
    0
 49
-6.35
 74
    0
  0
LTYPE
  5
43
330
5
100
AcDbSymbolTableRecord
100
AcDbLinetypeTableRecord
  2
BORDERTINY
 70
    0
  3
Border (.15x) __.__.__.__.__.__.__.__.__.__.__.
 72
   65
 73
    6
 40
6.6675
 49
1.905
 74
    0
 49
-0.9525
 74
    0
 49
1.905
 74
    0
 49
-0.9525
 74
    0
 49
0
 74
    0
 49
-0.9525
 74
    0
  0
LTYPE
  5
44
330
5
100
AcDbSymbolTableRecord
100
AcDbLinetypeTableRecord
  2
BORDER2
 70
    0
  3
Border (.5x) __.__.__.__.__.__.__.__.__.__.__.
 72
   65
 73
    6
 40
22.225
 49
6.35
 74
    0
 49
-3.175
 74
    0
 49
6.35
 74
    0
 49
-3.175
 74
    0
 49
0
 74
    0
 49
-3.175
 74
    0
  0
LTYPE
  5
45
330
5
100
AcDbSymbolTableRecord
100
AcDbLinetypeTableRecord
  2
BORDERX2
 70
    0
  3
Border (2x) ____  ____  .  ____  ____  .  ___
 72
   65
 73
    6
 40
88.89999999999999
 49
25.4
 74
    0
 49
-12.7
 74
    0
 49
25.4
 74
    0
 49
-12.7
 74
    0
 49
0
 74
    0
 49
-12.7
 74
    0
  0
LTYPE
  5
46
330
5
100
AcDbSymbolTableRecord
100
AcDbLinetypeTableRecord
  2
CENTER
 70
    0
  3
Center ____ _ ____ _ ____ _ ____ _ ____ _ ____
 72
   65
 73
    4
 40
50.8
 49
31.75
 74
    0
 49
-6.35
 74
    0
 49
6.35
 74
    0
 49
-6.35
 74
    0
  0
LTYPE
  5
47
330
5
100
AcDbSymbolTableRecord
100
AcDbLinetypeTableRecord
  2
CENTERTINY
 70
    0
  3
Center (.15x) ___ _ ___ _ ___ _ ___ _ ___ _ ___
 72
   65
 73
    4
 40
7.62
 49
4.7625
 74
    0
 49
-0.9525
 74
    0
 49
0.9525
 74
    0
 49
-0.9525
 74
    0
  0
LTYPE
  5
48
330
5
100
AcDbSymbolTableRecord
100
AcDbLinetypeTableRecord
  2
CENTER2
 70
    0
  3
Center (.5x) ___ _ ___ _ ___ _ ___ _ ___ _ ___
 72
   65
 73
    4
 40
28.575
 49
19.05
 74
    0
 49
-3.175
 74
    0
 49
3.175
 74
    0
 49
-3.175
 74
    0
  0
LTYPE
  5
49
330
5
100
AcDbSymbolTableRecord
100
AcDbLinetypeTableRecord
  2
CENTERX2
 70
    0
  3
Center (2x) ________  __  ________  __  _____
 72
   65
 73
    4
 40
101.6
 49
63.5
 74
    0
 49
-12.7
 74
    0
 49
12.7
 74
    0
 49
-12.7
 74
    0
  0
ENDTAB
  0
TABLE
  2
LAYER
  5
2
330
0
100
AcDbSymbolTable
 70
    1
  0
LAYER
  5
10
330
2
100
AcDbSymbolTableRecord
100
AcDbLayerTableRecord
  2
0
 70
    0
 62
    7
  6
CONTINUOUS
370
   -3
390
F
  0
LAYER
  5
4A
330
2
100
AcDbSymbolTableRecord
100
AcDbLayerTableRecord
  2
LAYER_1
 70
    0
 62
    7
  6
CONTINUOUS
370
   -3
390
F
  0
ENDTAB
  0
TABLE
  2
STYLE
  5
3
330
0
100
AcDbSymbolTable
 70
    3
  0
STYLE
  5
4B
330
2
100
AcDbSymbolTableRecord
100
AcDbTextStyleTableRecord
  2
Standard
 70
    0
 40
0
 41
1
 50
0
 71
    0
 42
1
  3
txt
  4

  0
ENDTAB
  0
TABLE
  2
VIEW
  5
6
330
0
100
AcDbSymbolTable
 70
    0
  0
ENDTAB
  0
TABLE
  2
UCS
  5
7
330
0
100
AcDbSymbolTable
 70
    0
  0
ENDTAB
  0
TABLE
  2
APPID
  5
9
330
0
100
AcDbSymbolTable
 70
    1
  0
APPID
  5
12
330
9
100
AcDbSymbolTableRecord
100
AcDbRegAppTableRecord
  2
ACAD
 70
    0
  0
APPID
  5
4C
330
9
100
AcDbSymbolTableRecord
100
AcDbRegAppTableRecord
  2
LibreCad
 70
    0
  0
ENDTAB
  0
TABLE
  2
DIMSTYLE
  5
A
330
0
100
AcDbSymbolTable
 70
    1
100
AcDbDimStyleTable
 71
    1
  0
DIMSTYLE
105
4D
330
A
100
AcDbSymbolTableRecord
100
AcDbDimStyleTableRecord
  2
Standard
 70
    0
 40
2.5
 41
2.5
 42
0.625
 43
0.38
 44
1.25
 45
0
 46
0
 47
0
 48
0
 49
1
140
2.5
141
0.09
142
0
143
25.4
144
1
145
0
146
1
147
0.625
148
0
 71
    0
 72
    0
 73
    0
 74
    1
 75
    0
 76
    0
 77
    0
 78
    8
 79
    0
170
    0
171
    2
172
    0
173
    0
174
    0
175
    0
176
    0
177
    0
178
    0
179
    0
271
    4
272
    4
273
    2
274
    2
275
    0
276
    0
277
    2
278
    0
279
    0
280
    0
281
    0
282
    0
283
    1
284
    0
285
    0
286
    0
288
    0
289
    3
340
standard
341

371
   -2
372
   -2
  0
ENDTAB
  0
TABLE
  2
BLOCK_RECORD
  5
1
330
0
100
AcDbSymbolTable
 70
    2
  0
BLOCK_RECORD
  5
1F
330
1
100
AcDbSymbolTableRecord
100
AcDbBlockTableRecord
  2
*Model_Space
 70
    0
280
    1
281
    0
  0
BLOCK_RECORD
  5
1E
330
1
100
AcDbSymbolTableRecord
100
AcDbBlockTableRecord
  2
*Paper_Space
 70
    0
280
    1
281
    0
  0
ENDTAB
  0
ENDSEC
  0
SECTION
  2
BLOCKS
  0
BLOCK
  5
20
330
1F
100
AcDbEntity
  8
0
100
AcDbBlockBegin
  2
*Model_Space
 70
    0
 10
0
 20
0
 30
0
  3
*Model_Space
  1

  0
ENDBLK
  5
21
330
1F
100
AcDbEntity
  8
0
100
AcDbBlockEnd
  0
BLOCK
  5
1C
330
1B
100
AcDbEntity
  8
0
100
AcDbBlockBegin
  2
*Paper_Space
 70
    0
 10
0
 20
0
 30
0
  3
*Paper_Space
  1

  0
ENDBLK
  5
1D
330
1F
100
AcDbEntity
  8
0
100
AcDbBlockEnd
  0
ENDSEC
  0
SECTION
  2
ENTITIES
  0
LINE
  5
4E
100
AcDbEntity
  8
LAYER_1
  6
ByLayer
 62
    7
370
   -1
100
AcDbLine
 10
90.63783106452271
 20
83.91006291162678
 11
90.59943124669738
 21
83.52298247309166
  0
LINE
  5
4F
100
AcDbEntity
  8
LAYER_1
  6
ByLayer
 62
    7
370
   -1
100
AcDbLine
 10
90.59943124669738
 20
83.52298247309166
 11
90.55837165936671
 21
83.13660736321667
  0
LINE
  5
50
100
AcDbEntity
  8
LAYER_1
  6
ByLayer
 62
    7
370
   -1
100
AcDbLine
 10
90.55837165936671
 20
83.13660736321667
 11
90.51332241537342
 21
82.75129026082379
  0
LINE
  5
51
100
AcDbEntity
  8
LAYER_1
  6
ByLayer
 62
    7
370
   -1
100
AcDbLine
 10
90.51332241537342
 20
82.75129026082379
 11
90.46295362756022
 21
82.36738384473506
  0
LINE
  5
52
100
AcDbEntity
  8
LAYER_1
  6
ByLayer
 62
    7
370
   -1
100
AcDbLine
 10
90.46295362756022
 20
82.36738384473506
 11
90.40593540876988
 21
81.98524079377252
  0
LINE
  5
53
100
AcDbEntity
  8
LAYER_1
  6
ByLayer
 62
    7
370
   -1
100
AcDbLine
 10
90.40593540876988
 20
81.98524079377252
 11
90.34093787184509
 21
81.60521378675817
  0
LINE
  5
54
100
AcDbEntity
  8
LAYER_1
  6
ByLayer
 62
    7
370
   -1
100
AcDbLine
 10
90.34093787184509
 20
81.60521378675817
 11
90.26663112962858
 21
81.22765550251403
  0
LINE
  5
55
100
AcDbEntity
  8
LAYER_1
  6
ByLayer
 62
    7
370
   -1
100
AcDbLine
 10
90.26663112962858
 20
81.22765550251403
 11
90.18168529496306
 21
80.85291861986212
  0
LINE
  5
56
100
AcDbEntity
  8
LAYER_1
  6
ByLayer
 62
    7
370
   -1
100
AcDbLine
 10
90.18168529496306
 20
80.85291861986212
 11
90.08477048069128
 21
80.48135581762448
  0
LINE
  5
57
100
AcDbEntity
  8
LAYER_1
  6
ByLayer
 62
    7
370
   -1
100
AcDbLine
 10
90.08477048069128
 20
80.48135581762448
 11
89.97455696222927
 21
80.11331977593868
  0
LINE
  5
58
100
AcDbEntity
  8
LAYER_1
  6
ByLayer
 62
    7
370
   -1
100
AcDbLine
 10
89.97455696222927
 20
80.11331977593868
 11
89.8501002643996
 21
79.7491662925359
  0
LINE
  5
59
100
AcDbEntity
  8
LAYER_1
  6
ByLayer
 62
    7
370
   -1
100
AcDbLine
 10
89.8501002643996
 20
79.7491662925359
 11
89.71166618816957
 21
79.38926095918973
  0
LINE
  5
5A
100
AcDbEntity
  8
LAYER_1
  6
ByLayer
 62
    7
370
   -1
100
AcDbLine
 10
89.71166618816957
 20
79.38926095918973
 11
89.55975758378092
 21
79.03397128597202
  0
LINE
  5
5B
100
AcDbEntity
  8
LAYER_1
  6
ByLayer
 62
    7
370
   -1
100
AcDbLine
 10
89.55975758378092
 20
79.03397128597202
 11
89.39487730147549
 21
78.68366478295468
  0
LINE
  5
5C
100
AcDbEntity
  8
LAYER_1
  6
ByLayer
 62
    7
370
   -1
100
AcDbLine
 10
89.39487730147549
 20
78.68366478295468
 11
89.21752819149505
 21
78.33870896020956
  0
LINE
  5
5D
100
AcDbEntity
  8
LAYER_1
  6
ByLayer
 62
    7
370
   -1
100
AcDbLine
 10
89.21752819149505
 20
78.33870896020956
 11
89.02821310408139
 21
77.99947132780856
  0
LINE
  5
5E
100
AcDbEntity
  8
LAYER_1
  6
ByLayer
 62
    7
370
   -1
100
AcDbLine
 10
89.02821310408139
 20
77.99947132780856
 11
88.82743488947628
 21
77.66631939582356
  0
LINE
  5
5F
100
AcDbEntity
  8
LAYER_1
  6
ByLayer
 62
    7
370
   -1
100
AcDbLine
 10
88.82743488947628
 20
77.66631939582356
 11
88.61569639792151
 21
77.33962067432643
  0
LINE
  5
60
100
AcDbEntity
  8
LAYER_1
  6
ByLayer
 62
    7
370
   -1
100
AcDbLine
 10
88.61569639792151
 20
77.33962067432643
 11
88.3935004796589
 21
77.01974267338906
  0
LINE
  5
61
100
AcDbEntity
  8
LAYER_1
  6
ByLayer
 62
    7
370
   -1
100
AcDbLine
 10
88.3935004796589
 20
77.01974267338906
 11
88.16134998493021
 21
76.70705290308334
  0
LINE
  5
62
100
AcDbEntity
  8
LAYER_1
  6
ByLayer
 62
    7
370
   -1
100
AcDbLine
 10
88.16134998493021
 20
76.70705290308334
 11
87.91974227565129
 21
76.40191872267695
  0
LINE
  5
63
100
AcDbEntity
  8
LAYER_1
  6
ByLayer
 62
    7
370
   -1
100
AcDbLine
 10
87.91974227565129
 20
76.40191872267695
 11
87.66902134969692
 21
76.10470327741378
  0
LINE
  5
64
100
AcDbEntity
  8
LAYER_1
  6
ByLayer
 62
    7
370
   -1
100
AcDbLine
 10
87.66902134969692
 20
76.10470327741378
 11
87.4093610564409
 21
75.81576503732289
  0
LINE
  5
65
100
AcDbEntity
  8
LAYER_1
  6
ByLayer
 62
    7
370
   -1
100
AcDbLine
 10
87.4093610564409
 20
75.81576503732289
 11
87.14092638868432
 21
75.53546222907896
  0
LINE
  5
66
100
AcDbEntity
  8
LAYER_1
  6
ByLayer
 62
    7
370
   -1
100
AcDbLine
 10
87.14092638868432
 20
75.53546222907896
 11
86.86388233922824
 21
75.26415307935666
  0
LINE
  5
67
100
AcDbEntity
  8
LAYER_1
  6
ByLayer
 62
    7
370
   -1
100
AcDbLine
 10
86.86388233922824
 20
75.26415307935666
 11
86.57839390087381
 21
75.0021958148307
  0
LINE
  5
68
100
AcDbEntity
  8
LAYER_1
  6
ByLayer
 62
    7
370
   -1
100
AcDbLine
 10
86.57839390087381
 20
75.0021958148307
 11
86.28462606642208
 21
74.74994866217574
  0
LINE
  5
69
100
AcDbEntity
  8
LAYER_1
  6
ByLayer
 62
    7
370
   -1
100
AcDbLine
 10
86.28462606642208
 20
74.74994866217574
 11
85.98274382867412
 21
74.50776984806645
  0
LINE
  5
6A
100
AcDbEntity
  8
LAYER_1
  6
ByLayer
 62
    7
370
   -1
100
AcDbLine
 10
85.98274382867412
 20
74.50776984806645
 11
85.6729121804311
 21
74.27601759917755
  0
LINE
  5
6B
100
AcDbEntity
  8
LAYER_1
  6
ByLayer
 62
    7
370
   -1
100
AcDbLine
 10
85.6729121804311
 20
74.27601759917755
 11
85.35529611449408
 21
74.0550501421837
  0
LINE
  5
6C
100
AcDbEntity
  8
LAYER_1
  6
ByLayer
 62
    7
370
   -1
100
AcDbLine
 10
85.35529611449408
 20
74.0550501421837
 11
85.03006062366416
 21
73.84522570375958
  0
LINE
  5
6D
100
AcDbEntity
  8
LAYER_1
  6
ByLayer
 62
    7
370
   -1
100
AcDbLine
 10
85.03006062366416
 20
73.84522570375958
 11
84.69740912539298
 21
73.64688763119179
  0
LINE
  5
6E
100
AcDbEntity
  8
LAYER_1
  6
ByLayer
 62
    7
370
   -1
100
AcDbLine
 10
84.69740912539298
 20
73.64688763119179
 11
84.3577471127826
 21
73.46030102090479
  0
LINE
  5
6F
100
AcDbEntity
  8
LAYER_1
  6
ByLayer
 62
    7
370
   -1
100
AcDbLine
 10
84.3577471127826
 20
73.46030102090479
 11
84.01154627381625
 21
73.28570533631641
  0
LINE
  5
70
100
AcDbEntity
  8
LAYER_1
  6
ByLayer
 62
    7
370
   -1
100
AcDbLine
 10
84.01154627381625
 20
73.28570533631641
 11
83.65927833472877
 21
73.12334002603204
  0
LINE
  5
71
100
AcDbEntity
  8
LAYER_1
  6
ByLayer
 62
    7
370
   -1
100
AcDbLine
 10
83.65927833472877
 20
73.12334002603204
 11
83.30141502175493
 21
72.97344453865699
  0
LINE
  5
72
100
AcDbEntity
  8
LAYER_1
  6
ByLayer
 62
    7
370
   -1
100
AcDbLine
 10
83.30141502175493
 20
72.97344453865699
 11
82.9384280611296
 21
72.83625832279671
  0
LINE
  5
73
100
AcDbEntity
  8
LAYER_1
  6
ByLayer
 62
    7
370
   -1
100
AcDbLine
 10
82.9384280611296
 20
72.83625832279671
 11
82.57078917908757
 21
72.71202082705655
  0
LINE
  5
74
100
AcDbEntity
  8
LAYER_1
  6
ByLayer
 62
    7
370
   -1
100
AcDbLine
 10
82.57078917908757
 20
72.71202082705655
 11
82.19897010186367
 21
72.60097150004191
  0
LINE
  5
75
100
AcDbEntity
  8
LAYER_1
  6
ByLayer
 62
    7
370
   -1
100
AcDbLine
 10
82.19897010186367
 20
72.60097150004191
 11
81.82344255569268
 21
72.50334979035814
  0
LINE
  5
76
100
AcDbEntity
  8
LAYER_1
  6
ByLayer
 62
    7
370
   -1
100
AcDbLine
 10
81.82344255569268
 20
72.50334979035814
 11
81.44467826680949
 21
72.41939514661068
  0
LINE
  5
77
100
AcDbEntity
  8
LAYER_1
  6
ByLayer
 62
    7
370
   -1
100
AcDbLine
 10
81.44467826680949
 20
72.41939514661068
 11
81.06314995111143
 21
72.3493399847239
  0
LINE
  5
78
100
AcDbEntity
  8
LAYER_1
  6
ByLayer
 62
    7
370
   -1
100
AcDbLine
 10
81.06314995111143
 20
72.3493399847239
 11
80.67934771290764
 21
72.29329315613222
  0
LINE
  5
79
100
AcDbEntity
  8
LAYER_1
  6
ByLayer
 62
    7
370
   -1
100
AcDbLine
 10
80.67934771290764
 20
72.29329315613222
 11
80.29377649813559
 21
72.25125804557888
  0
LINE
  5
7A
100
AcDbEntity
  8
LAYER_1
  6
ByLayer
 62
    7
370
   -1
100
AcDbLine
 10
80.29377649813559
 20
72.25125804557888
 11
79.90694172903069
 21
72.2232346531674
  0
LINE
  5
7B
100
AcDbEntity
  8
LAYER_1
  6
ByLayer
 62
    7
370
   -1
100
AcDbLine
 10
79.90694172903069
 20
72.2232346531674
 11
79.51934882782841
 21
72.20922297900115
  0
LINE
  5
7C
100
AcDbEntity
  8
LAYER_1
  6
ByLayer
 62
    7
370
   -1
100
AcDbLine
 10
79.51934882782841
 20
72.20922297900115
 11
79.13150321676414
 21
72.20922302318361
  0
LINE
  5
7D
100
AcDbEntity
  8
LAYER_1
  6
ByLayer
 62
    7
370
   -1
100
AcDbLine
 10
79.13150321676414
 20
72.20922302318361
 11
78.74391031807333
 21
72.22323478581822
  0
LINE
  5
7E
100
AcDbEntity
  8
LAYER_1
  6
ByLayer
 62
    7
370
   -1
100
AcDbLine
 10
78.74391031807333
 20
72.22323478581822
 11
78.35707555399141
 21
72.25125826700837
  0
LINE
  5
7F
100
AcDbEntity
  8
LAYER_1
  6
ByLayer
 62
    7
370
   -1
100
AcDbLine
 10
78.35707555399141
 20
72.25125826700837
 11
77.97150434675378
 21
72.29329346685756
  0
LINE
  5
80
100
AcDbEntity
  8
LAYER_1
  6
ByLayer
 62
    7
370
   -1
100
AcDbLine
 10
77.97150434675378
 20
72.29329346685756
 11
77.58770211859589
 21
72.34934038546919
  0
LINE
  5
81
100
AcDbEntity
  8
LAYER_1
  6
ByLayer
 62
    7
370
   -1
100
AcDbLine
 10
77.58770211859589
 20
72.34934038546919
 11
77.20617381547055
 21
72.4193956384506
  0
LINE
  5
82
100
AcDbEntity
  8
LAYER_1
  6
ByLayer
 62
    7
370
   -1
100
AcDbLine
 10
77.20617381547055
 20
72.4193956384506
 11
76.82740954156209
 21
72.503350374806
  0
LINE
  5
83
100
AcDbEntity
  8
LAYER_1
  6
ByLayer
 62
    7
370
   -1
100
AcDbLine
 10
76.82740954156209
 20
72.503350374806
 11
76.45188201212493
 21
72.60097217663757
  0
LINE
  5
84
100
AcDbEntity
  8
LAYER_1
  6
ByLayer
 62
    7
370
   -1
100
AcDbLine
 10
76.45188201212493
 20
72.60097217663757
 11
76.08006295268913
 21
72.71202159299899
  0
LINE
  5
85
100
AcDbEntity
  8
LAYER_1
  6
ByLayer
 62
    7
370
   -1
100
AcDbLine
 10
76.08006295268913
 20
72.71202159299899
 11
75.71242408878469
 21
72.83625917294393
  0
LINE
  5
86
100
AcDbEntity
  8
LAYER_1
  6
ByLayer
 62
    7
370
   -1
100
AcDbLine
 10
75.71242408878469
 20
72.83625917294393
 11
75.34943714594161
 21
72.97344546552603
  0
LINE
  5
87
100
AcDbEntity
  8
LAYER_1
  6
ByLayer
 62
    7
370
   -1
100
AcDbLine
 10
75.34943714594161
 20
72.97344546552603
 11
74.99157384968993
 21
73.12334101979897
  0
LINE
  5
88
100
AcDbEntity
  8
LAYER_1
  6
ByLayer
 62
    7
370
   -1
100
AcDbLine
 10
74.99157384968993
 20
73.12334101979897
 11
74.63930592555961
 21
73.28570638481644
  0
LINE
  5
89
100
AcDbEntity
  8
LAYER_1
  6
ByLayer
 62
    7
370
   -1
100
AcDbLine
 10
74.63930592555961
 20
73.28570638481644
 11
74.29310509908071
 21
73.46030210963208
  0
LINE
  5
8A
100
AcDbEntity
  8
LAYER_1
  6
ByLayer
 62
    7
370
   -1
100
AcDbLine
 10
74.29310509908071
 20
73.46030210963208
 11
73.9534430957832
 21
73.64688874329958
  0
LINE
  5
8B
100
AcDbEntity
  8
LAYER_1
  6
ByLayer
 62
    7
370
   -1
100
AcDbLine
 10
73.9534430957832
 20
73.64688874329958
 11
73.62079160295541
 21
73.84522682006467
  0
LINE
  5
8C
100
AcDbEntity
  8
LAYER_1
  6
ByLayer
 62
    7
370
   -1
100
AcDbLine
 10
73.62079160295541
 20
73.84522682006467
 11
73.2955561144265
 21
74.05505124278116
  0
LINE
  5
8D
100
AcDbEntity
  8
LAYER_1
  6
ByLayer
 62
    7
370
   -1
100
AcDbLine
 10
73.2955561144265
 20
74.05505124278116
 11
72.97794004810041
 21
74.27601866658316
  0
LINE
  5
8E
100
AcDbEntity
  8
LAYER_1
  6
ByLayer
 62
    7
370
   -1
100
AcDbLine
 10
72.97794004810041
 20
74.27601866658316
 11
72.66810839626876
 21
74.50777086746201
  0
LINE
  5
8F
100
AcDbEntity
  8
LAYER_1
  6
ByLayer
 62
    7
370
   -1
100
AcDbLine
 10
72.66810839626876
 20
74.50777086746201
 11
72.36622615122333
 21
74.74994962140914
  0
LINE
  5
90
100
AcDbEntity
  8
LAYER_1
  6
ByLayer
 62
    7
370
   -1
100
AcDbLine
 10
72.36622615122333
 20
74.74994962140914
 11
72.07245830525571
 21
75.00219670441585
  0
LINE
  5
91
100
AcDbEntity
  8
LAYER_1
  6
ByLayer
 62
    7
370
   -1
100
AcDbLine
 10
72.07245830525571
 20
75.00219670441585
 11
71.78696985065766
 21
75.26415389247356
  0
LINE
  5
92
100
AcDbEntity
  8
LAYER_1
  6
ByLayer
 62
    7
370
   -1
100
AcDbLine
 10
71.78696985065766
 20
75.26415389247356
 11
71.50992577972086
 21
75.53546296157361
  0
LINE
  5
93
100
AcDbEntity
  8
LAYER_1
  6
ByLayer
 62
    7
370
   -1
100
AcDbLine
 10
71.50992577972086
 20
75.53546296157361
 11
71.24149108473699
 21
75.81576568770738
  0
LINE
  5
94
100
AcDbEntity
  8
LAYER_1
  6
ByLayer
 62
    7
370
   -1
100
AcDbLine
 10
71.24149108473699
 20
75.81576568770738
 11
70.98183075799771
 21
76.10470384686622
  0
LINE
  5
95
100
AcDbEntity
  8
LAYER_1
  6
ByLayer
 62
    7
370
   -1
100
AcDbLine
 10
70.98183075799771
 20
76.10470384686622
 11
70.73110979179475
 21
76.4019192150415
  0
LINE
  5
96
100
AcDbEntity
  8
LAYER_1
  6
ByLayer
 62
    7
370
   -1
100
AcDbLine
 10
70.73110979179475
 20
76.4019192150415
 11
70.48950203475557
 21
76.70705332478447
  0
LINE
  5
97
100
AcDbEntity
  8
LAYER_1
  6
ByLayer
 62
    7
370
   -1
100
AcDbLine
 10
70.48950203475557
 20
76.70705332478447
 11
70.25735148330648
 21
77.01974303167766
  0
LINE
  5
98
100
AcDbEntity
  8
LAYER_1
  6
ByLayer
 62
    7
370
   -1
100
AcDbLine
 10
70.25735148330648
 20
77.01974303167766
 11
70.03515549935899
 21
77.33962097564196
  0
LINE
  5
99
100
AcDbEntity
  8
LAYER_1
  6
ByLayer
 62
    7
370
   -1
100
AcDbLine
 10
70.03515549935899
 20
77.33962097564196
 11
69.82341693334753
 21
77.66631964573142
  0
LINE
  5
9A
100
AcDbEntity
  8
LAYER_1
  6
ByLayer
 62
    7
370
   -1
100
AcDbLine
 10
69.82341693334753
 20
77.66631964573142
 11
69.62263863570656
 21
77.99947153100015
  0
LINE
  5
9B
100
AcDbEntity
  8
LAYER_1
  6
ByLayer
 62
    7
370
   -1
100
AcDbLine
 10
69.62263863570656
 20
77.99947153100015
 11
69.43332345687047
 21
78.33870912050216
  0
LINE
  5
9C
100
AcDbEntity
  8
LAYER_1
  6
ByLayer
 62
    7
370
   -1
100
AcDbLine
 10
69.43332345687047
 20
78.33870912050216
 11
69.25597424727373
 21
78.6836649032916
  0
LINE
  5
9D
100
AcDbEntity
  8
LAYER_1
  6
ByLayer
 62
    7
370
   -1
100
AcDbLine
 10
69.25597424727373
 20
78.6836649032916
 11
69.09109385735071
 21
79.03397136842246
  0
LINE
  5
9E
100
AcDbEntity
  8
LAYER_1
  6
ByLayer
 62
    7
370
   -1
100
AcDbLine
 10
69.09109385735071
 20
79.03397136842246
 11
68.93918513753592
 21
79.38926100494886
  0
LINE
  5
9F
100
AcDbEntity
  8
LAYER_1
  6
ByLayer
 62
    7
370
   -1
100
AcDbLine
 10
68.93918513753592
 20
79.38926100494886
 11
68.8007509382637
 21
79.74916630192489
  0
LINE
  5
A0
100
AcDbEntity
  8
LAYER_1
  6
ByLayer
 62
    7
370
   -1
100
AcDbLine
 10
68.8007509382637
 20
79.74916630192489
 11
68.67629410996857
 21
80.11331974840459
  0
LINE
  5
A1
100
AcDbEntity
  8
LAYER_1
  6
ByLayer
 62
    7
370
   -1
100
AcDbLine
 10
68.67629410996857
 20
80.11331974840459
 11
68.56608045552733
 21
80.48135575215477
  0
LINE
  5
A2
100
AcDbEntity
  8
LAYER_1
  6
ByLayer
 62
    7
370
   -1
100
AcDbLine
 10
68.56608045552733
 20
80.48135575215477
 11
68.46916550091775
 21
80.8529185171777
  0
LINE
  5
A3
100
AcDbEntity
  8
LAYER_1
  6
ByLayer
 62
    7
370
   -1
100
AcDbLine
 10
68.46916550091775
 20
80.8529185171777
 11
68.38421951952679
 21
81.22765536579109
  0
LINE
  5
A4
100
AcDbEntity
  8
LAYER_1
  6
ByLayer
 62
    7
370
   -1
100
AcDbLine
 10
68.38421951952679
 20
81.22765536579109
 11
68.30991262215221
 21
81.60521362162865
  0
LINE
  5
A5
100
AcDbEntity
  8
LAYER_1
  6
ByLayer
 62
    7
370
   -1
100
AcDbLine
 10
68.30991262215221
 20
81.60521362162865
 11
68.24491491959174
 21
81.98524060832406
  0
LINE
  5
A6
100
AcDbEntity
  8
LAYER_1
  6
ByLayer
 62
    7
370
   -1
100
AcDbLine
 10
68.24491491959174
 20
81.98524060832406
 11
68.18789652264314
 21
82.36738364951107
  0
LINE
  5
A7
100
AcDbEntity
  8
LAYER_1
  6
ByLayer
 62
    7
370
   -1
100
AcDbLine
 10
68.18789652264314
 20
82.36738364951107
 11
68.13752754210421
 21
82.75129006882338
  0
LINE
  5
A8
100
AcDbEntity
  8
LAYER_1
  6
ByLayer
 62
    7
370
   -1
100
AcDbLine
 10
68.13752754210421
 20
82.75129006882338
 11
68.09247808877267
 21
83.13660718989473
  0
LINE
  5
A9
100
AcDbEntity
  8
LAYER_1
  6
ByLayer
 62
    7
370
   -1
100
AcDbLine
 10
68.09247808877267
 20
83.13660718989473
 11
68.05141827344627
 21
83.52298233635881
  0
LINE
  5
AA
100
AcDbEntity
  8
LAYER_1
  6
ByLayer
 62
    7
370
   -1
100
AcDbLine
 10
68.05141827344627
 20
83.52298233635881
 11
68.01301820692279
 21
83.91006283184932
  0
LINE
  5
AB
100
AcDbEntity
  8
LAYER_1
  6
ByLayer
 62
    7
370
   -1
100
AcDbLine
 10
90.6430950462114
 20
137.2988591397579
 11
90.60469518743113
 21
137.6859396083091
  0
LINE
  5
AC
100
AcDbEntity
  8
LAYER_1
  6
ByLayer
 62
    7
370
   -1
100
AcDbLine
 10
90.60469518743113
 20
137.6859396083091
 11
90.56363553936944
 21
138.0723147309741
  0
LINE
  5
AD
100
AcDbEntity
  8
LAYER_1
  6
ByLayer
 62
    7
370
   -1
100
AcDbLine
 10
90.56363553936944
 20
138.0723147309741
 11
90.51858621773654
 21
138.4576318330734
  0
LINE
  5
AE
100
AcDbEntity
  8
LAYER_1
  6
ByLayer
 62
    7
370
   -1
100
AcDbLine
 10
90.51858621773654
 20
138.4576318330734
 11
90.46821733824262
 21
138.8415382399274
  0
LINE
  5
AF
100
AcDbEntity
  8
LAYER_1
  6
ByLayer
 62
    7
370
   -1
100
AcDbLine
 10
90.46821733824262
 20
138.8415382399274
 11
90.41119901659789
 21
139.2236812768567
  0
LINE
  5
B0
100
AcDbEntity
  8
LAYER_1
  6
ByLayer
 62
    7
370
   -1
100
AcDbLine
 10
90.41119901659789
 20
139.2236812768567
 11
90.34620136851254
 21
139.6037082691816
  0
LINE
  5
B1
100
AcDbEntity
  8
LAYER_1
  6
ByLayer
 62
    7
370
   -1
100
AcDbLine
 10
90.34620136851254
 20
139.6037082691816
 11
90.27189450969681
 21
139.9812665422227
  0
LINE
  5
B2
100
AcDbEntity
  8
LAYER_1
  6
ByLayer
 62
    7
370
   -1
100
AcDbLine
 10
90.27189450969681
 20
139.9812665422227
 11
90.18694855586085
 21
140.3560034213004
  0
LINE
  5
B3
100
AcDbEntity
  8
LAYER_1
  6
ByLayer
 62
    7
370
   -1
100
AcDbLine
 10
90.18694855586085
 20
140.3560034213004
 11
90.09003362271494
 21
140.7275662317351
  0
LINE
  5
B4
100
AcDbEntity
  8
LAYER_1
  6
ByLayer
 62
    7
370
   -1
100
AcDbLine
 10
90.09003362271494
 20
140.7275662317351
 11
89.97981998855303
 21
141.095602297531
  0
LINE
  5
B5
100
AcDbEntity
  8
LAYER_1
  6
ByLayer
 62
    7
370
   -1
100
AcDbLine
 10
89.97981998855303
 20
141.095602297531
 11
89.85536318218514
 21
141.4597558233536
  0
LINE
  5
B6
100
AcDbEntity
  8
LAYER_1
  6
ByLayer
 62
    7
370
   -1
100
AcDbLine
 10
89.85536318218514
 20
141.4597558233536
 11
89.71692900567295
 21
141.8196612143961
  0
LINE
  5
B7
100
AcDbEntity
  8
LAYER_1
  6
ByLayer
 62
    7
370
   -1
100
AcDbLine
 10
89.71692900567295
 20
141.8196612143961
 11
89.56502030850015
 21
142.1749509564998
  0
LINE
  5
B8
100
AcDbEntity
  8
LAYER_1
  6
ByLayer
 62
    7
370
   -1
100
AcDbLine
 10
89.56502030850015
 20
142.1749509564998
 11
89.40013994015037
 21
142.5252575355065
  0
LINE
  5
B9
100
AcDbEntity
  8
LAYER_1
  6
ByLayer
 62
    7
370
   -1
100
AcDbLine
 10
89.40013994015037
 20
142.5252575355065
 11
89.22279075010728
 21
142.8702134372578
  0
LINE
  5
BA
100
AcDbEntity
  8
LAYER_1
  6
ByLayer
 62
    7
370
   -1
100
AcDbLine
 10
89.22279075010728
 20
142.8702134372578
 11
89.03347558785453
 21
143.2094511475951
  0
LINE
  5
BB
100
AcDbEntity
  8
LAYER_1
  6
ByLayer
 62
    7
370
   -1
100
AcDbLine
 10
89.03347558785453
 20
143.2094511475951
 11
88.83269730287577
 21
143.5426031523602
  0
LINE
  5
BC
100
AcDbEntity
  8
LAYER_1
  6
ByLayer
 62
    7
370
   -1
100
AcDbLine
 10
88.83269730287577
 20
143.5426031523602
 11
88.62095874465466
 21
143.8693019373946
  0
LINE
  5
BD
100
AcDbEntity
  8
LAYER_1
  6
ByLayer
 62
    7
370
   -1
100
AcDbLine
 10
88.62095874465466
 20
143.8693019373946
 11
88.39876276267485
 21
144.1891799885398
  0
LINE
  5
BE
100
AcDbEntity
  8
LAYER_1
  6
ByLayer
 62
    7
370
   -1
100
AcDbLine
 10
88.39876276267485
 20
144.1891799885398
 11
88.16661220642
 21
144.5018697916375
  0
LINE
  5
BF
100
AcDbEntity
  8
LAYER_1
  6
ByLayer
 62
    7
370
   -1
100
AcDbLine
 10
88.16661220642
 20
144.5018697916375
 11
87.92500443693878
 21
144.8070039834755
  0
LINE
  5
C0
100
AcDbEntity
  8
LAYER_1
  6
ByLayer
 62
    7
370
   -1
100
AcDbLine
 10
87.92500443693878
 20
144.8070039834755
 11
87.67428345095166
 21
145.1042194187567
  0
LINE
  5
C1
100
AcDbEntity
  8
LAYER_1
  6
ByLayer
 62
    7
370
   -1
100
AcDbLine
 10
87.67428345095166
 20
145.1042194187567
 11
87.41462309792739
 21
145.3931576316737
  0
LINE
  5
C2
100
AcDbEntity
  8
LAYER_1
  6
ByLayer
 62
    7
370
   -1
100
AcDbLine
 10
87.41462309792739
 20
145.3931576316737
 11
87.14618837096315
 21
145.6734603999917
  0
LINE
  5
C3
100
AcDbEntity
  8
LAYER_1
  6
ByLayer
 62
    7
370
   -1
100
AcDbLine
 10
87.14618837096315
 20
145.6734603999917
 11
86.86914426315616
 21
145.9447695014763
  0
LINE
  5
C4
100
AcDbEntity
  8
LAYER_1
  6
ByLayer
 62
    7
370
   -1
100
AcDbLine
 10
86.86914426315616
 20
145.9447695014763
 11
86.58365576760367
 21
146.2067267138928
  0
LINE
  5
C5
100
AcDbEntity
  8
LAYER_1
  6
ByLayer
 62
    7
370
   -1
100
AcDbLine
 10
86.58365576760367
 20
146.2067267138928
 11
86.28988787740292
 21
146.4589738150067
  0
LINE
  5
C6
100
AcDbEntity
  8
LAYER_1
  6
ByLayer
 62
    7
370
   -1
100
AcDbLine
 10
86.28988787740292
 20
146.4589738150067
 11
85.98800558565119
 21
146.7011525825835
  0
LINE
  5
C7
100
AcDbEntity
  8
LAYER_1
  6
ByLayer
 62
    7
370
   -1
100
AcDbLine
 10
85.98800558565119
 20
146.7011525825835
 11
85.67817388544566
 21
146.9329047943885
  0
LINE
  5
C8
100
AcDbEntity
  8
LAYER_1
  6
ByLayer
 62
    7
370
   -1
100
AcDbLine
 10
85.67817388544566
 20
146.9329047943885
 11
85.3605577698836
 21
147.1538722281873
  0
LINE
  5
C9
100
AcDbEntity
  8
LAYER_1
  6
ByLayer
 62
    7
370
   -1
100
AcDbLine
 10
85.3605577698836
 20
147.1538722281873
 11
85.03532223206223
 21
147.3636966617451
  0
LINE
  5
CA
100
AcDbEntity
  8
LAYER_1
  6
ByLayer
 62
    7
370
   -1
100
AcDbLine
 10
85.03532223206223
 20
147.3636966617451
 11
84.70267069025556
 21
147.5620347515188
  0
LINE
  5
CB
100
AcDbEntity
  8
LAYER_1
  6
ByLayer
 62
    7
370
   -1
100
AcDbLine
 10
84.70267069025556
 20
147.5620347515188
 11
84.36300863792422
 21
147.7486213999117
  0
LINE
  5
CC
100
AcDbEntity
  8
LAYER_1
  6
ByLayer
 62
    7
370
   -1
100
AcDbLine
 10
84.36300863792422
 20
147.7486213999117
 11
84.01680776223665
 21
147.9232171403281
  0
LINE
  5
CD
100
AcDbEntity
  8
LAYER_1
  6
ByLayer
 62
    7
370
   -1
100
AcDbLine
 10
84.01680776223665
 20
147.9232171403281
 11
83.66453978860599
 21
148.0855825209812
  0
LINE
  5
CE
100
AcDbEntity
  8
LAYER_1
  6
ByLayer
 62
    7
370
   -1
100
AcDbLine
 10
83.66453978860599
 20
148.0855825209812
 11
83.30667644244538
 21
148.235478090084
  0
LINE
  5
CF
100
AcDbEntity
  8
LAYER_1
  6
ByLayer
 62
    7
370
   -1
100
AcDbLine
 10
83.30667644244538
 20
148.235478090084
 11
82.94368944916802
 21
148.3726643958499
  0
LINE
  5
D0
100
AcDbEntity
  8
LAYER_1
  6
ByLayer
 62
    7
370
   -1
100
AcDbLine
 10
82.94368944916802
 20
148.3726643958499
 11
82.57605053418706
 21
148.496901986492
  0
LINE
  5
D1
100
AcDbEntity
  8
LAYER_1
  6
ByLayer
 62
    7
370
   -1
100
AcDbLine
 10
82.57605053418706
 20
148.496901986492
 11
82.20423142291565
 21
148.6079514102233
  0
LINE
  5
D2
100
AcDbEntity
  8
LAYER_1
  6
ByLayer
 62
    7
370
   -1
100
AcDbLine
 10
82.20423142291565
 20
148.6079514102233
 11
81.82870384076701
 21
148.7055732152572
  0
LINE
  5
D3
100
AcDbEntity
  8
LAYER_1
  6
ByLayer
 62
    7
370
   -1
100
AcDbLine
 10
81.82870384076701
 20
148.7055732152572
 11
81.44993951315426
 21
148.7895279498067
  0
LINE
  5
D4
100
AcDbEntity
  8
LAYER_1
  6
ByLayer
 62
    7
370
   -1
100
AcDbLine
 10
81.44993951315426
 20
148.7895279498067
 11
81.06841115518763
 21
148.8595831950264
  0
LINE
  5
D5
100
AcDbEntity
  8
LAYER_1
  6
ByLayer
 62
    7
370
   -1
100
AcDbLine
 10
81.06841115518763
 20
148.8595831950264
 11
80.68460887067602
 21
148.9156300988707
  0
LINE
  5
D6
100
AcDbEntity
  8
LAYER_1
  6
ByLayer
 62
    7
370
   -1
100
AcDbLine
 10
80.68460887067602
 20
148.9156300988707
 11
80.29903760513228
 21
148.9576652767539
  0
LINE
  5
D7
100
AcDbEntity
  8
LAYER_1
  6
ByLayer
 62
    7
370
   -1
100
AcDbLine
 10
80.29903760513228
 20
148.9576652767539
 11
79.91220278035863
 21
148.985688728676
  0
LINE
  5
D8
100
AcDbEntity
  8
LAYER_1
  6
ByLayer
 62
    7
370
   -1
100
AcDbLine
 10
79.91220278035863
 20
148.985688728676
 11
79.52460981815723
 21
148.9997004546371
  0
LINE
  5
D9
100
AcDbEntity
  8
LAYER_1
  6
ByLayer
 62
    7
370
   -1
100
AcDbLine
 10
79.52460981815723
 20
148.9997004546371
 11
79.1367641403303
 21
148.9997004546371
  0
LINE
  5
DA
100
AcDbEntity
  8
LAYER_1
  6
ByLayer
 62
    7
370
   -1
100
AcDbLine
 10
79.1367641403303
 20
148.9997004546371
 11
78.74917116867996
 21
148.985688728676
  0
LINE
  5
DB
100
AcDbEntity
  8
LAYER_1
  6
ByLayer
 62
    7
370
   -1
100
AcDbLine
 10
78.74917116867996
 20
148.985688728676
 11
78.36233632500846
 21
148.9576652767539
  0
LINE
  5
DC
100
AcDbEntity
  8
LAYER_1
  6
ByLayer
 62
    7
370
   -1
100
AcDbLine
 10
78.36233632500846
 20
148.9576652767539
 11
77.97676503111795
 21
148.9156300988707
  0
LINE
  5
DD
100
AcDbEntity
  8
LAYER_1
  6
ByLayer
 62
    7
370
   -1
100
AcDbLine
 10
77.97676503111795
 20
148.9156300988707
 11
77.5929627088106
 21
148.8595831950264
  0
LINE
  5
DE
100
AcDbEntity
  8
LAYER_1
  6
ByLayer
 62
    7
370
   -1
100
AcDbLine
 10
77.5929627088106
 20
148.8595831950264
 11
77.21143430363736
 21
148.7895279498067
  0
LINE
  5
DF
100
AcDbEntity
  8
LAYER_1
  6
ByLayer
 62
    7
370
   -1
100
AcDbLine
 10
77.21143430363736
 20
148.7895279498067
 11
76.83266992062873
 21
148.7055732152572
  0
LINE
  5
E0
100
AcDbEntity
  8
LAYER_1
  6
ByLayer
 62
    7
370
   -1
100
AcDbLine
 10
76.83266992062873
 20
148.7055732152572
 11
76.45714227750349
 21
148.6079514102233
  0
LINE
  5
E1
100
AcDbEntity
  8
LAYER_1
  6
ByLayer
 62
    7
370
   -1
100
AcDbLine
 10
76.45714227750349
 20
148.6079514102233
 11
76.08532310236232
 21
148.496901986492
  0
LINE
  5
E2
100
AcDbEntity
  8
LAYER_1
  6
ByLayer
 62
    7
370
   -1
100
AcDbLine
 10
76.08532310236232
 20
148.496901986492
 11
75.71768412330582
 21
148.3726643958499
  0
LINE
  5
E3
100
AcDbEntity
  8
LAYER_1
  6
ByLayer
 62
    7
370
   -1
100
AcDbLine
 10
75.71768412330582
 20
148.3726643958499
 11
75.35469706843465
 21
148.235478090084
  0
LINE
  5
E4
100
AcDbEntity
  8
LAYER_1
  6
ByLayer
 62
    7
370
   -1
100
AcDbLine
 10
75.35469706843465
 20
148.235478090084
 11
74.99683366584946
 21
148.0855825209812
  0
LINE
  5
E5
100
AcDbEntity
  8
LAYER_1
  6
ByLayer
 62
    7
370
   -1
100
AcDbLine
 10
74.99683366584946
 20
148.0855825209812
 11
74.64456564365094
 21
147.9232171403281
  0
LINE
  5
E6
100
AcDbEntity
  8
LAYER_1
  6
ByLayer
 62
    7
370
   -1
100
AcDbLine
 10
74.64456564365094
 20
147.9232171403281
 11
74.29836472993964
 21
147.7486213999117
  0
LINE
  5
E7
100
AcDbEntity
  8
LAYER_1
  6
ByLayer
 62
    7
370
   -1
100
AcDbLine
 10
74.29836472993964
 20
147.7486213999117
 11
73.95870265281626
 21
147.5620347515188
  0
LINE
  5
E8
100
AcDbEntity
  8
LAYER_1
  6
ByLayer
 62
    7
370
   -1
100
AcDbLine
 10
73.95870265281626
 20
147.5620347515188
 11
73.6260511021359
 21
147.3636966617451
  0
LINE
  5
E9
100
AcDbEntity
  8
LAYER_1
  6
ByLayer
 62
    7
370
   -1
100
AcDbLine
 10
73.6260511021359
 20
147.3636966617451
 11
73.30081557272588
 21
147.1538722281873
  0
LINE
  5
EA
100
AcDbEntity
  8
LAYER_1
  6
ByLayer
 62
    7
370
   -1
100
AcDbLine
 10
73.30081557272588
 20
147.1538722281873
 11
72.98319948019699
 21
146.9329047943885
  0
LINE
  5
EB
100
AcDbEntity
  8
LAYER_1
  6
ByLayer
 62
    7
370
   -1
100
AcDbLine
 10
72.98319948019699
 20
146.9329047943885
 11
72.67336781421695
 21
146.7011525825835
  0
LINE
  5
EC
100
AcDbEntity
  8
LAYER_1
  6
ByLayer
 62
    7
370
   -1
100
AcDbLine
 10
72.67336781421695
 20
146.7011525825835
 11
72.37148556445354
 21
146.4589738150068
  0
LINE
  5
ED
100
AcDbEntity
  8
LAYER_1
  6
ByLayer
 62
    7
370
   -1
100
AcDbLine
 10
72.37148556445354
 20
146.4589738150068
 11
72.07771772057446
 21
146.2067267138928
  0
LINE
  5
EE
100
AcDbEntity
  8
LAYER_1
  6
ByLayer
 62
    7
370
   -1
100
AcDbLine
 10
72.07771772057446
 20
146.2067267138928
 11
71.79222927224747
 21
145.9447695014763
  0
LINE
  5
EF
100
AcDbEntity
  8
LAYER_1
  6
ByLayer
 62
    7
370
   -1
100
AcDbLine
 10
71.79222927224747
 20
145.9447695014763
 11
71.51518520914031
 21
145.6734603999917
  0
LINE
  5
F0
100
AcDbEntity
  8
LAYER_1
  6
ByLayer
 62
    7
370
   -1
100
AcDbLine
 10
71.51518520914031
 20
145.6734603999917
 11
71.24675052092076
 21
145.3931576316737
  0
LINE
  5
F1
100
AcDbEntity
  8
LAYER_1
  6
ByLayer
 62
    7
370
   -1
100
AcDbLine
 10
71.24675052092076
 20
145.3931576316737
 11
70.98709019725652
 21
145.1042194187567
  0
LINE
  5
F2
100
AcDbEntity
  8
LAYER_1
  6
ByLayer
 62
    7
370
   -1
100
AcDbLine
 10
70.98709019725652
 20
145.1042194187567
 11
70.73636922781533
 21
144.8070039834755
  0
LINE
  5
F3
100
AcDbEntity
  8
LAYER_1
  6
ByLayer
 62
    7
370
   -1
100
AcDbLine
 10
70.73636922781533
 20
144.8070039834755
 11
70.4947614588236
 21
144.5018697916375
  0
LINE
  5
F4
100
AcDbEntity
  8
LAYER_1
  6
ByLayer
 62
    7
370
   -1
100
AcDbLine
 10
70.4947614588236
 20
144.5018697916375
 11
70.26261088735654
 21
144.1891799885398
  0
LINE
  5
F5
100
AcDbEntity
  8
LAYER_1
  6
ByLayer
 62
    7
370
   -1
100
AcDbLine
 10
70.26261088735654
 20
144.1891799885398
 11
70.04041487805974
 21
143.8693019373946
  0
LINE
  5
F6
100
AcDbEntity
  8
LAYER_1
  6
ByLayer
 62
    7
370
   -1
100
AcDbLine
 10
70.04041487805974
 20
143.8693019373946
 11
69.82867628412968
 21
143.5426031523602
  0
LINE
  5
F7
100
AcDbEntity
  8
LAYER_1
  6
ByLayer
 62
    7
370
   -1
100
AcDbLine
 10
69.82867628412968
 20
143.5426031523602
 11
69.627897958763
 21
143.2094511475951
  0
LINE
  5
F8
100
AcDbEntity
  8
LAYER_1
  6
ByLayer
 62
    7
370
   -1
100
AcDbLine
 10
69.627897958763
 20
143.2094511475951
 11
69.43858275515623
 21
142.8702134372578
  0
LINE
  5
F9
100
AcDbEntity
  8
LAYER_1
  6
ByLayer
 62
    7
370
   -1
100
AcDbLine
 10
69.43858275515623
 20
142.8702134372578
 11
69.26123352650595
 21
142.5252575355066
  0
LINE
  5
FA
100
AcDbEntity
  8
LAYER_1
  6
ByLayer
 62
    7
370
   -1
100
AcDbLine
 10
69.26123352650595
 20
142.5252575355066
 11
69.09635312600871
 21
142.1749509564999
  0
LINE
  5
FB
100
AcDbEntity
  8
LAYER_1
  6
ByLayer
 62
    7
370
   -1
100
AcDbLine
 10
69.09635312600871
 20
142.1749509564999
 11
68.94444440686107
 21
141.8196612143961
  0
LINE
  5
FC
100
AcDbEntity
  8
LAYER_1
  6
ByLayer
 62
    7
370
   -1
100
AcDbLine
 10
68.94444440686107
 20
141.8196612143961
 11
68.80601022225963
 21
141.4597558233537
  0
LINE
  5
FD
100
AcDbEntity
  8
LAYER_1
  6
ByLayer
 62
    7
370
   -1
100
AcDbLine
 10
68.80601022225963
 20
141.4597558233537
 11
68.68155342540091
 21
141.095602297531
  0
LINE
  5
FE
100
AcDbEntity
  8
LAYER_1
  6
ByLayer
 62
    7
370
   -1
100
AcDbLine
 10
68.68155342540091
 20
141.095602297531
 11
68.57133982102114
 21
140.7275662317351
  0
LINE
  5
FF
100
AcDbEntity
  8
LAYER_1
  6
ByLayer
 62
    7
370
   -1
100
AcDbLine
 10
68.57133982102114
 20
140.7275662317351
 11
68.47442493530293
 21
140.3560034213004
  0
LINE
  5
100
100
AcDbEntity
  8
LAYER_1
  6
ByLayer
 62
    7
370
   -1
100
AcDbLine
 10
68.47442493530293
 20
140.3560034213004
 11
68.38947904222526
 21
139.9812665422227
  0
LINE
  5
101
100
AcDbEntity
  8
LAYER_1
  6
ByLayer
 62
    7
370
   -1
100
AcDbLine
 10
68.38947904222526
 20
139.9812665422227
 11
68.3151722531826
 21
139.6037082691816
  0
LINE
  5
102
100
AcDbEntity
  8
LAYER_1
  6
ByLayer
 62
    7
370
   -1
100
AcDbLine
 10
68.3151722531826
 20
139.6037082691816
 11
68.25017467956945
 21
139.2236812768567
  0
LINE
  5
103
100
AcDbEntity
  8
LAYER_1
  6
ByLayer
 62
    7
370
   -1
100
AcDbLine
 10
68.25017467956945
 20
139.2236812768567
 11
68.19315643278024
 21
138.8415382399274
  0
LINE
  5
104
100
AcDbEntity
  8
LAYER_1
  6
ByLayer
 62
    7
370
   -1
100
AcDbLine
 10
68.19315643278024
 20
138.8415382399274
 11
68.14278762420946
 21
138.4576318330734
  0
LINE
  5
105
100
AcDbEntity
  8
LAYER_1
  6
ByLayer
 62
    7
370
   -1
100
AcDbLine
 10
68.14278762420946
 20
138.4576318330734
 11
68.09773836525157
 21
138.0723147309741
  0
LINE
  5
106
100
AcDbEntity
  8
LAYER_1
  6
ByLayer
 62
    7
370
   -1
100
AcDbLine
 10
68.09773836525157
 20
138.0723147309741
 11
68.05667876730105
 21
137.6859396083091
  0
LINE
  5
107
100
AcDbEntity
  8
LAYER_1
  6
ByLayer
 62
    7
370
   -1
100
AcDbLine
 10
68.05667876730105
 20
137.6859396083091
 11
68.01827894175238
 21
137.2988591397579
  0
LINE
  5
108
100
AcDbEntity
  8
LAYER_1
  6
ByLayer
 62
    7
370
   -1
100
AcDbLine
 10
67.97741600000001
 20
135.7549237646494
 11
67.97741600000001
 21
134.6320795267949
  0
LINE
  5
109
100
AcDbEntity
  8
LAYER_1
  6
ByLayer
 62
    7
370
   -1
100
AcDbLine
 10
67.97741600000001
 20
134.6320795267949
 11
67.97741600000002
 21
133.5092352866047
  0
LINE
  5
10A
100
AcDbEntity
  8
LAYER_1
  6
ByLayer
 62
    7
370
   -1
100
AcDbLine
 10
67.97741600000002
 20
133.5092352866047
 11
67.97741600000001
 21
132.3863910442472
  0
LINE
  5
10B
100
AcDbEntity
  8
LAYER_1
  6
ByLayer
 62
    7
370
   -1
100
AcDbLine
 10
67.97741600000001
 20
132.3863910442472
 11
67.97741600000001
 21
131.2635467998905
  0
LINE
  5
10C
100
AcDbEntity
  8
LAYER_1
  6
ByLayer
 62
    7
370
   -1
100
AcDbLine
 10
67.97741600000001
 20
131.2635467998905
 11
67.97741600000002
 21
130.140702553703
  0
LINE
  5
10D
100
AcDbEntity
  8
LAYER_1
  6
ByLayer
 62
    7
370
   -1
100
AcDbLine
 10
67.97741600000002
 20
130.140702553703
 11
67.97741599999999
 21
129.0178583058528
  0
LINE
  5
10E
100
AcDbEntity
  8
LAYER_1
  6
ByLayer
 62
    7
370
   -1
100
AcDbLine
 10
67.97741599999999
 20
129.0178583058528
 11
67.97741600000001
 21
127.8950140565084
  0
LINE
  5
10F
100
AcDbEntity
  8
LAYER_1
  6
ByLayer
 62
    7
370
   -1
100
AcDbLine
 10
67.97741600000001
 20
127.8950140565084
 11
67.97741600000001
 21
126.7721698058378
  0
LINE
  5
110
100
AcDbEntity
  8
LAYER_1
  6
ByLayer
 62
    7
370
   -1
100
AcDbLine
 10
67.97741600000001
 20
126.7721698058378
 11
67.97741600000001
 21
125.6493255540095
  0
LINE
  5
111
100
AcDbEntity
  8
LAYER_1
  6
ByLayer
 62
    7
370
   -1
100
AcDbLine
 10
67.97741600000001
 20
125.6493255540095
 11
67.97741600000001
 21
124.5264813011916
  0
LINE
  5
112
100
AcDbEntity
  8
LAYER_1
  6
ByLayer
 62
    7
370
   -1
100
AcDbLine
 10
67.97741600000001
 20
124.5264813011916
 11
67.97741600000001
 21
123.4036370475524
  0
LINE
  5
113
100
AcDbEntity
  8
LAYER_1
  6
ByLayer
 62
    7
370
   -1
100
AcDbLine
 10
67.97741600000001
 20
123.4036370475524
 11
67.97741600000002
 21
122.2807927932602
  0
LINE
  5
114
100
AcDbEntity
  8
LAYER_1
  6
ByLayer
 62
    7
370
   -1
100
AcDbLine
 10
67.97741600000002
 20
122.2807927932602
 11
67.97741600000001
 21
121.1579485384832
  0
LINE
  5
115
100
AcDbEntity
  8
LAYER_1
  6
ByLayer
 62
    7
370
   -1
100
AcDbLine
 10
67.97741600000001
 20
121.1579485384832
 11
67.97741600000003
 21
120.0351042833897
  0
LINE
  5
116
100
AcDbEntity
  8
LAYER_1
  6
ByLayer
 62
    7
370
   -1
100
AcDbLine
 10
67.97741600000003
 20
120.0351042833897
 11
67.97741600000001
 21
118.912260028148
  0
LINE
  5
117
100
AcDbEntity
  8
LAYER_1
  6
ByLayer
 62
    7
370
   -1
100
AcDbLine
 10
67.97741600000001
 20
118.912260028148
 11
67.97741599999999
 21
117.7894157729263
  0
LINE
  5
118
100
AcDbEntity
  8
LAYER_1
  6
ByLayer
 62
    7
370
   -1
100
AcDbLine
 10
67.97741599999999
 20
117.7894157729263
 11
67.97741600000001
 21
116.6665715178929
  0
LINE
  5
119
100
AcDbEntity
  8
LAYER_1
  6
ByLayer
 62
    7
370
   -1
100
AcDbLine
 10
67.97741600000001
 20
116.6665715178929
 11
67.97741600000002
 21
115.5437272632161
  0
LINE
  5
11A
100
AcDbEntity
  8
LAYER_1
  6
ByLayer
 62
    7
370
   -1
100
AcDbLine
 10
67.97741600000002
 20
115.5437272632161
 11
67.97741600000002
 21
114.420883009064
  0
LINE
  5
11B
100
AcDbEntity
  8
LAYER_1
  6
ByLayer
 62
    7
370
   -1
100
AcDbLine
 10
67.97741600000002
 20
114.420883009064
 11
67.97741600000001
 21
113.2980387556051
  0
LINE
  5
11C
100
AcDbEntity
  8
LAYER_1
  6
ByLayer
 62
    7
370
   -1
100
AcDbLine
 10
67.97741600000001
 20
113.2980387556051
 11
67.97741600000001
 21
112.1751945030074
  0
LINE
  5
11D
100
AcDbEntity
  8
LAYER_1
  6
ByLayer
 62
    7
370
   -1
100
AcDbLine
 10
67.97741600000001
 20
112.1751945030074
 11
67.97741600000001
 21
111.0523502514394
  0
LINE
  5
11E
100
AcDbEntity
  8
LAYER_1
  6
ByLayer
 62
    7
370
   -1
100
AcDbLine
 10
67.97741600000001
 20
111.0523502514394
 11
67.97741600000001
 21
109.9295060010693
  0
LINE
  5
11F
100
AcDbEntity
  8
LAYER_1
  6
ByLayer
 62
    7
370
   -1
100
AcDbLine
 10
67.97741600000001
 20
109.9295060010693
 11
67.97741600000001
 21
108.8066617520652
  0
LINE
  5
120
100
AcDbEntity
  8
LAYER_1
  6
ByLayer
 62
    7
370
   -1
100
AcDbLine
 10
67.97741600000001
 20
108.8066617520652
 11
67.97741600000001
 21
107.6838175045956
  0
LINE
  5
121
100
AcDbEntity
  8
LAYER_1
  6
ByLayer
 62
    7
370
   -1
100
AcDbLine
 10
67.97741600000001
 20
107.6838175045956
 11
67.97741600000001
 21
106.5609732588286
  0
LINE
  5
122
100
AcDbEntity
  8
LAYER_1
  6
ByLayer
 62
    7
370
   -1
100
AcDbLine
 10
67.97741600000001
 20
106.5609732588286
 11
67.97741600000001
 21
105.4381290149325
  0
LINE
  5
123
100
AcDbEntity
  8
LAYER_1
  6
ByLayer
 62
    7
370
   -1
100
AcDbLine
 10
67.97741600000001
 20
105.4381290149325
 11
67.97741600000001
 21
104.3152847730756
  0
LINE
  5
124
100
AcDbEntity
  8
LAYER_1
  6
ByLayer
 62
    7
370
   -1
100
AcDbLine
 10
67.97741600000001
 20
104.3152847730756
 11
67.97741600000001
 21
103.1924405334262
  0
LINE
  5
125
100
AcDbEntity
  8
LAYER_1
  6
ByLayer
 62
    7
370
   -1
100
AcDbLine
 10
67.97741600000001
 20
103.1924405334262
 11
67.97741600000001
 21
102.0695962961524
  0
LINE
  5
126
100
AcDbEntity
  8
LAYER_1
  6
ByLayer
 62
    7
370
   -1
100
AcDbLine
 10
67.97741600000001
 20
102.0695962961524
 11
67.97741600000001
 21
100.9467520614226
  0
LINE
  5
127
100
AcDbEntity
  8
LAYER_1
  6
ByLayer
 62
    7
370
   -1
100
AcDbLine
 10
67.97741600000001
 20
100.9467520614226
 11
67.97741600000001
 21
99.82390782940502
  0
LINE
  5
128
100
AcDbEntity
  8
LAYER_1
  6
ByLayer
 62
    7
370
   -1
100
AcDbLine
 10
67.97741600000001
 20
99.82390782940502
 11
67.97741600000001
 21
98.70106360029307
  0
LINE
  5
129
100
AcDbEntity
  8
LAYER_1
  6
ByLayer
 62
    7
370
   -1
100
AcDbLine
 10
67.97741600000001
 20
98.70106360029307
 11
67.97741600000001
 21
97.57821937440572
  0
LINE
  5
12A
100
AcDbEntity
  8
LAYER_1
  6
ByLayer
 62
    7
370
   -1
100
AcDbLine
 10
67.97741600000001
 20
97.57821937440572
 11
67.97741600000001
 21
96.45537515210113
  0
LINE
  5
12B
100
AcDbEntity
  8
LAYER_1
  6
ByLayer
 62
    7
370
   -1
100
AcDbLine
 10
67.97741600000001
 20
96.45537515210113
 11
67.97741600000002
 21
95.33253093373742
  0
LINE
  5
12C
100
AcDbEntity
  8
LAYER_1
  6
ByLayer
 62
    7
370
   -1
100
AcDbLine
 10
67.97741600000002
 20
95.33253093373742
 11
67.97741600000002
 21
94.20968671967279
  0
LINE
  5
12D
100
AcDbEntity
  8
LAYER_1
  6
ByLayer
 62
    7
370
   -1
100
AcDbLine
 10
67.97741600000002
 20
94.20968671967279
 11
67.97741600000001
 21
93.08684251026543
  0
LINE
  5
12E
100
AcDbEntity
  8
LAYER_1
  6
ByLayer
 62
    7
370
   -1
100
AcDbLine
 10
67.97741600000001
 20
93.08684251026543
 11
67.97741600000001
 21
91.96399830587343
  0
LINE
  5
12F
100
AcDbEntity
  8
LAYER_1
  6
ByLayer
 62
    7
370
   -1
100
AcDbLine
 10
67.97741600000001
 20
91.96399830587343
 11
67.97741600000001
 21
90.84115410685504
  0
LINE
  5
130
100
AcDbEntity
  8
LAYER_1
  6
ByLayer
 62
    7
370
   -1
100
AcDbLine
 10
67.97741600000001
 20
90.84115410685504
 11
67.97741600000001
 21
89.71830991356836
  0
LINE
  5
131
100
AcDbEntity
  8
LAYER_1
  6
ByLayer
 62
    7
370
   -1
100
AcDbLine
 10
67.97741600000001
 20
89.71830991356836
 11
67.97741600000001
 21
88.59546572637159
  0
LINE
  5
132
100
AcDbEntity
  8
LAYER_1
  6
ByLayer
 62
    7
370
   -1
100
AcDbLine
 10
67.97741600000001
 20
88.59546572637159
 11
67.97741600000001
 21
87.47262154562287
  0
LINE
  5
133
100
AcDbEntity
  8
LAYER_1
  6
ByLayer
 62
    7
370
   -1
100
AcDbLine
 10
67.97741600000001
 20
87.47262154562287
 11
67.97741600000001
 21
86.34977737168035
  0
LINE
  5
134
100
AcDbEntity
  8
LAYER_1
  6
ByLayer
 62
    7
370
   -1
100
AcDbLine
 10
67.97741600000001
 20
86.34977737168035
 11
67.97741600000001
 21
85.22693320138497
  0
LINE
  5
135
100
AcDbEntity
  8
LAYER_1
  6
ByLayer
 62
    7
370
   -1
100
AcDbLine
 10
90.673767
 20
136.877779
 11
90.67376700000001
 21
135.7555491223466
  0
LINE
  5
136
100
AcDbEntity
  8
LAYER_1
  6
ByLayer
 62
    7
370
   -1
100
AcDbLine
 10
90.67376700000001
 20
135.7555491223466
 11
90.67376700000001
 21
134.6333192411068
  0
LINE
  5
137
100
AcDbEntity
  8
LAYER_1
  6
ByLayer
 62
    7
370
   -1
100
AcDbLine
 10
90.67376700000001
 20
134.6333192411068
 11
90.67376699999998
 21
133.5110893563338
  0
LINE
  5
138
100
AcDbEntity
  8
LAYER_1
  6
ByLayer
 62
    7
370
   -1
100
AcDbLine
 10
90.67376699999998
 20
133.5110893563338
 11
90.673767
 21
132.3888594680808
  0
LINE
  5
139
100
AcDbEntity
  8
LAYER_1
  6
ByLayer
 62
    7
370
   -1
100
AcDbLine
 10
90.673767
 20
132.3888594680808
 11
90.67376700000001
 21
131.2666295764007
  0
LINE
  5
13A
100
AcDbEntity
  8
LAYER_1
  6
ByLayer
 62
    7
370
   -1
100
AcDbLine
 10
90.67376700000001
 20
131.2666295764007
 11
90.673767
 21
130.1443996813468
  0
LINE
  5
13B
100
AcDbEntity
  8
LAYER_1
  6
ByLayer
 62
    7
370
   -1
100
AcDbLine
 10
90.673767
 20
130.1443996813468
 11
90.67376699999998
 21
129.022169782972
  0
LINE
  5
13C
100
AcDbEntity
  8
LAYER_1
  6
ByLayer
 62
    7
370
   -1
100
AcDbLine
 10
90.67376699999998
 20
129.022169782972
 11
90.673767
 21
127.8999398813296
  0
LINE
  5
13D
100
AcDbEntity
  8
LAYER_1
  6
ByLayer
 62
    7
370
   -1
100
AcDbLine
 10
90.673767
 20
127.8999398813296
 11
90.673767
 21
126.7777099764727
  0
LINE
  5
13E
100
AcDbEntity
  8
LAYER_1
  6
ByLayer
 62
    7
370
   -1
100
AcDbLine
 10
90.673767
 20
126.7777099764727
 11
90.673767
 21
125.6554800684542
  0
LINE
  5
13F
100
AcDbEntity
  8
LAYER_1
  6
ByLayer
 62
    7
370
   -1
100
AcDbLine
 10
90.673767
 20
125.6554800684542
 11
90.67376699999998
 21
124.5332501573275
  0
LINE
  5
140
100
AcDbEntity
  8
LAYER_1
  6
ByLayer
 62
    7
370
   -1
100
AcDbLine
 10
90.67376699999998
 20
124.5332501573275
 11
90.67376699999998
 21
123.4110202431454
  0
LINE
  5
141
100
AcDbEntity
  8
LAYER_1
  6
ByLayer
 62
    7
370
   -1
100
AcDbLine
 10
90.67376699999998
 20
123.4110202431454
 11
90.673767
 21
122.2887903259613
  0
LINE
  5
142
100
AcDbEntity
  8
LAYER_1
  6
ByLayer
 62
    7
370
   -1
100
AcDbLine
 10
90.673767
 20
122.2887903259613
 11
90.673767
 21
121.1665604058281
  0
LINE
  5
143
100
AcDbEntity
  8
LAYER_1
  6
ByLayer
 62
    7
370
   -1
100
AcDbLine
 10
90.673767
 20
121.1665604058281
 11
90.67376700000001
 21
120.044330482799
  0
LINE
  5
144
100
AcDbEntity
  8
LAYER_1
  6
ByLayer
 62
    7
370
   -1
100
AcDbLine
 10
90.67376700000001
 20
120.044330482799
 11
90.673767
 21
118.9221005569271
  0
LINE
  5
145
100
AcDbEntity
  8
LAYER_1
  6
ByLayer
 62
    7
370
   -1
100
AcDbLine
 10
90.673767
 20
118.9221005569271
 11
90.673767
 21
117.7998706282655
  0
LINE
  5
146
100
AcDbEntity
  8
LAYER_1
  6
ByLayer
 62
    7
370
   -1
100
AcDbLine
 10
90.673767
 20
117.7998706282655
 11
90.67376700000001
 21
116.6776406968672
  0
LINE
  5
147
100
AcDbEntity
  8
LAYER_1
  6
ByLayer
 62
    7
370
   -1
100
AcDbLine
 10
90.67376700000001
 20
116.6776406968672
 11
90.67376699999998
 21
115.5554107627855
  0
LINE
  5
148
100
AcDbEntity
  8
LAYER_1
  6
ByLayer
 62
    7
370
   -1
100
AcDbLine
 10
90.67376699999998
 20
115.5554107627855
 11
90.67376699999998
 21
114.4331808260734
  0
LINE
  5
149
100
AcDbEntity
  8
LAYER_1
  6
ByLayer
 62
    7
370
   -1
100
AcDbLine
 10
90.67376699999998
 20
114.4331808260734
 11
90.673767
 21
113.310950886784
  0
LINE
  5
14A
100
AcDbEntity
  8
LAYER_1
  6
ByLayer
 62
    7
370
   -1
100
AcDbLine
 10
90.673767
 20
113.310950886784
 11
90.67376700000001
 21
112.1887209449705
  0
LINE
  5
14B
100
AcDbEntity
  8
LAYER_1
  6
ByLayer
 62
    7
370
   -1
100
AcDbLine
 10
90.67376700000001
 20
112.1887209449705
 11
90.673767
 21
111.0664910006859
  0
LINE
  5
14C
100
AcDbEntity
  8
LAYER_1
  6
ByLayer
 62
    7
370
   -1
100
AcDbLine
 10
90.673767
 20
111.0664910006859
 11
90.67376700000001
 21
109.9442610539833
  0
LINE
  5
14D
100
AcDbEntity
  8
LAYER_1
  6
ByLayer
 62
    7
370
   -1
100
AcDbLine
 10
90.67376700000001
 20
109.9442610539833
 11
90.67376700000001
 21
108.8220311049159
  0
LINE
  5
14E
100
AcDbEntity
  8
LAYER_1
  6
ByLayer
 62
    7
370
   -1
100
AcDbLine
 10
90.67376700000001
 20
108.8220311049159
 11
90.673767
 21
107.6998011535367
  0
LINE
  5
14F
100
AcDbEntity
  8
LAYER_1
  6
ByLayer
 62
    7
370
   -1
100
AcDbLine
 10
90.673767
 20
107.6998011535367
 11
90.673767
 21
106.5775711998989
  0
LINE
  5
150
100
AcDbEntity
  8
LAYER_1
  6
ByLayer
 62
    7
370
   -1
100
AcDbLine
 10
90.673767
 20
106.5775711998989
 11
90.673767
 21
105.4553412440556
  0
LINE
  5
151
100
AcDbEntity
  8
LAYER_1
  6
ByLayer
 62
    7
370
   -1
100
AcDbLine
 10
90.673767
 20
105.4553412440556
 11
90.673767
 21
104.3331112860598
  0
LINE
  5
152
100
AcDbEntity
  8
LAYER_1
  6
ByLayer
 62
    7
370
   -1
100
AcDbLine
 10
90.673767
 20
104.3331112860598
 11
90.673767
 21
103.2108813259647
  0
LINE
  5
153
100
AcDbEntity
  8
LAYER_1
  6
ByLayer
 62
    7
370
   -1
100
AcDbLine
 10
90.673767
 20
103.2108813259647
 11
90.673767
 21
102.0886513638235
  0
LINE
  5
154
100
AcDbEntity
  8
LAYER_1
  6
ByLayer
 62
    7
370
   -1
100
AcDbLine
 10
90.673767
 20
102.0886513638235
 11
90.673767
 21
100.9664213996891
  0
LINE
  5
155
100
AcDbEntity
  8
LAYER_1
  6
ByLayer
 62
    7
370
   -1
100
AcDbLine
 10
90.673767
 20
100.9664213996891
 11
90.673767
 21
99.84419143361475
  0
LINE
  5
156
100
AcDbEntity
  8
LAYER_1
  6
ByLayer
 62
    7
370
   -1
100
AcDbLine
 10
90.673767
 20
99.84419143361475
 11
90.673767
 21
98.72196146562804
  0
LINE
  5
157
100
AcDbEntity
  8
LAYER_1
  6
ByLayer
 62
    7
370
   -1
100
AcDbLine
 10
90.673767
 20
98.72196146562804
 11
90.673767
 21
97.5997314955945
  0
LINE
  5
158
100
AcDbEntity
  8
LAYER_1
  6
ByLayer
 62
    7
370
   -1
100
AcDbLine
 10
90.673767
 20
97.5997314955945
 11
90.67376700000001
 21
96.47750152331631
  0
LINE
  5
159
100
AcDbEntity
  8
LAYER_1
  6
ByLayer
 62
    7
370
   -1
100
AcDbLine
 10
90.67376700000001
 20
96.47750152331631
 11
90.673767
 21
95.35527154859541
  0
LINE
  5
15A
100
AcDbEntity
  8
LAYER_1
  6
ByLayer
 62
    7
370
   -1
100
AcDbLine
 10
90.673767
 20
95.35527154859541
 11
90.673767
 21
94.23304157123384
  0
LINE
  5
15B
100
AcDbEntity
  8
LAYER_1
  6
ByLayer
 62
    7
370
   -1
100
AcDbLine
 10
90.673767
 20
94.23304157123384
 11
90.67376700000001
 21
93.11081159103357
  0
LINE
  5
15C
100
AcDbEntity
  8
LAYER_1
  6
ByLayer
 62
    7
370
   -1
100
AcDbLine
 10
90.67376700000001
 20
93.11081159103357
 11
90.67376700000001
 21
91.98858160779656
  0
LINE
  5
15D
100
AcDbEntity
  8
LAYER_1
  6
ByLayer
 62
    7
370
   -1
100
AcDbLine
 10
90.67376700000001
 20
91.98858160779656
 11
90.673767
 21
90.86635162132482
  0
LINE
  5
15E
100
AcDbEntity
  8
LAYER_1
  6
ByLayer
 62
    7
370
   -1
100
AcDbLine
 10
90.673767
 20
90.86635162132482
 11
90.673767
 21
89.74412163142033
  0
LINE
  5
15F
100
AcDbEntity
  8
LAYER_1
  6
ByLayer
 62
    7
370
   -1
100
AcDbLine
 10
90.673767
 20
89.74412163142033
 11
90.673767
 21
88.62189163788508
  0
LINE
  5
160
100
AcDbEntity
  8
LAYER_1
  6
ByLayer
 62
    7
370
   -1
100
AcDbLine
 10
90.673767
 20
88.62189163788508
 11
90.673767
 21
87.49966164052105
  0
LINE
  5
161
100
AcDbEntity
  8
LAYER_1
  6
ByLayer
 62
    7
370
   -1
100
AcDbLine
 10
90.673767
 20
87.49966164052105
 11
90.673767
 21
86.37743163913024
  0
LINE
  5
162
100
AcDbEntity
  8
LAYER_1
  6
ByLayer
 62
    7
370
   -1
100
AcDbLine
 10
90.673767
 20
86.37743163913024
 11
90.673767
 21
85.2552016599093
  0
LINE
  5
163
100
AcDbEntity
  8
LAYER_1
  6
ByLayer
 62
    7
370
   -1
100
AcDbLine
 10
68.01301820692279
 20
83.91006283184932
 11
67.97884133413184
 21
84.29050665753867
  0
LINE
  5
164
100
AcDbEntity
  8
LAYER_1
  6
ByLayer
 62
    7
370
   -1
100
AcDbLine
 10
67.97741600000001
 20
85.22693320138497
 11
67.9787672021226
 21
84.29043781695704
  0
LINE
  5
165
100
AcDbEntity
  8
LAYER_1
  6
ByLayer
 62
    7
370
   -1
100
AcDbLine
 10
90.673767
 20
85.2552016599093
 11
90.67604154369739
 21
84.29541695947489
  0
LINE
  5
166
100
AcDbEntity
  8
LAYER_1
  6
ByLayer
 62
    7
370
   -1
100
AcDbLine
 10
67.97741600000001
 20
136.877768
 11
67.97741600000001
 21
135.7549237646494
  0
LINE
  5
167
100
AcDbEntity
  8
LAYER_1
  6
ByLayer
 62
    7
370
   -1
100
AcDbLine
 10
68.01827894175238
 20
137.2988591397579
 11
67.97758966789276
 21
136.8778115222658
  0
LINE
  5
168
100
AcDbEntity
  8
LAYER_1
  6
ByLayer
 62
    7
370
   -1
100
AcDbLine
 10
90.67472658149899
 20
136.8772994026494
 11
90.6430950462114
 21
137.2988591397579
  0
LINE
  5
169
100
AcDbEntity
  8
LAYER_1
  6
ByLayer
 62
    7
370
   -1
100
AcDbLine
 10
90.67627752833984
 20
84.29485289597942
 11
90.63783106452271
 21
83.91006291162678
  0
ENDSEC
  0
SECTION
  2
OBJECTS
  0
DICTIONARY
  5
C
330
0
100
AcDbDictionary
281
    1
  3
ACAD_GROUP
350
D
  0
DICTIONARY
  5
D
330
C
100
AcDbDictionary
281
    1
  0
ENDSEC
  0
EOF
