999
dxfrw 0.6.3
  0
SECTION
  2
HEADER
  9
$ACADVER
  1
AC1009
  9
$DWGCODEPAGE
  3
ANSI_1252
  9
$INSBASE
 10
0
 20
0
 30
0
  9
$EXTMIN
 10
10000000000
 20
10000000000
 30
0
  9
$EXTMAX
 10
-10000000000
 20
-10000000000
 30
0
  9
$LIMMIN
 10
0
 20
0
  9
$LIMMAX
 10
420
 20
297
  9
$ORTHOMODE
 70
    0
  9
$REGENMODE
 70
    1
  9
$FILLMODE
 70
    1
  9
$QTEXTMODE
 70
    0
  9
$MIRRTEXT
 70
    0
  9
$DRAGMODE
 70
    2
  9
$LTSCALE
 40
1
  9
$OSMODE
 70
    0
  9
$ATTMODE
 70
    0
  9
$TEXTSIZE
 40
2.5
  9
$TRACEWID
 40
15.68
  9
$TEXTSTYLE
  7
STANDARD
  9
$CLAYER
  8
0
  9
$CELTYPE
  6
BYLAYER
  9
$CECOLOR
 62
  256
  9
$DIMSCALE
 40
2.5
  9
$DIMASZ
 40
2.5
  9
$DIMEXO
 40
0.625
  9
$DIMDLI
 40
3.75
  9
$DIMRND
 40
0
  9
$DIMDLE
 40
0
  9
$DIMEXE
 40
1.25
  9
$DIMTP
 40
0
  9
$DIMTM
 40
0
  9
$DIMTXT
 40
2.5
  9
$DIMCEN
 40
2.5
  9
$DIMTSZ
 40
0
  9
$DIMTOL
 70
    0
  9
$DIMLIM
 70
    0
  9
$DIMTIH
 70
    0
  9
$DIMTOH
 70
    0
  9
$DIMSE1
 70
    0
  9
$DIMSE2
 70
    0
  9
$DIMTAD
 70
    1
  9
$DIMZIN
 70
    8
  9
$DIMBLK
  1

  9
$DIMASO
 70
    1
  9
$DIMSHO
 70
    1
  9
$DIMPOST
  1

  9
$DIMAPOST
  1

  9
$DIMALT
 70
    0
  9
$DIMALTD
 70
    3
  9
$DIMALTF
 40
0.03937
  9
$DIMLFAC
 40
1
  9
$DIMTOFL
 70
    1
  9
$DIMTVP
 40
0
  9
$DIMTIX
 70
    0
  9
$DIMSOXD
 70
    0
  9
$DIMSAH
 70
    0
  9
$DIMBLK1
  1

  9
$DIMBLK2
  1

  9
$DIMSTYLE
  2
STANDARD
  9
$DIMCLRD
 70
    0
  9
$DIMCLRE
 70
    0
  9
$DIMCLRT
 70
    0
  9
$DIMTFAC
 40
1
  9
$DIMGAP
 40
0.625
  9
$LUNITS
 70
    2
  9
$LUPREC
 70
    4
  9
$SKETCHINC
 40
1
  9
$FILLETRAD
 40
0
  9
$AUNITS
 70
    0
  9
$AUPREC
 70
    2
  9
$MENU
  1
.
  9
$ELEVATION
 40
0
  9
$PELEVATION
 40
0
  9
$THICKNESS
 40
0
  9
$LIMCHECK
 70
    0
  9
$BLIPMODE
 70
    0
  9
$CHAMFERA
 40
0
  9
$CHAMFERB
 40
0
  9
$SKPOLY
 70
    0
  9
$USRTIMER
 70
    1
  9
$ANGBASE
 50
0
  9
$ANGDIR
 70
    0
  9
$PDMODE
 70
   34
  9
$PDSIZE
 40
0
  9
$PLINEWID
 40
0
  9
$COORDS
 70
    2
  9
$SPLFRAME
 70
    0
  9
$SPLINETYPE
 70
    2
  9
$SPLINESEGS
 70
    8
  9
$ATTDIA
 70
    1
  9
$ATTREQ
 70
    1
  9
$HANDLING
 70
    1
  9
$HANDSEED
  5
20000
  9
$SURFTAB1
 70
    6
  9
$SURFTAB2
 70
    6
  9
$SURFTYPE
 70
    6
  9
$SURFU
 70
    6
  9
$SURFV
 70
    6
  9
$UCSNAME
  2

  9
$UCSORG
 10
0
 20
0
 30
0
  9
$UCSXDIR
 10
1
 20
0
 30
0
  9
$UCSYDIR
 10
0
 20
1
 30
0
  9
$PUCSNAME
  2

  9
$PUCSORG
 10
0
 20
0
 30
0
  9
$PUCSXDIR
 10
1
 20
0
 30
0
  9
$PUCSYDIR
 10
0
 20
1
 30
0
  9
$USERI1
 70
    0
  9
$USERI2
 70
    0
  9
$USERI3
 70
    0
  9
$USERI4
 70
    0
  9
$USERI5
 70
    0
  9
$USERR1
 40
0
  9
$USERR2
 40
0
  9
$USERR3
 40
0
  9
$USERR4
 40
0
  9
$USERR5
 40
0
  9
$WORLDVIEW
 70
    1
  9
$SHADEDGE
 70
    3
  9
$SHADEDIF
 70
   70
  9
$TILEMODE
 70
    1
  9
$MAXACTVP
 70
   64
  9
$PLIMCHECK
 70
    0
  9
$PEXTMIN
 10
0
 20
0
 30
0
  9
$PEXTMAX
 10
0
 20
0
 30
0
  9
$GRIDMODE
 70
    0
  9
$SNAPSTYLE
 70
    0
  9
$PLIMMIN
 10
0
 20
0
  9
$PLIMMAX
 10
210
 20
297
  9
$UNITMODE
 70
    0
  9
$VISRETAIN
 70
    1
  9
$PLINEGEN
 70
    0
  9
$PSLTSCALE
 70
    1
  0
ENDSEC
  0
SECTION
  2
TABLES
  0
TABLE
  2
VPORT
 70
    1
  0
VPORT
  2
*ACTIVE
 70
    0
 10
0
 20
0
 11
1
 21
1
 12
60.19784299492723
 22
97.22703608633756
 13
0
 23
0
 14
10
 24
10
 15
10
 25
10
 16
0
 26
0
 36
1
 17
0
 27
0
 37
0
 40
45.76824524800004
 41
1.692717584369449
 42
50
 43
0
 44
0
 50
0
 51
0
 71
    0
 72
  100
 73
    1
 74
    3
 75
    0
 76
    0
 77
    0
 78
    0
  0
ENDTAB
  0
TABLE
  2
LTYPE
 70
    4
  0
LTYPE
  2
BYBLOCK
 70
    0
  3

 72
   65
 73
    0
 40
0
  0
LTYPE
  2
BYLAYER
 70
    0
  3

 72
   65
 73
    0
 40
0
  0
LTYPE
  2
CONTINUOUS
 70
    0
  3
Solid line
 72
   65
 73
    0
 40
0
  0
LTYPE
  2
DOT
 70
    0
  3
Dot . . . . . . . . . . . . . . . . . . . . . .
 72
   65
 73
    2
 40
6.35
 49
0
 49
-6.35
  0
LTYPE
  2
DOTTINY
 70
    0
  3
Dot (.15x) .....................................
 72
   65
 73
    2
 40
0.9525
 49
0
 49
-0.9525
  0
LTYPE
  2
DOT2
 70
    0
  3
Dot (.5x) .....................................
 72
   65
 73
    2
 40
3.175
 49
0
 49
-3.175
  0
LTYPE
  2
DOTX2
 70
    0
  3
Dot (2x) .  .  .  .  .  .  .  .  .  .  .  .  .
 72
   65
 73
    2
 40
12.7
 49
0
 49
-12.7
  0
LTYPE
  2
DASHED
 70
    0
  3
Dashed _ _ _ _ _ _ _ _ _ _ _ _ _ _ _ _ _
 72
   65
 73
    2
 40
19.05
 49
12.7
 49
-6.35
  0
LTYPE
  2
DASHEDTINY
 70
    0
  3
Dashed (.15x) _ _ _ _ _ _ _ _ _ _ _ _ _ _ _ _ _
 72
   65
 73
    2
 40
2.8575
 49
1.905
 49
-0.9525
  0
LTYPE
  2
DASHED2
 70
    0
  3
Dashed (.5x) _ _ _ _ _ _ _ _ _ _ _ _ _ _ _ _ _
 72
   65
 73
    2
 40
9.524999999999999
 49
6.35
 49
-3.175
  0
LTYPE
  2
DASHEDX2
 70
    0
  3
Dashed (2x) ____  ____  ____  ____  ____  ___
 72
   65
 73
    2
 40
38.09999999999999
 49
25.4
 49
-12.7
  0
LTYPE
  2
DASHDOT
 70
    0
  3
Dash dot __ . __ . __ . __ . __ . __ . __ . __
 72
   65
 73
    4
 40
25.4
 49
12.7
 49
-6.35
 49
0
 49
-6.35
  0
LTYPE
  2
DASHDOTTINY
 70
    0
  3
Dash dot (.15x) _._._._._._._._._._._._._._._.
 72
   65
 73
    4
 40
3.81
 49
1.905
 49
-0.9525
 49
0
 49
-0.9525
  0
LTYPE
  2
DASHDOT2
 70
    0
  3
Dash dot (.5x) _._._._._._._._._._._._._._._.
 72
   65
 73
    4
 40
12.7
 49
6.35
 49
-3.175
 49
0
 49
-3.175
  0
LTYPE
  2
DASHDOTX2
 70
    0
  3
Dash dot (2x) ____  .  ____  .  ____  .  ___
 72
   65
 73
    4
 40
50.8
 49
25.4
 49
-12.7
 49
0
 49
-12.7
  0
LTYPE
  2
DIVIDE
 70
    0
  3
Divide ____ . . ____ . . ____ . . ____ . . ____
 72
   65
 73
    6
 40
31.75
 49
12.7
 49
-6.35
 49
0
 49
-6.35
 49
0
 49
-6.35
  0
LTYPE
  2
DIVIDETINY
 70
    0
  3
Divide (.15x) __..__..__..__..__..__..__..__.._
 72
   65
 73
    6
 40
4.7625
 49
1.905
 49
-0.9525
 49
0
 49
-0.9525
 49
0
 49
-0.9525
  0
LTYPE
  2
DIVIDE2
 70
    0
  3
Divide (.5x) __..__..__..__..__..__..__..__.._
 72
   65
 73
    6
 40
15.875
 49
6.35
 49
-3.175
 49
0
 49
-3.175
 49
0
 49
-3.175
  0
LTYPE
  2
DIVIDEX2
 70
    0
  3
Divide (2x) ________  .  .  ________  .  .  _
 72
   65
 73
    6
 40
63.5
 49
25.4
 49
-12.7
 49
0
 49
-12.7
 49
0
 49
-12.7
  0
LTYPE
  2
BORDER
 70
    0
  3
Border __ __ . __ __ . __ __ . __ __ . __ __ .
 72
   65
 73
    6
 40
44.45
 49
12.7
 49
-6.35
 49
12.7
 49
-6.35
 49
0
 49
-6.35
  0
LTYPE
  2
BORDERTINY
 70
    0
  3
Border (.15x) __.__.__.__.__.__.__.__.__.__.__.
 72
   65
 73
    6
 40
6.6675
 49
1.905
 49
-0.9525
 49
1.905
 49
-0.9525
 49
0
 49
-0.9525
  0
LTYPE
  2
BORDER2
 70
    0
  3
Border (.5x) __.__.__.__.__.__.__.__.__.__.__.
 72
   65
 73
    6
 40
22.225
 49
6.35
 49
-3.175
 49
6.35
 49
-3.175
 49
0
 49
-3.175
  0
LTYPE
  2
BORDERX2
 70
    0
  3
Border (2x) ____  ____  .  ____  ____  .  ___
 72
   65
 73
    6
 40
88.89999999999999
 49
25.4
 49
-12.7
 49
25.4
 49
-12.7
 49
0
 49
-12.7
  0
LTYPE
  2
CENTER
 70
    0
  3
Center ____ _ ____ _ ____ _ ____ _ ____ _ ____
 72
   65
 73
    4
 40
50.8
 49
31.75
 49
-6.35
 49
6.35
 49
-6.35
  0
LTYPE
  2
CENTERTINY
 70
    0
  3
Center (.15x) ___ _ ___ _ ___ _ ___ _ ___ _ ___
 72
   65
 73
    4
 40
7.62
 49
4.7625
 49
-0.9525
 49
0.9525
 49
-0.9525
  0
LTYPE
  2
CENTER2
 70
    0
  3
Center (.5x) ___ _ ___ _ ___ _ ___ _ ___ _ ___
 72
   65
 73
    4
 40
28.575
 49
19.05
 49
-3.175
 49
3.175
 49
-3.175
  0
LTYPE
  2
CENTERX2
 70
    0
  3
Center (2x) ________  __  ________  __  _____
 72
   65
 73
    4
 40
101.6
 49
63.5
 49
-12.7
 49
12.7
 49
-12.7
  0
ENDTAB
  0
TABLE
  2
LAYER
 70
    1
  0
LAYER
  2
0
 70
    0
 62
    7
  6
CONTINUOUS
  0
LAYER
  2
LAYER_1
 70
    0
 62
    7
  6
CONTINUOUS
  0
ENDTAB
  0
TABLE
  2
STYLE
 70
    3
  0
STYLE
  2
STANDARD
 70
    0
 40
0
 41
1
 50
0
 71
    0
 42
1
  3
TXT
  4

  0
ENDTAB
  0
TABLE
  2
VIEW
 70
    0
  0
ENDTAB
  0
TABLE
  2
UCS
 70
    0
  0
ENDTAB
  0
TABLE
  2
APPID
 70
    1
  0
APPID
  2
ACAD
 70
    0
  0
APPID
  2
LIBRECAD
 70
    0
  0
ENDTAB
  0
TABLE
  2
DIMSTYLE
 70
    1
  0
DIMSTYLE
  2
STANDARD
 70
    0
  3

  4

  5

  6

  7

 40
1
 41
2.5
 42
0.625
 43
0.38
 44
1.25
 45
0
 46
0
 47
0
 48
0
 49
1
140
2.5
141
0.09
142
2.5
143
25.4
144
1
145
0
146
1
147
0.625
 71
    0
 72
    0
 73
    0
 74
    1
 75
    0
 76
    0
 77
    0
 78
    1
170
    0
171
    2
172
    0
173
    0
174
    0
175
    0
176
    0
177
    0
178
    0
  0
ENDTAB
  0
ENDSEC
  0
SECTION
  2
BLOCKS
  0
BLOCK
  8
0
  2
$MODEL_SPACE
 70
    0
 10
0
 20
0
 30
0
  3
$MODEL_SPACE
  1

  0
ENDBLK
  8
0
  0
BLOCK
  8
0
  2
$PAPER_SPACE
 70
    0
 10
0
 20
0
 30
0
  3
$PAPER_SPACE
  1

  0
ENDBLK
  8
0
  0
ENDSEC
  0
SECTION
  2
ENTITIES
  0
POLYLINE
  5
31
  8
LAYER_1
  6
BYLAYER
 62
    7
 66
    1
 10
0
 20
0
 30
0
 70
    0
  0
VERTEX
  5
32
  8
LAYER_1
  6
BYLAYER
 62
    7
 10
83.983333
 20
171.62413
 30
0
  0
VERTEX
  5
33
  8
LAYER_1
  6
BYLAYER
 62
    7
 10
83.94659940637099
 20
172.0142748556143
 30
0
  0
VERTEX
  5
34
  8
LAYER_1
  6
BYLAYER
 62
    7
 10
83.90855740193967
 20
172.4040782691844
 30
0
  0
VERTEX
  5
35
  8
LAYER_1
  6
BYLAYER
 62
    7
 10
83.8678986255365
 20
172.7931987816039
 30
0
  0
VERTEX
  5
36
  8
LAYER_1
  6
BYLAYER
 62
    7
 10
83.823314715992
 20
173.1812949337665
 30
0
  0
VERTEX
  5
37
  8
LAYER_1
  6
BYLAYER
 62
    7
 10
83.77349731213658
 20
173.5680252665661
 30
0
  0
VERTEX
  5
38
  8
LAYER_1
  6
BYLAYER
 62
    7
 10
83.71713805280071
 20
173.953048320896
 30
0
  0
VERTEX
  5
39
  8
LAYER_1
  6
BYLAYER
 62
    7
 10
83.65292857681487
 20
174.3360226376502
 30
0
  0
VERTEX
  5
3A
  8
LAYER_1
  6
BYLAYER
 62
    7
 10
83.57956052300948
 20
174.7166067577222
 30
0
  0
VERTEX
  5
3B
  8
LAYER_1
  6
BYLAYER
 62
    7
 10
83.49572553021505
 20
175.0944592220059
 30
0
  0
VERTEX
  5
3C
  8
LAYER_1
  6
BYLAYER
 62
    7
 10
83.40011523726206
 20
175.4692385713948
 30
0
  0
VERTEX
  5
3D
  8
LAYER_1
  6
BYLAYER
 62
    7
 10
83.29142128341695
 20
175.8406033467759
 30
0
  0
VERTEX
  5
3E
  8
LAYER_1
  6
BYLAYER
 62
    7
 10
83.1686434740957
 20
176.2082073995983
 30
0
  0
VERTEX
  5
3F
  8
LAYER_1
  6
BYLAYER
 62
    7
 10
83.03197300584512
 20
176.5716864516264
 30
0
  0
VERTEX
  5
40
  8
LAYER_1
  6
BYLAYER
 62
    7
 10
82.88188894786116
 20
176.9306718439976
 30
0
  0
VERTEX
  5
41
  8
LAYER_1
  6
BYLAYER
 62
    7
 10
82.71887036933987
 20
177.2847949178493
 30
0
  0
VERTEX
  5
42
  8
LAYER_1
  6
BYLAYER
 62
    7
 10
82.5433963394773
 20
177.6336870143191
 30
0
  0
VERTEX
  5
43
  8
LAYER_1
  6
BYLAYER
 62
    7
 10
82.35594592746942
 20
177.9769794745442
 30
0
  0
VERTEX
  5
44
  8
LAYER_1
  6
BYLAYER
 62
    7
 10
82.15699820251228
 20
178.3143036396621
 30
0
  0
VERTEX
  5
45
  8
LAYER_1
  6
BYLAYER
 62
    7
 10
81.94703223380188
 20
178.6452908508102
 30
0
  0
VERTEX
  5
46
  8
LAYER_1
  6
BYLAYER
 62
    7
 10
81.72652709053425
 20
178.969572449126
 30
0
  0
VERTEX
  5
47
  8
LAYER_1
  6
BYLAYER
 62
    7
 10
81.49596184190541
 20
179.2867797757468
 30
0
  0
VERTEX
  5
48
  8
LAYER_1
  6
BYLAYER
 62
    7
 10
81.25581317088263
 20
179.5965440953096
 30
0
  0
VERTEX
  5
49
  8
LAYER_1
  6
BYLAYER
 62
    7
 10
81.0064327826298
 20
179.8984926657707
 30
0
  0
VERTEX
  5
4A
  8
LAYER_1
  6
BYLAYER
 62
    7
 10
80.74798846238345
 20
180.1922468487715
 30
0
  0
VERTEX
  5
4B
  8
LAYER_1
  6
BYLAYER
 62
    7
 10
80.48063326628608
 20
180.4774275337519
 30
0
  0
VERTEX
  5
4C
  8
LAYER_1
  6
BYLAYER
 62
    7
 10
80.20452025048006
 20
180.7536556101512
 30
0
  0
VERTEX
  5
4D
  8
LAYER_1
  6
BYLAYER
 62
    7
 10
79.9198024711078
 20
181.0205519674089
 30
0
  0
VERTEX
  5
4E
  8
LAYER_1
  6
BYLAYER
 62
    7
 10
79.62663298431177
 20
181.2777374949647
 30
0
  0
VERTEX
  5
4F
  8
LAYER_1
  6
BYLAYER
 62
    7
 10
79.32516484623434
 20
181.5248330822582
 30
0
  0
VERTEX
  5
50
  8
LAYER_1
  6
BYLAYER
 62
    7
 10
79.01555111301799
 20
181.7614596187288
 30
0
  0
VERTEX
  5
51
  8
LAYER_1
  6
BYLAYER
 62
    7
 10
78.69794484080511
 20
181.9872379938163
 30
0
  0
VERTEX
  5
52
  8
LAYER_1
  6
BYLAYER
 62
    7
 10
78.37249908573811
 20
182.2017890969599
 30
0
  0
VERTEX
  5
53
  8
LAYER_1
  6
BYLAYER
 62
    7
 10
78.03939654510299
 20
182.4047439760623
 30
0
  0
VERTEX
  5
54
  8
LAYER_1
  6
BYLAYER
 62
    7
 10
77.69902972333821
 20
182.5958055830732
 30
0
  0
VERTEX
  5
55
  8
LAYER_1
  6
BYLAYER
 62
    7
 10
77.35188165621283
 20
182.7747078963821
 30
0
  0
VERTEX
  5
56
  8
LAYER_1
  6
BYLAYER
 62
    7
 10
76.9984357365788
 20
182.9411850167563
 30
0
  0
VERTEX
  5
57
  8
LAYER_1
  6
BYLAYER
 62
    7
 10
76.63917535728815
 20
183.0949710449634
 30
0
  0
VERTEX
  5
58
  8
LAYER_1
  6
BYLAYER
 62
    7
 10
76.27458391119298
 20
183.2358000817707
 30
0
  0
VERTEX
  5
59
  8
LAYER_1
  6
BYLAYER
 62
    7
 10
75.90514479114522
 20
183.3634062279454
 30
0
  0
VERTEX
  5
5A
  8
LAYER_1
  6
BYLAYER
 62
    7
 10
75.531341389997
 20
183.4775235842552
 30
0
  0
VERTEX
  5
5B
  8
LAYER_1
  6
BYLAYER
 62
    7
 10
75.15365710060024
 20
183.5778862514672
 30
0
  0
VERTEX
  5
5C
  8
LAYER_1
  6
BYLAYER
 62
    7
 10
74.77257531580707
 20
183.664228330349
 30
0
  0
VERTEX
  5
5D
  8
LAYER_1
  6
BYLAYER
 62
    7
 10
74.38858064021223
 20
183.7362902572661
 30
0
  0
VERTEX
  5
5E
  8
LAYER_1
  6
BYLAYER
 62
    7
 10
74.00218276725393
 20
183.7939436456278
 30
0
  0
VERTEX
  5
5F
  8
LAYER_1
  6
BYLAYER
 62
    7
 10
73.61391502494882
 20
183.837183682261
 30
0
  0
VERTEX
  5
60
  8
LAYER_1
  6
BYLAYER
 62
    7
 10
73.2243116618782
 20
183.8660103671656
 30
0
  0
VERTEX
  5
61
  8
LAYER_1
  6
BYLAYER
 62
    7
 10
72.83390692662331
 20
183.8804237003416
 30
0
  0
VERTEX
  5
62
  8
LAYER_1
  6
BYLAYER
 62
    7
 10
72.44323506776546
 20
183.8804236817891
 30
0
  0
VERTEX
  5
63
  8
LAYER_1
  6
BYLAYER
 62
    7
 10
72.05283033388594
 20
183.8660103115081
 30
0
  0
VERTEX
  5
64
  8
LAYER_1
  6
BYLAYER
 62
    7
 10
71.66322697356598
 20
183.8371835894984
 30
0
  0
VERTEX
  5
65
  8
LAYER_1
  6
BYLAYER
 62
    7
 10
71.2749592353869
 20
183.7939435157603
 30
0
  0
VERTEX
  5
66
  8
LAYER_1
  6
BYLAYER
 62
    7
 10
70.88856136792998
 20
183.7362900902936
 30
0
  0
VERTEX
  5
67
  8
LAYER_1
  6
BYLAYER
 62
    7
 10
70.50456669920096
 20
183.6642281263531
 30
0
  0
VERTEX
  5
68
  8
LAYER_1
  6
BYLAYER
 62
    7
 10
70.12348492264688
 20
183.5778860111414
 30
0
  0
VERTEX
  5
69
  8
LAYER_1
  6
BYLAYER
 62
    7
 10
69.74580064306089
 20
183.4775233085861
 30
0
  0
VERTEX
  5
6A
  8
LAYER_1
  6
BYLAYER
 62
    7
 10
69.37199725351648
 20
183.3634059181242
 30
0
  0
VERTEX
  5
6B
  8
LAYER_1
  6
BYLAYER
 62
    7
 10
69.00255814708727
 20
183.2357997391932
 30
0
  0
VERTEX
  5
6C
  8
LAYER_1
  6
BYLAYER
 62
    7
 10
68.63796671684675
 20
183.0949706712301
 30
0
  0
VERTEX
  5
6D
  8
LAYER_1
  6
BYLAYER
 62
    7
 10
68.27870635586847
 20
182.9411846136722
 30
0
  0
VERTEX
  5
6E
  8
LAYER_1
  6
BYLAYER
 62
    7
 10
67.92526045722599
 20
182.7747074659565
 30
0
  0
VERTEX
  5
6F
  8
LAYER_1
  6
BYLAYER
 62
    7
 10
67.57811241399283
 20
182.5958051275204
 30
0
  0
VERTEX
  5
70
  8
LAYER_1
  6
BYLAYER
 62
    7
 10
67.23774561924253
 20
182.404743497801
 30
0
  0
VERTEX
  5
71
  8
LAYER_1
  6
BYLAYER
 62
    7
 10
66.90464310895013
 20
182.2017885986178
 30
0
  0
VERTEX
  5
72
  8
LAYER_1
  6
BYLAYER
 62
    7
 10
66.57919738705093
 20
181.987237478344
 30
0
  0
VERTEX
  5
73
  8
LAYER_1
  6
BYLAYER
 62
    7
 10
66.26159115020705
 20
181.7614590891396
 30
0
  0
VERTEX
  5
74
  8
LAYER_1
  6
BYLAYER
 62
    7
 10
65.95197745416287
 20
181.5248325415081
 30
0
  0
VERTEX
  5
75
  8
LAYER_1
  6
BYLAYER
 62
    7
 10
65.65050935466265
 20
181.2777369459526
 30
0
  0
VERTEX
  5
76
  8
LAYER_1
  6
BYLAYER
 62
    7
 10
65.35733990745075
 20
181.0205514129764
 30
0
  0
VERTEX
  5
77
  8
LAYER_1
  6
BYLAYER
 62
    7
 10
65.07262216827154
 20
180.7536550530827
 30
0
  0
VERTEX
  5
78
  8
LAYER_1
  6
BYLAYER
 62
    7
 10
64.79650919286934
 20
180.4774269767748
 30
0
  0
VERTEX
  5
79
  8
LAYER_1
  6
BYLAYER
 62
    7
 10
64.52915403698849
 20
180.192246294556
 30
0
  0
VERTEX
  5
7A
  8
LAYER_1
  6
BYLAYER
 62
    7
 10
64.27070975637335
 20
179.8984921169294
 30
0
  0
VERTEX
  5
7B
  8
LAYER_1
  6
BYLAYER
 62
    7
 10
64.02132940676823
 20
179.5965435543985
 30
0
  0
VERTEX
  5
7C
  8
LAYER_1
  6
BYLAYER
 62
    7
 10
63.78118077319672
 20
179.28677924526
 30
0
  0
VERTEX
  5
7D
  8
LAYER_1
  6
BYLAYER
 62
    7
 10
63.55061556116152
 20
178.9695719314985
 30
0
  0
VERTEX
  5
7E
  8
LAYER_1
  6
BYLAYER
 62
    7
 10
63.33011045348869
 20
178.645290348447
 30
0
  0
VERTEX
  5
7F
  8
LAYER_1
  6
BYLAYER
 62
    7
 10
63.12014451918234
 20
178.3143031549398
 30
0
  0
VERTEX
  5
80
  8
LAYER_1
  6
BYLAYER
 62
    7
 10
62.92119682724655
 20
177.9769790098111
 30
0
  0
VERTEX
  5
81
  8
LAYER_1
  6
BYLAYER
 62
    7
 10
62.73374644668544
 20
177.6336865718954
 30
0
  0
VERTEX
  5
82
  8
LAYER_1
  6
BYLAYER
 62
    7
 10
62.55827244650307
 20
177.2847945000268
 30
0
  0
VERTEX
  5
83
  8
LAYER_1
  6
BYLAYER
 62
    7
 10
62.39525389570356
 20
176.9306714530398
 30
0
  0
VERTEX
  5
84
  8
LAYER_1
  6
BYLAYER
 62
    7
 10
62.24516986329101
 20
176.5716860897687
 30
0
  0
VERTEX
  5
85
  8
LAYER_1
  6
BYLAYER
 62
    7
 10
62.10849941826952
 20
176.2082070690476
 30
0
  0
VERTEX
  5
86
  8
LAYER_1
  6
BYLAYER
 62
    7
 10
61.98572162964317
 20
175.8406030497111
 30
0
  0
VERTEX
  5
87
  8
LAYER_1
  6
BYLAYER
 62
    7
 10
61.87702769382612
 20
175.4692383098155
 30
0
  0
VERTEX
  5
88
  8
LAYER_1
  6
BYLAYER
 62
    7
 10
61.78141741634719
 20
175.0944589971091
 30
0
  0
VERTEX
  5
89
  8
LAYER_1
  6
BYLAYER
 62
    7
 10
61.69758243664926
 20
174.7166065697405
 30
0
  0
VERTEX
  5
8A
  8
LAYER_1
  6
BYLAYER
 62
    7
 10
61.62421439373914
 20
174.3360224858518
 30
0
  0
VERTEX
  5
8B
  8
LAYER_1
  6
BYLAYER
 62
    7
 10
61.56000492662365
 20
173.9530482035851
 30
0
  0
VERTEX
  5
8C
  8
LAYER_1
  6
BYLAYER
 62
    7
 10
61.50364567430961
 20
173.5680251810823
 30
0
  0
VERTEX
  5
8D
  8
LAYER_1
  6
BYLAYER
 62
    7
 10
61.45382827580384
 20
173.1812948764856
 30
0
  0
VERTEX
  5
8E
  8
LAYER_1
  6
BYLAYER
 62
    7
 10
61.40924437011319
 20
172.7931987479369
 30
0
  0
VERTEX
  5
8F
  8
LAYER_1
  6
BYLAYER
 62
    7
 10
61.36858559624444
 20
172.4040782535784
 30
0
  0
VERTEX
  5
90
  8
LAYER_1
  6
BYLAYER
 62
    7
 10
61.33054359320444
 20
172.0142748515521
 30
0
  0
VERTEX
  5
91
  8
LAYER_1
  6
BYLAYER
 62
    7
 10
61.29381
 20
171.62413
 30
0
  0
SEQEND
  5
92
  8
LAYER_1
  6
BYLAYER
 62
    7
  0
ENDSEC
  0
EOF
