  0
SECTION
  2
HEADER
  9
$ACADVER
  1
AC1014
  9
$HANDSEED
  5
FFFF
  9
$MEASUREMENT
 70
     1
  0
ENDSEC
  0
SECTION
  2
TABLES
  0
TABLE
  2
VPORT
  5
8
330
0
100
AcDbSymbolTable
 70
     4
  0
VPORT
  5
2E
330
8
100
AcDbSymbolTableRecord
100
AcDbViewportTableRecord
  2
*ACTIVE
 70
     0
 10
0.0
 20
0.0
 11
1.0
 21
1.0
 12
210.0
 22
148.5
 13
0.0
 23
0.0
 14
10.0
 24
10.0
 15
10.0
 25
10.0
 16
0.0
 26
0.0
 36
1.0
 17
0.0
 27
0.0
 37
0.0
 40
341.0
 41
1.24
 42
50.0
 43
0.0
 44
0.0
 50
0.0
 51
0.0
 71
     0
 72
   100
 73
     1
 74
     3
 75
     0
 76
     0
 77
     0
 78
     0
  0
ENDTAB
  0
TABLE
  2
LTYPE
  5
5
330
0
100
AcDbSymbolTable
 70
     1
  0
LTYPE
  5
14
330
5
100
AcDbSymbolTableRecord
100
AcDbLinetypeTableRecord
  2
BYBLOCK
 70
     0
  3

 72
    65
 73
     0
 40
0.0
  0
LTYPE
  5
15
330
5
100
AcDbSymbolTableRecord
100
AcDbLinetypeTableRecord
  2
BYLAYER
 70
     0
  3

 72
    65
 73
     0
 40
0.0
  0
LTYPE
  5
16
330
5
100
AcDbSymbolTableRecord
100
AcDbLinetypeTableRecord
  2
CONTINUOUS
 70
     0
  3
Solid line
 72
    65
 73
     0
 40
0.0
  0
ENDTAB
  0
TABLE
  2
LAYER
  5
2
100
AcDbSymbolTable
 70
2
  0
LAYER
  5
50
100
AcDbSymbolTableRecord
100
AcDbLayerTableRecord
  2
0
 70
0
  6
CONTINUOUS
  0
LAYER
  5
51
100
AcDbSymbolTableRecord
100
AcDbLayerTableRecord
  2
layer_outline
 70
0
  6
CONTINUOUS
  0
ENDTAB
  0
TABLE
  2
STYLE
  5
3
330
0
100
AcDbSymbolTable
 70
     1
  0
STYLE
  5
11
330
3
100
AcDbSymbolTableRecord
100
AcDbTextStyleTableRecord
  2
STANDARD
 70
     0
 40
0.0
 41
1.0
 50
0.0
 71
     0
 42
2.5
  3
txt
  4

  0
ENDTAB
  0
TABLE
  2
VIEW
  5
6
330
0
100
AcDbSymbolTable
 70
     0
  0
ENDTAB
  0
TABLE
  2
UCS
  5
7
330
0
100
AcDbSymbolTable
 70
     0
  0
ENDTAB
  0
TABLE
  2
APPID
  5
9
330
0
100
AcDbSymbolTable
 70
     2
  0
APPID
  5
12
330
9
100
AcDbSymbolTableRecord
100
AcDbRegAppTableRecord
  2
ACAD
 70
     0
  0
ENDTAB
  0
TABLE
  2
DIMSTYLE
  5
A
330
0
100
AcDbSymbolTable
 70
     1
  0
DIMSTYLE
105
27
330
A
100
AcDbSymbolTableRecord
100
AcDbDimStyleTableRecord
  2
ISO-25
 70
     0
  3

  4

  5

  6

  7

 40
1.0
 41
2.5
 42
0.625
 43
3.75
 44
1.25
 45
0.0
 46
0.0
 47
0.0
 48
0.0
140
2.5
141
2.5
142
0.0
143
0.03937007874016
144
1.0
145
0.0
146
1.0
147
0.625
 71
     0
 72
     0
 73
     0
 74
     0
 75
     0
 76
     0
 77
     1
 78
     8
170
     0
171
     3
172
     1
173
     0
174
     0
175
     0
176
     0
177
     0
178
     0
270
     2
271
     2
272
     2
273
     2
274
     3
340
11
275
     0
280
     0
281
     0
282
     0
283
     0
284
     8
285
     0
286
     0
287
     3
288
     0
  0
ENDTAB
  0
TABLE
  2
BLOCK_RECORD
  5
1
330
0
100
AcDbSymbolTable
 70
     1
  0
BLOCK_RECORD
  5
1F
330
1
100
AcDbSymbolTableRecord
100
AcDbBlockTableRecord
  2
*MODEL_SPACE
  0
BLOCK_RECORD
  5
1B
330
1
100
AcDbSymbolTableRecord
100
AcDbBlockTableRecord
  2
*PAPER_SPACE
  0
ENDTAB
  0
ENDSEC
  0
SECTION
  2
BLOCKS
  0
BLOCK
  5
20
330
1F
100
AcDbEntity
  8
0
100
AcDbBlockBegin
  2
*MODEL_SPACE
 70
     0
 10
0.0
 20
0.0
 30
0.0
  3
*MODEL_SPACE
  1

  0
ENDBLK
  5
21
330
1F
100
AcDbEntity
  8
0
100
AcDbBlockEnd
  0
BLOCK
  5
1C
330
1B
100
AcDbEntity
 67
     1
  8
0
100
AcDbBlockBegin
  2
*PAPER_SPACE
  1

  0
ENDBLK
  5
1D
330
1B
100
AcDbEntity
 67
     1
  8
0
100
AcDbBlockEnd
  0
ENDSEC
  0
SECTION
  2
ENTITIES
  0
SPLINE
  5
100
100
AcDbEntity
  8
layer_outline
 62
7
100
AcDbSpline
 70
0
 71
3
 72
16
 73
12
 74
10
 40
0.000000
 40
0.000000
 40
0.000000
 40
0.000000
 40
4.129736
 40
8.209399
 40
12.362274
 40
16.527487
 40
20.637840
 40
24.803053
 40
28.955928
 40
33.035589
 40
37.165325
 40
37.165325
 40
37.165325
 40
37.165325
 10
47.847092
 20
187.587324
 30
0.0
 10
47.704051
 20
186.203619
 30
0.0
 10
47.419704
 20
183.452987
 30
0.0
 10
45.216408
 20
179.822349
 30
0.0
 10
41.995144
 20
177.126417
 30
0.0
 10
38.009833
 20
175.698201
 30
0.0
 10
33.784858
 20
175.698202
 30
0.0
 10
29.799548
 20
177.126420
 30
0.0
 10
26.578284
 20
179.822351
 30
0.0
 10
24.374989
 20
183.452988
 30
0.0
 10
24.090641
 20
186.203620
 30
0.0
 10
23.947599
 20
187.587324
 30
0.0
 11
47.847092
 21
187.587324
 31
0.0
 11
47.119665
 21
183.522158
 31
0.0
 11
45.064489
 21
179.997971
 31
0.0
 11
41.872219
 21
177.341698
 31
0.0
 11
37.952522
 21
175.932807
 31
0.0
 11
33.842169
 21
175.932808
 31
0.0
 11
29.922473
 21
177.341701
 31
0.0
 11
26.730203
 21
179.997973
 31
0.0
 11
24.675027
 21
183.522159
 31
0.0
 11
23.947599
 21
187.587324
 31
0.0
  0
SPLINE
  5
101
100
AcDbEntity
  8
layer_outline
 62
7
100
AcDbSpline
 70
0
 71
3
 72
16
 73
12
 74
10
 40
0.000000
 40
0.000000
 40
0.000000
 40
0.000000
 40
4.129735
 40
8.209397
 40
12.362271
 40
16.527484
 40
20.637837
 40
24.803050
 40
28.955925
 40
33.035586
 40
37.165322
 40
37.165322
 40
37.165322
 40
37.165322
 10
47.847092
 20
249.880164
 30
0.0
 10
47.704051
 20
251.263868
 30
0.0
 10
47.419703
 20
254.014499
 30
0.0
 10
45.216408
 20
257.645137
 30
0.0
 10
41.995144
 20
260.341068
 30
0.0
 10
38.009833
 20
261.769285
 30
0.0
 10
33.784859
 20
261.769285
 30
0.0
 10
29.799548
 20
260.341068
 30
0.0
 10
26.578284
 20
257.645137
 30
0.0
 10
24.374989
 20
254.014499
 30
0.0
 10
24.090641
 20
251.263868
 30
0.0
 10
23.947599
 20
249.880164
 30
0.0
 11
47.847092
 21
249.880164
 31
0.0
 11
47.119665
 21
253.945328
 31
0.0
 11
45.064488
 21
257.469514
 31
0.0
 11
41.872219
 21
260.125787
 31
0.0
 11
37.952522
 21
261.534679
 31
0.0
 11
33.842169
 21
261.534679
 31
0.0
 11
29.922473
 21
260.125787
 31
0.0
 11
26.730203
 21
257.469514
 31
0.0
 11
24.675027
 21
253.945328
 31
0.0
 11
23.947599
 21
249.880164
 31
0.0
  0
LWPOLYLINE
  5
102
100
AcDbEntity
  8
layer_outline
 62
7
100
AcDbPolyline
 90
2
 70
0
 10
47.852025
 20
187.601319
 30
0.0
 10
47.852025
 20
187.601319
 30
0.0
  0
SPLINE
  5
103
100
AcDbEntity
  8
layer_outline
 62
7
100
AcDbSpline
 70
0
 71
3
 72
10
 73
6
 74
4
 40
0.000000
 40
0.000000
 40
0.000000
 40
0.000000
 40
43.846806
 40
60.000892
 40
62.308619
 40
62.308619
 40
62.308619
 40
62.308619
 10
47.851179
 20
249.909938
 30
0.0
 10
47.851377
 20
235.294336
 30
0.0
 10
47.851649
 20
215.294039
 30
0.0
 10
47.851931
 20
194.524499
 30
0.0
 10
47.852015
 20
188.370562
 30
0.0
 10
47.852025
 20
187.601319
 30
0.0
 11
47.851179
 21
249.909938
 31
0.0
 11
47.851774
 21
206.063132
 31
0.0
 11
47.851994
 21
189.909046
 31
0.0
 11
47.852025
 21
187.601319
 31
0.0
  0
LWPOLYLINE
  5
104
100
AcDbEntity
  8
layer_outline
 62
7
100
AcDbPolyline
 90
3
 70
0
 10
23.946186
 20
249.864390
 30
0.0
 10
23.946276
 20
187.593183
 30
0.0
 10
23.946276
 20
187.593183
 30
0.0
  0
ENDSEC
  0
SECTION
  2
OBJECTS
  0
DICTIONARY
  5
C
330
0
100
AcDbDictionary
  3
ACAD_GROUP
350
D
  3
ACAD_MLINESTYLE
350
17
  0
DICTIONARY
  5
D
330
C
100
AcDbDictionary
  0
DICTIONARY
  5
1A
330
C
100
AcDbDictionary
  0
DICTIONARY
  5
17
330
C
100
AcDbDictionary
  3
STANDARD
350
18
  0
DICTIONARY
  5
19
330
C
100
AcDbDictionary
  0
ENDSEC
  0
EOF
