  0
SECTION
  2
HEADER
  9
$ACADVER
  1
AC1014
  9
$HANDSEED
  5
FFFF
  9
$MEASUREMENT
 70
     1
  0
ENDSEC
  0
SECTION
  2
TABLES
  0
TABLE
  2
VPORT
  5
8
330
0
100
AcDbSymbolTable
 70
     4
  0
VPORT
  5
2E
330
8
100
AcDbSymbolTableRecord
100
AcDbViewportTableRecord
  2
*ACTIVE
 70
     0
 10
0.0
 20
0.0
 11
1.0
 21
1.0
 12
210.0
 22
148.5
 13
0.0
 23
0.0
 14
10.0
 24
10.0
 15
10.0
 25
10.0
 16
0.0
 26
0.0
 36
1.0
 17
0.0
 27
0.0
 37
0.0
 40
341.0
 41
1.24
 42
50.0
 43
0.0
 44
0.0
 50
0.0
 51
0.0
 71
     0
 72
   100
 73
     1
 74
     3
 75
     0
 76
     0
 77
     0
 78
     0
  0
ENDTAB
  0
TABLE
  2
LTYPE
  5
5
330
0
100
AcDbSymbolTable
 70
     1
  0
LTYPE
  5
14
330
5
100
AcDbSymbolTableRecord
100
AcDbLinetypeTableRecord
  2
BYBLOCK
 70
     0
  3

 72
    65
 73
     0
 40
0.0
  0
LTYPE
  5
15
330
5
100
AcDbSymbolTableRecord
100
AcDbLinetypeTableRecord
  2
BYLAYER
 70
     0
  3

 72
    65
 73
     0
 40
0.0
  0
LTYPE
  5
16
330
5
100
AcDbSymbolTableRecord
100
AcDbLinetypeTableRecord
  2
CONTINUOUS
 70
     0
  3
Solid line
 72
    65
 73
     0
 40
0.0
  0
ENDTAB
  0
TABLE
  2
LAYER
  5
2
100
AcDbSymbolTable
 70
2
  0
LAYER
  5
50
100
AcDbSymbolTableRecord
100
AcDbLayerTableRecord
  2
0
 70
0
  6
CONTINUOUS
  0
LAYER
  5
51
100
AcDbSymbolTableRecord
100
AcDbLayerTableRecord
  2
Layer_1
 70
0
  6
CONTINUOUS
  0
ENDTAB
  0
TABLE
  2
STYLE
  5
3
330
0
100
AcDbSymbolTable
 70
     1
  0
STYLE
  5
11
330
3
100
AcDbSymbolTableRecord
100
AcDbTextStyleTableRecord
  2
STANDARD
 70
     0
 40
0.0
 41
1.0
 50
0.0
 71
     0
 42
2.5
  3
txt
  4

  0
ENDTAB
  0
TABLE
  2
VIEW
  5
6
330
0
100
AcDbSymbolTable
 70
     0
  0
ENDTAB
  0
TABLE
  2
UCS
  5
7
330
0
100
AcDbSymbolTable
 70
     0
  0
ENDTAB
  0
TABLE
  2
APPID
  5
9
330
0
100
AcDbSymbolTable
 70
     2
  0
APPID
  5
12
330
9
100
AcDbSymbolTableRecord
100
AcDbRegAppTableRecord
  2
ACAD
 70
     0
  0
ENDTAB
  0
TABLE
  2
DIMSTYLE
  5
A
330
0
100
AcDbSymbolTable
 70
     1
  0
DIMSTYLE
105
27
330
A
100
AcDbSymbolTableRecord
100
AcDbDimStyleTableRecord
  2
ISO-25
 70
     0
  3

  4

  5

  6

  7

 40
1.0
 41
2.5
 42
0.625
 43
3.75
 44
1.25
 45
0.0
 46
0.0
 47
0.0
 48
0.0
140
2.5
141
2.5
142
0.0
143
0.03937007874016
144
1.0
145
0.0
146
1.0
147
0.625
 71
     0
 72
     0
 73
     0
 74
     0
 75
     0
 76
     0
 77
     1
 78
     8
170
     0
171
     3
172
     1
173
     0
174
     0
175
     0
176
     0
177
     0
178
     0
270
     2
271
     2
272
     2
273
     2
274
     3
340
11
275
     0
280
     0
281
     0
282
     0
283
     0
284
     8
285
     0
286
     0
287
     3
288
     0
  0
ENDTAB
  0
TABLE
  2
BLOCK_RECORD
  5
1
330
0
100
AcDbSymbolTable
 70
     1
  0
BLOCK_RECORD
  5
1F
330
1
100
AcDbSymbolTableRecord
100
AcDbBlockTableRecord
  2
*MODEL_SPACE
  0
BLOCK_RECORD
  5
1B
330
1
100
AcDbSymbolTableRecord
100
AcDbBlockTableRecord
  2
*PAPER_SPACE
  0
ENDTAB
  0
ENDSEC
  0
SECTION
  2
BLOCKS
  0
BLOCK
  5
20
330
1F
100
AcDbEntity
  8
0
100
AcDbBlockBegin
  2
*MODEL_SPACE
 70
     0
 10
0.0
 20
0.0
 30
0.0
  3
*MODEL_SPACE
  1

  0
ENDBLK
  5
21
330
1F
100
AcDbEntity
  8
0
100
AcDbBlockEnd
  0
BLOCK
  5
1C
330
1B
100
AcDbEntity
 67
     1
  8
0
100
AcDbBlockBegin
  2
*PAPER_SPACE
  1

  0
ENDBLK
  5
1D
330
1B
100
AcDbEntity
 67
     1
  8
0
100
AcDbBlockEnd
  0
ENDSEC
  0
SECTION
  2
ENTITIES
  0
SPLINE
  5
100
100
AcDbEntity
  8
Layer_1
 62
7
100
AcDbSpline
 70
0
 71
3
 72
16
 73
12
 74
10
 40
0.000000
 40
0.000000
 40
0.000000
 40
0.000000
 40
4.211545
 40
8.308100
 40
12.377716
 40
16.369257
 40
20.273135
 40
24.264676
 40
28.334291
 40
32.430845
 40
36.642389
 40
36.642389
 40
36.642389
 40
36.642389
 10
90.674901
 20
84.297496
 30
0.0
 10
90.540786
 20
82.887160
 30
0.0
 10
90.276218
 20
80.104994
 30
0.0
 10
88.209168
 20
76.403657
 30
0.0
 10
85.157789
 20
73.630553
 30
0.0
 10
81.350908
 20
72.147664
 30
0.0
 10
77.299941
 20
72.147665
 30
0.0
 10
73.493061
 20
73.630556
 30
0.0
 10
70.441683
 20
76.403659
 30
0.0
 10
68.374633
 20
80.104995
 30
0.0
 10
68.110064
 20
82.887160
 30
0.0
 10
67.975948
 20
84.297496
 30
0.0
 11
90.674901
 21
84.297496
 31
0.0
 11
89.984015
 21
80.143006
 31
0.0
 11
88.032076
 21
76.541381
 31
0.0
 11
85.000163
 21
73.826741
 31
0.0
 11
81.277364
 21
72.386892
 31
0.0
 11
77.373485
 21
72.386893
 31
0.0
 11
73.650687
 21
73.826744
 31
0.0
 11
70.618774
 21
76.541383
 31
0.0
 11
68.666835
 21
80.143007
 31
0.0
 11
67.975948
 21
84.297496
 31
0.0
  0
SPLINE
  5
101
100
AcDbEntity
  8
Layer_1
 62
7
100
AcDbSpline
 70
0
 71
3
 72
16
 73
12
 74
10
 40
0.000000
 40
0.000000
 40
0.000000
 40
0.000000
 40
4.211545
 40
8.308100
 40
12.377716
 40
16.369258
 40
20.273137
 40
24.264679
 40
28.334295
 40
32.430850
 40
36.642395
 40
36.642395
 40
36.642395
 40
36.642395
 10
90.680165
 20
136.911426
 30
0.0
 10
90.546050
 20
138.321762
 30
0.0
 10
90.281481
 20
141.103927
 30
0.0
 10
88.214431
 20
144.805265
 30
0.0
 10
85.163052
 20
147.578368
 30
0.0
 10
81.356171
 20
149.061259
 30
0.0
 10
77.305203
 20
149.061259
 30
0.0
 10
73.498321
 20
147.578368
 30
0.0
 10
70.446943
 20
144.805265
 30
0.0
 10
68.379892
 20
141.103927
 30
0.0
 10
68.115324
 20
138.321762
 30
0.0
 10
67.981209
 20
136.911426
 30
0.0
 11
90.680165
 21
136.911426
 31
0.0
 11
89.989279
 21
141.065916
 31
0.0
 11
88.037340
 21
144.667540
 31
0.0
 11
85.005426
 21
147.382181
 31
0.0
 11
81.282626
 21
148.822031
 31
0.0
 11
77.378747
 21
148.822031
 31
0.0
 11
73.655947
 21
147.382181
 31
0.0
 11
70.624034
 21
144.667540
 31
0.0
 11
68.672095
 21
141.065916
 31
0.0
 11
67.981209
 21
136.911426
 31
0.0
  0
SPLINE
  5
102
100
AcDbEntity
  8
Layer_1
 62
7
100
AcDbSpline
 70
0
 71
3
 72
10
 73
6
 74
4
 40
0.000000
 40
0.000000
 40
0.000000
 40
0.000000
 40
37.137033
 40
50.819098
 40
52.773679
 40
52.773679
 40
52.773679
 40
52.773679
 10
67.977416
 20
136.877768
 30
0.0
 10
67.977416
 20
124.498757
 30
0.0
 10
67.977416
 20
107.559057
 30
0.0
 10
67.977416
 20
89.967831
 30
0.0
 10
67.977416
 20
84.755616
 30
0.0
 10
67.977416
 20
84.104089
 30
0.0
 11
67.977416
 21
136.877768
 31
0.0
 11
67.977416
 21
99.740735
 31
0.0
 11
67.977416
 21
86.058670
 31
0.0
 11
67.977416
 21
84.104089
 31
0.0
  0
SPLINE
  5
103
100
AcDbEntity
  8
Layer_1
 62
7
100
AcDbSpline
 70
0
 71
3
 72
10
 73
6
 74
4
 40
0.000000
 40
0.000000
 40
0.000000
 40
0.000000
 40
37.204508
 40
50.835192
 40
52.744807
 40
52.744807
 40
52.744807
 40
52.744807
 10
90.673767
 20
136.877779
 30
0.0
 10
90.673767
 20
124.476277
 30
0.0
 10
90.673767
 20
107.531213
 30
0.0
 10
90.673767
 20
89.949610
 30
0.0
 10
90.673767
 20
84.769510
 30
0.0
 10
90.673767
 20
84.132972
 30
0.0
 11
90.673767
 21
136.877779
 31
0.0
 11
90.673767
 21
99.673272
 31
0.0
 11
90.673767
 21
86.042587
 31
0.0
 11
90.673767
 21
84.132972
 31
0.0
  0
ENDSEC
  0
SECTION
  2
OBJECTS
  0
DICTIONARY
  5
C
330
0
100
AcDbDictionary
  3
ACAD_GROUP
350
D
  3
ACAD_MLINESTYLE
350
17
  0
DICTIONARY
  5
D
330
C
100
AcDbDictionary
  0
DICTIONARY
  5
1A
330
C
100
AcDbDictionary
  0
DICTIONARY
  5
17
330
C
100
AcDbDictionary
  3
STANDARD
350
18
  0
DICTIONARY
  5
19
330
C
100
AcDbDictionary
  0
ENDSEC
  0
EOF
