<?xml version="1.0" encoding="UTF-8" standalone="no"?>
<!-- Created with Inkscape (http://www.inkscape.org/) -->

<svg
   xmlns:dc="http://purl.org/dc/elements/1.1/"
   xmlns:cc="http://creativecommons.org/ns#"
   xmlns:rdf="http://www.w3.org/1999/02/22-rdf-syntax-ns#"
   xmlns:svg="http://www.w3.org/2000/svg"
   xmlns="http://www.w3.org/2000/svg"
   xmlns:sodipodi="http://sodipodi.sourceforge.net/DTD/sodipodi-0.dtd"
   xmlns:inkscape="http://www.inkscape.org/namespaces/inkscape"
   version="1.0"
   width="300"
   height="300"
   id="svg2501"
   style="display:inline"
   inkscape:version="0.91 r13725"
   sodipodi:docname="Hackaday_Logo.svg">
  <metadata
     id="metadata4781">
    <rdf:RDF>
      <cc:Work
         rdf:about="">
        <dc:format>image/svg+xml</dc:format>
        <dc:type
           rdf:resource="http://purl.org/dc/dcmitype/StillImage" />
      </cc:Work>
    </rdf:RDF>
  </metadata>
  <sodipodi:namedview
     pagecolor="#ffffff"
     bordercolor="#666666"
     borderopacity="1"
     objecttolerance="10"
     gridtolerance="10"
     guidetolerance="10"
     inkscape:pageopacity="0"
     inkscape:pageshadow="2"
     inkscape:window-width="1280"
     inkscape:window-height="737"
     id="namedview4779"
     showgrid="false"
     inkscape:zoom="3.1466667"
     inkscape:cx="37.101408"
     inkscape:cy="31.685665"
     inkscape:window-x="-4"
     inkscape:window-y="-4"
     inkscape:window-maximized="1"
     inkscape:current-layer="layer4" />
  <defs
     id="defs2504">
    <filter
       id="filter5076">
      <feGaussianBlur
         inkscape:collect="always"
         stdDeviation="0.15793104"
         id="feGaussianBlur5078" />
    </filter>
    <filter
       id="filter5084">
      <feGaussianBlur
         inkscape:collect="always"
         stdDeviation="0.14620583"
         id="feGaussianBlur5086" />
    </filter>
    <filter
       id="filter5092">
      <feGaussianBlur
         inkscape:collect="always"
         stdDeviation="0.14620583"
         id="feGaussianBlur5094" />
    </filter>
    <filter
       id="filter5096">
      <feGaussianBlur
         inkscape:collect="always"
         stdDeviation="0.14620583"
         id="feGaussianBlur5098" />
    </filter>
    <filter
       id="filter5104">
      <feGaussianBlur
         inkscape:collect="always"
         stdDeviation="0.11379095"
         id="feGaussianBlur5106" />
    </filter>
    <filter
       id="filter5112">
      <feGaussianBlur
         inkscape:collect="always"
         stdDeviation="0.23733402"
         id="feGaussianBlur5114" />
    </filter>
    <filter
       id="filter5120">
      <feGaussianBlur
         inkscape:collect="always"
         stdDeviation="0.23733402"
         id="feGaussianBlur5122" />
    </filter>
    <filter
       id="filter5144">
      <feGaussianBlur
         inkscape:collect="always"
         stdDeviation="0.37132122"
         id="feGaussianBlur5146" />
    </filter>
    <filter
       id="filter5158">
      <feGaussianBlur
         inkscape:collect="always"
         stdDeviation="0.37132122"
         id="feGaussianBlur5160" />
    </filter>
    <filter
       id="filter5205">
      <feGaussianBlur
         inkscape:collect="always"
         stdDeviation="0.34722241"
         id="feGaussianBlur5207" />
    </filter>
    <filter
       id="filter5224">
      <feGaussianBlur
         inkscape:collect="always"
         stdDeviation="0.41331904"
         id="feGaussianBlur5226" />
    </filter>
    <filter
       id="filter5232">
      <feGaussianBlur
         inkscape:collect="always"
         stdDeviation="0.34722241"
         id="feGaussianBlur5234" />
    </filter>
    <filter
       id="filter5240">
      <feGaussianBlur
         inkscape:collect="always"
         stdDeviation="0.34273968"
         id="feGaussianBlur5242" />
    </filter>
    <filter
       id="filter5264">
      <feGaussianBlur
         inkscape:collect="always"
         stdDeviation="0.31453825"
         id="feGaussianBlur5266" />
    </filter>
    <filter
       id="filter5277">
      <feGaussianBlur
         inkscape:collect="always"
         stdDeviation="0.3145382"
         id="feGaussianBlur5279" />
    </filter>
  </defs>
  <g
     inkscape:groupmode="layer"
     id="layer3"
     inkscape:label="layer_bg" />
  <g
     inkscape:groupmode="layer"
     id="layer4"
     inkscape:label="layer_logo"
     style="display:inline">
    <g
       id="layer10"
       style="display:inline;fill:#ffffff;fill-opacity:1;stroke:none;stroke-width:0;stroke-miterlimit:4;stroke-dasharray:none;stroke-opacity:1"
       transform="matrix(0.29237288,0,0,0.29237288,1.2711864,213.55932)"
       inkscape:export-xdpi="300"
       inkscape:export-ydpi="300">
      <rect
         width="300"
         height="300"
         x="0"
         y="0"
         id="rect3480"
         style="display:inline;overflow:visible;visibility:visible;opacity:1;fill:#ffffff;fill-opacity:1;fill-rule:evenodd;stroke:none;stroke-width:0;stroke-linecap:butt;stroke-linejoin:miter;stroke-miterlimit:4;stroke-dasharray:none;stroke-dashoffset:0;stroke-opacity:1;marker:none;marker-start:none;marker-mid:none;marker-end:none;enable-background:accumulate" />
    </g>
    <g
       id="layer2"
       style="display:inline;fill:#000000;fill-opacity:1;stroke:none;stroke-width:0;stroke-miterlimit:4;stroke-dasharray:none"
       transform="matrix(0.29237288,0,0,0.29237288,1.2711864,213.55932)"
       inkscape:export-xdpi="300"
       inkscape:export-ydpi="300">
      <path
         inkscape:connector-curvature="0"
         d="m 42,17.9375 c -3.403057,0 -6.682609,0.511974 -9.8125,1.375 L 55.3125,39.875 29.40625,68.625 5.78125,47.6875 C 5.3174547,50.02359 5.0625,52.403343 5.0625,54.875 c 0,20.385286 16.552215,36.937502 36.9375,36.9375 3.895212,-3e-6 7.631023,-0.629395 11.15625,-1.75 l 29.875,26.4375 c 5.675386,-12.33031 14.059969,-22.873775 24.3125,-30.6875 l -28.8125,-25.5 c 0.260026,-1.764087 0.40625,-3.602035 0.40625,-5.4375 l 0,-0.25 C 78.77797,34.342413 62.283216,17.937501 42,17.9375 Z m 177.5,167.125 c -4.76658,12.82036 -12.38246,24.04016 -21.96875,32.6875 l 24.0625,21.3125 c -0.32884,1.97496 -0.53125,3.99501 -0.53125,6.0625 0,20.38529 16.55222,36.93749 36.9375,36.9375 3.68702,10e-6 7.23317,-0.55523 10.59375,-1.5625 l -24.0625,-21.375 25.84375,-28.5625 23.9375,21.25 c 0.40143,-2.17994 0.625,-4.39203 0.625,-6.6875 l 0,-0.3125 c -0.15953,-20.2826 -16.65428,-36.625 -36.9375,-36.625 -3.69785,-1e-5 -7.25649,0.54887 -10.625,1.5625 L 219.5,185.0625 Z"
         id="path3311"
         style="display:inline;overflow:visible;visibility:visible;opacity:1;fill:#000000;fill-opacity:1;fill-rule:evenodd;stroke:none;stroke-width:0;stroke-linecap:butt;stroke-linejoin:miter;stroke-miterlimit:4;stroke-dasharray:none;stroke-dashoffset:0;stroke-opacity:1;marker:none;marker-start:none;marker-mid:none;marker-end:none;enable-background:accumulate" />
      <path
         inkscape:connector-curvature="0"
         d="m 258,17.9375 c -20.28322,1e-6 -36.77797,16.404913 -36.9375,36.6875 l 0,0.25 c 0,1.835465 0.14622,3.673413 0.40625,5.4375 l -28.8125,25.5 c 10.25253,7.813724 18.63711,18.35719 24.3125,30.6875 l 29.875,-26.4375 c 3.52523,1.120605 7.26104,1.749997 11.15625,1.75 20.38528,2e-6 36.9375,-16.552214 36.9375,-36.9375 0,-2.471657 -0.25495,-4.85141 -0.71875,-7.1875 l -23.625,20.9375 -25.90625,-28.75 23.125,-20.5625 C 264.68261,18.449474 261.40306,17.9375 258,17.9375 Z M 80.5,185.0625 52.625,209.75 c -3.36851,-1.01363 -6.92715,-1.56251 -10.625,-1.5625 -20.28322,0 -36.77797,16.3424 -36.9375,36.625 l 0,0.3125 c 0,2.29547 0.22357,4.50756 0.625,6.6875 l 23.9375,-21.25 25.84375,28.5625 -24.0625,21.375 c 3.36058,1.00727 6.90673,1.56251 10.59375,1.5625 20.38528,-10e-6 36.9375,-16.55221 36.9375,-36.9375 0,-2.06749 -0.20241,-4.08754 -0.53125,-6.0625 L 102.46875,217.75 C 92.882464,209.10266 85.266584,197.88286 80.5,185.0625 Z"
         id="path3335"
         style="display:inline;overflow:visible;visibility:visible;opacity:1;fill:#000000;fill-opacity:1;fill-rule:evenodd;stroke:none;stroke-width:0;stroke-linecap:butt;stroke-linejoin:miter;stroke-miterlimit:4;stroke-dasharray:none;stroke-dashoffset:0;stroke-opacity:1;marker:none;marker-start:none;marker-mid:none;marker-end:none;enable-background:accumulate" />
    </g>
    <g
       id="layer12"
       style="display:inline;fill:#000000;fill-opacity:1;stroke:none;stroke-width:0;stroke-miterlimit:4;stroke-dasharray:none;stroke-opacity:1"
       transform="matrix(0.29237288,0,0,0.29237288,1.2711864,213.55932)"
       inkscape:export-xdpi="300"
       inkscape:export-ydpi="300">
      <path
         inkscape:connector-curvature="0"
         d="m 150,77.5 c -38.09944,-2e-6 -68.999999,34.23202 -69,76.46875 -2e-6,26.11684 11.8471,49.17465 29.875,62.96875 -1.18992,2.01969 -1.87601,4.38005 -1.875,6.90625 -0.003,7.42941 5.91632,13.46875 13.21875,13.46875 7.30241,0 13.22172,-6.03934 13.21875,-13.46875 2.1e-4,-0.52917 -0.0355,-1.04926 -0.0937,-1.5625 l 1.8125,0 c -0.1031,0.66012 -0.15653,1.34216 -0.15625,2.03125 -0.003,7.17884 5.81821,13 13,13 7.18176,0 13.00292,-5.82116 13,-13 2.8e-4,-0.68909 -0.0531,-1.37113 -0.15625,-2.03125 l 2.3125,0 c -0.1031,0.66012 -0.15653,1.34216 -0.15625,2.03125 -0.003,7.17884 5.81821,13 13,13 7.18176,0 13.00292,-5.82116 13,-13 0.001,-2.64206 -0.8021,-5.10449 -2.15625,-7.15625 C 207.03109,203.38764 219,180.22229 219,153.96875 219,111.73202 188.09944,77.499999 150,77.5 Z m -29.65625,57.0625 c 3.87737,-0.0153 7.77817,1.2044 11.09375,3.1875 2.84117,2.06946 5.0654,4.90265 6.75,7.96875 1.46294,3.82182 -0.57694,8.18827 -3.65625,10.5625 -2.34781,1.57159 -4.61521,3.41028 -7.375,4.21875 -3.38384,1.11997 -6.57546,2.68864 -9.75,4.28125 -1.55891,0.88308 -2.7279,2.1701 -3.125,3.9375 -1.09591,1.78142 -0.0779,4.15644 -1.28125,5.78125 -1.82312,1.3251 -3.88701,-0.26211 -5.3125,-1.40625 -3.11923,-2.29346 -5.85997,-5.45825 -6.65625,-9.34375 -0.61423,-3.28488 -1.29453,-6.64553 -0.90625,-10 0.0485,-4.06877 1.99529,-7.83575 4.5,-10.9375 2.84521,-3.86756 6.97637,-7.19913 11.875,-7.8125 1.2709,-0.29046 2.55129,-0.4324 3.84375,-0.4375 z m 59.3125,0 c 1.29246,0.005 2.57285,0.14704 3.84375,0.4375 4.89863,0.61337 9.02979,3.94494 11.875,7.8125 2.50471,3.10175 4.4515,6.86873 4.5,10.9375 0.38828,3.35447 -0.29202,6.71512 -0.90625,10 -0.79628,3.8855 -3.53702,7.05029 -6.65625,9.34375 -1.42549,1.14414 -3.48938,2.73135 -5.3125,1.40625 -1.20333,-1.62481 -0.18533,-3.99983 -1.28125,-5.78125 -0.3971,-1.7674 -1.56609,-3.05442 -3.125,-3.9375 -3.17454,-1.59261 -6.36616,-3.16128 -9.75,-4.28125 -2.75979,-0.80847 -5.02719,-2.64716 -7.375,-4.21875 -3.07931,-2.37423 -5.11919,-6.74068 -3.65625,-10.5625 1.6846,-3.0661 3.90883,-5.8993 6.75,-7.96875 3.31558,-1.9831 7.21638,-3.20281 11.09375,-3.1875 z m -29.4375,39.25 c 3.69479,0.10156 7.34295,15.42198 6.40625,21.46875 -3.08233,9.0731 -2.51099,-5.91849 -6.40625,-6.09375 -4.06846,0.0127 -4.82315,14.82175 -6.9375,6.125 -0.66664,-6.57125 3.5692,-21.59258 6.9375,-21.5 z"
         id="path3383"
         style="display:inline;fill:#000000;fill-opacity:1;stroke:none;stroke-width:0;stroke-miterlimit:4;stroke-dasharray:none;stroke-opacity:1" />
    </g>
    <circle
       style="fill:#ffffff;fill-opacity:1;stroke:none;stroke-width:0;stroke-linecap:round;stroke-linejoin:miter;stroke-miterlimit:4;stroke-dasharray:none;stroke-opacity:1"
       id="path5373"
       cx="45.603813"
       cy="258.52753"
       r="22.404659" />
  </g>
</svg>
