G04 #@! TF.GenerationSoftware,KiCad,Pcbnew,(2017-01-24 revision 0b6147e)-makepkg*
G04 #@! TF.CreationDate,2017-06-09T09:58:06-07:00*
G04 #@! TF.ProjectId,POVSpinner,504F565370696E6E65722E6B69636164,rev?*
G04 #@! TF.FileFunction,Legend,Bot*
G04 #@! TF.FilePolarity,Positive*
%FSLAX46Y46*%
G04 Gerber Fmt 4.6, Leading zero omitted, Abs format (unit mm)*
G04 Created by KiCad (PCBNEW (2017-01-24 revision 0b6147e)-makepkg) date 06/09/17 09:58:06*
%MOMM*%
%LPD*%
G01*
G04 APERTURE LIST*
%ADD10C,0.100000*%
%ADD11C,0.150000*%
%ADD12C,0.010000*%
%ADD13R,4.360000X4.360000*%
%ADD14C,3.500000*%
%ADD15R,2.127200X2.127200*%
%ADD16O,2.127200X2.127200*%
%ADD17C,1.300000*%
%ADD18C,1.504000*%
%ADD19C,1.650006*%
%ADD20C,13.100000*%
G04 APERTURE END LIST*
D10*
D11*
X135141000Y-67598000D02*
X135141000Y-58200000D01*
X114059000Y-67598000D02*
X135141000Y-67598000D01*
X114059000Y-58200000D02*
X114059000Y-67598000D01*
X135141000Y-58200000D02*
X135141000Y-53120000D01*
X128283000Y-48294000D02*
X124600000Y-48294000D01*
X124600000Y-48294000D02*
X120917000Y-48294000D01*
X128283000Y-48294000D02*
X135141000Y-53120000D01*
X114059000Y-53120000D02*
X120917000Y-48294000D01*
X114059000Y-58200000D02*
X114059000Y-53120000D01*
X135141000Y-113900000D02*
X135141000Y-118980000D01*
X135141000Y-118980000D02*
X128283000Y-123806000D01*
X120917000Y-123806000D02*
X114059000Y-118980000D01*
X124600000Y-123806000D02*
X128283000Y-123806000D01*
X120917000Y-123806000D02*
X124600000Y-123806000D01*
X114059000Y-113900000D02*
X114059000Y-118980000D01*
X135141000Y-113900000D02*
X135141000Y-104502000D01*
X135141000Y-104502000D02*
X114059000Y-104502000D01*
X114059000Y-104502000D02*
X114059000Y-113900000D01*
D12*
G36*
X127929740Y-80708374D02*
X128319653Y-80927037D01*
X128757533Y-81208749D01*
X129165924Y-81502790D01*
X129277093Y-81590684D01*
X129558832Y-81817107D01*
X129789222Y-81996816D01*
X129938661Y-82107033D01*
X129978916Y-82130667D01*
X130045563Y-82070688D01*
X130202911Y-81905728D01*
X130430162Y-81658245D01*
X130706519Y-81350701D01*
X130830151Y-81211375D01*
X131642967Y-80292084D01*
X132308664Y-80246456D01*
X132988442Y-80143685D01*
X133574224Y-79925901D01*
X134109847Y-79576458D01*
X134142479Y-79550013D01*
X134597315Y-79076407D01*
X134944605Y-78506496D01*
X135169970Y-77878117D01*
X135259030Y-77229114D01*
X135220967Y-76712000D01*
X135169603Y-76525854D01*
X135122118Y-76436520D01*
X135047926Y-76473707D01*
X134884413Y-76618791D01*
X134652588Y-76851210D01*
X134373458Y-77150405D01*
X134235353Y-77304354D01*
X133939865Y-77632813D01*
X133681821Y-77910507D01*
X133482672Y-78115053D01*
X133363864Y-78224066D01*
X133342619Y-78236000D01*
X133264098Y-78182363D01*
X133085957Y-78036288D01*
X132833155Y-77820027D01*
X132530649Y-77555833D01*
X132203399Y-77265958D01*
X131876362Y-76972655D01*
X131574496Y-76698177D01*
X131322761Y-76464776D01*
X131146115Y-76294705D01*
X131069515Y-76210216D01*
X131068765Y-76208653D01*
X131114274Y-76130183D01*
X131254427Y-75949389D01*
X131470208Y-75689467D01*
X131742600Y-75373611D01*
X131894265Y-75201752D01*
X132189527Y-74866585D01*
X132440039Y-74576365D01*
X132626215Y-74354252D01*
X132728466Y-74223402D01*
X132742000Y-74199507D01*
X132664083Y-74181295D01*
X132456551Y-74175254D01*
X132158732Y-74182062D01*
X132043500Y-74187446D01*
X131644733Y-74219466D01*
X131340681Y-74279017D01*
X131056920Y-74385519D01*
X130809828Y-74509393D01*
X130216625Y-74914156D01*
X129744610Y-75421241D01*
X129404551Y-76009594D01*
X129207213Y-76658165D01*
X129163366Y-77345902D01*
X129196687Y-77663230D01*
X129265110Y-78096066D01*
X128731240Y-78695199D01*
X128419931Y-79044795D01*
X128079152Y-79427842D01*
X127773456Y-79771776D01*
X127721580Y-79830190D01*
X127245790Y-80366046D01*
X127929740Y-80708374D01*
X127929740Y-80708374D01*
G37*
X127929740Y-80708374D02*
X128319653Y-80927037D01*
X128757533Y-81208749D01*
X129165924Y-81502790D01*
X129277093Y-81590684D01*
X129558832Y-81817107D01*
X129789222Y-81996816D01*
X129938661Y-82107033D01*
X129978916Y-82130667D01*
X130045563Y-82070688D01*
X130202911Y-81905728D01*
X130430162Y-81658245D01*
X130706519Y-81350701D01*
X130830151Y-81211375D01*
X131642967Y-80292084D01*
X132308664Y-80246456D01*
X132988442Y-80143685D01*
X133574224Y-79925901D01*
X134109847Y-79576458D01*
X134142479Y-79550013D01*
X134597315Y-79076407D01*
X134944605Y-78506496D01*
X135169970Y-77878117D01*
X135259030Y-77229114D01*
X135220967Y-76712000D01*
X135169603Y-76525854D01*
X135122118Y-76436520D01*
X135047926Y-76473707D01*
X134884413Y-76618791D01*
X134652588Y-76851210D01*
X134373458Y-77150405D01*
X134235353Y-77304354D01*
X133939865Y-77632813D01*
X133681821Y-77910507D01*
X133482672Y-78115053D01*
X133363864Y-78224066D01*
X133342619Y-78236000D01*
X133264098Y-78182363D01*
X133085957Y-78036288D01*
X132833155Y-77820027D01*
X132530649Y-77555833D01*
X132203399Y-77265958D01*
X131876362Y-76972655D01*
X131574496Y-76698177D01*
X131322761Y-76464776D01*
X131146115Y-76294705D01*
X131069515Y-76210216D01*
X131068765Y-76208653D01*
X131114274Y-76130183D01*
X131254427Y-75949389D01*
X131470208Y-75689467D01*
X131742600Y-75373611D01*
X131894265Y-75201752D01*
X132189527Y-74866585D01*
X132440039Y-74576365D01*
X132626215Y-74354252D01*
X132728466Y-74223402D01*
X132742000Y-74199507D01*
X132664083Y-74181295D01*
X132456551Y-74175254D01*
X132158732Y-74182062D01*
X132043500Y-74187446D01*
X131644733Y-74219466D01*
X131340681Y-74279017D01*
X131056920Y-74385519D01*
X130809828Y-74509393D01*
X130216625Y-74914156D01*
X129744610Y-75421241D01*
X129404551Y-76009594D01*
X129207213Y-76658165D01*
X129163366Y-77345902D01*
X129196687Y-77663230D01*
X129265110Y-78096066D01*
X128731240Y-78695199D01*
X128419931Y-79044795D01*
X128079152Y-79427842D01*
X127773456Y-79771776D01*
X127721580Y-79830190D01*
X127245790Y-80366046D01*
X127929740Y-80708374D01*
G36*
X127454717Y-92053529D02*
X127557553Y-92195221D01*
X127735538Y-92409429D01*
X128001242Y-92713331D01*
X128367235Y-93124108D01*
X128399806Y-93160517D01*
X129264611Y-94127086D01*
X129196438Y-94558346D01*
X129167483Y-95237529D01*
X129287237Y-95884970D01*
X129539036Y-96481533D01*
X129906216Y-97008082D01*
X130372112Y-97445479D01*
X130920060Y-97774589D01*
X131533396Y-97976276D01*
X132195455Y-98031401D01*
X132219977Y-98030411D01*
X132773143Y-98005667D01*
X131909836Y-97035205D01*
X131613350Y-96697187D01*
X131363739Y-96403550D01*
X131179859Y-96177204D01*
X131080564Y-96041062D01*
X131068765Y-96013086D01*
X131139950Y-95933761D01*
X131312314Y-95767700D01*
X131560931Y-95537133D01*
X131860875Y-95264289D01*
X132187222Y-94971395D01*
X132515046Y-94680681D01*
X132819422Y-94414376D01*
X133075424Y-94194708D01*
X133258128Y-94043907D01*
X133342607Y-93984200D01*
X133343993Y-93984000D01*
X133420368Y-94044119D01*
X133586541Y-94209558D01*
X133821100Y-94457938D01*
X134102635Y-94766881D01*
X134235353Y-94915646D01*
X134529614Y-95238397D01*
X134786941Y-95503369D01*
X134986159Y-95690082D01*
X135106092Y-95778054D01*
X135128760Y-95779773D01*
X135193483Y-95626441D01*
X135231184Y-95355615D01*
X135241126Y-95017083D01*
X135222575Y-94660631D01*
X135174796Y-94336046D01*
X135151482Y-94240786D01*
X134880178Y-93560886D01*
X134482788Y-92988516D01*
X133971400Y-92533325D01*
X133358104Y-92204959D01*
X132654988Y-92013065D01*
X132310481Y-91973668D01*
X131634207Y-91927315D01*
X130826147Y-91008324D01*
X130536211Y-90682060D01*
X130285770Y-90406793D01*
X130095825Y-90205102D01*
X129987375Y-90099567D01*
X129971431Y-90089333D01*
X129890428Y-90140781D01*
X129713973Y-90278195D01*
X129474177Y-90476177D01*
X129364887Y-90569063D01*
X129079005Y-90801532D01*
X128736844Y-91061005D01*
X128373919Y-91322671D01*
X128025749Y-91561720D01*
X127727850Y-91753341D01*
X127515739Y-91872725D01*
X127471387Y-91891763D01*
X127424204Y-91918979D01*
X127414457Y-91967175D01*
X127454717Y-92053529D01*
X127454717Y-92053529D01*
G37*
X127454717Y-92053529D02*
X127557553Y-92195221D01*
X127735538Y-92409429D01*
X128001242Y-92713331D01*
X128367235Y-93124108D01*
X128399806Y-93160517D01*
X129264611Y-94127086D01*
X129196438Y-94558346D01*
X129167483Y-95237529D01*
X129287237Y-95884970D01*
X129539036Y-96481533D01*
X129906216Y-97008082D01*
X130372112Y-97445479D01*
X130920060Y-97774589D01*
X131533396Y-97976276D01*
X132195455Y-98031401D01*
X132219977Y-98030411D01*
X132773143Y-98005667D01*
X131909836Y-97035205D01*
X131613350Y-96697187D01*
X131363739Y-96403550D01*
X131179859Y-96177204D01*
X131080564Y-96041062D01*
X131068765Y-96013086D01*
X131139950Y-95933761D01*
X131312314Y-95767700D01*
X131560931Y-95537133D01*
X131860875Y-95264289D01*
X132187222Y-94971395D01*
X132515046Y-94680681D01*
X132819422Y-94414376D01*
X133075424Y-94194708D01*
X133258128Y-94043907D01*
X133342607Y-93984200D01*
X133343993Y-93984000D01*
X133420368Y-94044119D01*
X133586541Y-94209558D01*
X133821100Y-94457938D01*
X134102635Y-94766881D01*
X134235353Y-94915646D01*
X134529614Y-95238397D01*
X134786941Y-95503369D01*
X134986159Y-95690082D01*
X135106092Y-95778054D01*
X135128760Y-95779773D01*
X135193483Y-95626441D01*
X135231184Y-95355615D01*
X135241126Y-95017083D01*
X135222575Y-94660631D01*
X135174796Y-94336046D01*
X135151482Y-94240786D01*
X134880178Y-93560886D01*
X134482788Y-92988516D01*
X133971400Y-92533325D01*
X133358104Y-92204959D01*
X132654988Y-92013065D01*
X132310481Y-91973668D01*
X131634207Y-91927315D01*
X130826147Y-91008324D01*
X130536211Y-90682060D01*
X130285770Y-90406793D01*
X130095825Y-90205102D01*
X129987375Y-90099567D01*
X129971431Y-90089333D01*
X129890428Y-90140781D01*
X129713973Y-90278195D01*
X129474177Y-90476177D01*
X129364887Y-90569063D01*
X129079005Y-90801532D01*
X128736844Y-91061005D01*
X128373919Y-91322671D01*
X128025749Y-91561720D01*
X127727850Y-91753341D01*
X127515739Y-91872725D01*
X127471387Y-91891763D01*
X127424204Y-91918979D01*
X127414457Y-91967175D01*
X127454717Y-92053529D01*
G36*
X130163061Y-83169861D02*
X130210659Y-83257641D01*
X130372470Y-83586884D01*
X130537150Y-83977906D01*
X130635270Y-84247333D01*
X130729769Y-84526662D01*
X130803563Y-84734023D01*
X130840958Y-84825344D01*
X130841235Y-84825693D01*
X130934322Y-84822260D01*
X131088194Y-84723291D01*
X131257183Y-84564937D01*
X131391547Y-84390096D01*
X131534483Y-84002335D01*
X131524307Y-83592459D01*
X131390761Y-83256610D01*
X131120683Y-82958825D01*
X130765462Y-82771595D01*
X130467129Y-82723333D01*
X130194320Y-82736955D01*
X130061849Y-82796868D01*
X130056001Y-82931645D01*
X130163061Y-83169861D01*
X130163061Y-83169861D01*
G37*
X130163061Y-83169861D02*
X130210659Y-83257641D01*
X130372470Y-83586884D01*
X130537150Y-83977906D01*
X130635270Y-84247333D01*
X130729769Y-84526662D01*
X130803563Y-84734023D01*
X130840958Y-84825344D01*
X130841235Y-84825693D01*
X130934322Y-84822260D01*
X131088194Y-84723291D01*
X131257183Y-84564937D01*
X131391547Y-84390096D01*
X131534483Y-84002335D01*
X131524307Y-83592459D01*
X131390761Y-83256610D01*
X131120683Y-82958825D01*
X130765462Y-82771595D01*
X130467129Y-82723333D01*
X130194320Y-82736955D01*
X130061849Y-82796868D01*
X130056001Y-82931645D01*
X130163061Y-83169861D01*
G36*
X130907166Y-85338977D02*
X130909147Y-85348904D01*
X130935003Y-85563290D01*
X130954299Y-85885400D01*
X130963624Y-86253656D01*
X130964000Y-86339305D01*
X130973464Y-86723251D01*
X131007712Y-86946603D01*
X131075526Y-87017342D01*
X131185688Y-86943450D01*
X131346982Y-86732908D01*
X131366167Y-86704785D01*
X131527181Y-86325403D01*
X131533656Y-85919685D01*
X131391547Y-85543903D01*
X131229675Y-85333698D01*
X131055640Y-85182945D01*
X131040678Y-85174391D01*
X130916816Y-85119237D01*
X130880417Y-85163345D01*
X130907166Y-85338977D01*
X130907166Y-85338977D01*
G37*
X130907166Y-85338977D02*
X130909147Y-85348904D01*
X130935003Y-85563290D01*
X130954299Y-85885400D01*
X130963624Y-86253656D01*
X130964000Y-86339305D01*
X130973464Y-86723251D01*
X131007712Y-86946603D01*
X131075526Y-87017342D01*
X131185688Y-86943450D01*
X131346982Y-86732908D01*
X131366167Y-86704785D01*
X131527181Y-86325403D01*
X131533656Y-85919685D01*
X131391547Y-85543903D01*
X131229675Y-85333698D01*
X131055640Y-85182945D01*
X131040678Y-85174391D01*
X130916816Y-85119237D01*
X130880417Y-85163345D01*
X130907166Y-85338977D01*
G36*
X130182005Y-89448450D02*
X130330989Y-89497310D01*
X130569449Y-89484260D01*
X130833088Y-89418293D01*
X131023389Y-89330761D01*
X131317581Y-89065025D01*
X131498004Y-88721063D01*
X131552456Y-88343991D01*
X131468738Y-87978924D01*
X131415736Y-87879907D01*
X131249537Y-87672602D01*
X131067319Y-87532176D01*
X130915978Y-87491946D01*
X130885487Y-87503196D01*
X130824783Y-87608338D01*
X130765268Y-87812393D01*
X130754396Y-87865898D01*
X130688972Y-88100605D01*
X130572228Y-88421171D01*
X130428294Y-88761859D01*
X130414359Y-88792283D01*
X130288581Y-89082730D01*
X130205127Y-89311080D01*
X130178147Y-89437378D01*
X130182005Y-89448450D01*
X130182005Y-89448450D01*
G37*
X130182005Y-89448450D02*
X130330989Y-89497310D01*
X130569449Y-89484260D01*
X130833088Y-89418293D01*
X131023389Y-89330761D01*
X131317581Y-89065025D01*
X131498004Y-88721063D01*
X131552456Y-88343991D01*
X131468738Y-87978924D01*
X131415736Y-87879907D01*
X131249537Y-87672602D01*
X131067319Y-87532176D01*
X130915978Y-87491946D01*
X130885487Y-87503196D01*
X130824783Y-87608338D01*
X130765268Y-87812393D01*
X130754396Y-87865898D01*
X130688972Y-88100605D01*
X130572228Y-88421171D01*
X130428294Y-88761859D01*
X130414359Y-88792283D01*
X130288581Y-89082730D01*
X130205127Y-89311080D01*
X130178147Y-89437378D01*
X130182005Y-89448450D01*
G36*
X113479953Y-77355402D02*
X113516003Y-77686443D01*
X113559787Y-77902932D01*
X113817456Y-78594332D01*
X114202516Y-79179945D01*
X114702398Y-79649304D01*
X115304536Y-79991942D01*
X115996363Y-80197391D01*
X116372143Y-80245410D01*
X117006286Y-80293370D01*
X117989849Y-81402518D01*
X118310465Y-81764388D01*
X118590209Y-82080728D01*
X118810480Y-82330455D01*
X118952676Y-82492485D01*
X118998235Y-82545473D01*
X119065257Y-82504661D01*
X119227812Y-82368087D01*
X119460176Y-82158187D01*
X119688943Y-81943095D01*
X120042677Y-81627440D01*
X120434987Y-81312399D01*
X120803711Y-81046665D01*
X120960415Y-80947140D01*
X121237208Y-80780218D01*
X121447567Y-80648634D01*
X121557521Y-80573821D01*
X121566000Y-80565065D01*
X121512731Y-80497738D01*
X121364442Y-80323612D01*
X121138408Y-80062627D01*
X120851906Y-79734724D01*
X120522212Y-79359844D01*
X120502929Y-79337987D01*
X120132123Y-78915730D01*
X119860508Y-78598732D01*
X119674007Y-78366378D01*
X119558541Y-78198055D01*
X119500035Y-78073147D01*
X119484410Y-77971040D01*
X119497588Y-77871121D01*
X119498465Y-77867107D01*
X119530339Y-77630288D01*
X119548511Y-77311751D01*
X119550231Y-77107816D01*
X119461038Y-76433190D01*
X119225233Y-75813393D01*
X118861519Y-75266575D01*
X118388597Y-74810886D01*
X117825169Y-74464475D01*
X117189937Y-74245493D01*
X116525157Y-74172000D01*
X116245845Y-74180959D01*
X116048770Y-74204391D01*
X115978284Y-74235500D01*
X116031803Y-74318150D01*
X116178734Y-74502257D01*
X116398958Y-74763641D01*
X116672355Y-75078122D01*
X116789315Y-75210239D01*
X117075832Y-75538934D01*
X117313944Y-75824884D01*
X117484307Y-76043841D01*
X117567574Y-76171554D01*
X117572198Y-76191569D01*
X117501627Y-76271695D01*
X117329735Y-76438759D01*
X117081379Y-76670516D01*
X116781414Y-76944721D01*
X116454697Y-77239129D01*
X116126083Y-77531496D01*
X115820428Y-77799578D01*
X115562589Y-78021128D01*
X115377420Y-78173903D01*
X115289779Y-78235657D01*
X115287780Y-78236000D01*
X115213902Y-78175868D01*
X115050821Y-78010784D01*
X114820284Y-77763716D01*
X114544039Y-77457633D01*
X114446034Y-77347000D01*
X114158939Y-77026306D01*
X113909688Y-76757053D01*
X113720201Y-76562233D01*
X113612400Y-76464840D01*
X113598483Y-76458000D01*
X113531675Y-76534937D01*
X113488906Y-76737950D01*
X113471293Y-77025338D01*
X113479953Y-77355402D01*
X113479953Y-77355402D01*
G37*
X113479953Y-77355402D02*
X113516003Y-77686443D01*
X113559787Y-77902932D01*
X113817456Y-78594332D01*
X114202516Y-79179945D01*
X114702398Y-79649304D01*
X115304536Y-79991942D01*
X115996363Y-80197391D01*
X116372143Y-80245410D01*
X117006286Y-80293370D01*
X117989849Y-81402518D01*
X118310465Y-81764388D01*
X118590209Y-82080728D01*
X118810480Y-82330455D01*
X118952676Y-82492485D01*
X118998235Y-82545473D01*
X119065257Y-82504661D01*
X119227812Y-82368087D01*
X119460176Y-82158187D01*
X119688943Y-81943095D01*
X120042677Y-81627440D01*
X120434987Y-81312399D01*
X120803711Y-81046665D01*
X120960415Y-80947140D01*
X121237208Y-80780218D01*
X121447567Y-80648634D01*
X121557521Y-80573821D01*
X121566000Y-80565065D01*
X121512731Y-80497738D01*
X121364442Y-80323612D01*
X121138408Y-80062627D01*
X120851906Y-79734724D01*
X120522212Y-79359844D01*
X120502929Y-79337987D01*
X120132123Y-78915730D01*
X119860508Y-78598732D01*
X119674007Y-78366378D01*
X119558541Y-78198055D01*
X119500035Y-78073147D01*
X119484410Y-77971040D01*
X119497588Y-77871121D01*
X119498465Y-77867107D01*
X119530339Y-77630288D01*
X119548511Y-77311751D01*
X119550231Y-77107816D01*
X119461038Y-76433190D01*
X119225233Y-75813393D01*
X118861519Y-75266575D01*
X118388597Y-74810886D01*
X117825169Y-74464475D01*
X117189937Y-74245493D01*
X116525157Y-74172000D01*
X116245845Y-74180959D01*
X116048770Y-74204391D01*
X115978284Y-74235500D01*
X116031803Y-74318150D01*
X116178734Y-74502257D01*
X116398958Y-74763641D01*
X116672355Y-75078122D01*
X116789315Y-75210239D01*
X117075832Y-75538934D01*
X117313944Y-75824884D01*
X117484307Y-76043841D01*
X117567574Y-76171554D01*
X117572198Y-76191569D01*
X117501627Y-76271695D01*
X117329735Y-76438759D01*
X117081379Y-76670516D01*
X116781414Y-76944721D01*
X116454697Y-77239129D01*
X116126083Y-77531496D01*
X115820428Y-77799578D01*
X115562589Y-78021128D01*
X115377420Y-78173903D01*
X115289779Y-78235657D01*
X115287780Y-78236000D01*
X115213902Y-78175868D01*
X115050821Y-78010784D01*
X114820284Y-77763716D01*
X114544039Y-77457633D01*
X114446034Y-77347000D01*
X114158939Y-77026306D01*
X113909688Y-76757053D01*
X113720201Y-76562233D01*
X113612400Y-76464840D01*
X113598483Y-76458000D01*
X113531675Y-76534937D01*
X113488906Y-76737950D01*
X113471293Y-77025338D01*
X113479953Y-77355402D01*
G36*
X113498266Y-95548418D02*
X113547796Y-95720731D01*
X113598483Y-95762000D01*
X113674498Y-95701826D01*
X113839438Y-95536633D01*
X114071380Y-95289414D01*
X114348403Y-94983162D01*
X114446034Y-94873000D01*
X114732638Y-94552413D01*
X114980749Y-94283222D01*
X115168619Y-94088394D01*
X115274500Y-93990899D01*
X115287780Y-93984000D01*
X115366840Y-94037785D01*
X115545350Y-94184312D01*
X115798455Y-94401335D01*
X116101297Y-94666611D01*
X116429022Y-94957893D01*
X116756773Y-95252937D01*
X117059695Y-95529499D01*
X117312931Y-95765334D01*
X117491626Y-95938197D01*
X117570923Y-96025843D01*
X117572198Y-96028431D01*
X117528823Y-96113248D01*
X117390683Y-96298925D01*
X117177121Y-96561211D01*
X116907484Y-96875857D01*
X116789315Y-97009760D01*
X116500602Y-97338423D01*
X116257199Y-97623439D01*
X116079225Y-97840630D01*
X115986798Y-97965816D01*
X115978284Y-97984500D01*
X116055341Y-98016920D01*
X116257139Y-98039803D01*
X116525157Y-98048000D01*
X117212026Y-97969462D01*
X117845170Y-97745950D01*
X118405888Y-97395612D01*
X118875477Y-96936600D01*
X119235237Y-96387062D01*
X119466465Y-95765149D01*
X119550231Y-95112184D01*
X119543653Y-94786231D01*
X119519377Y-94485920D01*
X119497729Y-94349541D01*
X119482852Y-94246618D01*
X119496410Y-94144111D01*
X119552863Y-94020762D01*
X119666672Y-93855314D01*
X119852299Y-93626510D01*
X120124206Y-93313092D01*
X120459860Y-92935254D01*
X120785982Y-92565962D01*
X121068586Y-92238710D01*
X121289831Y-91974756D01*
X121431876Y-91795355D01*
X121477265Y-91723046D01*
X121408784Y-91646883D01*
X121233642Y-91513342D01*
X121002162Y-91359333D01*
X120746224Y-91178146D01*
X120416053Y-90915788D01*
X120057844Y-90610131D01*
X119775393Y-90353559D01*
X119484876Y-90084825D01*
X119242501Y-89868172D01*
X119072505Y-89724725D01*
X118999127Y-89675608D01*
X118998251Y-89676226D01*
X118937777Y-89746902D01*
X118783278Y-89923075D01*
X118553287Y-90183734D01*
X118266339Y-90507866D01*
X117991592Y-90817479D01*
X117006341Y-91926625D01*
X116366014Y-91975053D01*
X115631893Y-92107640D01*
X114983893Y-92382087D01*
X114433390Y-92788901D01*
X113991761Y-93318587D01*
X113670382Y-93961649D01*
X113559787Y-94317068D01*
X113503227Y-94622821D01*
X113474865Y-94957764D01*
X113473584Y-95280196D01*
X113498266Y-95548418D01*
X113498266Y-95548418D01*
G37*
X113498266Y-95548418D02*
X113547796Y-95720731D01*
X113598483Y-95762000D01*
X113674498Y-95701826D01*
X113839438Y-95536633D01*
X114071380Y-95289414D01*
X114348403Y-94983162D01*
X114446034Y-94873000D01*
X114732638Y-94552413D01*
X114980749Y-94283222D01*
X115168619Y-94088394D01*
X115274500Y-93990899D01*
X115287780Y-93984000D01*
X115366840Y-94037785D01*
X115545350Y-94184312D01*
X115798455Y-94401335D01*
X116101297Y-94666611D01*
X116429022Y-94957893D01*
X116756773Y-95252937D01*
X117059695Y-95529499D01*
X117312931Y-95765334D01*
X117491626Y-95938197D01*
X117570923Y-96025843D01*
X117572198Y-96028431D01*
X117528823Y-96113248D01*
X117390683Y-96298925D01*
X117177121Y-96561211D01*
X116907484Y-96875857D01*
X116789315Y-97009760D01*
X116500602Y-97338423D01*
X116257199Y-97623439D01*
X116079225Y-97840630D01*
X115986798Y-97965816D01*
X115978284Y-97984500D01*
X116055341Y-98016920D01*
X116257139Y-98039803D01*
X116525157Y-98048000D01*
X117212026Y-97969462D01*
X117845170Y-97745950D01*
X118405888Y-97395612D01*
X118875477Y-96936600D01*
X119235237Y-96387062D01*
X119466465Y-95765149D01*
X119550231Y-95112184D01*
X119543653Y-94786231D01*
X119519377Y-94485920D01*
X119497729Y-94349541D01*
X119482852Y-94246618D01*
X119496410Y-94144111D01*
X119552863Y-94020762D01*
X119666672Y-93855314D01*
X119852299Y-93626510D01*
X120124206Y-93313092D01*
X120459860Y-92935254D01*
X120785982Y-92565962D01*
X121068586Y-92238710D01*
X121289831Y-91974756D01*
X121431876Y-91795355D01*
X121477265Y-91723046D01*
X121408784Y-91646883D01*
X121233642Y-91513342D01*
X121002162Y-91359333D01*
X120746224Y-91178146D01*
X120416053Y-90915788D01*
X120057844Y-90610131D01*
X119775393Y-90353559D01*
X119484876Y-90084825D01*
X119242501Y-89868172D01*
X119072505Y-89724725D01*
X118999127Y-89675608D01*
X118998251Y-89676226D01*
X118937777Y-89746902D01*
X118783278Y-89923075D01*
X118553287Y-90183734D01*
X118266339Y-90507866D01*
X117991592Y-90817479D01*
X117006341Y-91926625D01*
X116366014Y-91975053D01*
X115631893Y-92107640D01*
X114983893Y-92382087D01*
X114433390Y-92788901D01*
X113991761Y-93318587D01*
X113670382Y-93961649D01*
X113559787Y-94317068D01*
X113503227Y-94622821D01*
X113474865Y-94957764D01*
X113473584Y-95280196D01*
X113498266Y-95548418D01*
D11*
X130956895Y-86080000D02*
G75*
G03X130956895Y-86080000I-6406895J0D01*
G01*
X125385714Y-52540571D02*
X125242857Y-52588190D01*
X125195238Y-52635809D01*
X125147619Y-52731047D01*
X125147619Y-52873904D01*
X125195238Y-52969142D01*
X125242857Y-53016761D01*
X125338095Y-53064380D01*
X125719047Y-53064380D01*
X125719047Y-52064380D01*
X125385714Y-52064380D01*
X125290476Y-52112000D01*
X125242857Y-52159619D01*
X125195238Y-52254857D01*
X125195238Y-52350095D01*
X125242857Y-52445333D01*
X125290476Y-52492952D01*
X125385714Y-52540571D01*
X125719047Y-52540571D01*
X124861904Y-52064380D02*
X124290476Y-52064380D01*
X124576190Y-53064380D02*
X124576190Y-52064380D01*
X123433333Y-53064380D02*
X124004761Y-53064380D01*
X123719047Y-53064380D02*
X123719047Y-52064380D01*
X123814285Y-52207238D01*
X123909523Y-52302476D01*
X124004761Y-52350095D01*
X125385714Y-119416571D02*
X125242857Y-119464190D01*
X125195238Y-119511809D01*
X125147619Y-119607047D01*
X125147619Y-119749904D01*
X125195238Y-119845142D01*
X125242857Y-119892761D01*
X125338095Y-119940380D01*
X125719047Y-119940380D01*
X125719047Y-118940380D01*
X125385714Y-118940380D01*
X125290476Y-118988000D01*
X125242857Y-119035619D01*
X125195238Y-119130857D01*
X125195238Y-119226095D01*
X125242857Y-119321333D01*
X125290476Y-119368952D01*
X125385714Y-119416571D01*
X125719047Y-119416571D01*
X124861904Y-118940380D02*
X124290476Y-118940380D01*
X124576190Y-119940380D02*
X124576190Y-118940380D01*
X124004761Y-119035619D02*
X123957142Y-118988000D01*
X123861904Y-118940380D01*
X123623809Y-118940380D01*
X123528571Y-118988000D01*
X123480952Y-119035619D01*
X123433333Y-119130857D01*
X123433333Y-119226095D01*
X123480952Y-119368952D01*
X124052380Y-119940380D01*
X123433333Y-119940380D01*
%LPC*%
D13*
X124600000Y-58200000D03*
D14*
X135155000Y-58200000D03*
X114045000Y-58200000D03*
X135155000Y-113900000D03*
X114045000Y-113900000D03*
D13*
X124600000Y-113900000D03*
D15*
X132570000Y-75020000D03*
D16*
X135110000Y-75020000D03*
X132570000Y-72480000D03*
X135110000Y-72480000D03*
X132570000Y-69940001D03*
X135110000Y-69940000D03*
D17*
X116242740Y-96593020D03*
X116242740Y-103393020D03*
D18*
X127002060Y-53070000D03*
X122002060Y-53070000D03*
D19*
X121070000Y-50400000D03*
X127930000Y-50400000D03*
D20*
X124550000Y-86080000D03*
M02*
