999
dxfrw 0.6.3
  0
SECTION
  2
HEADER
  9
$ACADVER
  1
AC1009
  9
$DWGCODEPAGE
  3
ANSI_1252
  9
$INSBASE
 10
0
 20
0
 30
0
  9
$EXTMIN
 10
10000000000
 20
10000000000
 30
0
  9
$EXTMAX
 10
-10000000000
 20
-10000000000
 30
0
  9
$LIMMIN
 10
0
 20
0
  9
$LIMMAX
 10
420
 20
297
  9
$ORTHOMODE
 70
    0
  9
$REGENMODE
 70
    1
  9
$FILLMODE
 70
    1
  9
$QTEXTMODE
 70
    0
  9
$MIRRTEXT
 70
    0
  9
$DRAGMODE
 70
    2
  9
$LTSCALE
 40
1
  9
$OSMODE
 70
    0
  9
$ATTMODE
 70
    0
  9
$TEXTSIZE
 40
2.5
  9
$TRACEWID
 40
15.68
  9
$TEXTSTYLE
  7
STANDARD
  9
$CLAYER
  8
0
  9
$CELTYPE
  6
BYLAYER
  9
$CECOLOR
 62
  256
  9
$DIMSCALE
 40
2.5
  9
$DIMASZ
 40
2.5
  9
$DIMEXO
 40
0.625
  9
$DIMDLI
 40
3.75
  9
$DIMRND
 40
0
  9
$DIMDLE
 40
0
  9
$DIMEXE
 40
1.25
  9
$DIMTP
 40
0
  9
$DIMTM
 40
0
  9
$DIMTXT
 40
2.5
  9
$DIMCEN
 40
2.5
  9
$DIMTSZ
 40
0
  9
$DIMTOL
 70
    0
  9
$DIMLIM
 70
    0
  9
$DIMTIH
 70
    0
  9
$DIMTOH
 70
    0
  9
$DIMSE1
 70
    0
  9
$DIMSE2
 70
    0
  9
$DIMTAD
 70
    1
  9
$DIMZIN
 70
    8
  9
$DIMBLK
  1

  9
$DIMASO
 70
    1
  9
$DIMSHO
 70
    1
  9
$DIMPOST
  1

  9
$DIMAPOST
  1

  9
$DIMALT
 70
    0
  9
$DIMALTD
 70
    3
  9
$DIMALTF
 40
0.03937
  9
$DIMLFAC
 40
1
  9
$DIMTOFL
 70
    1
  9
$DIMTVP
 40
0
  9
$DIMTIX
 70
    0
  9
$DIMSOXD
 70
    0
  9
$DIMSAH
 70
    0
  9
$DIMBLK1
  1

  9
$DIMBLK2
  1

  9
$DIMSTYLE
  2
STANDARD
  9
$DIMCLRD
 70
    0
  9
$DIMCLRE
 70
    0
  9
$DIMCLRT
 70
    0
  9
$DIMTFAC
 40
1
  9
$DIMGAP
 40
0.625
  9
$LUNITS
 70
    2
  9
$LUPREC
 70
    4
  9
$SKETCHINC
 40
1
  9
$FILLETRAD
 40
0
  9
$AUNITS
 70
    0
  9
$AUPREC
 70
    2
  9
$MENU
  1
.
  9
$ELEVATION
 40
0
  9
$PELEVATION
 40
0
  9
$THICKNESS
 40
0
  9
$LIMCHECK
 70
    0
  9
$BLIPMODE
 70
    0
  9
$CHAMFERA
 40
0
  9
$CHAMFERB
 40
0
  9
$SKPOLY
 70
    0
  9
$USRTIMER
 70
    1
  9
$ANGBASE
 50
0
  9
$ANGDIR
 70
    0
  9
$PDMODE
 70
   34
  9
$PDSIZE
 40
0
  9
$PLINEWID
 40
0
  9
$COORDS
 70
    2
  9
$SPLFRAME
 70
    0
  9
$SPLINETYPE
 70
    2
  9
$SPLINESEGS
 70
    8
  9
$ATTDIA
 70
    1
  9
$ATTREQ
 70
    1
  9
$HANDLING
 70
    1
  9
$HANDSEED
  5
20000
  9
$SURFTAB1
 70
    6
  9
$SURFTAB2
 70
    6
  9
$SURFTYPE
 70
    6
  9
$SURFU
 70
    6
  9
$SURFV
 70
    6
  9
$UCSNAME
  2

  9
$UCSORG
 10
0
 20
0
 30
0
  9
$UCSXDIR
 10
1
 20
0
 30
0
  9
$UCSYDIR
 10
0
 20
1
 30
0
  9
$PUCSNAME
  2

  9
$PUCSORG
 10
0
 20
0
 30
0
  9
$PUCSXDIR
 10
1
 20
0
 30
0
  9
$PUCSYDIR
 10
0
 20
1
 30
0
  9
$USERI1
 70
    0
  9
$USERI2
 70
    0
  9
$USERI3
 70
    0
  9
$USERI4
 70
    0
  9
$USERI5
 70
    0
  9
$USERR1
 40
0
  9
$USERR2
 40
0
  9
$USERR3
 40
0
  9
$USERR4
 40
0
  9
$USERR5
 40
0
  9
$WORLDVIEW
 70
    1
  9
$SHADEDGE
 70
    3
  9
$SHADEDIF
 70
   70
  9
$TILEMODE
 70
    1
  9
$MAXACTVP
 70
   64
  9
$PLIMCHECK
 70
    0
  9
$PEXTMIN
 10
0
 20
0
 30
0
  9
$PEXTMAX
 10
0
 20
0
 30
0
  9
$GRIDMODE
 70
    0
  9
$SNAPSTYLE
 70
    0
  9
$PLIMMIN
 10
0
 20
0
  9
$PLIMMAX
 10
210
 20
297
  9
$UNITMODE
 70
    0
  9
$VISRETAIN
 70
    1
  9
$PLINEGEN
 70
    0
  9
$PSLTSCALE
 70
    1
  0
ENDSEC
  0
SECTION
  2
TABLES
  0
TABLE
  2
VPORT
 70
    1
  0
VPORT
  2
*ACTIVE
 70
    0
 10
0
 20
0
 11
1
 21
1
 12
210.1722912966252
 22
148.6953818827709
 13
0
 23
0
 14
10
 24
10
 15
10
 25
10
 16
0
 26
0
 36
1
 17
0
 27
0
 37
0
 40
341
 41
1.692717584369449
 42
50
 43
0
 44
0
 50
0
 51
0
 71
    0
 72
  100
 73
    1
 74
    3
 75
    0
 76
    0
 77
    0
 78
    0
  0
ENDTAB
  0
TABLE
  2
LTYPE
 70
    4
  0
LTYPE
  2
BYBLOCK
 70
    0
  3

 72
   65
 73
    0
 40
0
  0
LTYPE
  2
BYLAYER
 70
    0
  3

 72
   65
 73
    0
 40
0
  0
LTYPE
  2
CONTINUOUS
 70
    0
  3
Solid line
 72
   65
 73
    0
 40
0
  0
LTYPE
  2
DOT
 70
    0
  3
Dot . . . . . . . . . . . . . . . . . . . . . .
 72
   65
 73
    2
 40
6.35
 49
0
 49
-6.35
  0
LTYPE
  2
DOTTINY
 70
    0
  3
Dot (.15x) .....................................
 72
   65
 73
    2
 40
0.9525
 49
0
 49
-0.9525
  0
LTYPE
  2
DOT2
 70
    0
  3
Dot (.5x) .....................................
 72
   65
 73
    2
 40
3.175
 49
0
 49
-3.175
  0
LTYPE
  2
DOTX2
 70
    0
  3
Dot (2x) .  .  .  .  .  .  .  .  .  .  .  .  .
 72
   65
 73
    2
 40
12.7
 49
0
 49
-12.7
  0
LTYPE
  2
DASHED
 70
    0
  3
Dashed _ _ _ _ _ _ _ _ _ _ _ _ _ _ _ _ _
 72
   65
 73
    2
 40
19.05
 49
12.7
 49
-6.35
  0
LTYPE
  2
DASHEDTINY
 70
    0
  3
Dashed (.15x) _ _ _ _ _ _ _ _ _ _ _ _ _ _ _ _ _
 72
   65
 73
    2
 40
2.8575
 49
1.905
 49
-0.9525
  0
LTYPE
  2
DASHED2
 70
    0
  3
Dashed (.5x) _ _ _ _ _ _ _ _ _ _ _ _ _ _ _ _ _
 72
   65
 73
    2
 40
9.524999999999999
 49
6.35
 49
-3.175
  0
LTYPE
  2
DASHEDX2
 70
    0
  3
Dashed (2x) ____  ____  ____  ____  ____  ___
 72
   65
 73
    2
 40
38.09999999999999
 49
25.4
 49
-12.7
  0
LTYPE
  2
DASHDOT
 70
    0
  3
Dash dot __ . __ . __ . __ . __ . __ . __ . __
 72
   65
 73
    4
 40
25.4
 49
12.7
 49
-6.35
 49
0
 49
-6.35
  0
LTYPE
  2
DASHDOTTINY
 70
    0
  3
Dash dot (.15x) _._._._._._._._._._._._._._._.
 72
   65
 73
    4
 40
3.81
 49
1.905
 49
-0.9525
 49
0
 49
-0.9525
  0
LTYPE
  2
DASHDOT2
 70
    0
  3
Dash dot (.5x) _._._._._._._._._._._._._._._.
 72
   65
 73
    4
 40
12.7
 49
6.35
 49
-3.175
 49
0
 49
-3.175
  0
LTYPE
  2
DASHDOTX2
 70
    0
  3
Dash dot (2x) ____  .  ____  .  ____  .  ___
 72
   65
 73
    4
 40
50.8
 49
25.4
 49
-12.7
 49
0
 49
-12.7
  0
LTYPE
  2
DIVIDE
 70
    0
  3
Divide ____ . . ____ . . ____ . . ____ . . ____
 72
   65
 73
    6
 40
31.75
 49
12.7
 49
-6.35
 49
0
 49
-6.35
 49
0
 49
-6.35
  0
LTYPE
  2
DIVIDETINY
 70
    0
  3
Divide (.15x) __..__..__..__..__..__..__..__.._
 72
   65
 73
    6
 40
4.7625
 49
1.905
 49
-0.9525
 49
0
 49
-0.9525
 49
0
 49
-0.9525
  0
LTYPE
  2
DIVIDE2
 70
    0
  3
Divide (.5x) __..__..__..__..__..__..__..__.._
 72
   65
 73
    6
 40
15.875
 49
6.35
 49
-3.175
 49
0
 49
-3.175
 49
0
 49
-3.175
  0
LTYPE
  2
DIVIDEX2
 70
    0
  3
Divide (2x) ________  .  .  ________  .  .  _
 72
   65
 73
    6
 40
63.5
 49
25.4
 49
-12.7
 49
0
 49
-12.7
 49
0
 49
-12.7
  0
LTYPE
  2
BORDER
 70
    0
  3
Border __ __ . __ __ . __ __ . __ __ . __ __ .
 72
   65
 73
    6
 40
44.45
 49
12.7
 49
-6.35
 49
12.7
 49
-6.35
 49
0
 49
-6.35
  0
LTYPE
  2
BORDERTINY
 70
    0
  3
Border (.15x) __.__.__.__.__.__.__.__.__.__.__.
 72
   65
 73
    6
 40
6.6675
 49
1.905
 49
-0.9525
 49
1.905
 49
-0.9525
 49
0
 49
-0.9525
  0
LTYPE
  2
BORDER2
 70
    0
  3
Border (.5x) __.__.__.__.__.__.__.__.__.__.__.
 72
   65
 73
    6
 40
22.225
 49
6.35
 49
-3.175
 49
6.35
 49
-3.175
 49
0
 49
-3.175
  0
LTYPE
  2
BORDERX2
 70
    0
  3
Border (2x) ____  ____  .  ____  ____  .  ___
 72
   65
 73
    6
 40
88.89999999999999
 49
25.4
 49
-12.7
 49
25.4
 49
-12.7
 49
0
 49
-12.7
  0
LTYPE
  2
CENTER
 70
    0
  3
Center ____ _ ____ _ ____ _ ____ _ ____ _ ____
 72
   65
 73
    4
 40
50.8
 49
31.75
 49
-6.35
 49
6.35
 49
-6.35
  0
LTYPE
  2
CENTERTINY
 70
    0
  3
Center (.15x) ___ _ ___ _ ___ _ ___ _ ___ _ ___
 72
   65
 73
    4
 40
7.62
 49
4.7625
 49
-0.9525
 49
0.9525
 49
-0.9525
  0
LTYPE
  2
CENTER2
 70
    0
  3
Center (.5x) ___ _ ___ _ ___ _ ___ _ ___ _ ___
 72
   65
 73
    4
 40
28.575
 49
19.05
 49
-3.175
 49
3.175
 49
-3.175
  0
LTYPE
  2
CENTERX2
 70
    0
  3
Center (2x) ________  __  ________  __  _____
 72
   65
 73
    4
 40
101.6
 49
63.5
 49
-12.7
 49
12.7
 49
-12.7
  0
ENDTAB
  0
TABLE
  2
LAYER
 70
    1
  0
LAYER
  2
0
 70
    0
 62
    7
  6
CONTINUOUS
  0
LAYER
  2
LAYER_1
 70
    0
 62
    7
  6
CONTINUOUS
  0
ENDTAB
  0
TABLE
  2
STYLE
 70
    3
  0
STYLE
  2
STANDARD
 70
    0
 40
0
 41
1
 50
0
 71
    0
 42
1
  3
TXT
  4

  0
ENDTAB
  0
TABLE
  2
VIEW
 70
    0
  0
ENDTAB
  0
TABLE
  2
UCS
 70
    0
  0
ENDTAB
  0
TABLE
  2
APPID
 70
    1
  0
APPID
  2
ACAD
 70
    0
  0
APPID
  2
LIBRECAD
 70
    0
  0
ENDTAB
  0
TABLE
  2
DIMSTYLE
 70
    1
  0
DIMSTYLE
  2
STANDARD
 70
    0
  3

  4

  5

  6

  7

 40
1
 41
2.5
 42
0.625
 43
0.38
 44
1.25
 45
0
 46
0
 47
0
 48
0
 49
1
140
2.5
141
0.09
142
2.5
143
25.4
144
1
145
0
146
1
147
0.625
 71
    0
 72
    0
 73
    0
 74
    1
 75
    0
 76
    0
 77
    0
 78
    1
170
    0
171
    2
172
    0
173
    0
174
    0
175
    0
176
    0
177
    0
178
    0
  0
ENDTAB
  0
ENDSEC
  0
SECTION
  2
BLOCKS
  0
BLOCK
  8
0
  2
$MODEL_SPACE
 70
    0
 10
0
 20
0
 30
0
  3
$MODEL_SPACE
  1

  0
ENDBLK
  8
0
  0
BLOCK
  8
0
  2
$PAPER_SPACE
 70
    0
 10
0
 20
0
 30
0
  3
$PAPER_SPACE
  1

  0
ENDBLK
  8
0
  0
ENDSEC
  0
SECTION
  2
ENTITIES
  0
POLYLINE
  5
31
  8
LAYER_1
  6
BYLAYER
 62
    7
 66
    1
 10
0
 20
0
 30
0
 70
    0
  0
VERTEX
  5
32
  8
LAYER_1
  6
BYLAYER
 62
    7
 10
100.693638
 20
154.81978
 30
0
  0
VERTEX
  5
33
  8
LAYER_1
  6
BYLAYER
 62
    7
 10
100.6505078905904
 20
155.2372115498691
 30
0
  0
VERTEX
  5
34
  8
LAYER_1
  6
BYLAYER
 62
    7
 10
100.6057781319727
 20
155.6541853423838
 30
0
  0
VERTEX
  5
35
  8
LAYER_1
  6
BYLAYER
 62
    7
 10
100.5578490410655
 20
156.0702436003779
 30
0
  0
VERTEX
  5
36
  8
LAYER_1
  6
BYLAYER
 62
    7
 10
100.5051209347871
 20
156.484928546685
 30
0
  0
VERTEX
  5
37
  8
LAYER_1
  6
BYLAYER
 62
    7
 10
100.4459941300561
 20
156.8977824041388
 30
0
  0
VERTEX
  5
38
  8
LAYER_1
  6
BYLAYER
 62
    7
 10
100.378868943791
 20
157.3083473955728
 30
0
  0
VERTEX
  5
39
  8
LAYER_1
  6
BYLAYER
 62
    7
 10
100.3021456929104
 20
157.7161657438206
 30
0
  0
VERTEX
  5
3A
  8
LAYER_1
  6
BYLAYER
 62
    7
 10
100.2142246943328
 20
158.1207796717161
 30
0
  0
VERTEX
  5
3B
  8
LAYER_1
  6
BYLAYER
 62
    7
 10
100.1135062649767
 20
158.5217314020927
 30
0
  0
VERTEX
  5
3C
  8
LAYER_1
  6
BYLAYER
 62
    7
 10
99.99839072176059
 20
158.9185631577841
 30
0
  0
VERTEX
  5
3D
  8
LAYER_1
  6
BYLAYER
 62
    7
 10
99.86730547938059
 20
159.3108178992519
 30
0
  0
VERTEX
  5
3E
  8
LAYER_1
  6
BYLAYER
 62
    7
 10
99.71964996259577
 20
159.698065046016
 30
0
  0
VERTEX
  5
3F
  8
LAYER_1
  6
BYLAYER
 62
    7
 10
99.55604109204462
 20
160.0799071590176
 30
0
  0
VERTEX
  5
40
  8
LAYER_1
  6
BYLAYER
 62
    7
 10
99.37717276507199
 20
160.4559488945785
 30
0
  0
VERTEX
  5
41
  8
LAYER_1
  6
BYLAYER
 62
    7
 10
99.18373887902275
 20
160.8257949090206
 30
0
  0
VERTEX
  5
42
  8
LAYER_1
  6
BYLAYER
 62
    7
 10
98.97643333124178
 20
161.1890498586658
 30
0
  0
VERTEX
  5
43
  8
LAYER_1
  6
BYLAYER
 62
    7
 10
98.75595001907399
 20
161.545318399836
 30
0
  0
VERTEX
  5
44
  8
LAYER_1
  6
BYLAYER
 62
    7
 10
98.52298283986423
 20
161.8942051888531
 30
0
  0
VERTEX
  5
45
  8
LAYER_1
  6
BYLAYER
 62
    7
 10
98.27822569095733
 20
162.2353148820389
 30
0
  0
VERTEX
  5
46
  8
LAYER_1
  6
BYLAYER
 62
    7
 10
98.02237246969821
 20
162.5682521357154
 30
0
  0
VERTEX
  5
47
  8
LAYER_1
  6
BYLAYER
 62
    7
 10
97.75611707343174
 20
162.8926216062043
 30
0
  0
VERTEX
  5
48
  8
LAYER_1
  6
BYLAYER
 62
    7
 10
97.48008350311369
 20
163.2080439197674
 30
0
  0
VERTEX
  5
49
  8
LAYER_1
  6
BYLAYER
 62
    7
 10
97.1945898277969
 20
163.5142096020435
 30
0
  0
VERTEX
  5
4A
  8
LAYER_1
  6
BYLAYER
 62
    7
 10
96.89987043791143
 20
163.8108282975785
 30
0
  0
VERTEX
  5
4B
  8
LAYER_1
  6
BYLAYER
 62
    7
 10
96.59615972181895
 20
164.0976096513909
 30
0
  0
VERTEX
  5
4C
  8
LAYER_1
  6
BYLAYER
 62
    7
 10
96.28369206788115
 20
164.374263308499
 30
0
  0
VERTEX
  5
4D
  8
LAYER_1
  6
BYLAYER
 62
    7
 10
95.9627018644597
 20
164.6404989139215
 30
0
  0
VERTEX
  5
4E
  8
LAYER_1
  6
BYLAYER
 62
    7
 10
95.63342349991639
 20
164.8960261126769
 30
0
  0
VERTEX
  5
4F
  8
LAYER_1
  6
BYLAYER
 62
    7
 10
95.29609136261281
 20
165.1405545497834
 30
0
  0
VERTEX
  5
50
  8
LAYER_1
  6
BYLAYER
 62
    7
 10
94.95093984091071
 20
165.3737938702597
 30
0
  0
VERTEX
  5
51
  8
LAYER_1
  6
BYLAYER
 62
    7
 10
94.59820332317176
 20
165.5954537191242
 30
0
  0
VERTEX
  5
52
  8
LAYER_1
  6
BYLAYER
 62
    7
 10
94.23811798634222
 20
165.8052448268821
 30
0
  0
VERTEX
  5
53
  8
LAYER_1
  6
BYLAYER
 62
    7
 10
93.8710091859931
 20
166.0029320462817
 30
0
  0
VERTEX
  5
54
  8
LAYER_1
  6
BYLAYER
 62
    7
 10
93.49733097684584
 20
166.1883583372047
 30
0
  0
VERTEX
  5
55
  8
LAYER_1
  6
BYLAYER
 62
    7
 10
93.11754744126075
 20
166.3613727452768
 30
0
  0
VERTEX
  5
56
  8
LAYER_1
  6
BYLAYER
 62
    7
 10
92.7321226615982
 20
166.5218243161241
 30
0
  0
VERTEX
  5
57
  8
LAYER_1
  6
BYLAYER
 62
    7
 10
92.34152072021855
 20
166.6695620953726
 30
0
  0
VERTEX
  5
58
  8
LAYER_1
  6
BYLAYER
 62
    7
 10
91.94620569948214
 20
166.804435128648
 30
0
  0
VERTEX
  5
59
  8
LAYER_1
  6
BYLAYER
 62
    7
 10
91.54664168174928
 20
166.9262924615765
 30
0
  0
VERTEX
  5
5A
  8
LAYER_1
  6
BYLAYER
 62
    7
 10
91.14329274938039
 20
167.0349831397838
 30
0
  0
VERTEX
  5
5B
  8
LAYER_1
  6
BYLAYER
 62
    7
 10
90.73662298473577
 20
167.1303562088959
 30
0
  0
VERTEX
  5
5C
  8
LAYER_1
  6
BYLAYER
 62
    7
 10
90.32709647017582
 20
167.2122607145389
 30
0
  0
VERTEX
  5
5D
  8
LAYER_1
  6
BYLAYER
 62
    7
 10
89.91517524708244
 20
167.2805558014304
 30
0
  0
VERTEX
  5
5E
  8
LAYER_1
  6
BYLAYER
 62
    7
 10
89.50130284288463
 20
167.3351922243266
 30
0
  0
VERTEX
  5
5F
  8
LAYER_1
  6
BYLAYER
 62
    7
 10
89.0859129248112
 20
167.3761695278514
 30
0
  0
VERTEX
  5
60
  8
LAYER_1
  6
BYLAYER
 62
    7
 10
88.66943906830497
 20
167.4034877108011
 30
0
  0
VERTEX
  5
61
  8
LAYER_1
  6
BYLAYER
 62
    7
 10
88.25231484880867
 20
167.4171467719719
 30
0
  0
VERTEX
  5
62
  8
LAYER_1
  6
BYLAYER
 62
    7
 10
87.83497384176502
 20
167.4171467101602
 30
0
  0
VERTEX
  5
63
  8
LAYER_1
  6
BYLAYER
 62
    7
 10
87.41784962261677
 20
167.4034875241623
 30
0
  0
VERTEX
  5
64
  8
LAYER_1
  6
BYLAYER
 62
    7
 10
87.00137576680676
 20
167.3761692127745
 30
0
  0
VERTEX
  5
65
  8
LAYER_1
  6
BYLAYER
 62
    7
 10
86.58598584977761
 20
167.3351917747931
 30
0
  0
VERTEX
  5
66
  8
LAYER_1
  6
BYLAYER
 62
    7
 10
86.17211344697218
 20
167.2805552090144
 30
0
  0
VERTEX
  5
67
  8
LAYER_1
  6
BYLAYER
 62
    7
 10
85.76019222560927
 20
167.2122599683921
 30
0
  0
VERTEX
  5
68
  8
LAYER_1
  6
BYLAYER
 62
    7
 10
85.35066571270239
 20
167.1303552974188
 30
0
  0
VERTEX
  5
69
  8
LAYER_1
  6
BYLAYER
 62
    7
 10
84.94399594882228
 20
167.0349820555732
 30
0
  0
VERTEX
  5
6A
  8
LAYER_1
  6
BYLAYER
 62
    7
 10
84.5406470155241
 20
166.9262912022172
 30
0
  0
VERTEX
  5
6B
  8
LAYER_1
  6
BYLAYER
 62
    7
 10
84.14108299436307
 20
166.8044336967127
 30
0
  0
VERTEX
  5
6C
  8
LAYER_1
  6
BYLAYER
 62
    7
 10
83.74576796689432
 20
166.6695604984216
 30
0
  0
VERTEX
  5
6D
  8
LAYER_1
  6
BYLAYER
 62
    7
 10
83.35516601467313
 20
166.5218225667058
 30
0
  0
VERTEX
  5
6E
  8
LAYER_1
  6
BYLAYER
 62
    7
 10
82.96974121925462
 20
166.3613708609272
 30
0
  0
VERTEX
  5
6F
  8
LAYER_1
  6
BYLAYER
 62
    7
 10
82.58995766219398
 20
166.1883563404477
 30
0
  0
VERTEX
  5
70
  8
LAYER_1
  6
BYLAYER
 62
    7
 10
82.21627942504645
 20
166.0029299646292
 30
0
  0
VERTEX
  5
71
  8
LAYER_1
  6
BYLAYER
 62
    7
 10
81.84917058936719
 20
165.8052426928336
 30
0
  0
VERTEX
  5
72
  8
LAYER_1
  6
BYLAYER
 62
    7
 10
81.48908520937233
 20
165.5954515696035
 30
0
  0
VERTEX
  5
73
  8
LAYER_1
  6
BYLAYER
 62
    7
 10
81.13634864165311
 20
165.3737917407898
 30
0
  0
VERTEX
  5
74
  8
LAYER_1
  6
BYLAYER
 62
    7
 10
80.79119706409386
 20
165.1405524711418
 30
0
  0
VERTEX
  5
75
  8
LAYER_1
  6
BYLAYER
 62
    7
 10
80.45386486593584
 20
164.8960241108628
 30
0
  0
VERTEX
  5
76
  8
LAYER_1
  6
BYLAYER
 62
    7
 10
80.12458643642017
 20
164.6404970101563
 30
0
  0
VERTEX
  5
77
  8
LAYER_1
  6
BYLAYER
 62
    7
 10
79.80359616478812
 20
164.3742615192259
 30
0
  0
VERTEX
  5
78
  8
LAYER_1
  6
BYLAYER
 62
    7
 10
79.49112844028086
 20
164.0976079882747
 30
0
  0
VERTEX
  5
79
  8
LAYER_1
  6
BYLAYER
 62
    7
 10
79.18741765213959
 20
163.8108267675064
 30
0
  0
VERTEX
  5
7A
  8
LAYER_1
  6
BYLAYER
 62
    7
 10
78.89269818960554
 20
163.5142082071243
 30
0
  0
VERTEX
  5
7B
  8
LAYER_1
  6
BYLAYER
 62
    7
 10
78.60720444191989
 20
163.2080426573318
 30
0
  0
VERTEX
  5
7C
  8
LAYER_1
  6
BYLAYER
 62
    7
 10
78.33117080039166
 20
162.8926204688049
 30
0
  0
VERTEX
  5
7D
  8
LAYER_1
  6
BYLAYER
 62
    7
 10
78.06491533400767
 20
162.5682511121444
 30
0
  0
VERTEX
  5
7E
  8
LAYER_1
  6
BYLAYER
 62
    7
 10
77.80906204240553
 20
162.2353139615529
 30
0
  0
VERTEX
  5
7F
  8
LAYER_1
  6
BYLAYER
 62
    7
 10
77.5643048218315
 20
161.8942043622539
 30
0
  0
VERTEX
  5
80
  8
LAYER_1
  6
BYLAYER
 62
    7
 10
77.33133756853181
 20
161.5453176594706
 30
0
  0
VERTEX
  5
81
  8
LAYER_1
  6
BYLAYER
 62
    7
 10
77.11085417875273
 20
161.189049198426
 30
0
  0
VERTEX
  5
82
  8
LAYER_1
  6
BYLAYER
 62
    7
 10
76.9035485487405
 20
160.8257943243436
 30
0
  0
VERTEX
  5
83
  8
LAYER_1
  6
BYLAYER
 62
    7
 10
76.71011457474134
 20
160.4559483824466
 30
0
  0
VERTEX
  5
84
  8
LAYER_1
  6
BYLAYER
 62
    7
 10
76.53124615300152
 20
160.0799067179583
 30
0
  0
VERTEX
  5
85
  8
LAYER_1
  6
BYLAYER
 62
    7
 10
76.36763717976727
 20
159.6980646761019
 30
0
  0
VERTEX
  5
86
  8
LAYER_1
  6
BYLAYER
 62
    7
 10
76.21998155128485
 20
159.3108176021006
 30
0
  0
VERTEX
  5
87
  8
LAYER_1
  6
BYLAYER
 62
    7
 10
76.0888961883478
 20
158.9185629363555
 30
0
  0
VERTEX
  5
88
  8
LAYER_1
  6
BYLAYER
 62
    7
 10
75.97378052384836
 20
158.5217312578016
 30
0
  0
VERTEX
  5
89
  8
LAYER_1
  6
BYLAYER
 62
    7
 10
75.87306198084183
 20
158.1207796022944
 30
0
  0
VERTEX
  5
8A
  8
LAYER_1
  6
BYLAYER
 62
    7
 10
75.78514088424045
 20
157.716165743268
 30
0
  0
VERTEX
  5
8B
  8
LAYER_1
  6
BYLAYER
 62
    7
 10
75.70841755895641
 20
157.3083474541564
 30
0
  0
VERTEX
  5
8C
  8
LAYER_1
  6
BYLAYER
 62
    7
 10
75.64129232990192
 20
156.8977825083935
 30
0
  0
VERTEX
  5
8D
  8
LAYER_1
  6
BYLAYER
 62
    7
 10
75.5821655219892
 20
156.4849286794134
 30
0
  0
VERTEX
  5
8E
  8
LAYER_1
  6
BYLAYER
 62
    7
 10
75.52943746013042
 20
156.07024374065
 30
0
  0
VERTEX
  5
8F
  8
LAYER_1
  6
BYLAYER
 62
    7
 10
75.48150846923784
 20
155.6541854655372
 30
0
  0
VERTEX
  5
90
  8
LAYER_1
  6
BYLAYER
 62
    7
 10
75.43677887422362
 20
155.2372116275093
 30
0
  0
VERTEX
  5
91
  8
LAYER_1
  6
BYLAYER
 62
    7
 10
75.393649
 20
154.81978
 30
0
  0
SEQEND
  5
92
  8
LAYER_1
  6
BYLAYER
 62
    7
  0
ENDSEC
  0
EOF
