999
dxfrw 0.6.3
  0
SECTION
  2
HEADER
  9
$ACADVER
  1
AC1009
  9
$DWGCODEPAGE
  3
ANSI_1252
  9
$INSBASE
 10
0
 20
0
 30
0
  9
$EXTMIN
 10
10000000000
 20
10000000000
 30
0
  9
$EXTMAX
 10
-10000000000
 20
-10000000000
 30
0
  9
$LIMMIN
 10
0
 20
0
  9
$LIMMAX
 10
420
 20
297
  9
$ORTHOMODE
 70
    0
  9
$REGENMODE
 70
    1
  9
$FILLMODE
 70
    1
  9
$QTEXTMODE
 70
    0
  9
$MIRRTEXT
 70
    0
  9
$DRAGMODE
 70
    2
  9
$LTSCALE
 40
1
  9
$OSMODE
 70
    0
  9
$ATTMODE
 70
    0
  9
$TEXTSIZE
 40
2.5
  9
$TRACEWID
 40
15.68
  9
$TEXTSTYLE
  7
STANDARD
  9
$CLAYER
  8
0
  9
$CELTYPE
  6
BYLAYER
  9
$CECOLOR
 62
  256
  9
$DIMSCALE
 40
2.5
  9
$DIMASZ
 40
2.5
  9
$DIMEXO
 40
0.625
  9
$DIMDLI
 40
3.75
  9
$DIMRND
 40
0
  9
$DIMDLE
 40
0
  9
$DIMEXE
 40
1.25
  9
$DIMTP
 40
0
  9
$DIMTM
 40
0
  9
$DIMTXT
 40
2.5
  9
$DIMCEN
 40
2.5
  9
$DIMTSZ
 40
0
  9
$DIMTOL
 70
    0
  9
$DIMLIM
 70
    0
  9
$DIMTIH
 70
    0
  9
$DIMTOH
 70
    0
  9
$DIMSE1
 70
    0
  9
$DIMSE2
 70
    0
  9
$DIMTAD
 70
    1
  9
$DIMZIN
 70
    8
  9
$DIMBLK
  1

  9
$DIMASO
 70
    1
  9
$DIMSHO
 70
    1
  9
$DIMPOST
  1

  9
$DIMAPOST
  1

  9
$DIMALT
 70
    0
  9
$DIMALTD
 70
    3
  9
$DIMALTF
 40
0.03937
  9
$DIMLFAC
 40
1
  9
$DIMTOFL
 70
    1
  9
$DIMTVP
 40
0
  9
$DIMTIX
 70
    0
  9
$DIMSOXD
 70
    0
  9
$DIMSAH
 70
    0
  9
$DIMBLK1
  1

  9
$DIMBLK2
  1

  9
$DIMSTYLE
  2
STANDARD
  9
$DIMCLRD
 70
    0
  9
$DIMCLRE
 70
    0
  9
$DIMCLRT
 70
    0
  9
$DIMTFAC
 40
1
  9
$DIMGAP
 40
0.625
  9
$LUNITS
 70
    2
  9
$LUPREC
 70
    4
  9
$SKETCHINC
 40
1
  9
$FILLETRAD
 40
0
  9
$AUNITS
 70
    0
  9
$AUPREC
 70
    2
  9
$MENU
  1
.
  9
$ELEVATION
 40
0
  9
$PELEVATION
 40
0
  9
$THICKNESS
 40
0
  9
$LIMCHECK
 70
    0
  9
$BLIPMODE
 70
    0
  9
$CHAMFERA
 40
0
  9
$CHAMFERB
 40
0
  9
$SKPOLY
 70
    0
  9
$USRTIMER
 70
    1
  9
$ANGBASE
 50
0
  9
$ANGDIR
 70
    0
  9
$PDMODE
 70
   34
  9
$PDSIZE
 40
0
  9
$PLINEWID
 40
0
  9
$COORDS
 70
    2
  9
$SPLFRAME
 70
    0
  9
$SPLINETYPE
 70
    2
  9
$SPLINESEGS
 70
    8
  9
$ATTDIA
 70
    1
  9
$ATTREQ
 70
    1
  9
$HANDLING
 70
    1
  9
$HANDSEED
  5
20000
  9
$SURFTAB1
 70
    6
  9
$SURFTAB2
 70
    6
  9
$SURFTYPE
 70
    6
  9
$SURFU
 70
    6
  9
$SURFV
 70
    6
  9
$UCSNAME
  2

  9
$UCSORG
 10
0
 20
0
 30
0
  9
$UCSXDIR
 10
1
 20
0
 30
0
  9
$UCSYDIR
 10
0
 20
1
 30
0
  9
$PUCSNAME
  2

  9
$PUCSORG
 10
0
 20
0
 30
0
  9
$PUCSXDIR
 10
1
 20
0
 30
0
  9
$PUCSYDIR
 10
0
 20
1
 30
0
  9
$USERI1
 70
    0
  9
$USERI2
 70
    0
  9
$USERI3
 70
    0
  9
$USERI4
 70
    0
  9
$USERI5
 70
    0
  9
$USERR1
 40
0
  9
$USERR2
 40
0
  9
$USERR3
 40
0
  9
$USERR4
 40
0
  9
$USERR5
 40
0
  9
$WORLDVIEW
 70
    1
  9
$SHADEDGE
 70
    3
  9
$SHADEDIF
 70
   70
  9
$TILEMODE
 70
    1
  9
$MAXACTVP
 70
   64
  9
$PLIMCHECK
 70
    0
  9
$PEXTMIN
 10
0
 20
0
 30
0
  9
$PEXTMAX
 10
0
 20
0
 30
0
  9
$GRIDMODE
 70
    0
  9
$SNAPSTYLE
 70
    0
  9
$PLIMMIN
 10
0
 20
0
  9
$PLIMMAX
 10
210
 20
297
  9
$UNITMODE
 70
    0
  9
$VISRETAIN
 70
    1
  9
$PLINEGEN
 70
    0
  9
$PSLTSCALE
 70
    1
  0
ENDSEC
  0
SECTION
  2
TABLES
  0
TABLE
  2
VPORT
 70
    1
  0
VPORT
  2
*ACTIVE
 70
    0
 10
0
 20
0
 11
1
 21
1
 12
68.99786528284194
 22
92.67459961406753
 13
0
 23
0
 14
10
 24
10
 15
10
 25
10
 16
0
 26
0
 36
1
 17
0
 27
0
 37
0
 40
57.21030656000003
 41
1.692717584369449
 42
50
 43
0
 44
0
 50
0
 51
0
 71
    0
 72
  100
 73
    1
 74
    3
 75
    0
 76
    0
 77
    0
 78
    0
  0
ENDTAB
  0
TABLE
  2
LTYPE
 70
    4
  0
LTYPE
  2
BYBLOCK
 70
    0
  3

 72
   65
 73
    0
 40
0
  0
LTYPE
  2
BYLAYER
 70
    0
  3

 72
   65
 73
    0
 40
0
  0
LTYPE
  2
CONTINUOUS
 70
    0
  3
Solid line
 72
   65
 73
    0
 40
0
  0
LTYPE
  2
DOT
 70
    0
  3
Dot . . . . . . . . . . . . . . . . . . . . . .
 72
   65
 73
    2
 40
6.35
 49
0
 49
-6.35
  0
LTYPE
  2
DOTTINY
 70
    0
  3
Dot (.15x) .....................................
 72
   65
 73
    2
 40
0.9525
 49
0
 49
-0.9525
  0
LTYPE
  2
DOT2
 70
    0
  3
Dot (.5x) .....................................
 72
   65
 73
    2
 40
3.175
 49
0
 49
-3.175
  0
LTYPE
  2
DOTX2
 70
    0
  3
Dot (2x) .  .  .  .  .  .  .  .  .  .  .  .  .
 72
   65
 73
    2
 40
12.7
 49
0
 49
-12.7
  0
LTYPE
  2
DASHED
 70
    0
  3
Dashed _ _ _ _ _ _ _ _ _ _ _ _ _ _ _ _ _
 72
   65
 73
    2
 40
19.05
 49
12.7
 49
-6.35
  0
LTYPE
  2
DASHEDTINY
 70
    0
  3
Dashed (.15x) _ _ _ _ _ _ _ _ _ _ _ _ _ _ _ _ _
 72
   65
 73
    2
 40
2.8575
 49
1.905
 49
-0.9525
  0
LTYPE
  2
DASHED2
 70
    0
  3
Dashed (.5x) _ _ _ _ _ _ _ _ _ _ _ _ _ _ _ _ _
 72
   65
 73
    2
 40
9.524999999999999
 49
6.35
 49
-3.175
  0
LTYPE
  2
DASHEDX2
 70
    0
  3
Dashed (2x) ____  ____  ____  ____  ____  ___
 72
   65
 73
    2
 40
38.09999999999999
 49
25.4
 49
-12.7
  0
LTYPE
  2
DASHDOT
 70
    0
  3
Dash dot __ . __ . __ . __ . __ . __ . __ . __
 72
   65
 73
    4
 40
25.4
 49
12.7
 49
-6.35
 49
0
 49
-6.35
  0
LTYPE
  2
DASHDOTTINY
 70
    0
  3
Dash dot (.15x) _._._._._._._._._._._._._._._.
 72
   65
 73
    4
 40
3.81
 49
1.905
 49
-0.9525
 49
0
 49
-0.9525
  0
LTYPE
  2
DASHDOT2
 70
    0
  3
Dash dot (.5x) _._._._._._._._._._._._._._._.
 72
   65
 73
    4
 40
12.7
 49
6.35
 49
-3.175
 49
0
 49
-3.175
  0
LTYPE
  2
DASHDOTX2
 70
    0
  3
Dash dot (2x) ____  .  ____  .  ____  .  ___
 72
   65
 73
    4
 40
50.8
 49
25.4
 49
-12.7
 49
0
 49
-12.7
  0
LTYPE
  2
DIVIDE
 70
    0
  3
Divide ____ . . ____ . . ____ . . ____ . . ____
 72
   65
 73
    6
 40
31.75
 49
12.7
 49
-6.35
 49
0
 49
-6.35
 49
0
 49
-6.35
  0
LTYPE
  2
DIVIDETINY
 70
    0
  3
Divide (.15x) __..__..__..__..__..__..__..__.._
 72
   65
 73
    6
 40
4.7625
 49
1.905
 49
-0.9525
 49
0
 49
-0.9525
 49
0
 49
-0.9525
  0
LTYPE
  2
DIVIDE2
 70
    0
  3
Divide (.5x) __..__..__..__..__..__..__..__.._
 72
   65
 73
    6
 40
15.875
 49
6.35
 49
-3.175
 49
0
 49
-3.175
 49
0
 49
-3.175
  0
LTYPE
  2
DIVIDEX2
 70
    0
  3
Divide (2x) ________  .  .  ________  .  .  _
 72
   65
 73
    6
 40
63.5
 49
25.4
 49
-12.7
 49
0
 49
-12.7
 49
0
 49
-12.7
  0
LTYPE
  2
BORDER
 70
    0
  3
Border __ __ . __ __ . __ __ . __ __ . __ __ .
 72
   65
 73
    6
 40
44.45
 49
12.7
 49
-6.35
 49
12.7
 49
-6.35
 49
0
 49
-6.35
  0
LTYPE
  2
BORDERTINY
 70
    0
  3
Border (.15x) __.__.__.__.__.__.__.__.__.__.__.
 72
   65
 73
    6
 40
6.6675
 49
1.905
 49
-0.9525
 49
1.905
 49
-0.9525
 49
0
 49
-0.9525
  0
LTYPE
  2
BORDER2
 70
    0
  3
Border (.5x) __.__.__.__.__.__.__.__.__.__.__.
 72
   65
 73
    6
 40
22.225
 49
6.35
 49
-3.175
 49
6.35
 49
-3.175
 49
0
 49
-3.175
  0
LTYPE
  2
BORDERX2
 70
    0
  3
Border (2x) ____  ____  .  ____  ____  .  ___
 72
   65
 73
    6
 40
88.89999999999999
 49
25.4
 49
-12.7
 49
25.4
 49
-12.7
 49
0
 49
-12.7
  0
LTYPE
  2
CENTER
 70
    0
  3
Center ____ _ ____ _ ____ _ ____ _ ____ _ ____
 72
   65
 73
    4
 40
50.8
 49
31.75
 49
-6.35
 49
6.35
 49
-6.35
  0
LTYPE
  2
CENTERTINY
 70
    0
  3
Center (.15x) ___ _ ___ _ ___ _ ___ _ ___ _ ___
 72
   65
 73
    4
 40
7.62
 49
4.7625
 49
-0.9525
 49
0.9525
 49
-0.9525
  0
LTYPE
  2
CENTER2
 70
    0
  3
Center (.5x) ___ _ ___ _ ___ _ ___ _ ___ _ ___
 72
   65
 73
    4
 40
28.575
 49
19.05
 49
-3.175
 49
3.175
 49
-3.175
  0
LTYPE
  2
CENTERX2
 70
    0
  3
Center (2x) ________  __  ________  __  _____
 72
   65
 73
    4
 40
101.6
 49
63.5
 49
-12.7
 49
12.7
 49
-12.7
  0
ENDTAB
  0
TABLE
  2
LAYER
 70
    1
  0
LAYER
  2
0
 70
    0
 62
    7
  6
CONTINUOUS
  0
LAYER
  2
LAYER_1
 70
    0
 62
    7
  6
CONTINUOUS
  0
ENDTAB
  0
TABLE
  2
STYLE
 70
    3
  0
STYLE
  2
STANDARD
 70
    0
 40
0
 41
1
 50
0
 71
    0
 42
1
  3
TXT
  4

  0
ENDTAB
  0
TABLE
  2
VIEW
 70
    0
  0
ENDTAB
  0
TABLE
  2
UCS
 70
    0
  0
ENDTAB
  0
TABLE
  2
APPID
 70
    1
  0
APPID
  2
ACAD
 70
    0
  0
APPID
  2
LIBRECAD
 70
    0
  0
ENDTAB
  0
TABLE
  2
DIMSTYLE
 70
    1
  0
DIMSTYLE
  2
STANDARD
 70
    0
  3

  4

  5

  6

  7

 40
1
 41
2.5
 42
0.625
 43
0.38
 44
1.25
 45
0
 46
0
 47
0
 48
0
 49
1
140
2.5
141
0.09
142
2.5
143
25.4
144
1
145
0
146
1
147
0.625
 71
    0
 72
    0
 73
    0
 74
    1
 75
    0
 76
    0
 77
    0
 78
    1
170
    0
171
    2
172
    0
173
    0
174
    0
175
    0
176
    0
177
    0
178
    0
  0
ENDTAB
  0
ENDSEC
  0
SECTION
  2
BLOCKS
  0
BLOCK
  8
0
  2
$MODEL_SPACE
 70
    0
 10
0
 20
0
 30
0
  3
$MODEL_SPACE
  1

  0
ENDBLK
  8
0
  0
BLOCK
  8
0
  2
$PAPER_SPACE
 70
    0
 10
0
 20
0
 30
0
  3
$PAPER_SPACE
  1

  0
ENDBLK
  8
0
  0
ENDSEC
  0
SECTION
  2
ENTITIES
  0
POLYLINE
  5
31
  8
LAYER_1
  6
BYLAYER
 62
    7
 66
    1
 10
0
 20
0
 30
0
 70
    0
  0
VERTEX
  5
32
  8
LAYER_1
  6
BYLAYER
 62
    7
 10
100.693638
 20
167.418313
 30
0
  0
VERTEX
  5
33
  8
LAYER_1
  6
BYLAYER
 62
    7
 10
100.6505078806541
 20
167.0008813681566
 30
0
  0
VERTEX
  5
34
  8
LAYER_1
  6
BYLAYER
 62
    7
 10
100.6057781109938
 20
166.5839075178488
 30
0
  0
VERTEX
  5
35
  8
LAYER_1
  6
BYLAYER
 62
    7
 10
100.557849006844
 20
166.1678492235951
 30
0
  0
VERTEX
  5
36
  8
LAYER_1
  6
BYLAYER
 62
    7
 10
100.5051208840294
 20
165.7531642599134
 30
0
  0
VERTEX
  5
37
  8
LAYER_1
  6
BYLAYER
 62
    7
 10
100.4459940583746
 20
165.340310401322
 30
0
  0
VERTEX
  5
38
  8
LAYER_1
  6
BYLAYER
 62
    7
 10
100.3788688457046
 20
164.9297454223392
 30
0
  0
VERTEX
  5
39
  8
LAYER_1
  6
BYLAYER
 62
    7
 10
100.3021455618439
 20
164.521927097483
 30
0
  0
VERTEX
  5
3A
  8
LAYER_1
  6
BYLAYER
 62
    7
 10
100.2142245226175
 20
164.1173132012717
 30
0
  0
VERTEX
  5
3B
  8
LAYER_1
  6
BYLAYER
 62
    7
 10
100.11350604385
 20
163.7163615082235
 30
0
  0
VERTEX
  5
3C
  8
LAYER_1
  6
BYLAYER
 62
    7
 10
99.99839044136618
 20
163.3195297928566
 30
0
  0
VERTEX
  5
3D
  8
LAYER_1
  6
BYLAYER
 62
    7
 10
99.86730512926259
 20
162.9272750921004
 30
0
  0
VERTEX
  5
3E
  8
LAYER_1
  6
BYLAYER
 62
    7
 10
99.71964953608656
 20
162.5400279855927
 30
0
  0
VERTEX
  5
3F
  8
LAYER_1
  6
BYLAYER
 62
    7
 10
99.55604058406611
 20
162.1581859139727
 30
0
  0
VERTEX
  5
40
  8
LAYER_1
  6
BYLAYER
 62
    7
 10
99.37717217124728
 20
161.7821442226723
 30
0
  0
VERTEX
  5
41
  8
LAYER_1
  6
BYLAYER
 62
    7
 10
99.18373819567613
 20
161.4122982571235
 30
0
  0
VERTEX
  5
42
  8
LAYER_1
  6
BYLAYER
 62
    7
 10
98.97643255539872
 20
161.0490433627583
 30
0
  0
VERTEX
  5
43
  8
LAYER_1
  6
BYLAYER
 62
    7
 10
98.75594914846107
 20
160.6927748850086
 30
0
  0
VERTEX
  5
44
  8
LAYER_1
  6
BYLAYER
 62
    7
 10
98.52298187290928
 20
160.3438881693064
 30
0
  0
VERTEX
  5
45
  8
LAYER_1
  6
BYLAYER
 62
    7
 10
98.27822462678941
 20
160.0027785610838
 30
0
  0
VERTEX
  5
46
  8
LAYER_1
  6
BYLAYER
 62
    7
 10
98.02237130814747
 20
159.6698414057726
 30
0
  0
VERTEX
  5
47
  8
LAYER_1
  6
BYLAYER
 62
    7
 10
97.75611581502959
 20
159.3454720488048
 30
0
  0
VERTEX
  5
48
  8
LAYER_1
  6
BYLAYER
 62
    7
 10
97.48008214799677
 20
159.0300498646393
 30
0
  0
VERTEX
  5
49
  8
LAYER_1
  6
BYLAYER
 62
    7
 10
97.19458837533674
 20
158.7238843248459
 30
0
  0
VERTEX
  5
4A
  8
LAYER_1
  6
BYLAYER
 62
    7
 10
96.89986888781802
 20
158.4272657814022
 30
0
  0
VERTEX
  5
4B
  8
LAYER_1
  6
BYLAYER
 62
    7
 10
96.59615807414185
 20
158.1404845858137
 30
0
  0
VERTEX
  5
4C
  8
LAYER_1
  6
BYLAYER
 62
    7
 10
96.28369032300951
 20
157.8638310895854
 30
0
  0
VERTEX
  5
4D
  8
LAYER_1
  6
BYLAYER
 62
    7
 10
95.96270002312218
 20
157.5975956442227
 30
0
  0
VERTEX
  5
4E
  8
LAYER_1
  6
BYLAYER
 62
    7
 10
95.63342156318116
 20
157.3420686012308
 30
0
  0
VERTEX
  5
4F
  8
LAYER_1
  6
BYLAYER
 62
    7
 10
95.29608933188774
 20
157.0975403121152
 30
0
  0
VERTEX
  5
50
  8
LAYER_1
  6
BYLAYER
 62
    7
 10
94.95093771794306
 20
156.8643011283809
 30
0
  0
VERTEX
  5
51
  8
LAYER_1
  6
BYLAYER
 62
    7
 10
94.59820111004844
 20
156.6426414015334
 30
0
  0
VERTEX
  5
52
  8
LAYER_1
  6
BYLAYER
 62
    7
 10
94.23811568559822
 20
156.4328503975702
 30
0
  0
VERTEX
  5
53
  8
LAYER_1
  6
BYLAYER
 62
    7
 10
93.87100680176559
 20
156.2351632617865
 30
0
  0
VERTEX
  5
54
  8
LAYER_1
  6
BYLAYER
 62
    7
 10
93.49732851407366
 20
156.0497370360644
 30
0
  0
VERTEX
  5
55
  8
LAYER_1
  6
BYLAYER
 62
    7
 10
93.11754490535061
 20
155.8767226769962
 30
0
  0
VERTEX
  5
56
  8
LAYER_1
  6
BYLAYER
 62
    7
 10
92.73212005842454
 20
155.7162711411741
 30
0
  0
VERTEX
  5
57
  8
LAYER_1
  6
BYLAYER
 62
    7
 10
92.34151805612362
 20
155.5685333851905
 30
0
  0
VERTEX
  5
58
  8
LAYER_1
  6
BYLAYER
 62
    7
 10
91.94620298127595
 20
155.4336603656377
 30
0
  0
VERTEX
  5
59
  8
LAYER_1
  6
BYLAYER
 62
    7
 10
91.54663891670971
 20
155.3118030391081
 30
0
  0
VERTEX
  5
5A
  8
LAYER_1
  6
BYLAYER
 62
    7
 10
91.14328994525302
 20
155.2031123621938
 30
0
  0
VERTEX
  5
5B
  8
LAYER_1
  6
BYLAYER
 62
    7
 10
90.73662014973399
 20
155.1077392914872
 30
0
  0
VERTEX
  5
5C
  8
LAYER_1
  6
BYLAYER
 62
    7
 10
90.32709361298078
 20
155.0258347835806
 30
0
  0
VERTEX
  5
5D
  8
LAYER_1
  6
BYLAYER
 62
    7
 10
89.91517237671133
 20
154.957539695449
 30
0
  0
VERTEX
  5
5E
  8
LAYER_1
  6
BYLAYER
 62
    7
 10
89.50129996794593
 20
154.9029032714924
 30
0
  0
VERTEX
  5
5F
  8
LAYER_1
  6
BYLAYER
 62
    7
 10
89.08591005330291
 20
154.8619259658565
 30
0
  0
VERTEX
  5
60
  8
LAYER_1
  6
BYLAYER
 62
    7
 10
88.66943620761879
 20
154.834607778541
 30
0
  0
VERTEX
  5
61
  8
LAYER_1
  6
BYLAYER
 62
    7
 10
88.25231200573015
 20
154.8209487095461
 30
0
  0
VERTEX
  5
62
  8
LAYER_1
  6
BYLAYER
 62
    7
 10
87.83497102247345
 20
154.8209487588717
 30
0
  0
VERTEX
  5
63
  8
LAYER_1
  6
BYLAYER
 62
    7
 10
87.4178468326853
 20
154.8346079265176
 30
0
  0
VERTEX
  5
64
  8
LAYER_1
  6
BYLAYER
 62
    7
 10
87.00137301120225
 20
154.8619262124842
 30
0
  0
VERTEX
  5
65
  8
LAYER_1
  6
BYLAYER
 62
    7
 10
86.58598313286083
 20
154.9029036167712
 30
0
  0
VERTEX
  5
66
  8
LAYER_1
  6
BYLAYER
 62
    7
 10
86.17211077249753
 20
154.9575401393788
 30
0
  0
VERTEX
  5
67
  8
LAYER_1
  6
BYLAYER
 62
    7
 10
85.76018959673205
 20
155.0258353261254
 30
0
  0
VERTEX
  5
68
  8
LAYER_1
  6
BYLAYER
 62
    7
 10
85.3506631320563
 20
155.1077399320092
 30
0
  0
VERTEX
  5
69
  8
LAYER_1
  6
BYLAYER
 62
    7
 10
84.94399341829995
 20
155.2031131001998
 30
0
  0
VERTEX
  5
6A
  8
LAYER_1
  6
BYLAYER
 62
    7
 10
84.5406445362032
 20
155.3118038745783
 30
0
  0
VERTEX
  5
6B
  8
LAYER_1
  6
BYLAYER
 62
    7
 10
84.14108056650622
 20
155.4336612990253
 30
0
  0
VERTEX
  5
6C
  8
LAYER_1
  6
BYLAYER
 62
    7
 10
83.74576558994926
 20
155.5685344174216
 30
0
  0
VERTEX
  5
6D
  8
LAYER_1
  6
BYLAYER
 62
    7
 10
83.35516368727248
 20
155.7162722736481
 30
0
  0
VERTEX
  5
6E
  8
LAYER_1
  6
BYLAYER
 62
    7
 10
82.9697389392161
 20
155.8767239115856
 30
0
  0
VERTEX
  5
6F
  8
LAYER_1
  6
BYLAYER
 62
    7
 10
82.58995542652031
 20
156.0497383751149
 30
0
  0
VERTEX
  5
70
  8
LAYER_1
  6
BYLAYER
 62
    7
 10
82.21627722992532
 20
156.2351647081167
 30
0
  0
VERTEX
  5
71
  8
LAYER_1
  6
BYLAYER
 62
    7
 10
81.84916843017133
 20
156.4328519544718
 30
0
  0
VERTEX
  5
72
  8
LAYER_1
  6
BYLAYER
 62
    7
 10
81.48908308052791
 20
156.6426430724991
 30
0
  0
VERTEX
  5
73
  8
LAYER_1
  6
BYLAYER
 62
    7
 10
81.13634653727485
 20
156.864302915724
 30
0
  0
VERTEX
  5
74
  8
LAYER_1
  6
BYLAYER
 62
    7
 10
80.79119497956421
 20
157.0975422170506
 30
0
  0
VERTEX
  5
75
  8
LAYER_1
  6
BYLAYER
 62
    7
 10
80.45386279799349
 20
157.3420706239284
 30
0
  0
VERTEX
  5
76
  8
LAYER_1
  6
BYLAYER
 62
    7
 10
80.12458438316033
 20
157.5975977838071
 30
0
  0
VERTEX
  5
77
  8
LAYER_1
  6
BYLAYER
 62
    7
 10
79.80359412566219
 20
157.8638333441365
 30
0
  0
VERTEX
  5
78
  8
LAYER_1
  6
BYLAYER
 62
    7
 10
79.49112641609661
 20
158.1404869523663
 30
0
  0
VERTEX
  5
79
  8
LAYER_1
  6
BYLAYER
 62
    7
 10
79.18741564506118
 20
158.427268255946
 30
0
  0
VERTEX
  5
7A
  8
LAYER_1
  6
BYLAYER
 62
    7
 10
78.89269620315341
 20
158.7238869023256
 30
0
  0
VERTEX
  5
7B
  8
LAYER_1
  6
BYLAYER
 62
    7
 10
78.60720248097088
 20
159.0300525389545
 30
0
  0
VERTEX
  5
7C
  8
LAYER_1
  6
BYLAYER
 62
    7
 10
78.33116887117988
 20
159.3454748128099
 30
0
  0
VERTEX
  5
7D
  8
LAYER_1
  6
BYLAYER
 62
    7
 10
78.06491344503561
 20
159.6698442511561
 30
0
  0
VERTEX
  5
7E
  8
LAYER_1
  6
BYLAYER
 62
    7
 10
77.80906020336887
 20
160.0027814794384
 30
0
  0
VERTEX
  5
7F
  8
LAYER_1
  6
BYLAYER
 62
    7
 10
77.56430304236217
 20
160.3438911527201
 30
0
  0
VERTEX
  5
80
  8
LAYER_1
  6
BYLAYER
 62
    7
 10
77.33133585819806
 20
160.6927779260644
 30
0
  0
VERTEX
  5
81
  8
LAYER_1
  6
BYLAYER
 62
    7
 10
77.11085254705903
 20
161.0490464545345
 30
0
  0
VERTEX
  5
82
  8
LAYER_1
  6
BYLAYER
 62
    7
 10
76.90354700512768
 20
161.4123013931936
 30
0
  0
VERTEX
  5
83
  8
LAYER_1
  6
BYLAYER
 62
    7
 10
76.71011312858647
 20
161.7821473971049
 30
0
  0
VERTEX
  5
84
  8
LAYER_1
  6
BYLAYER
 62
    7
 10
76.53124481361799
 20
162.1581891213318
 30
0
  0
VERTEX
  5
85
  8
LAYER_1
  6
BYLAYER
 62
    7
 10
76.36763595640475
 20
162.5400312209374
 30
0
  0
VERTEX
  5
86
  8
LAYER_1
  6
BYLAYER
 62
    7
 10
76.21998045312931
 20
162.9272783509849
 30
0
  0
VERTEX
  5
87
  8
LAYER_1
  6
BYLAYER
 62
    7
 10
76.08889522347829
 20
163.3195330712437
 30
0
  0
VERTEX
  5
88
  8
LAYER_1
  6
BYLAYER
 62
    7
 10
75.97377969458783
 20
163.7163648014391
 30
0
  0
VERTEX
  5
89
  8
LAYER_1
  6
BYLAYER
 62
    7
 10
75.873061286189
 20
164.1173165033366
 30
0
  0
VERTEX
  5
8A
  8
LAYER_1
  6
BYLAYER
 62
    7
 10
75.78514032030932
 20
164.5219304011046
 30
0
  0
VERTEX
  5
8B
  8
LAYER_1
  6
BYLAYER
 62
    7
 10
75.70841711897633
 20
164.9297487189115
 30
0
  0
VERTEX
  5
8C
  8
LAYER_1
  6
BYLAYER
 62
    7
 10
75.64129200421753
 20
165.3403136809257
 30
0
  0
VERTEX
  5
8D
  8
LAYER_1
  6
BYLAYER
 62
    7
 10
75.58216529806046
 20
165.7531675113156
 30
0
  0
VERTEX
  5
8E
  8
LAYER_1
  6
BYLAYER
 62
    7
 10
75.52943732253266
 20
166.1678524342495
 30
0
  0
VERTEX
  5
8F
  8
LAYER_1
  6
BYLAYER
 62
    7
 10
75.48150839966164
 20
166.583910673896
 30
0
  0
VERTEX
  5
90
  8
LAYER_1
  6
BYLAYER
 62
    7
 10
75.43677885147491
 20
167.0008844544234
 30
0
  0
VERTEX
  5
91
  8
LAYER_1
  6
BYLAYER
 62
    7
 10
75.393649
 20
167.418316
 30
0
  0
SEQEND
  5
92
  8
LAYER_1
  6
BYLAYER
 62
    7
  0
ENDSEC
  0
EOF
